<svg xmlns="http://www.w3.org/2000/svg" width="84" height="84" viewBox="0 0 84 84">
  <g id="Grupo_1185850" data-name="Grupo 1185850" transform="translate(-266.711 -4849)">
    <rect id="Rectángulo_458788" data-name="Rectángulo 458788" width="84" height="84" rx="42" transform="translate(266.711 4849)" fill="#1e535a"/>
    <g id="seleccione" transform="translate(283.434 4865.783)">
      <path id="Trazado_1032871" data-name="Trazado 1032871" d="M28.781,36.61a17.131,17.131,0,0,1-7.157-1.944c-3.046-1.445-4.514-1.394-5.485-1.348a2.819,2.819,0,0,1-2.4-.744c-.282-.282-1.565-1.82.956-4.341a6.329,6.329,0,0,1,4.48-1.641l-8.733-8.733a3.061,3.061,0,0,1,.006-4.337,3.066,3.066,0,0,1,2.169-.9h0a3.035,3.035,0,0,1,2.165.9l3.627,3.629a3.012,3.012,0,0,1,.575-.792,3.059,3.059,0,0,1,3.079-.762,3.071,3.071,0,0,1,4.9-1.3,3.021,3.021,0,0,1,.577-.8,3.071,3.071,0,0,1,4.339-.006l5.687,5.687c3.57,3.568,3.172,8.741-.971,12.886l-.027.027-2.353,2.351a7.413,7.413,0,0,1-5.434,2.174ZM16.71,31.2a13.154,13.154,0,0,1,5.818,1.563c6.287,2.985,8.836,1.535,10.209.181l2.372-2.372a.2.2,0,0,1,.021-.021c2.511-2.54,4.232-6.607.967-9.872l-5.7-5.7a.967.967,0,0,0-1.369,1.365l0,0,1.422,1.422a1.054,1.054,0,0,1-1.489,1.491L25.64,15.936A.966.966,0,0,0,24.276,17.3l2.37,2.37a1.054,1.054,0,0,1-1.489,1.491l-3.317-3.317a.968.968,0,0,0-1.645.691.948.948,0,0,0,.278.674l2.37,2.37a1.054,1.054,0,1,1-1.489,1.491L13.3,15.018a.952.952,0,0,0-.676-.282.978.978,0,0,0-.969.969.95.95,0,0,0,.28.676l10.9,10.9a1.048,1.048,0,0,1,.16,1.281,1.062,1.062,0,0,1-1.2.474c-.04-.011-3.812-1.093-5.607.7-.815.817-.935,1.319-.914,1.43.088.061.11.084.788.057.2-.013.413-.021.655-.021ZM28.29,14.237h.021Z" transform="translate(10.559 12.823)" fill="#fff"/>
      <path id="Trazado_1032872" data-name="Trazado 1032872" d="M38.967,15.744H7.372A7.372,7.372,0,0,1,7.372,1H38.967a7.372,7.372,0,0,1,0,14.744ZM7.372,3.106a5.266,5.266,0,0,0,0,10.532H38.967a5.266,5.266,0,1,0,0-10.532Z" transform="translate(0 0)" fill="#fff"/>
      <path id="Trazado_1032873" data-name="Trazado 1032873" d="M6.159,9.319A3.159,3.159,0,1,1,9.319,6.159,3.163,3.163,0,0,1,6.159,9.319Zm0-4.213A1.053,1.053,0,1,0,7.213,6.159,1.055,1.055,0,0,0,6.159,5.106Z" transform="translate(3.319 2.213)" fill="#fff"/>
      <path id="Trazado_1032874" data-name="Trazado 1032874" d="M11.159,9.319a3.159,3.159,0,1,1,3.159-3.159A3.163,3.163,0,0,1,11.159,9.319Zm0-4.213a1.053,1.053,0,1,0,1.053,1.053A1.055,1.055,0,0,0,11.159,5.106Z" transform="translate(8.85 2.213)" fill="#fff"/>
      <path id="Trazado_1032875" data-name="Trazado 1032875" d="M15.8,21.744H7.372A7.372,7.372,0,0,1,7.372,7H38.967a7.38,7.38,0,0,1,7.372,7.372,1.053,1.053,0,1,1-2.106,0,5.272,5.272,0,0,0-5.266-5.266H7.372a5.266,5.266,0,0,0,0,10.532H15.8a1.053,1.053,0,1,1,0,2.106Z" transform="translate(0 6.638)" fill="#fff"/>
      <path id="Trazado_1032876" data-name="Trazado 1032876" d="M6.159,15.319a3.159,3.159,0,1,1,3.159-3.159A3.163,3.163,0,0,1,6.159,15.319Zm0-4.213a1.053,1.053,0,1,0,1.053,1.053A1.055,1.055,0,0,0,6.159,11.106Z" transform="translate(3.319 8.85)" fill="#fff"/>
      <path id="Trazado_1032877" data-name="Trazado 1032877" d="M11.159,15.319a3.159,3.159,0,1,1,3.159-3.159A3.163,3.163,0,0,1,11.159,15.319Zm0-4.213a1.053,1.053,0,1,0,1.053,1.053A1.055,1.055,0,0,0,11.159,11.106Z" transform="translate(8.85 8.85)" fill="#fff"/>
      <path id="Trazado_1032878" data-name="Trazado 1032878" d="M20.01,27.744H7.372A7.372,7.372,0,0,1,7.372,13H15.8a1.053,1.053,0,1,1,0,2.106H7.372a5.266,5.266,0,1,0,0,10.532H20.01a1.053,1.053,0,1,1,0,2.106Z" transform="translate(0 13.276)" fill="#fff"/>
      <path id="Trazado_1032879" data-name="Trazado 1032879" d="M6.159,21.319a3.159,3.159,0,1,1,3.159-3.159A3.163,3.163,0,0,1,6.159,21.319Zm0-4.213a1.053,1.053,0,1,0,1.053,1.053A1.055,1.055,0,0,0,6.159,17.106Z" transform="translate(3.319 15.488)" fill="#fff"/>
    </g>
  </g>
</svg>
