<svg xmlns="http://www.w3.org/2000/svg" width="84" height="84" viewBox="0 0 84 84">
  <g id="Grupo_1185853" data-name="Grupo 1185853" transform="translate(-1249.711 -4849)">
    <rect id="Rectángulo_458792" data-name="Rectángulo 458792" width="84" height="84" rx="42" transform="translate(1249.711 4849)" fill="#1e535a"/>
    <g id="descargar" transform="translate(1264.399 4864)">
      <path id="Trazado_1032880" data-name="Trazado 1032880" d="M39.8,9.049a1.677,1.677,0,0,1,1.165,2.883L30.9,21.652a1.677,1.677,0,0,1-2.33,0l-10.061-9.72a1.677,1.677,0,0,1,1.165-2.883h2.58V3.677A1.677,1.677,0,0,1,23.934,2H35.543A1.677,1.677,0,0,1,37.22,3.677V9.049ZM23.826,12.4l5.912,5.711L35.65,12.4h-.107a1.677,1.677,0,0,1-1.677-1.677V5.354H25.61v5.372A1.677,1.677,0,0,1,23.934,12.4Z" transform="translate(-2.585)" fill="#fff" fill-rule="evenodd"/>
      <path id="Trazado_1032881" data-name="Trazado 1032881" d="M50.123,43.677A1.677,1.677,0,0,0,48.446,42H31.677A1.677,1.677,0,0,0,30,43.677v6.708a1.677,1.677,0,0,0,1.677,1.677H48.446a1.677,1.677,0,0,0,1.677-1.677ZM33.354,45.354H46.769v3.354H33.354Z" transform="translate(-4.524 -6.462)" fill="#fff" fill-rule="evenodd"/>
      <path id="Trazado_1032882" data-name="Trazado 1032882" d="M12.9,17h2.144l3.472,3.354H12.9a1.677,1.677,0,0,0-1.342.671L7.031,27.061H47.276l-4.528-6.037a1.677,1.677,0,0,0-1.342-.671H35.791L39.262,17h2.144a5.031,5.031,0,0,1,4.025,2.012l6.54,8.72a1.677,1.677,0,0,1,.335,1.006V49.7a5.031,5.031,0,0,1-5.031,5.031H7.031A5.031,5.031,0,0,1,2,49.7V28.738a1.677,1.677,0,0,1,.335-1.006l6.54-8.72A5.031,5.031,0,0,1,12.9,17ZM5.354,30.415h43.6V49.7a1.677,1.677,0,0,1-1.677,1.677H7.031A1.677,1.677,0,0,1,5.354,49.7Z" transform="translate(0 -2.423)" fill="#fff" fill-rule="evenodd"/>
      <path id="Trazado_1032883" data-name="Trazado 1032883" d="M11.159,15.319a3.159,3.159,0,1,1,3.159-3.159A3.163,3.163,0,0,1,11.159,15.319Zm0-4.213a1.053,1.053,0,1,0,1.053,1.053A1.055,1.055,0,0,0,11.159,11.106Z" transform="translate(8.885 28.408)" fill="#fff"/>
    </g>
  </g>
</svg>
