<svg xmlns="http://www.w3.org/2000/svg" xmlns:xlink="http://www.w3.org/1999/xlink" width="396" height="194" viewBox="0 0 396 194">
  <defs>
    <clipPath id="clip-path">
      <rect id="Rectángulo_459763" data-name="Rectángulo 459763" width="307.868" height="174.518" fill="none"/>
    </clipPath>
    <clipPath id="clip-path-2">
      <rect id="Rectángulo_459764" data-name="Rectángulo 459764" width="50" height="48" transform="translate(0.257 0.205)" fill="#5e1f1f"/>
    </clipPath>
  </defs>
  <g id="Grupo_1186402" data-name="Grupo 1186402" transform="translate(-289.711 -3461)">
    <rect id="Rectángulo_459177" data-name="Rectángulo 459177" width="396" height="194" transform="translate(289.711 3461)" fill="#83aed5"/>
    <g id="Grupo_1186398" data-name="Grupo 1186398" transform="translate(333.711 3471)">
      <g id="Grupo_1186397" data-name="Grupo 1186397" clip-path="url(#clip-path)">
        <path id="Trazado_1032571" data-name="Trazado 1032571" d="M7.267,212.7s1.711-3.645-.744-5.578S-.617,202.36.647,201.1s2.455,1.711,4.24.893S6,191.351,3.845,188.6s-3.942-4.389-2.38-6.248,2.975,3.868,5.058,2.678-3.645-9.224-2.305-13.315,4.909-3.5,4.537-.446-.521,9.521,1.339,11.9,6.62-5.876,6.62-1.413S12.325,189.64,12.1,195.74s-.893,7.662,1.339,6.322,4.389.372,2.381,2.381-4.24,5.207-3.422,7.587Z" transform="translate(-0.131 -50.881)" fill="#4ca5a2"/>
        <path id="Trazado_1032572" data-name="Trazado 1032572" d="M7.84,212.918A9.426,9.426,0,0,0,5.215,202.6c-5.021-4.463-6.39-10.512-4.222-11.5s2.4,3.768,3.993,5.355S8.068,193.083,7.5,190.5s-4.565-6.546-2.054-9.422,2.51,3.075,3.879,4.662,3.995-4.265,3.425-7.141-1.256-9.025,1.6-7.736,2.967,7.736.456,11.405-4.336,6.645-3.765,8.926,1.712,2.182,3.309-.3S18,187.926,18,191.2s-8.787,11.6-6.847,21.819Z" transform="translate(0 -51.447)" fill="#68bcbc"/>
        <path id="Trazado_1032573" data-name="Trazado 1032573" d="M13.48,219.468s1.339-6.992.223-12.793-.967-10.042-.149-11.455" transform="translate(-3.889 -58.84)" fill="none" stroke="#4ca5a2" stroke-linecap="round" stroke-miterlimit="10" stroke-width="1.194"/>
        <path id="Trazado_1032574" data-name="Trazado 1032574" d="M16.934,243.642,18,232.237H3.326l1.069,11.405Z" transform="translate(-1.002 -69.997)" fill="#6097b2"/>
        <path id="Trazado_1032575" data-name="Trazado 1032575" d="M18.294,231.989l.27-2.876H1.915l.27,2.876Z" transform="translate(-0.577 -69.056)" fill="#8bbddb"/>
        <path id="Trazado_1032576" data-name="Trazado 1032576" d="M373.3,205.243c14.088,3.114,29.02-6.391,29.2-12.025s-13.516,6.063-15.5.329,14.9-8.036,15.135-14.1-14.927,8.249-16.1,4.377,13.456-13.037,11.283-17.492-11.012,11.22-13.53,9.108,7.685-16.716,1.539-17.839-5.078,12.311-7.222,15.043-2.015-12.921-5.674-11.719,2.609,16.274.133,18.3-6.163-11.355-10.318-8.266,6.558,11.631,5.536,15.616-7.975-7.922-11.7-4.771,5.422,20.823,17.227,23.432" transform="translate(-107.066 -47.483)" fill="#4ca5a2"/>
        <path id="Trazado_1032577" data-name="Trazado 1032577" d="M390.016,163.858s-6.384,25.614-14.19,49.06" transform="translate(-113.275 -49.387)" fill="none" stroke="#2c7c78" stroke-linecap="round" stroke-miterlimit="10" stroke-width="1.233"/>
        <path id="Trazado_1032578" data-name="Trazado 1032578" d="M400.524,189.8s-17.487,8.634-23.216,16.5c0,0,.212-14.008-8.714-23.593" transform="translate(-111.096 -55.067)" fill="none" stroke="#2c7c78" stroke-linecap="round" stroke-miterlimit="10" stroke-width="1.233"/>
        <path id="Trazado_1032579" data-name="Trazado 1032579" d="M400.291,175.17s-13.042,12.445-17.132,21.746c0,0,1.062-16.821-1.656-25.71" transform="translate(-114.987 -51.602)" fill="none" stroke="#2c7c78" stroke-linecap="round" stroke-miterlimit="10" stroke-width="1.233"/>
        <path id="Trazado_1032580" data-name="Trazado 1032580" d="M400.046,206.345s-23.65,3.918-26.62,7.833c0,0-6.545-14.677-14.675-18.595" transform="translate(-108.129 -58.95)" fill="none" stroke="#2c7c78" stroke-linecap="round" stroke-miterlimit="10" stroke-width="1.233"/>
        <path id="Trazado_1032581" data-name="Trazado 1032581" d="M387.109,206.682c7.221-5.447,25.685-15.34,32.958-8.464,8.387,7.93-22.264,10.8-22.264,10.8s20.067-.186,20.353,8.948-22.595-2.457-22.595-2.457,12.262,5.811,8.023,9.233-20.99-11.147-25.294-8.023,3.868-6.3,8.818-10.036" transform="translate(-113.654 -59.036)" fill="#68bcbc"/>
        <path id="Trazado_1032582" data-name="Trazado 1032582" d="M380.7,216.781a68.1,68.1,0,0,1,25-13.334,53.849,53.849,0,0,1,10.29-1.816" transform="translate(-114.745 -60.772)" fill="none" stroke="#4ca5a2" stroke-linecap="round" stroke-miterlimit="10" stroke-width="1.233"/>
        <path id="Trazado_1032583" data-name="Trazado 1032583" d="M380.728,222.35c10.8-4.319,23.355-3.95,33.486,1.392" transform="translate(-114.753 -66.126)" fill="none" stroke="#4ca5a2" stroke-linecap="round" stroke-miterlimit="10" stroke-width="1.233"/>
        <path id="Trazado_1032584" data-name="Trazado 1032584" d="M380.809,223.819a34.374,34.374,0,0,1,19.716,5.891" transform="translate(-114.777 -67.455)" fill="none" stroke="#4ca5a2" stroke-linecap="round" stroke-miterlimit="10" stroke-width="1.233"/>
        <path id="Trazado_1032585" data-name="Trazado 1032585" d="M376.594,225.213c1.255-3.682,5.58-6.354,8.94-7.735,8.224-3.378,21.542-6.215,27.778,2.319a11.03,11.03,0,0,1,1.606,9.6c-1.814,5.874-8.372,8.549-13.959,9.355-7.469,1.079-18.018-.488-22.978-6.851a7.812,7.812,0,0,1-1.692-3.768,6.483,6.483,0,0,1,.305-2.924" transform="translate(-113.4 -64.551)" fill="#4ca5a2"/>
        <path id="Trazado_1032586" data-name="Trazado 1032586" d="M378.349,231.62s22.921-6.181,35.475-1.95" transform="translate(-114.036 -68.777)" fill="none" stroke="#2c7c78" stroke-linecap="round" stroke-miterlimit="10" stroke-width="1.233"/>
        <path id="Trazado_1032587" data-name="Trazado 1032587" d="M417.823,233.447s-5.929-7.161-9.286-7.481c0,0,4.775-4.685,8.407-5.738" transform="translate(-123.135 -66.378)" fill="none" stroke="#2c7c78" stroke-linecap="round" stroke-miterlimit="10" stroke-width="1.233"/>
        <path id="Trazado_1032588" data-name="Trazado 1032588" d="M405.36,216.382s-6.739,4.747-6.889,8.949c0,0,6.015,5.937,8.271,10.647" transform="translate(-120.101 -65.218)" fill="none" stroke="#2c7c78" stroke-linecap="round" stroke-miterlimit="10" stroke-width="1.233"/>
        <path id="Trazado_1032589" data-name="Trazado 1032589" d="M390.5,220.06s-2.6,5.13-2.2,7.685a62.492,62.492,0,0,1,5.8,9.822" transform="translate(-117.021 -66.327)" fill="none" stroke="#2c7c78" stroke-linecap="round" stroke-miterlimit="10" stroke-width="1.233"/>
        <path id="Trazado_1032590" data-name="Trazado 1032590" d="M207.865,200.684c-2.129-8.495-10.027-27.177-19.689-26.417-11.141.875,10.211,21.673,10.211,21.673s-15.009-12.341-20.778-5.632,18.519,11.887,18.519,11.887-12.772-3.077-11.659,2.078,22.594,4.363,23.937,9.334.917-7.1-.542-12.923" transform="translate(-53.265 -52.518)" fill="#68bcbc"/>
        <path id="Trazado_1032591" data-name="Trazado 1032591" d="M214.611,213.456a65.942,65.942,0,0,0-10.732-25.249,52.131,52.131,0,0,0-6.649-7.625" transform="translate(-59.446 -54.428)" fill="none" stroke="#4ca5a2" stroke-linecap="round" stroke-miterlimit="10" stroke-width="1.194"/>
        <path id="Trazado_1032592" data-name="Trazado 1032592" d="M210.651,219.523a39.21,39.21,0,0,0-26.079-19.313" transform="translate(-55.631 -60.344)" fill="none" stroke="#4ca5a2" stroke-linecap="round" stroke-miterlimit="10" stroke-width="1.194"/>
        <path id="Trazado_1032593" data-name="Trazado 1032593" d="M213.764,224.7a33.276,33.276,0,0,0-18.438-7.548" transform="translate(-58.872 -65.45)" fill="none" stroke="#4ca5a2" stroke-linecap="round" stroke-miterlimit="10" stroke-width="1.194"/>
        <path id="Trazado_1032594" data-name="Trazado 1032594" d="M210.5,225.994c-1.215-3.565-5.4-6.153-8.656-7.49-7.963-3.271-20.857-6.017-26.895,2.246a10.68,10.68,0,0,0-1.556,9.3c1.756,5.687,8.107,8.277,13.516,9.058,7.232,1.044,17.446-.474,22.248-6.634a7.557,7.557,0,0,0,1.638-3.648,6.277,6.277,0,0,0-.3-2.831" transform="translate(-52.126 -64.892)" fill="#4ca5a2"/>
        <path id="Trazado_1032595" data-name="Trazado 1032595" d="M210.338,232.2s-22.193-5.984-34.349-1.888" transform="translate(-53.044 -68.984)" fill="none" stroke="#2c7c78" stroke-linecap="round" stroke-miterlimit="10" stroke-width="1.194"/>
        <path id="Trazado_1032596" data-name="Trazado 1032596" d="M183.057,233.967s5.741-6.934,8.992-7.242c0,0-4.623-4.537-8.14-5.557" transform="translate(-55.174 -66.661)" fill="none" stroke="#2c7c78" stroke-linecap="round" stroke-miterlimit="10" stroke-width="1.194"/>
        <path id="Trazado_1032597" data-name="Trazado 1032597" d="M195.549,217.444s6.524,4.6,6.67,8.665c0,0-5.824,5.749-8.009,10.309" transform="translate(-58.536 -65.538)" fill="none" stroke="#2c7c78" stroke-linecap="round" stroke-miterlimit="10" stroke-width="1.194"/>
        <path id="Trazado_1032598" data-name="Trazado 1032598" d="M210.954,221s2.518,4.966,2.131,7.441a60.47,60.47,0,0,0-5.617,9.51" transform="translate(-62.531 -66.612)" fill="none" stroke="#2c7c78" stroke-linecap="round" stroke-miterlimit="10" stroke-width="1.194"/>
        <path id="Trazado_1032599" data-name="Trazado 1032599" d="M67.71,167.767l-19.357,4.469-5.344-23.16,8.385-1.934,10.973-2.535,1.321,5.718Z" transform="translate(-12.963 -43.585)" fill="#f3f9ff"/>
        <path id="Trazado_1032600" data-name="Trazado 1032600" d="M67.3,150.326l-12.109.583-.184-3.767,10.973-2.535Z" transform="translate(-16.58 -43.585)" fill="#b6d7f6"/>
        <path id="Trazado_1032601" data-name="Trazado 1032601" d="M216.584,30.639l-16.108,9.3L175,54.65,157.311,24,198.893,0l13.692,23.708Z" transform="translate(-47.414 0)" fill="#f3f9ff"/>
        <path id="Trazado_1032602" data-name="Trazado 1032602" d="M234.457,40.867l-16.108,9.3-1.737-14.585,13.847-1.648Z" transform="translate(-65.288 -10.228)" fill="#b6d7f6"/>
        <path id="Trazado_1032603" data-name="Trazado 1032603" d="M292.29,76.4l-46.218,5.5-20.2,2.4L220.3,37.427l66.42-7.9L292.123,75Z" transform="translate(-66.399 -8.901)" fill="#f3f9ff"/>
        <path id="Trazado_1032604" data-name="Trazado 1032604" d="M303.409,90.726l-46.218,5.5,7.664-19.155,38.387,12.258Z" transform="translate(-77.518 -23.229)" fill="#b6d7f6"/>
        <rect id="Rectángulo_459759" data-name="Rectángulo 459759" width="25.318" height="30.295" transform="matrix(0.999, -0.048, 0.048, 0.999, 38.741, 74.879)" fill="#f3f9ff"/>
        <rect id="Rectángulo_459760" data-name="Rectángulo 459760" width="41.366" height="32.529" transform="translate(55.9 53.903) rotate(-54.771)" fill="#f3f9ff"/>
        <path id="Trazado_1032605" data-name="Trazado 1032605" d="M273.66,136.661h0a2.836,2.836,0,0,0-2.876-2.38H256.694a3.8,3.8,0,0,0-3.435,2.38,3.8,3.8,0,0,1-3.435,2.38h-9.049a3.793,3.793,0,0,0-3.667,3.282l-8.051,68.513a2.859,2.859,0,0,0,2.9,3.281H332.1a3.793,3.793,0,0,0,3.668-3.281l8.051-68.513a2.859,2.859,0,0,0-2.9-3.282H276.536a2.836,2.836,0,0,1-2.876-2.38" transform="translate(-69.032 -40.473)" fill="#f2a668"/>
        <rect id="Rectángulo_459761" data-name="Rectángulo 459761" width="57.564" height="82.264" transform="translate(169.265 112.903) rotate(-71.894)" fill="#f3f9ff"/>
        <path id="Trazado_1032606" data-name="Trazado 1032606" d="M213.007,148.052a2.57,2.57,0,0,0-2.715,3.07L222.125,215.2a4,4,0,0,0,3.849,3.07h100.15a2.57,2.57,0,0,0,2.715-3.07l-11.833-64.077a4,4,0,0,0-3.849-3.07Z" transform="translate(-63.368 -44.623)" fill="#ffb878"/>
        <path id="Trazado_1032607" data-name="Trazado 1032607" d="M113.994,202.717s-.376,4.943,9.579,6.689,7.859-40.694,7.859-40.694l-12.749,5.239Z" transform="translate(-34.358 -50.85)" fill="#b72a46"/>
        <path id="Trazado_1032608" data-name="Trazado 1032608" d="M110.933,159.872c-4.962,1.554-6.525,6.744-10.206,19.2,0,0-11.851,7.344-14.958,7.01l1.028,2.314s12.26-.428,16.268-2.442c3.153-1.584,7.021-9.581,8.6-13.732s-.728-12.347-.728-12.347" transform="translate(-25.851 -48.186)" fill="#d29674"/>
        <path id="Trazado_1032609" data-name="Trazado 1032609" d="M115.327,160.445c-3.172.857-8.573,15.089-8.573,15.089a9.849,9.849,0,0,0,6.773,3c4.63.343,1.8-18.089,1.8-18.089" transform="translate(-32.176 -48.359)" fill="#ce364c"/>
        <path id="Trazado_1032610" data-name="Trazado 1032610" d="M100.012,216.991S64.6,209.836,61.689,218.58s12.86,17.832,39.094,17.832,23.147-20.233,23.147-20.233Z" transform="translate(-18.489 -64.571)" fill="#0c476b"/>
        <path id="Trazado_1032611" data-name="Trazado 1032611" d="M112.985,223.2c2.535-2.1,27.439-5.406,27.439-5.406s.689,13.892-5.99,17.8-14.375,3.445-19.789,2.222c-10.675-2.411-4.2-12.515-1.661-14.618" transform="translate(-32.765 -65.645)" fill="#105e99"/>
        <path id="Trazado_1032612" data-name="Trazado 1032612" d="M142.048,200.714c.789-8.67,4.091-33.414,3.856-34.633-.745-3.854-6.721-9.041-14.664-9.439q-1.3-.066-2.464-.05c-6.342.069-9.813,1.862-12.2,5.187-.687.959-1.813,4.211-2.062,8.623a133.187,133.187,0,0,0,1.459,29.215c4.588,4.64,26.076,1.1,26.076,1.1" transform="translate(-34.449 -47.196)" fill="#f6e7ba"/>
        <path id="Trazado_1032613" data-name="Trazado 1032613" d="M123.015,163.868c-1.2,5.916-6.087,32.578-9.173,35.322,0,0-.429-13.375-.343-23.148s2.229-15.517,3.858-16.632,7.2-2.4,7.2-2.4Z" transform="translate(-34.206 -47.323)" fill="#f24052"/>
        <path id="Trazado_1032614" data-name="Trazado 1032614" d="M77.43,198.61v.894h6.278l.817-1.465a10.88,10.88,0,0,0-5.435-.091,4.618,4.618,0,0,0-1.246.619.312.312,0,0,0-.415.043" transform="translate(-23.338 -59.567)" fill="#ef6e4b"/>
        <path id="Trazado_1032615" data-name="Trazado 1032615" d="M85.146,198.628a1.979,1.979,0,0,1-1.832.916,7.7,7.7,0,0,0-1.825.007s-.239-.353.359-.493,1.555-.642,1.585-1.037l-1.675-.251a4.658,4.658,0,0,0-1.2.251c-.358.18-.449.808-.867,1.174s-.658.217-.658.217a5.4,5.4,0,0,1,.505-1.315,3.253,3.253,0,0,1,.422-.327,1.327,1.327,0,0,0-.927.5,4.837,4.837,0,0,0-.329.925c-.068.16-.329.451-.6.356,0,0,.24-1.1.329-1.53a11.858,11.858,0,0,1-.509,1.391c-.2.21-.358-.031-.269-1.142a2.152,2.152,0,0,0-.21.925s-.328.218-.358-.138-.09-1.037.628-1.037c0,0,.418-.824,1.046-.538a8.18,8.18,0,0,1,1.5-.645,4.011,4.011,0,0,1,1.2,0s4.85-.1,3.687,1.79" transform="translate(-23.231 -59.313)" fill="#ff8b66"/>
        <path id="Trazado_1032616" data-name="Trazado 1032616" d="M105.135,198.081c-.107,1.09-2.335.984-2.335.984s-1.264.205-1.93.231c0,0,.062.81-.3.859s-.523-1.3-.523-1.3-.66,1.4-.928,1.3-.212-1.507-.212-1.507-.778,0-.827.212a5.156,5.156,0,0,1-.325.81c-.161.33-.354.6-.509.492-.312-.212-.157-1.874-.157-1.874a2.88,2.88,0,0,0-.567.05c-.156.057-.523,1.246-1.04.523a2.814,2.814,0,0,1,1.04-1.924,9.412,9.412,0,0,1,3.318-.984,11.658,11.658,0,0,1,3.929.417c.38.205,1.47.622,1.364,1.712" transform="translate(-28.779 -59.054)" fill="#f8b189"/>
        <path id="Trazado_1032617" data-name="Trazado 1032617" d="M101.834,199.571s-.161-.849.263-1a8.331,8.331,0,0,1,1.2-.27,5.985,5.985,0,0,0-1.5.2c-.567.192-.366,1.816-.366,1.816Z" transform="translate(-30.563 -59.768)" fill="#ef6e4b"/>
        <path id="Trazado_1032618" data-name="Trazado 1032618" d="M100.823,197.752a1.648,1.648,0,0,0-.722.386,3.025,3.025,0,0,0-.212,1.059s-.778,0-.828.212a5.091,5.091,0,0,1-.324.809,4.7,4.7,0,0,1,.455-1.811c.355-.567,1.451-.648,1.631-.654" transform="translate(-29.76 -59.603)" fill="#ef6e4b"/>
        <path id="Trazado_1032619" data-name="Trazado 1032619" d="M98.528,197.743s-.884.541-.99,1.09a2.884,2.884,0,0,0-.567.05,1.8,1.8,0,0,1,1.556-1.139" transform="translate(-29.228 -59.601)" fill="#ef6e4b"/>
        <path id="Trazado_1032620" data-name="Trazado 1032620" d="M107.448,199.009c-.107,1.09-2.335.984-2.335.984s-1.264.205-1.93.231c-.094-.312.112-.449.137-.7,0,0,.94.019,1.121-.156a2.319,2.319,0,0,0,1.27-.1c.386-.255,1.115.654,1.738-.255" transform="translate(-31.092 -59.982)" fill="#ef6e4b"/>
        <path id="Trazado_1032621" data-name="Trazado 1032621" d="M73.746,236.579s-9.773,0-12.174-.171-2.743,3.944,1.543,5.658,8.058,3.258,13.031.686Z" transform="translate(-18.029 -71.253)" fill="#8bbddb"/>
        <path id="Trazado_1032622" data-name="Trazado 1032622" d="M105.587,241.177s-.257-4.758,4.115-5.53c0,0,1.157-3.472,6.816,1.415,3.169,2.737,8.616,4.758,6.3,6.688s-11.059-1.672-17.232-2.572" transform="translate(-31.823 -70.664)" fill="#6097b2"/>
        <path id="Trazado_1032623" data-name="Trazado 1032623" d="M79.411,230.915s31.549-12.174,42.18-13.2,12.174,6,3.772,11.488-44.58,8.058-44.58,8.058-3.772-2.743-1.372-6.344" transform="translate(-23.694 -65.589)" fill="#105e99"/>
        <path id="Trazado_1032624" data-name="Trazado 1032624" d="M137.093,154.68c-2.958-1.415-9.3-.472-10.845.815a20.307,20.307,0,0,0-3.172,3.858l2.229-2.057.6,5.659s.514-8.231,12-5.23Z" transform="translate(-37.096 -46.408)" fill="#ce364c"/>
        <path id="Trazado_1032625" data-name="Trazado 1032625" d="M124.809,141.055a7.358,7.358,0,0,0,5.121,5.124c3.149.8,6.477-.744,7.018-2.874a12.909,12.909,0,0,0,.023-4.483c-.018-.141-.04-.29-.061-.439-.062-.439-.151-.876-.24-1.313-.658-2.964-1.96-5.731-3.815-5.926-6.456-.681-10.723,2.194-8.046,9.911" transform="translate(-37.373 -39.498)" fill="#f8b189"/>
        <path id="Trazado_1032626" data-name="Trazado 1032626" d="M133.5,140.4c.112.439.4.745.645.683s.351-.469.239-.909-.4-.746-.646-.683-.351.469-.239.909" transform="translate(-40.225 -42.041)" fill="#1a4850"/>
        <path id="Trazado_1032627" data-name="Trazado 1032627" d="M138.933,138.264c.112.439.4.745.646.683s.351-.469.239-.91-.4-.745-.646-.683-.351.469-.239.909" transform="translate(-41.861 -41.397)" fill="#1a4850"/>
        <path id="Trazado_1032631" data-name="Trazado 1032631" d="M132.005,137.471a.189.189,0,0,0,.08-.061,2.086,2.086,0,0,1,1.335-.669.183.183,0,0,0,.166-.2.181.181,0,0,0-.2-.166,2.447,2.447,0,0,0-1.6.814.183.183,0,0,0,.214.279" transform="translate(-39.711 -41.105)" fill="#b72a46"/>
        <path id="Trazado_1032632" data-name="Trazado 1032632" d="M126.3,136.381c1.123,3.292-.9,6.492-.9,6.492l1.192,2.762.136.943A29.893,29.893,0,0,1,123.682,144c-2.65-3.349-3.044-7.217-2.1-7.444,0,0,4.335-1.295,4.716-.178" transform="translate(-36.505 -40.969)" fill="#b72a46"/>
        <path id="Trazado_1032633" data-name="Trazado 1032633" d="M126.233,144.244s-1.671-1.174-2.623.053,1.758,3.48,3.016,3.047-.393-3.1-.393-3.1" transform="translate(-37.197 -43.323)" fill="#f8b189"/>
        <path id="Trazado_1032634" data-name="Trazado 1032634" d="M139.585,145.32c-.279.45-1.71.728-2.143.708-.3-.015.221.622.782.6a1.279,1.279,0,0,0,1.361-1.308" transform="translate(-41.399 -43.8)" fill="#1a4850"/>
        <path id="Trazado_1032635" data-name="Trazado 1032635" d="M139.312,134.635a.183.183,0,0,0-.034-.349,2.441,2.441,0,0,0-1.724.493.183.183,0,0,0,.225.288,2.1,2.1,0,0,1,1.434-.422.183.183,0,0,0,.1-.01" transform="translate(-41.438 -40.467)" fill="#b72a46"/>
        <path id="Trazado_1032636" data-name="Trazado 1032636" d="M126.084,133.754a2.147,2.147,0,0,1,.85-2.1c1.1-.661,4.164-.42,4.164-.42l2.036-1s1.559-4.231-3.357-3.338l.828.6s-.98-1.061-5.467,1-5.035,4.558-3.655,6.3,4.6-1.03,4.6-1.03" transform="translate(-36.414 -38.207)" fill="#b72a46"/>
        <path id="Trazado_1032637" data-name="Trazado 1032637" d="M136.006,150.648s-.079,3.888,1.464,5.474a7.618,7.618,0,0,1-7.965,1.285s.907-5.629-1.905-8.777a.8.8,0,0,0,.764-.823,6.336,6.336,0,0,0,7.643,2.841" transform="translate(-38.459 -44.55)" fill="#f8b189"/>
        <path id="Trazado_1032638" data-name="Trazado 1032638" d="M138.03,159.4a7.979,7.979,0,0,1-.493,5.059s-.514,28.634,1.972,38.322c0,0,6.259,3,10.03,3,0,0,.172-11.231.772-15s5.4-21.176,1.714-27.435a9.868,9.868,0,0,0-9.859-5.144Z" transform="translate(-41.441 -47.66)" fill="#f24052"/>
        <path id="Trazado_1032639" data-name="Trazado 1032639" d="M141.671,154.984a7.29,7.29,0,0,1-3.408,3.472,10.249,10.249,0,0,1,1.929,3.279s3.729-2.314,4.694-4.179c0,0-1.8-2.444-3.215-2.572" transform="translate(-41.673 -46.713)" fill="#ce364c"/>
        <path id="Trazado_1032640" data-name="Trazado 1032640" d="M150.125,163.136c-3.813-.838-12.114,17.5-10.973,21.512s4.359,5.631,6.537,2.278,6.537-13.213,7.057-17.052-2.621-6.738-2.621-6.738" transform="translate(-41.909 -49.161)" fill="#f8b189"/>
        <path id="Trazado_1032641" data-name="Trazado 1032641" d="M130.505,189.015s4.427,3.806,3.23,7.5c0,0-5.181,4.438-26.614.408v-2.775s9.859-1.6,23.383-5.128" transform="translate(-32.287 -56.97)" fill="#f8b189"/>
        <path id="Trazado_1032642" data-name="Trazado 1032642" d="M139.889,177.52s4.544-14.317,9.259-15.26,5.573,9.516,1.286,18.775c0,0-4.63-4.63-10.545-3.515" transform="translate(-42.163 -48.888)" fill="#ce364c"/>
        <path id="Trazado_1032643" data-name="Trazado 1032643" d="M101.279,201.946H79.493a.481.481,0,0,1-.481-.481v-.577H101.76v.577a.481.481,0,0,1-.481.481" transform="translate(-23.815 -60.548)" fill="#11393d"/>
        <path id="Trazado_1032644" data-name="Trazado 1032644" d="M87.972,201.946H66.186a.481.481,0,0,1-.481-.481v-.577H88.453v.577a.481.481,0,0,1-.481.481" transform="translate(-19.804 -60.548)" fill="#11393d"/>
        <path id="Trazado_1032645" data-name="Trazado 1032645" d="M85.394,193.067H64.548a1.3,1.3,0,0,1-1.277-1.164l-1.4-15.8a1.052,1.052,0,0,1,1.07-1.164H83.786a1.3,1.3,0,0,1,1.277,1.164l1.4,15.8a1.052,1.052,0,0,1-1.07,1.164" transform="translate(-18.646 -52.727)" fill="#11393d"/>
        <path id="Trazado_1032646" data-name="Trazado 1032646" d="M84.242,193.067H63.4a1.3,1.3,0,0,1-1.277-1.164l-1.4-15.8a1.052,1.052,0,0,1,1.07-1.164H82.634a1.3,1.3,0,0,1,1.276,1.164l1.4,15.8a1.052,1.052,0,0,1-1.07,1.164" transform="translate(-18.299 -52.727)" fill="#164353"/>
        <path id="Trazado_1032647" data-name="Trazado 1032647" d="M51.665,234.826l4.808-30.3h48.579l4.808,30.3h1.563l-5.054-31.839H55.156L50.1,234.826Z" transform="translate(-15.101 -61.181)" fill="#bc8861"/>
        <path id="Trazado_1032648" data-name="Trazado 1032648" d="M29.575,234.826l4.808-30.3H82.962l4.809,30.3h1.562L84.28,202.987H33.067l-5.054,31.839Z" transform="translate(-8.443 -61.181)" fill="#f2a668"/>
        <rect id="Rectángulo_459762" data-name="Rectángulo 459762" width="69.829" height="2.057" transform="translate(23.61 141.292)" fill="#b77133"/>
      </g>
    </g>
    <g id="Grupo_1186401" data-name="Grupo 1186401">
      <g id="Grupo_1186400" data-name="Grupo 1186400" transform="translate(512.279 3589.27)" opacity="0.56">
        <g id="Grupo_1186399" data-name="Grupo 1186399" transform="translate(0.174 -0.474)" clip-path="url(#clip-path-2)">
          <path id="Trazado_1032649" data-name="Trazado 1032649" d="M47.991,0H2.892A2.894,2.894,0,0,0,0,2.891C.007,5.944,0,29.872,0,33.535a2.894,2.894,0,0,0,2.891,2.891h8.943a15.638,15.638,0,0,0,8.472,8.836l4.906,2.1a.577.577,0,0,0,.456,0l4.906-2.1a15.638,15.638,0,0,0,8.472-8.836H47.99a2.894,2.894,0,0,0,2.891-2.891c0-3.783,0-27.471,0-30.644A2.894,2.894,0,0,0,47.99,0ZM11.565,3.758a.867.867,0,0,1,0,1.735.867.867,0,0,1,0-1.735m-3.469,0a.867.867,0,0,1,0,1.735.867.867,0,0,1,0-1.735m-3.469,0a.867.867,0,0,1,0,1.735.867.867,0,0,1,0-1.735M37.754,30.869a13.332,13.332,0,0,1-8.089,12.268l-4,1.713a.577.577,0,0,1-.456,0l-3.995-1.713a13.331,13.331,0,0,1-8.09-12.268V18.609a.579.579,0,0,1,.366-.538,5.789,5.789,0,0,0,3.25-3.25.578.578,0,0,1,.538-.366H33.6a.577.577,0,0,1,.538.366,5.791,5.791,0,0,0,3.249,3.25.578.578,0,0,1,.367.538v12.26Zm11.972,2.666a1.737,1.737,0,0,1-1.735,1.735H39.433a15.7,15.7,0,0,0,.634-4.4V16.734a.578.578,0,0,0-.578-.578,3.439,3.439,0,0,1-3.435-3.435.578.578,0,0,0-.578-.578H15.409a.578.578,0,0,0-.578.578A3.439,3.439,0,0,1,11.4,16.156a.578.578,0,0,0-.578.578V30.869a15.632,15.632,0,0,0,.634,4.4H2.892a1.737,1.737,0,0,1-1.735-1.735V8.673H49.726Z" transform="translate(-0.183 0.499)" fill="#5e1f1f"/>
          <path id="Trazado_1032650" data-name="Trazado 1032650" d="M43.64,27H28.087a6.964,6.964,0,0,1-3.379,3.379V42.258a12.177,12.177,0,0,0,7.388,11.2l3.767,1.615,3.768-1.615a12.177,12.177,0,0,0,7.388-11.2V30.379A6.957,6.957,0,0,1,43.64,27m-.827,9.24-7.866,7.866a.578.578,0,0,1-.818,0l-4.667-4.667a.579.579,0,0,1,0-.818l1.467-1.467a.578.578,0,0,1,.818,0l2.382,2.382a.578.578,0,0,0,.818,0l5.58-5.581a.578.578,0,0,1,.818,0l1.468,1.467a.579.579,0,0,1,0,.818" transform="translate(-10.605 -10.89)" fill="#5e1f1f"/>
        </g>
      </g>
    </g>
  </g>
</svg>
