<svg id="Grupo_1185627" data-name="Grupo 1185627" xmlns="http://www.w3.org/2000/svg" xmlns:xlink="http://www.w3.org/1999/xlink" width="268.652" height="236.24" viewBox="0 0 268.652 236.24">
  <defs>
    <clipPath id="clip-path">
      <rect id="Rectángulo_458969" data-name="Rectángulo 458969" width="268.652" height="236.24" fill="none"/>
    </clipPath>
  </defs>
  <g id="Grupo_1185232" data-name="Grupo 1185232" transform="translate(0 0)" clip-path="url(#clip-path)">
    <path id="Trazado_1031296" data-name="Trazado 1031296" d="M682.523,256.11l-.06-47.677c-.2-5.07,2.713-4.407,2.713-4.407s2.646-.924,3.177,4.769L695.2,256.11Z" transform="translate(-609.666 -149.241)" fill="#00111a"/>
    <path id="Trazado_1031297" data-name="Trazado 1031297" d="M646.878,398.274h-3.543a2.877,2.877,0,0,0-2.278,2.784h29.606s-.2-2.915-2.978-2.784Z" transform="translate(-574.022 -291.406)" fill="#00111a"/>
    <rect id="Rectángulo_458952" data-name="Rectángulo 458952" width="2.035" height="69.684" transform="translate(26.642 28.237)" fill="#000f17"/>
    <rect id="Rectángulo_458953" data-name="Rectángulo 458953" width="99.229" height="69.679" transform="translate(28.678 28.237)" fill="#091a24"/>
    <path id="Trazado_1031362" data-name="Trazado 1031362" d="M92.711,0H0V64.135H92.711Z" transform="translate(31.935 31.008)" fill="#9ed1ff"/>
    <path id="Trazado_1031298" data-name="Trazado 1031298" d="M698.652,80.208a4.323,4.323,0,0,0,4.281,4.279c5.072.13,6.324-2.05,6.324-4.415s-.328-4.873-6.324-4.149c-2.348.284-4.281,1.916-4.281,4.284" transform="translate(-628.068 -55.46)" fill="#001018"/>
    <path id="Trazado_1031299" data-name="Trazado 1031299" d="M693.5,80.573a4.28,4.28,0,1,0,4.282-4.279,4.284,4.284,0,0,0-4.282,4.279" transform="translate(-619.495 -55.823)" fill="#0b1d29"/>
    <path id="Trazado_1031300" data-name="Trazado 1031300" d="M701.839,86.684a2.042,2.042,0,1,0,2.043-2.039,2.04,2.04,0,0,0-2.043,2.039" transform="translate(-625.591 -61.933)" fill="#00090c"/>
    <rect id="Rectángulo_458955" data-name="Rectángulo 458955" width="32.636" height="57.083" transform="translate(33.906 34.482)" fill="#2e72b9"/>
    <rect id="Rectángulo_458956" data-name="Rectángulo 458956" width="32.636" height="4.525" transform="translate(33.906 34.483)" fill="#004998"/>
    <path id="Trazado_1031301" data-name="Trazado 1031301" d="M756.2,131.948a1.833,1.833,0,1,0,1.832-1.834,1.832,1.832,0,0,0-1.832,1.834" transform="translate(-694.118 -95.202)" fill="#0075c3"/>
    <path id="Trazado_1031302" data-name="Trazado 1031302" d="M869.176,132.5a.336.336,0,1,0,.336-.334.337.337,0,0,0-.336.334" transform="translate(-834.415 -96.702)" fill="#fff"/>
    <path id="Trazado_1031303" data-name="Trazado 1031303" d="M869.176,136.03a.336.336,0,1,0,.336-.338.336.336,0,0,0-.336.338" transform="translate(-834.415 -99.283)" fill="#fff"/>
    <path id="Trazado_1031304" data-name="Trazado 1031304" d="M869.176,139.553a.336.336,0,1,0,.336-.334.335.335,0,0,0-.336.334" transform="translate(-834.415 -101.864)" fill="#fff"/>
    <path id="Trazado_1031305" data-name="Trazado 1031305" d="M771.985,150.544h21.6a1.3,1.3,0,0,1,1.3,1.3v2.368a1.3,1.3,0,0,1-1.3,1.3h-21.6a1.3,1.3,0,0,1-1.3-1.3v-1.826a.01.01,0,0,0-.007,0s.031-1.259-.862-1.536a.357.357,0,0,1-.247-.3Z" transform="translate(-732.725 -110.15)" fill="#fff"/>
    <path id="Trazado_1031306" data-name="Trazado 1031306" d="M784.022,172.977h-21.6a1.3,1.3,0,0,0-1.3,1.3v2.37a1.3,1.3,0,0,0,1.3,1.3h21.6a1.3,1.3,0,0,0,1.3-1.3v-1.828a.009.009,0,0,1,.007,0s-.029-1.258.861-1.535a.364.364,0,0,0,.248-.306Z" transform="translate(-722.011 -126.564)" fill="#82acdd"/>
    <path id="Trazado_1031307" data-name="Trazado 1031307" d="M771.985,198.274h21.6a1.3,1.3,0,0,1,1.3,1.3v2.368a1.3,1.3,0,0,1-1.3,1.3h-21.6a1.3,1.3,0,0,1-1.3-1.3v-1.828l0,0s.028-1.258-.865-1.533a.362.362,0,0,1-.247-.306Z" transform="translate(-732.725 -145.073)" fill="#fff"/>
    <path id="Trazado_1031308" data-name="Trazado 1031308" d="M784.022,220.715h-21.6a1.294,1.294,0,0,0-1.3,1.3v2.368a1.3,1.3,0,0,0,1.3,1.3h21.6a1.3,1.3,0,0,0,1.3-1.3v-1.826a.007.007,0,0,1,.007,0s-.029-1.259.861-1.536a.364.364,0,0,0,.248-.306Z" transform="translate(-722.011 -161.493)" fill="#82acdd"/>
    <path id="Trazado_1031309" data-name="Trazado 1031309" d="M771.985,246.348h21.6a1.3,1.3,0,0,1,1.3,1.3v2.371a1.3,1.3,0,0,1-1.3,1.3h-21.6a1.3,1.3,0,0,1-1.3-1.3v-1.829a0,0,0,0,1,0,0s.028-1.255-.865-1.533a.368.368,0,0,1-.247-.309Z" transform="translate(-732.725 -180.248)" fill="#fff"/>
    <path id="Trazado_1031310" data-name="Trazado 1031310" d="M784.022,268.8h-21.6a1.294,1.294,0,0,0-1.3,1.294v2.371a1.294,1.294,0,0,0,1.3,1.3h21.6a1.3,1.3,0,0,0,1.3-1.3v-1.829a.008.008,0,0,0,.007,0s-.029-1.256.861-1.533a.364.364,0,0,0,.248-.306Z" transform="translate(-722.011 -196.676)" fill="#82acdd"/>
    <path id="Trazado_1031311" data-name="Trazado 1031311" d="M771.985,294.434h21.6a1.3,1.3,0,0,1,1.3,1.3V298.1a1.3,1.3,0,0,1-1.3,1.294h-21.6a1.3,1.3,0,0,1-1.3-1.294v-1.829a.01.01,0,0,0-.007,0s.031-1.259-.862-1.533a.37.37,0,0,1-.247-.309Z" transform="translate(-732.725 -215.431)" fill="#fff"/>
    <path id="Trazado_1031312" data-name="Trazado 1031312" d="M784.022,316.887h-21.6a1.294,1.294,0,0,0-1.3,1.294v2.368a1.3,1.3,0,0,0,1.3,1.3h21.6a1.3,1.3,0,0,0,1.3-1.3v-1.826s0,0,.007,0-.029-1.255.861-1.533a.364.364,0,0,0,.248-.306Z" transform="translate(-722.011 -231.86)" fill="#82acdd"/>
    <path id="Trazado_1031313" data-name="Trazado 1031313" d="M493.228,398.274h-3.546a2.876,2.876,0,0,0-2.276,2.784h29.606s-.2-2.915-2.98-2.784Z" transform="translate(-379.142 -291.406)" fill="#091a24"/>
    <path id="Trazado_1031314" data-name="Trazado 1031314" d="M438.669,398.274h-3.547a2.876,2.876,0,0,0-2.274,2.784h21.037s-.2-2.915-2.979-2.784Z" transform="translate(-301.376 -291.406)" fill="#00111a"/>
    <rect id="Rectángulo_458957" data-name="Rectángulo 458957" width="7.964" height="118.14" transform="translate(187.003 118.1)" fill="#a8c1cf"/>
    <rect id="Rectángulo_458958" data-name="Rectángulo 458958" width="7.964" height="118.14" transform="translate(260.688 118.1)" fill="#a8c1cf"/>
    <rect id="Rectángulo_458959" data-name="Rectángulo 458959" width="268.652" height="8.445" transform="translate(0 109.655)" fill="#b07d66"/>
    <rect id="Rectángulo_458960" data-name="Rectángulo 458960" width="7.965" height="118.14" transform="translate(0 118.1)" fill="#a8c1cf"/>
    <rect id="Rectángulo_458961" data-name="Rectángulo 458961" width="7.964" height="118.14" transform="translate(61.738 118.1)" fill="#a8c1cf"/>
    <rect id="Rectángulo_458962" data-name="Rectángulo 458962" width="69.702" height="8.445" transform="translate(0 109.655)" fill="#89544b"/>
    <path id="Trazado_1031315" data-name="Trazado 1031315" d="M486.506,735.923l-5.8,1.711-4.875-10.274,8.3-2.766Z" transform="translate(-345.531 -530.17)" fill="#f39b82"/>
    <path id="Trazado_1031316" data-name="Trazado 1031316" d="M487.723,756.09l4,8.327-29.614,9.5a4.885,4.885,0,0,1,1.682-5.1l8.538-5.1,5.965-5.5s.253-1.558,1-1.809c0,0,4.052.363,2.9,2.011,0,0,4.2-1.321,5.533-2.323" transform="translate(-347.033 -553.215)" fill="#40201b"/>
    <path id="Trazado_1031317" data-name="Trazado 1031317" d="M490.148,787.808l-29.713,9.575L460,796.037l29.521-9.709Z" transform="translate(-344.925 -575.34)" fill="#2a1510"/>
    <path id="Trazado_1031318" data-name="Trazado 1031318" d="M387.329,690.9l-2.2,5.629-11.105-2.447,2.9-8.251Z" transform="translate(-219.036 -501.812)" fill="#f39b82"/>
    <path id="Trazado_1031319" data-name="Trazado 1031319" d="M354.454,699l9.031,1.94-10.652,29.217a4.881,4.881,0,0,1-3-4.457l1.207-9.872-.689-8.082s-1.074-1.157-.818-1.9c0,0,2.771-2.98,3.367-1.053,0,0,1.529-4.125,1.555-5.793" transform="translate(-188.609 -511.446)" fill="#40201b"/>
    <path id="Trazado_1031320" data-name="Trazado 1031320" d="M356.517,706.443l-10.655,29.343-1.327-.486,10.427-29.272Z" transform="translate(-180.312 -516.585)" fill="#2a1510"/>
    <path id="Trazado_1031321" data-name="Trazado 1031321" d="M353.339,454.609c5.268,6.322,6.059,7.9,12.645,13.172,0,0,17.212,13.192,25.761,24.03,0,0-1.338,6.184-4.916,9.844-12.81-4.777-28.9-14.894-32.7-18.331-11.062-10.01-15.016-12.909-20.282-19.233,0,0-7.377-10.271-2.635-20.284,3.868-8.186,13.078-9.764,21.093-12.281,4.15-1.3,8.3-2.627,12.421-4.047a163.892,163.892,0,0,0,17.636-7.107c5.851-2.814,14.229-3.145,19.577.978,7.071,5.448,9.234,17.434.573,22.53-5.5,3.232-13.282,3.107-19.421,4.14-7.338,1.238-14.646,2.668-21.969,3.988-4.006.721-4.27.331-7.782,2.6" transform="translate(-227.961 -306.028)" fill="#001f55"/>
    <path id="Trazado_1031322" data-name="Trazado 1031322" d="M341.332,130.606s3.686,3.03,4.347,7.246l-.394,6.454h13.3l-3.555-13.7Z" transform="translate(-181.521 -95.562)" fill="#f5a58e"/>
    <path id="Trazado_1031323" data-name="Trazado 1031323" d="M365.734,130.606l.683,2.637a49.344,49.344,0,0,0-7.369,2.239c-1.834.806-2.281,4.788-2.927,6.65l.261-4.281c-.66-4.216-4.347-7.246-4.347-7.246Z" transform="translate(-192.224 -95.562)" fill="#ee7d67"/>
    <path id="Trazado_1031324" data-name="Trazado 1031324" d="M337.162,56.382a1.753,1.753,0,0,1-1.514-1.053c-2.426-4.85-1.818-6.2-1.515-8.824.592-5.139,2.194-9.113,3.162-12.447,1.778-6.125,3.059-6.206,7.346-7.249,0,0,5.4-1.32,9.554,2.04,5.756,4.651,4.173,13.843,3.1,20.359-.665,4.018-2.545,4.741-6.858,6.313,0,0-7.015,2.772-13.273.863" transform="translate(-179.262 -19.428)" fill="#f5a58e"/>
    <path id="Trazado_1031325" data-name="Trazado 1031325" d="M349.558,106.12l.012-.02c.621-1.2.1-2.811-.174-4.042a3.854,3.854,0,0,1,.174-2.806c.851-1.463,2.884-3.122,4.666-2.659s2.977,2.333,3.531,3.96a7.916,7.916,0,0,1,.52,2.707,10.757,10.757,0,0,1-.211,1.572,21.864,21.864,0,0,1-4.289,1.876,25.91,25.91,0,0,1-7.28,1.5c1.034-.587,2.453-.963,3.051-2.089" transform="translate(-182.615 -70.618)" fill="#ee7d67"/>
    <path id="Trazado_1031326" data-name="Trazado 1031326" d="M635.678,390.364l-8.99-.879-10.158,3.19s-1.975.915-.914,1.927l18.264.034s2.984-.572,1.8-4.271" transform="translate(-532.404 -284.978)" fill="#f39b82"/>
    <path id="Trazado_1031327" data-name="Trazado 1031327" d="M455.128,262.034c7.639-14.026,12.447-26.67,14.814-38.836-1.909-2.062-12.065-6.605-15.475.837-3.662,8.916-5.927,17.913-7.771,29.5,0,0-3.488,5.008-30.843,12.765l-1.1,3.308s33.519-.4,40.37-7.577" transform="translate(-312.579 -160.917)" fill="#f39b82"/>
    <path id="Trazado_1031328" data-name="Trazado 1031328" d="M355.831,207.939c15.438-4.1,27.926-9.3,38.389-15.941.186-2.8-3.5-13.3-11.246-10.662-8.994,3.469-17.082,8.01-26.769,14.642,0,0-5.031.047-29.472-14.484l-3.155,1.478s22.332,24.931,32.254,24.968" transform="translate(-212.398 -132.371)" fill="#f39b82"/>
    <path id="Trazado_1031329" data-name="Trazado 1031329" d="M574.248,134.989c-2.047,1.512,4.18,5.23,4.925,6.365-1.363-.944-6.258-4.927-7.576-3.873-.72.7,4.125,3.629,4.918,4.361-.916-.4-4.261-2.566-4.988-1.631-.354.777,3.027,2.682,3.955,3.435-.3-.04-3.441-1.823-3.53-1.06-.14.728,1.842,2.3,2.887,3,4.711,3.171,9.824,6.816,11.069,3.121.93-2.759,1.368-4.306-2.473-11.765-.66-1.284-2,.983-1.224,3.825-.731.082-7.72-5.954-7.963-5.775" transform="translate(-471.241 -98.766)" fill="#f39b82"/>
    <path id="Trazado_1031330" data-name="Trazado 1031330" d="M580.136,162.009c-.02-.068-.041-.138-.062-.208-.061-.2.475-.233.522-.07a1.788,1.788,0,0,1,.057.251c.017.1-.169.137-.226.145.158-.025.079.612.066.669a1.3,1.3,0,0,0,.045,1.142,4.806,4.806,0,0,0,1.591,1.537c.3.236-.5.329-.656.247a3.654,3.654,0,0,1-1.9-2.09c-.109-.542.178-.9.2-1.426.015-.34.281-.365.565-.376-.1.05-.206.1-.31.152.008-.074.017-.144.031-.214.044-.2.578-.163.543,0-.016.07-.03.144-.047.214-.027.132-.385.159-.423.028" transform="translate(-469.051 -118.258)" fill="#ee7d67"/>
    <path id="Trazado_1031331" data-name="Trazado 1031331" d="M343.139,174.5s6.848-2.637,11.591,4.741c0,0,5.532,9.485-5,14.227l-21.075,10.8s-7.9-8.956-9.219-18.968Z" transform="translate(-173.24 -127.343)" fill="#fbd2c1"/>
    <path id="Trazado_1031332" data-name="Trazado 1031332" d="M328.646,455.254c-3.568.157-7.707.2-8,3.724,0,0,9.518,31.248,13.271,54.893,0,0-2.633,2.107-10.01,3.423-13.172-19.493-23.511-58.42-23.511-58.42-2.9-13.433,8.89-18.834,8.89-18.834l35.628-11.461c9.748,5.272,35.564,5.8,35.564,5.8,1.906,3.865,1.35,10.264,0,14.214-1.544,4.527-4.555,6.642-9.22,6.861Z" transform="translate(-193.531 -313.582)" fill="#001f55"/>
    <path id="Trazado_1031333" data-name="Trazado 1031333" d="M279.888,202.431c-1.2,9.321-5.656,37.656-5.656,37.656,17.979,16.8,48.012,4.941,48.012,4.941,2.3-23.118-1.972-59.448-1.977-59.473-1.236-6.421-6.582-15.245-13.371-16.86-5.389-1.28-14.76-.576-22.267-.972-2.78-.146-5.5,5.362-5.8,7.311-.574,3.741,1.69,8.655,1.317,12.38-1.26,12.61.416,9.756-.263,15.017" transform="translate(-127.855 -122.718)" fill="#ffe79e"/>
    <path id="Trazado_1031334" data-name="Trazado 1031334" d="M411.625,219.162c-15.014-3.555-16.6-12.448-16.6-12.448,3.953-11.261,12.9-28.762,12.9-28.764,2.768-5.73,5.533-8.1,11.658-9.484,0,0,8.832,2.853,5.868,17.387,0,0-6.225,23.926-13.83,33.309" transform="translate(-263.405 -123.263)" fill="#ffe79e"/>
    <path id="Trazado_1031335" data-name="Trazado 1031335" d="M331.676,9.089c6.062,4.209,7.716,7.338,6.508,13.84-.5,2.705-2.184,5.578-3.709,7.963-1.366,2.137-4.039,5.254-6.321,6.322-1.976.92-3.967,2.165-6.028-1.581-2.567-4.676-2.613-4.811-1.778-7.114,1.319-3.623.791-1.778,1.306-3.747.306-1.174-.791-3.951-3.426-3.03-.617.219-1.514,1.781-1.843,3.294-.087.393-1.472-.848-1.918-.9.924-3.162,1.975-5.664.6-7.656-1.8-2.607-7.888-4.224-7.494-7.782,0,0-.394-1.578,2.766-5.662a2.231,2.231,0,0,0,1.844,2.238S311.524,1.185,317.451,0c0,0-2.9,2.5.659,4.348a107.412,107.412,0,0,1,13.566,4.741" transform="translate(-152.425 -0.001)" fill="#5e201b"/>
    <path id="Trazado_1031336" data-name="Trazado 1031336" d="M366.359,81.825c0,1.73.922,4.6,2.648,4.6s3.612-2.873,3.612-4.6a3.13,3.13,0,0,0-6.26,0" transform="translate(-202.269 -57.583)" fill="#f5a58e"/>
    <path id="Trazado_1031337" data-name="Trazado 1031337" d="M412.626,65.817c-1.085,3.341-2.93,3.291-3.556,4.229-.789,1.185.959,1.89,2.042,4.306,1.7-3.075,4.219-4.609,3.164-8.369Z" transform="translate(-255.583 -48.157)" fill="#f5a58e"/>
    <path id="Trazado_1031338" data-name="Trazado 1031338" d="M573.641,518.264a.466.466,0,0,0,.135-.023.4.4,0,0,0,.239-.505c-1.672-4.625-2.83-8.17-3.951-11.6-.593-1.817-1.166-3.569-1.784-5.387-1.8-5.282-4.034-11.854-3.729-18.031.3-6.052,3.922-10.627,9.935-12.551a.4.4,0,0,0,.257-.5.4.4,0,0,0-.5-.256c-6.342,2.031-10.167,6.864-10.482,13.265-.313,6.328,1.951,12.978,3.77,18.326.618,1.811,1.189,3.564,1.781,5.378,1.124,3.435,2.283,6.985,3.957,11.618a.4.4,0,0,0,.371.262" transform="translate(-457.371 -343.448)" fill="#0e092f"/>
    <path id="Trazado_1031339" data-name="Trazado 1031339" d="M499.423,569.945a.333.333,0,0,0,.057,0,.393.393,0,0,0,.335-.443c-.5-3.645-1.385-8.552-2.418-13.464-.744-3.542-1.817-7.085-2.853-10.509-.7-2.32-1.429-4.716-2.048-7.095a96.841,96.841,0,0,0-7.047-19.25.4.4,0,0,0-.7.369,95.961,95.961,0,0,1,6.981,19.08c.625,2.393,1.352,4.8,2.054,7.123,1.033,3.41,2.1,6.936,2.839,10.445,1.028,4.895,1.908,9.782,2.409,13.408a.394.394,0,0,0,.39.34" transform="translate(-361.223 -379.719)" fill="#0e092f"/>
    <path id="Trazado_1031340" data-name="Trazado 1031340" d="M412.662,530.66a.383.383,0,0,0,.12-.022.394.394,0,0,0,.256-.5,1.185,1.185,0,0,1,.132-1.089c1.255-1.883,7.492-2.382,9.84-2.57.349-.028.642-.05.853-.073a140.7,140.7,0,0,1,14.263-.169c1.975.037,3.82.074,5.359.074a.4.4,0,0,0,0-.792c-1.533,0-3.375-.034-5.343-.07a140.935,140.935,0,0,0-14.355.172c-.213.022-.5.045-.841.073-4.435.353-9.141.977-10.434,2.918a1.96,1.96,0,0,0-.226,1.771.4.4,0,0,0,.376.276" transform="translate(-285.821 -384.393)" fill="#0e092f"/>
    <path id="Trazado_1031341" data-name="Trazado 1031341" d="M517.6,525.22a.388.388,0,0,0,.112-.017.393.393,0,0,0,.284-.388c-.037-2.123.881-4.895,2.651-5.836a.4.4,0,0,0-.373-.7c-2.1,1.126-2.946,4.013-3.055,6a.4.4,0,0,0-.086.435,1.485,1.485,0,0,0,.132.32.4.4,0,0,0,.335.189" transform="translate(-390.949 -379.181)" fill="#0e092f"/>
    <path id="Trazado_1031342" data-name="Trazado 1031342" d="M393.756,231.192A.4.4,0,0,0,394.1,231c.761-1.286,4.313-9.177,5.028-10.846.845-1.977,1.511-3.426,2.094-4.707a80.379,80.379,0,0,0,3.5-8.687l.393-1.132c1.885-5.4,5.042-14.435,1.626-19.491a.4.4,0,0,0-.654.448c3.194,4.724.118,13.525-1.718,18.786l-.394,1.134a79.676,79.676,0,0,1-3.47,8.615c-.588,1.283-1.253,2.741-2.1,4.724-.687,1.606-4.249,9.52-4.981,10.756a.394.394,0,0,0,.139.54.379.379,0,0,0,.2.056" transform="translate(-245.15 -136.066)" fill="#170d30"/>
    <path id="Trazado_1031343" data-name="Trazado 1031343" d="M279.923,256.105a.4.4,0,0,0,.4-.4c0-4.607-.254-10.951-.353-12-.36-3.811-.447-7.846-.53-11.751-.218-10.055-.445-20.449-5.158-29.254a.394.394,0,1,0-.695.371c4.621,8.639,4.845,18.94,5.062,28.9.085,3.918.172,7.968.535,11.81.1,1.039.35,7.341.35,11.924a.4.4,0,0,0,.394.4" transform="translate(-85.062 -148.16)" fill="#170d30"/>
    <path id="Trazado_1031344" data-name="Trazado 1031344" d="M355.672,421.793a20.315,20.315,0,0,0,2.155-.117c2.607-.281,3.759-1.385,5.5-3.053a.406.406,0,0,0,.02-.567.384.384,0,0,0-.547-.022l-.021.019c-1.68,1.612-2.694,2.584-5.033,2.837a16.133,16.133,0,0,1-8.781-1.349c-3.614-1.682-6.366-4.187-9.337-7.046-1.5-1.443-2.82-2.129-4.858-1.286a.434.434,0,0,0-.194-.171.4.4,0,0,0-.517.216c-.029.067-.051.137-.073.205a.647.647,0,0,1-.1.219.4.4,0,0,0,.5.592c1.885-1.036,2.981-.851,4.687.792,3.022,2.912,5.824,5.462,9.552,7.2a16.4,16.4,0,0,0,7.042,1.536" transform="translate(-184.366 -300.604)" fill="#170d30"/>
    <path id="Trazado_1031345" data-name="Trazado 1031345" d="M352.829,168.089a.395.395,0,0,0,.053-.786,108.972,108.972,0,0,0-13.1-.794.4.4,0,1,0,0,.792,110.475,110.475,0,0,1,12.985.784.2.2,0,0,0,.057.005" transform="translate(-175.637 -121.831)" fill="#170d30"/>
    <path id="Trazado_1031346" data-name="Trazado 1031346" d="M486.3,319.153a.4.4,0,0,0,.091-.781c-2.629-.615-8.489-6.207-8.26-9.07a.39.39,0,0,0-.362-.423.4.4,0,0,0-.424.36c-.265,3.3,5.888,9.206,8.865,9.9a.533.533,0,0,0,.09.012" transform="translate(-346.123 -226)" fill="#170d30"/>
    <rect id="Rectángulo_458963" data-name="Rectángulo 458963" width="13.369" height="12.604" transform="translate(170.634 164.368)" fill="#17192f"/>
    <path id="Trazado_1031347" data-name="Trazado 1031347" d="M267.309,535.8c0,4.227-3.009,7.656-6.717,7.656H206.927c-3.709,0-6.72-3.428-6.72-7.656s3.01-7.659,6.72-7.659h53.665c3.708,0,6.717,3.429,6.717,7.659" transform="translate(-52.378 -386.43)" fill="#003d8c"/>
    <path id="Trazado_1031348" data-name="Trazado 1031348" d="M388.569,543.454h24.94c3.708,0,6.719-3.428,6.719-7.655s-3.01-7.659-6.719-7.659h-24.94s-8.865-.206-8.34,8.751c0,0,.347,6.563,8.34,6.563" transform="translate(-253.594 -386.428)" fill="#002c64"/>
    <rect id="Rectángulo_458964" data-name="Rectángulo 458964" width="7.602" height="27.768" transform="translate(173.518 176.972)" fill="#8cb6cd"/>
    <rect id="Rectángulo_458965" data-name="Rectángulo 458965" width="3.258" height="27.768" transform="translate(177.863 176.972)" fill="#b9dbee"/>
    <rect id="Rectángulo_458966" data-name="Rectángulo 458966" width="13.369" height="16.242" transform="translate(170.634 204.74)" fill="#17192f"/>
    <path id="Trazado_1031349" data-name="Trazado 1031349" d="M190.77,814.483h3.161v-7.662H267.9v7.662h3.16V803.661H190.77Z" transform="translate(-53.597 -588.021)" fill="#17192f"/>
    <rect id="Rectángulo_458967" data-name="Rectángulo 458967" width="3.161" height="9.316" transform="translate(193.914 217.146)" fill="#17192f"/>
    <rect id="Rectángulo_458968" data-name="Rectángulo 458968" width="3.161" height="9.313" transform="translate(155.169 217.46)" fill="#17192f"/>
    <path id="Trazado_1031350" data-name="Trazado 1031350" d="M173.7,840.526a6.033,6.033,0,1,0,6.034-6.03,6.033,6.033,0,0,0-6.034,6.03" transform="translate(36.279 -610.583)" fill="#19202c"/>
    <path id="Trazado_1031351" data-name="Trazado 1031351" d="M184.945,848.744a3.016,3.016,0,1,0,3.016-3.016,3.015,3.015,0,0,0-3.016,3.016" transform="translate(28.051 -618.8)" fill="#0e0d1a"/>
    <path id="Trazado_1031352" data-name="Trazado 1031352" d="M250.176,840.526a6.031,6.031,0,1,0,6.031-6.03,6.03,6.03,0,0,0-6.031,6.03" transform="translate(-60.714 -610.583)" fill="#19202c"/>
    <path id="Trazado_1031353" data-name="Trazado 1031353" d="M261.41,848.744a3.017,3.017,0,1,0,3.018-3.016,3.018,3.018,0,0,0-3.018,3.016" transform="translate(-68.934 -618.8)" fill="#0e0d1a"/>
    <path id="Trazado_1031354" data-name="Trazado 1031354" d="M394.554,840.526a6.033,6.033,0,1,0,6.033-6.03,6.03,6.03,0,0,0-6.033,6.03" transform="translate(-243.836 -610.583)" fill="#19202c"/>
    <path id="Trazado_1031355" data-name="Trazado 1031355" d="M405.8,848.744a3.017,3.017,0,1,0,3.018-3.016,3.017,3.017,0,0,0-3.018,3.016" transform="translate(-252.063 -618.8)" fill="#0e0d1a"/>
    <path id="Trazado_1031356" data-name="Trazado 1031356" d="M461.629,840.526a6.033,6.033,0,1,0,6.034-6.03,6.031,6.031,0,0,0-6.034,6.03" transform="translate(-328.907 -610.583)" fill="#19202c"/>
    <path id="Trazado_1031357" data-name="Trazado 1031357" d="M472.872,848.744a3.016,3.016,0,1,0,3.018-3.016,3.016,3.016,0,0,0-3.018,3.016" transform="translate(-337.134 -618.8)" fill="#0e0d1a"/>
    <path id="Trazado_1031358" data-name="Trazado 1031358" d="M158.2,308.942a2.913,2.913,0,0,0,2.916,2.915h52.922a2.914,2.914,0,0,0,2.914-2.915l13.753-94.417a2.915,2.915,0,0,0-2.918-2.915H174.871a2.914,2.914,0,0,0-2.916,2.915Z" transform="translate(-4.505 -154.831)" fill="#002c64"/>
    <path id="Trazado_1031359" data-name="Trazado 1031359" d="M146.426,308.942a2.912,2.912,0,0,0,2.914,2.915h52.92a2.914,2.914,0,0,0,2.917-2.915l13.75-94.417a2.914,2.914,0,0,0-2.916-2.915H163.092a2.913,2.913,0,0,0-2.915,2.915Z" transform="translate(10.435 -154.831)" fill="#003d8c"/>
    <path id="Trazado_1031360" data-name="Trazado 1031360" d="M226.841,592.549h55.006l2.186-7.353H224.657Z" transform="translate(-75.662 -428.176)" fill="#202646"/>
    <path id="Trazado_1031361" data-name="Trazado 1031361" d="M224.656,585.2h36.373l-2.187,7.353H226.585Z" transform="translate(-52.657 -428.175)" fill="#191d35"/>
  </g>
</svg>
