<svg xmlns="http://www.w3.org/2000/svg" xmlns:xlink="http://www.w3.org/1999/xlink" width="292" height="283" viewBox="0 0 292 283">
  <defs>
    <clipPath id="clip-path">
      <rect id="Rectángulo_459323" data-name="Rectángulo 459323" width="265.793" height="264.244" fill="none"/>
    </clipPath>
  </defs>
  <g id="Grupo_1186045" data-name="Grupo 1186045" transform="translate(-1017.711 -5872)">
    <path id="Rectángulo_459194" data-name="Rectángulo 459194" d="M269,0h9a14,14,0,0,1,14,14V269a14,14,0,0,1-14,14H14A14,14,0,0,1,0,269v0A269,269,0,0,1,269,0Z" transform="translate(1017.711 5872)" fill="#cfe8ff"/>
    <g id="Grupo_1186044" data-name="Grupo 1186044" transform="translate(1032.714 5881.726)">
      <g id="Grupo_1186041" data-name="Grupo 1186041">
        <g id="Grupo_1186040" data-name="Grupo 1186040" clip-path="url(#clip-path)">
          <line id="Línea_3262" data-name="Línea 3262" x2="29.885" y2="85.535" transform="translate(218.729 177.314)" fill="none" stroke="#000" stroke-linecap="round" stroke-linejoin="round" stroke-width="1.412"/>
          <line id="Línea_3263" data-name="Línea 3263" x1="29.885" y2="85.535" transform="translate(138.247 177.314)" fill="none" stroke="#000" stroke-linecap="round" stroke-linejoin="round" stroke-width="1.412"/>
        </g>
      </g>
      <line id="Línea_3264" data-name="Línea 3264" x1="86.369" transform="translate(150.133 228.183)" fill="none" stroke="#000" stroke-linecap="round" stroke-linejoin="round" stroke-width="1.412"/>
      <g id="Grupo_1186043" data-name="Grupo 1186043">
        <g id="Grupo_1186042" data-name="Grupo 1186042" clip-path="url(#clip-path)">
          <path id="Trazado_1032147" data-name="Trazado 1032147" d="M59.43,101.98,71.081,56.532a8.557,8.557,0,0,1,8.29-6.433H110.94a6.685,6.685,0,0,1,6.319,8.865L82.89,158.6a12.135,12.135,0,0,1-11.473,8.179H0l.326-21.672H45.608Z" transform="translate(148.162 17.664)" fill="#c4ccd4"/>
          <rect id="Rectángulo_459324" data-name="Rectángulo 459324" width="62.849" height="4.511" transform="translate(84.305 114.997)" fill="#b1bac4"/>
          <path id="Trazado_1032148" data-name="Trazado 1032148" d="M161.339,101.244a1.376,1.376,0,0,0,1.189-2.068L135.365,52.5a1.377,1.377,0,0,0-2.381,1.384l27.164,46.674a1.373,1.373,0,0,0,1.19.684" transform="translate(-76.544 18.27)" fill="#b1bac4"/>
          <path id="Trazado_1032149" data-name="Trazado 1032149" d="M94.508,12.831a18.406,18.406,0,1,1-23.3-11.6,18.406,18.406,0,0,1,23.3,11.6" transform="translate(90.999 0.097)" fill="#1e0a00"/>
          <path id="Trazado_1032150" data-name="Trazado 1032150" d="M63.691,21.8,78.513,48.2,63.07,54.05,53.287,33.7Z" transform="translate(115.205 7.687)" fill="#d07971"/>
          <path id="Trazado_1032151" data-name="Trazado 1032151" d="M74.092,28.636,69.43,39.824,65.5,31.671l5.521-3.348Z" transform="translate(103.113 9.986)"/>
          <path id="Trazado_1032152" data-name="Trazado 1032152" d="M79.8,2.117s-17.6,7.661-15.905,19.4S71.1,49.379,77.559,48.949s18.825-7.165,19.326-16.254S90.706-1.469,79.8,2.117" transform="translate(82.608 0.624)" fill="#d07971"/>
          <path id="Trazado_1032153" data-name="Trazado 1032153" d="M85.906,24.135l-2.5,6.783a.752.752,0,0,0,.986.867l4.395-1.219Z" transform="translate(64.222 8.51)" fill="#d07971"/>
          <path id="Trazado_1032154" data-name="Trazado 1032154" d="M82.695,24.507a1.245,1.245,0,1,0,.713-1.61,1.243,1.243,0,0,0-.713,1.61" transform="translate(68.953 8.044)"/>
          <path id="Trazado_1032155" data-name="Trazado 1032155" d="M80.378,19.925s.084,1.5,2.226.814a26.81,26.81,0,0,1,4.741-.868,1.382,1.382,0,0,0,1.189-.935.759.759,0,0,0-.444-.909,9.217,9.217,0,0,0-5.272-.231c-2.551.782-2.44,2.129-2.44,2.129" transform="translate(68.514 6.174)" fill="#1e0a00"/>
          <path id="Trazado_1032156" data-name="Trazado 1032156" d="M80.451,31.874A5.413,5.413,0,0,0,84.76,29.65" transform="translate(72.215 10.454)" fill="none" stroke="#000" stroke-linecap="round" stroke-linejoin="round" stroke-width="0.389"/>
          <path id="Trazado_1032157" data-name="Trazado 1032157" d="M82.406,30.051s-13.04-9.225-3.169-16.933L62.073,15.725S61.479,4.831,79.08.55l13.495,9.878s6.889,13.819,2.482,21.48Z" transform="translate(85.308 0.194)" fill="#1e0a00"/>
          <path id="Trazado_1032158" data-name="Trazado 1032158" d="M65.5,23.032a5.321,5.321,0,1,0,3.67-6.571,5.321,5.321,0,0,0-3.67,6.571" transform="translate(101.541 5.732)" fill="#d07971"/>
          <path id="Trazado_1032159" data-name="Trazado 1032159" d="M71.681,18.682s-2.854.277-3.211,4.219" transform="translate(101.5 6.587)" fill="none" stroke="#000" stroke-linecap="round" stroke-linejoin="round" stroke-width="0.4"/>
          <path id="Trazado_1032160" data-name="Trazado 1032160" d="M80.6,15.917s-7.012-.679-5.006-8.29C77.673-.254,93.3,0,93.3,0s-2.011,1.486,2.333,2.74-1.426,8-1.426,8Z" transform="translate(66.779 0)" fill="#1e0a00"/>
          <path id="Trazado_1032161" data-name="Trazado 1032161" d="M55.16,52.272l-2.8-6.733,19-13.481,5.032,9.133Z" transform="translate(118.589 11.303)" fill="#7cb5ff"/>
          <path id="Trazado_1032162" data-name="Trazado 1032162" d="M52.341,38.381a6.839,6.839,0,0,1,4.035-.726c3.648.53,8.9,3.956,14.162,17.27,10.512,26.623,15.806,80.835,15.806,80.835l-43.44-7.1s-15.7-40.323-8.882-68.64c1.969-8.178,5.06-14.977,12.575-18.755Z" transform="translate(135.753 13.254)" fill="#5a94f9"/>
          <path id="Trazado_1032163" data-name="Trazado 1032163" d="M104.756,59.606,96.388,81.3,52.357,86.483l1.308,7.5,52.2,4.51a11.525,11.525,0,0,0,7.3-4.451l10.6-22.473Z" transform="translate(71.214 21.016)" fill="#d07971"/>
          <path id="Trazado_1032164" data-name="Trazado 1032164" d="M125.439,80s-18.367-7.846-21.913,7.5h23.221Z" transform="translate(-0.982 27.5)" fill="#d07971"/>
          <line id="Línea_3265" data-name="Línea 3265" y1="15.974" x2="5.989" transform="translate(175.97 64.648)" fill="none" stroke="#1e0a00" stroke-linecap="round" stroke-linejoin="round" stroke-width="0.528"/>
          <line id="Línea_3266" data-name="Línea 3266" y1="8.926" x2="4.15" transform="translate(194.975 83.656)" fill="none" stroke="#1e0a00" stroke-linecap="round" stroke-linejoin="round" stroke-width="0.528"/>
          <path id="Trazado_1032165" data-name="Trazado 1032165" d="M151.407,180.07H134.118l-28.594,15.3,49.164-.587Z" transform="translate(-31.627 63.49)" fill="#101010"/>
          <path id="Trazado_1032166" data-name="Trazado 1032166" d="M142.5,193.391a3.037,3.037,0,0,1,2.97,3.043l9.258-.1-.17-5.387-49.164.586.17,5.387,33.959-.413V196.5a3.043,3.043,0,0,1,2.976-3.106" transform="translate(-31.499 67.325)" fill="#fff"/>
          <line id="Línea_3267" data-name="Línea 3267" x2="5.665" y2="1.549" transform="translate(90.541 249.193)" fill="none" stroke="#fff" stroke-linecap="round" stroke-linejoin="round" stroke-width="0.804"/>
          <line id="Línea_3268" data-name="Línea 3268" x2="5.665" y2="1.549" transform="translate(96.078 246.352)" fill="none" stroke="#fff" stroke-linecap="round" stroke-linejoin="round" stroke-width="0.804"/>
          <path id="Trazado_1032167" data-name="Trazado 1032167" d="M110.44,162.049h17.623l-9.555,24.375H100.887Z" transform="translate(1.271 57.136)" fill="#fff"/>
          <path id="Trazado_1032168" data-name="Trazado 1032168" d="M111.1,114.464,84.108,189.652l26.026,3.725,22.527-57.439Z" transform="translate(19.367 40.358)" fill="#26386d"/>
          <path id="Trazado_1032169" data-name="Trazado 1032169" d="M134.1,180.07h-17.29l-28.592,15.3,49.164-.587Z" transform="translate(9.086 63.49)" fill="#101010"/>
          <path id="Trazado_1032170" data-name="Trazado 1032170" d="M125.2,193.391a3.037,3.037,0,0,1,2.97,3.043l9.258-.1-.17-5.387-49.164.586.17,5.387,33.959-.413V196.5a3.043,3.043,0,0,1,2.976-3.106" transform="translate(9.214 67.325)" fill="#fff"/>
          <line id="Línea_3269" data-name="Línea 3269" x2="5.665" y2="1.549" transform="translate(113.948 249.193)" fill="none" stroke="#fff" stroke-linecap="round" stroke-linejoin="round" stroke-width="0.804"/>
          <line id="Línea_3270" data-name="Línea 3270" x2="5.665" y2="1.549" transform="translate(119.485 246.352)" fill="none" stroke="#fff" stroke-linecap="round" stroke-linejoin="round" stroke-width="0.804"/>
          <path id="Trazado_1032171" data-name="Trazado 1032171" d="M91.719,162.049h17.623l-4.125,24.375H87.6Z" transform="translate(37.97 57.136)" fill="#fff"/>
          <path id="Trazado_1032172" data-name="Trazado 1032172" d="M50.1,106.909l37.734-1.986,43.44,7.1s9.157,26.43-15.306,26.094l-48.325,0-7.386,63.864-29.193-2.735,8.578-81.409A12.43,12.43,0,0,1,50.1,106.909" transform="translate(90.823 36.994)" fill="#304383"/>
          <line id="Línea_3271" data-name="Línea 3271" y2="136.833" transform="translate(145.952 126.824)" fill="none" stroke="#8dd3aa" stroke-miterlimit="10" stroke-width="1.995"/>
          <line id="Línea_3272" data-name="Línea 3272" y2="136.833" transform="translate(26.558 126.824)" fill="none" stroke="#8dd3aa" stroke-miterlimit="10" stroke-width="1.995"/>
          <rect id="Rectángulo_459325" data-name="Rectángulo 459325" width="168.237" height="9.816" transform="translate(0 119.445)" fill="#202b4e"/>
          <path id="Trazado_1032173" data-name="Trazado 1032173" d="M137.631,40.48H174v-18.4a2.762,2.762,0,0,0-2.762-2.763h-33.6a2.763,2.763,0,0,0-2.762,2.763V37.719a2.761,2.761,0,0,0,2.762,2.761" transform="translate(-90.627 6.812)" fill="#8dd3aa"/>
          <path id="Trazado_1032174" data-name="Trazado 1032174" d="M142.8,31.727l.03,9.349-7.984-9.325Z" transform="translate(-59.435 11.187)" fill="#8dd3aa"/>
          <path id="Trazado_1032175" data-name="Trazado 1032175" d="M157.14,27.4a1.762,1.762,0,1,1-1.766-1.756A1.761,1.761,0,0,1,157.14,27.4" transform="translate(-99.128 9.043)" fill="#fff"/>
          <path id="Trazado_1032176" data-name="Trazado 1032176" d="M151.554,27.388a1.762,1.762,0,1,1-1.766-1.756,1.761,1.761,0,0,1,1.766,1.756" transform="translate(-85.987 9.037)" fill="#fff"/>
          <path id="Trazado_1032177" data-name="Trazado 1032177" d="M145.968,27.37a1.762,1.762,0,1,1-1.766-1.756,1.761,1.761,0,0,1,1.766,1.756" transform="translate(-72.845 9.031)" fill="#fff"/>
        </g>
      </g>
    </g>
  </g>
</svg>
