<svg xmlns="http://www.w3.org/2000/svg" xmlns:xlink="http://www.w3.org/1999/xlink" width="133" height="133" viewBox="0 0 133 133">
  <defs>
    <clipPath id="clip-path">
      <rect id="Rectángulo_454829" data-name="Rectángulo 454829" width="133" height="133" fill="#1e535a"/>
    </clipPath>
  </defs>
  <g id="Grupo_1184567" data-name="Grupo 1184567" transform="translate(-186 -4323.945)">
    <g id="Grupo_1177591" data-name="Grupo 1177591" transform="translate(186 4323.945)">
      <g id="Grupo_1177589" data-name="Grupo 1177589" transform="translate(0 0)">
        <g id="Grupo_1177587" data-name="Grupo 1177587" clip-path="url(#clip-path)">
          <path id="Trazado_997422" data-name="Trazado 997422" d="M127.57,58.867a61.147,61.147,0,0,0-13.812-31.819,7.032,7.032,0,0,0-9.895-9.474A61.057,61.057,0,0,0,72.251,5.223,7.034,7.034,0,0,0,58.59,5.5,61.141,61.141,0,0,0,28.26,18.467,7.036,7.036,0,0,0,18.495,28.3,61.09,61.09,0,0,0,5.7,58.808a7.039,7.039,0,0,0-.168,13.784,61.072,61.072,0,0,0,12.4,31.127,7.035,7.035,0,0,0,9.558,9.934,61.136,61.136,0,0,0,31.05,13.58,7.036,7.036,0,0,0,13.784.277,61.084,61.084,0,0,0,31.843-12.58,7.034,7.034,0,0,0,9.846-9.523,61.162,61.162,0,0,0,13.728-32.882,7.036,7.036,0,0,0-.165-13.658M107.7,30.513a7,7,0,0,0,3.9-1.179A58.067,58.067,0,0,1,124.414,58.85a7.046,7.046,0,0,0-4.5,3.257l-17.982-6.743c.014-.2.028-.4.028-.6a7.036,7.036,0,0,0-2.98-5.749l7.866-18.558a7.621,7.621,0,0,0,.853.056m-3.8-1.12L96.085,47.828a6.963,6.963,0,0,0-7.75,4.475L55.8,44.81a6.845,6.845,0,0,0-.147-1.4L101.82,27.333a7.058,7.058,0,0,0,2.081,2.06M65.456,14.082a7.041,7.041,0,0,0,6.911-5.711A57.971,57.971,0,0,1,101.68,19.835a7,7,0,0,0-1.018,3.636,7.392,7.392,0,0,0,.067.93l-46.4,16.153a7.062,7.062,0,0,0-1.274-1.274L65.228,14.072c.077,0,.151.011.228.011M58.608,8.649a7.043,7.043,0,0,0,3.542,4.609L50.219,37.965a7.061,7.061,0,0,0-1.453-.151,6.99,6.99,0,0,0-4.012,1.26L30.611,27.263a7,7,0,0,0-.239-6.48A58.017,58.017,0,0,1,58.608,8.649m-44.7,55.54L43.16,49.1a7.015,7.015,0,0,0,5.549,2.791L58.734,83.936a7.157,7.157,0,0,0-1.551,1.716L13.823,67.586a6.994,6.994,0,0,0,.26-1.867,7.076,7.076,0,0,0-.172-1.53M20.818,30.4a7.036,7.036,0,0,0,7.859-.67L42.64,41.387a7.022,7.022,0,0,0-.776,4.865L12.566,61.36a7.039,7.039,0,0,0-3.728-2.443A57.992,57.992,0,0,1,20.818,30.4m2.913,70.265a7.02,7.02,0,0,0-3.5.934A57.94,57.94,0,0,1,8.677,72.56a7.047,7.047,0,0,0,3.654-2.2L56.122,88.6a7.55,7.55,0,0,0-.056.846,7.04,7.04,0,0,0,.421,2.38L30,104.516a7.04,7.04,0,0,0-6.272-3.854M58.671,124.1A58.075,58.075,0,0,1,29.7,111.424a6.967,6.967,0,0,0,1.074-3.721l0-.081L58.19,94.481a7.041,7.041,0,0,0,2.485,1.569l1.643,23.612a7.041,7.041,0,0,0-3.647,4.437m2.917-41.521L51.777,51.212a7.051,7.051,0,0,0,3.345-3.345l32.795,7.55a7,7,0,0,0,1.12,3.2L66.544,83.3a6.954,6.954,0,0,0-4.956-.727m10.723,41.794a7.039,7.039,0,0,0-6.855-5.455l-.053,0L63.841,96.453a7.028,7.028,0,0,0,4.3-2.088l32.788,14.462c0,.063-.011.119-.011.183a7.006,7.006,0,0,0,1.042,3.672,57.968,57.968,0,0,1-29.653,11.692m29.411-18.617L69.787,91.666a7,7,0,0,0-.923-6.262L91.29,60.787a7,7,0,0,0,3.633,1.018,7.75,7.75,0,0,0,.863-.056l8.382,41.335a7.025,7.025,0,0,0-2.447,2.671m10.1-2.633a7,7,0,0,0-4.679-1.106L98.759,60.665a7.069,7.069,0,0,0,2.218-2.317l17.972,6.739a6.245,6.245,0,0,0-.032.632,7.039,7.039,0,0,0,5.658,6.9,58.016,58.016,0,0,1-12.752,30.5" transform="translate(0 0.001)" fill="#1e535a"/>
        </g>
      </g>
    </g>
    <g id="Elipse_13614" data-name="Elipse 13614" transform="translate(210.273 4348.213)" fill="#fff" stroke="#1e535a" stroke-width="3">
      <ellipse cx="42.232" cy="42.233" rx="42.232" ry="42.233" stroke="none"/>
      <ellipse cx="42.232" cy="42.233" rx="40.732" ry="40.733" fill="none"/>
    </g>
    <g id="bloqueado" transform="translate(225.967 4365.396)">
      <path id="Línea_3244" data-name="Línea 3244" d="M35.46-5.945H-6.723A.777.777,0,0,1-7.5-6.723.777.777,0,0,1-6.723-7.5H35.46a.777.777,0,0,1,.777.777A.777.777,0,0,1,35.46-5.945Z" transform="translate(7.5 19.937)" fill="#1e535a"/>
      <path id="Rectángulo_458970" data-name="Rectángulo 458970" d="M-6.723-7.5H16.8a.777.777,0,0,1,.777.777v3.109a.777.777,0,0,1-.777.777H-6.723A.777.777,0,0,1-7.5-3.613V-6.723A.777.777,0,0,1-6.723-7.5Zm22.75,1.555H-5.945v1.555H16.027Z" transform="translate(23.047 23.047)" fill="#1e535a"/>
      <path id="Elipse_13712" data-name="Elipse 13712" d="M-5.168-7.5A2.335,2.335,0,0,1-2.836-5.168,2.335,2.335,0,0,1-5.168-2.836,2.335,2.335,0,0,1-7.5-5.168,2.335,2.335,0,0,1-5.168-7.5Zm0,3.109a.778.778,0,0,0,.777-.777.778.778,0,0,0-.777-.777.778.778,0,0,0-.777.777A.778.778,0,0,0-5.168-4.391Z" transform="translate(16.828 23.047)" fill="#1e535a"/>
      <path id="Elipse_13713" data-name="Elipse 13713" d="M-5.168-7.5A2.335,2.335,0,0,1-2.836-5.168,2.335,2.335,0,0,1-5.168-2.836,2.335,2.335,0,0,1-7.5-5.168,2.335,2.335,0,0,1-5.168-7.5Zm0,3.109a.778.778,0,0,0,.777-.777.778.778,0,0,0-.777-.777.778.778,0,0,0-.777.777A.778.778,0,0,0-5.168-4.391Z" transform="translate(10.609 23.047)" fill="#1e535a"/>
      <path id="Trazado_1031367" data-name="Trazado 1031367" d="M439.332,81.972A2.335,2.335,0,0,1,437,79.64V73.215a.777.777,0,0,1,1.555,0V79.64a.777.777,0,1,0,1.555,0V60.777a.777.777,0,0,1,1.555,0V79.64A2.335,2.335,0,0,1,439.332,81.972Z" transform="translate(-391.708 -53.781)" fill="#1e535a"/>
      <path id="Trazado_1031368" data-name="Trazado 1031368" d="M72.96,17.1a.777.777,0,0,1-.777-.777V1.555H31.555V3.887a.777.777,0,1,1-1.555,0V.777A.777.777,0,0,1,30.777,0H72.96a.777.777,0,0,1,.777.777V16.324A.777.777,0,0,1,72.96,17.1Z" transform="translate(-26.891)" fill="#1e535a"/>
      <path id="Trazado_1031369" data-name="Trazado 1031369" d="M444,70.883a.777.777,0,0,1-.777-.777V61.555h-5.441a.777.777,0,0,1,0-1.555H444a.777.777,0,0,1,.777.777v9.328A.777.777,0,0,1,444,70.883Z" transform="translate(-391.708 -53.781)" fill="#1e535a"/>
      <path id="Línea_3245" data-name="Línea 3245" d="M35.46-5.945H-6.723A.777.777,0,0,1-7.5-6.723.777.777,0,0,1-6.723-7.5H35.46a.777.777,0,0,1,.777.777A.777.777,0,0,1,35.46-5.945Z" transform="translate(7.5 29.265)" fill="#1e535a"/>
      <path id="Línea_3246" data-name="Línea 3246" d="M-6.723,3.383A.777.777,0,0,1-7.5,2.605V-6.723A.777.777,0,0,1-6.723-7.5a.777.777,0,0,1,.777.777V2.605A.777.777,0,0,1-6.723,3.383Z" transform="translate(40.355 10.609)" fill="#1e535a"/>
      <path id="Trazado_1031370" data-name="Trazado 1031370" d="M47.624,58.191a5.447,5.447,0,0,1-5.441-5.441v-21.2H1.555v21.2a3.891,3.891,0,0,0,3.887,3.887h8.447a.777.777,0,1,1,0,1.555H5.441A5.447,5.447,0,0,1,0,52.75V30.777A.777.777,0,0,1,.777,30H42.96a.777.777,0,0,1,.777.777V52.75a3.887,3.887,0,1,0,7.773,0V46.324a.777.777,0,1,1,1.555,0V52.75A5.447,5.447,0,0,1,47.624,58.191Z" transform="translate(0 -26.891)" fill="#1e535a"/>
      <path id="Línea_3247" data-name="Línea 3247" d="M11.052-5.945H-6.723A.777.777,0,0,1-7.5-6.723.777.777,0,0,1-6.723-7.5H11.052a.777.777,0,0,1,.777.777A.777.777,0,0,1,11.052-5.945Z" transform="translate(36.572 37.246)" fill="#1e535a"/>
      <path id="Trazado_1031371" data-name="Trazado 1031371" d="M116.348,350.656H100.387a3.891,3.891,0,0,1-3.887-3.887V335.887A3.891,3.891,0,0,1,100.387,332h15.961a3.891,3.891,0,0,1,3.887,3.887v10.883A3.891,3.891,0,0,1,116.348,350.656Zm-15.961-17.1a2.335,2.335,0,0,0-2.332,2.332v10.883a2.335,2.335,0,0,0,2.332,2.332h15.961a2.335,2.335,0,0,0,2.332-2.332V335.887a2.335,2.335,0,0,0-2.332-2.332Z" transform="translate(-86.498 -297.59)" fill="#1e535a"/>
      <path id="Trazado_1031372" data-name="Trazado 1031372" d="M184.109,377a3.109,3.109,0,0,1,2.332,5.166V384a2.332,2.332,0,1,1-4.664,0v-1.83A3.109,3.109,0,0,1,184.109,377Zm0,7.773a.778.778,0,0,0,.777-.777v-2.143a.777.777,0,0,1,.228-.55l.094-.094a1.555,1.555,0,1,0-2.2,0l.094.094a.777.777,0,0,1,.228.55V384A.778.778,0,0,0,184.109,384.773Z" transform="translate(-162.241 -337.926)" fill="#1e535a"/>
      <path id="Trazado_1031373" data-name="Trazado 1031373" d="M143.238,224.2a.777.777,0,0,1-.777-.777v-4.664a7.2,7.2,0,1,0-14.406,0v4.664a.777.777,0,1,1-1.555,0v-4.664a8.758,8.758,0,1,1,17.516,0v4.664A.777.777,0,0,1,143.238,224.2Z" transform="translate(-113.389 -188.235)" fill="#1e535a"/>
      <path id="Trazado_1031374" data-name="Trazado 1031374" d="M180.5,266.328a.777.777,0,0,1-.777-.777v-4.664a2.332,2.332,0,1,0-4.664,0v4.664a.777.777,0,0,1-1.555,0v-4.664a3.887,3.887,0,1,1,7.773,0v4.664A.777.777,0,0,1,180.5,266.328Z" transform="translate(-155.518 -230.364)" fill="#1e535a"/>
      <path id="Línea_3248" data-name="Línea 3248" d="M-.5-5.945H-6.723A.777.777,0,0,1-7.5-6.723.777.777,0,0,1-6.723-7.5H-.5a.777.777,0,0,1,.777.777A.777.777,0,0,1-.5-5.945Z" transform="translate(25.482 37.246)" fill="#1e535a"/>
    </g>
  </g>
</svg>
