<svg xmlns="http://www.w3.org/2000/svg" xmlns:xlink="http://www.w3.org/1999/xlink" width="133" height="133" viewBox="0 0 133 133">
  <defs>
    <clipPath id="clip-path">
      <rect id="Rectángulo_454829" data-name="Rectángulo 454829" width="133" height="133" fill="#1e535a"/>
    </clipPath>
  </defs>
  <g id="Grupo_1184565" data-name="Grupo 1184565" transform="translate(-186 -4323.945)">
    <g id="Grupo_1177591" data-name="Grupo 1177591" transform="translate(186 4323.945)">
      <g id="Grupo_1177589" data-name="Grupo 1177589" transform="translate(0 0)">
        <g id="Grupo_1177587" data-name="Grupo 1177587" clip-path="url(#clip-path)">
          <path id="Trazado_997422" data-name="Trazado 997422" d="M127.57,58.867a61.147,61.147,0,0,0-13.812-31.819,7.032,7.032,0,0,0-9.895-9.474A61.057,61.057,0,0,0,72.251,5.223,7.034,7.034,0,0,0,58.59,5.5,61.141,61.141,0,0,0,28.26,18.467,7.036,7.036,0,0,0,18.495,28.3,61.09,61.09,0,0,0,5.7,58.808a7.039,7.039,0,0,0-.168,13.784,61.072,61.072,0,0,0,12.4,31.127,7.035,7.035,0,0,0,9.558,9.934,61.136,61.136,0,0,0,31.05,13.58,7.036,7.036,0,0,0,13.784.277,61.084,61.084,0,0,0,31.843-12.58,7.034,7.034,0,0,0,9.846-9.523,61.162,61.162,0,0,0,13.728-32.882,7.036,7.036,0,0,0-.165-13.658M107.7,30.513a7,7,0,0,0,3.9-1.179A58.067,58.067,0,0,1,124.414,58.85a7.046,7.046,0,0,0-4.5,3.257l-17.982-6.743c.014-.2.028-.4.028-.6a7.036,7.036,0,0,0-2.98-5.749l7.866-18.558a7.621,7.621,0,0,0,.853.056m-3.8-1.12L96.085,47.828a6.963,6.963,0,0,0-7.75,4.475L55.8,44.81a6.845,6.845,0,0,0-.147-1.4L101.82,27.333a7.058,7.058,0,0,0,2.081,2.06M65.456,14.082a7.041,7.041,0,0,0,6.911-5.711A57.971,57.971,0,0,1,101.68,19.835a7,7,0,0,0-1.018,3.636,7.392,7.392,0,0,0,.067.93l-46.4,16.153a7.062,7.062,0,0,0-1.274-1.274L65.228,14.072c.077,0,.151.011.228.011M58.608,8.649a7.043,7.043,0,0,0,3.542,4.609L50.219,37.965a7.061,7.061,0,0,0-1.453-.151,6.99,6.99,0,0,0-4.012,1.26L30.611,27.263a7,7,0,0,0-.239-6.48A58.017,58.017,0,0,1,58.608,8.649m-44.7,55.54L43.16,49.1a7.015,7.015,0,0,0,5.549,2.791L58.734,83.936a7.157,7.157,0,0,0-1.551,1.716L13.823,67.586a6.994,6.994,0,0,0,.26-1.867,7.076,7.076,0,0,0-.172-1.53M20.818,30.4a7.036,7.036,0,0,0,7.859-.67L42.64,41.387a7.022,7.022,0,0,0-.776,4.865L12.566,61.36a7.039,7.039,0,0,0-3.728-2.443A57.992,57.992,0,0,1,20.818,30.4m2.913,70.265a7.02,7.02,0,0,0-3.5.934A57.94,57.94,0,0,1,8.677,72.56a7.047,7.047,0,0,0,3.654-2.2L56.122,88.6a7.55,7.55,0,0,0-.056.846,7.04,7.04,0,0,0,.421,2.38L30,104.516a7.04,7.04,0,0,0-6.272-3.854M58.671,124.1A58.075,58.075,0,0,1,29.7,111.424a6.967,6.967,0,0,0,1.074-3.721l0-.081L58.19,94.481a7.041,7.041,0,0,0,2.485,1.569l1.643,23.612a7.041,7.041,0,0,0-3.647,4.437m2.917-41.521L51.777,51.212a7.051,7.051,0,0,0,3.345-3.345l32.795,7.55a7,7,0,0,0,1.12,3.2L66.544,83.3a6.954,6.954,0,0,0-4.956-.727m10.723,41.794a7.039,7.039,0,0,0-6.855-5.455l-.053,0L63.841,96.453a7.028,7.028,0,0,0,4.3-2.088l32.788,14.462c0,.063-.011.119-.011.183a7.006,7.006,0,0,0,1.042,3.672,57.968,57.968,0,0,1-29.653,11.692m29.411-18.617L69.787,91.666a7,7,0,0,0-.923-6.262L91.29,60.787a7,7,0,0,0,3.633,1.018,7.75,7.75,0,0,0,.863-.056l8.382,41.335a7.025,7.025,0,0,0-2.447,2.671m10.1-2.633a7,7,0,0,0-4.679-1.106L98.759,60.665a7.069,7.069,0,0,0,2.218-2.317l17.972,6.739a6.245,6.245,0,0,0-.032.632,7.039,7.039,0,0,0,5.658,6.9,58.016,58.016,0,0,1-12.752,30.5" transform="translate(0 0.001)" fill="#1e535a"/>
        </g>
      </g>
    </g>
    <g id="Elipse_13614" data-name="Elipse 13614" transform="translate(210.273 4348.213)" fill="#fff" stroke="#1e535a" stroke-width="3">
      <ellipse cx="42.232" cy="42.233" rx="42.232" ry="42.233" stroke="none"/>
      <ellipse cx="42.232" cy="42.233" rx="40.732" ry="40.733" fill="none"/>
    </g>
    <g id="transmision-web" transform="translate(226.33 4366.805)">
      <path id="Trazado_1031367" data-name="Trazado 1031367" d="M72.38,66.808H33.834A3.838,3.838,0,0,1,30,62.973v-9.2a.767.767,0,0,1,1.534,0v9.2a2.3,2.3,0,0,0,2.3,2.3H72.38a2.3,2.3,0,0,0,2.3-2.3V33.834a2.3,2.3,0,0,0-2.3-2.3H33.834a2.3,2.3,0,0,0-2.3,2.3V50.7A.767.767,0,0,1,30,50.7V33.834A3.838,3.838,0,0,1,33.834,30H72.38a3.838,3.838,0,0,1,3.834,3.834V62.973A3.838,3.838,0,0,1,72.38,66.808Z" transform="translate(-26.933 -26.933)" fill="#1e535a"/>
      <path id="Rectángulo_458970" data-name="Rectángulo 458970" d="M-6.733-7.5H31.813a.767.767,0,0,1,.767.767V22.406a.767.767,0,0,1-.767.767H-6.733a.767.767,0,0,1-.767-.767V-6.733A.767.767,0,0,1-6.733-7.5ZM31.046-5.966H-5.966V21.639H31.046Z" transform="translate(13.635 13.635)" fill="#1e535a"/>
      <path id="Línea_3244" data-name="Línea 3244" d="M31.813-5.966H-6.733A.767.767,0,0,1-7.5-6.733.767.767,0,0,1-6.733-7.5H31.813a.767.767,0,0,1,.767.767A.767.767,0,0,1,31.813-5.966Z" transform="translate(13.635 21.303)" fill="#1e535a"/>
      <path id="Línea_3245" data-name="Línea 3245" d="M31.813-5.966H-6.733A.767.767,0,0,1-7.5-6.733.767.767,0,0,1-6.733-7.5H31.813a.767.767,0,0,1,.767.767A.767.767,0,0,1,31.813-5.966Z" transform="translate(13.635 30.505)" fill="#1e535a"/>
      <path id="Rectángulo_458971" data-name="Rectángulo 458971" d="M-6.733-7.5H13.409a.767.767,0,0,1,.767.767v3.067a.767.767,0,0,1-.767.767H-6.733A.767.767,0,0,1-7.5-3.666V-6.733A.767.767,0,0,1-6.733-7.5ZM12.642-5.966H-5.966v1.534H12.642Z" transform="translate(28.971 24.37)" fill="#1e535a"/>
      <path id="Trazado_1031368" data-name="Trazado 1031368" d="M26.174,52.349a2.265,2.265,0,0,1-2.125-1.42l-3.308-7.986H6.9a6.909,6.909,0,0,1-6.9-6.9V6.9A6.909,6.909,0,0,1,6.9,0H45.447a6.909,6.909,0,0,1,6.9,6.9V14.57a.767.767,0,1,1-1.534,0V6.9a5.374,5.374,0,0,0-5.368-5.368H6.9A5.374,5.374,0,0,0,1.534,6.9V36.041A5.374,5.374,0,0,0,6.9,41.409H21.253a.767.767,0,0,1,.708.473l3.5,8.46a.767.767,0,0,0,1.417,0l3.5-8.46a.767.767,0,0,1,.708-.473H45.447a5.374,5.374,0,0,0,5.368-5.368v-18.4a.767.767,0,1,1,1.534,0v18.4a6.909,6.909,0,0,1-6.9,6.9H31.608L28.3,50.928A2.265,2.265,0,0,1,26.174,52.349Z" transform="translate(0 0)" fill="#1e535a"/>
      <path id="Línea_3246" data-name="Línea 3246" d="M-6.733,1.7A.767.767,0,0,1-7.5.935V-6.733A.767.767,0,0,1-6.733-7.5a.767.767,0,0,1,.767.767V.935A.767.767,0,0,1-6.733,1.7Z" transform="translate(44.512 13.635)" fill="#1e535a"/>
      <path id="Elipse_13712" data-name="Elipse 13712" d="M-5.2-7.5A2.3,2.3,0,0,1-2.9-5.2,2.3,2.3,0,0,1-5.2-2.9,2.3,2.3,0,0,1-7.5-5.2,2.3,2.3,0,0,1-5.2-7.5Zm0,3.067A.768.768,0,0,0-4.433-5.2.768.768,0,0,0-5.2-5.966a.768.768,0,0,0-.767.767A.768.768,0,0,0-5.2-4.433Z" transform="translate(16.702 24.37)" fill="#1e535a"/>
      <path id="Elipse_13713" data-name="Elipse 13713" d="M-5.2-7.5A2.3,2.3,0,0,1-2.9-5.2,2.3,2.3,0,0,1-5.2-2.9,2.3,2.3,0,0,1-7.5-5.2,2.3,2.3,0,0,1-5.2-7.5Zm0,3.067A.768.768,0,0,0-4.433-5.2.768.768,0,0,0-5.2-5.966a.768.768,0,0,0-.767.767A.768.768,0,0,0-5.2-4.433Z" transform="translate(22.836 24.37)" fill="#1e535a"/>
    </g>
  </g>
</svg>
