<svg xmlns="http://www.w3.org/2000/svg" xmlns:xlink="http://www.w3.org/1999/xlink" width="129" height="129" viewBox="0 0 129 129">
  <defs>
    <clipPath id="clip-path">
      <rect id="Rectángulo_454829" data-name="Rectángulo 454829" width="129" height="129" fill="#1e535a"/>
    </clipPath>
  </defs>
  <g id="Grupo_1185645" data-name="Grupo 1185645" transform="translate(-186 -4323.945)">
    <g id="Grupo_1177591" data-name="Grupo 1177591" transform="translate(186 4323.945)">
      <g id="Grupo_1177589" data-name="Grupo 1177589" transform="translate(0 0)">
        <g id="Grupo_1177587" data-name="Grupo 1177587" clip-path="url(#clip-path)">
          <path id="Trazado_997422" data-name="Trazado 997422" d="M123.733,57.1a59.308,59.308,0,0,0-13.4-30.862,6.821,6.821,0,0,0-9.6-9.189A59.221,59.221,0,0,0,70.078,5.066a6.822,6.822,0,0,0-13.25.269A59.3,59.3,0,0,0,27.41,17.911a6.824,6.824,0,0,0-9.471,9.536A59.253,59.253,0,0,0,5.526,57.039a6.827,6.827,0,0,0-.163,13.369A59.236,59.236,0,0,0,17.387,100.6a6.823,6.823,0,0,0,9.27,9.635,59.3,59.3,0,0,0,30.116,13.172,6.824,6.824,0,0,0,13.369.269,59.247,59.247,0,0,0,30.886-12.2,6.822,6.822,0,0,0,9.55-9.236,59.323,59.323,0,0,0,13.315-31.893,6.824,6.824,0,0,0-.16-13.247M104.464,29.6a6.785,6.785,0,0,0,3.779-1.144,56.321,56.321,0,0,1,12.43,28.628,6.834,6.834,0,0,0-4.361,3.159L98.87,53.7c.014-.191.027-.385.027-.582a6.825,6.825,0,0,0-2.89-5.577l7.629-18a7.392,7.392,0,0,0,.827.054m-3.687-1.086L93.195,46.39a6.754,6.754,0,0,0-7.517,4.341L54.125,43.462a6.639,6.639,0,0,0-.143-1.358L98.758,26.511a6.846,6.846,0,0,0,2.019,2m-37.29-14.85a6.83,6.83,0,0,0,6.7-5.539A56.228,56.228,0,0,1,98.622,19.239a6.792,6.792,0,0,0-.987,3.527,7.17,7.17,0,0,0,.065.9l-45,15.668A6.85,6.85,0,0,0,51.462,38.1l11.8-24.451c.075,0,.146.01.221.01m-6.642-5.27a6.831,6.831,0,0,0,3.435,4.47L48.708,36.823a6.848,6.848,0,0,0-1.409-.146A6.78,6.78,0,0,0,43.407,37.9L29.691,26.443a6.789,6.789,0,0,0-.232-6.285A56.272,56.272,0,0,1,56.845,8.389M13.492,62.258l28.37-14.633a6.8,6.8,0,0,0,5.383,2.707l9.723,31.08a6.941,6.941,0,0,0-1.5,1.665L13.407,65.554a6.784,6.784,0,0,0,.252-1.811,6.863,6.863,0,0,0-.167-1.484m6.7-32.775a6.824,6.824,0,0,0,7.623-.65l13.543,11.31a6.81,6.81,0,0,0-.752,4.719L12.188,59.514a6.827,6.827,0,0,0-3.616-2.37,56.248,56.248,0,0,1,11.62-27.662m2.826,68.151a6.809,6.809,0,0,0-3.391.906A56.2,56.2,0,0,1,8.416,70.378,6.835,6.835,0,0,0,11.96,68.24l42.475,17.7a7.323,7.323,0,0,0-.054.82,6.828,6.828,0,0,0,.409,2.308L29.1,101.373a6.828,6.828,0,0,0-6.084-3.738m33.888,22.732a56.328,56.328,0,0,1-28.1-12.294,6.758,6.758,0,0,0,1.042-3.609l0-.078,26.6-12.746a6.829,6.829,0,0,0,2.41,1.522l1.593,22.9a6.829,6.829,0,0,0-3.537,4.3m2.829-40.272L50.22,49.672a6.839,6.839,0,0,0,3.244-3.244L85.273,53.75a6.789,6.789,0,0,0,1.086,3.1L64.543,80.8a6.745,6.745,0,0,0-4.807-.7m10.4,40.537a6.827,6.827,0,0,0-6.649-5.291l-.051,0L61.921,93.552a6.817,6.817,0,0,0,4.174-2.026l31.8,14.027c0,.061-.01.116-.01.177a6.8,6.8,0,0,0,1.011,3.561,56.224,56.224,0,0,1-28.761,11.34m28.526-18.058L67.688,88.909a6.789,6.789,0,0,0-.9-6.074L88.544,58.959a6.789,6.789,0,0,0,3.524.987,7.517,7.517,0,0,0,.838-.054l8.13,40.091a6.814,6.814,0,0,0-2.373,2.591m9.8-2.553a6.788,6.788,0,0,0-4.538-1.072L95.789,58.84a6.857,6.857,0,0,0,2.152-2.247l17.431,6.537a6.057,6.057,0,0,0-.031.613,6.827,6.827,0,0,0,5.488,6.693,56.271,56.271,0,0,1-12.369,29.585" transform="translate(0 0.001)" fill="#1e535a"/>
        </g>
      </g>
    </g>
    <g id="Elipse_13614" data-name="Elipse 13614" transform="translate(210.273 4348.213)" fill="#fff" stroke="#1e535a" stroke-width="3">
      <ellipse cx="40.232" cy="40.233" rx="40.232" ry="40.233" stroke="none"/>
      <ellipse cx="40.232" cy="40.233" rx="38.732" ry="38.733" fill="none"/>
    </g>
    <g id="actualizando_1_" data-name="actualizando (1)" transform="translate(226.839 4365.775)">
      <g id="Page-1_10_" transform="translate(0 0.01)">
        <g id="_x30_11---Computer-Updating">
          <path id="Shape_27_" d="M45.956.01H3.367A2.445,2.445,0,0,0,1,2.52V36.934a2.445,2.445,0,0,0,2.366,2.51H17.076L15.5,42.6H12.831a2.366,2.366,0,1,0,0,4.732h23.66a2.366,2.366,0,1,0,0-4.732H33.824l-1.577-3.155H45.956a2.445,2.445,0,0,0,2.366-2.51V2.52A2.445,2.445,0,0,0,45.956.01ZM3.367,1.587H45.956a.881.881,0,0,1,.789.932V33.134H2.578V2.52a.881.881,0,0,1,.789-.932ZM37.28,44.965a.789.789,0,0,1-.789.789H12.831a.789.789,0,1,1,0-1.577h23.66A.789.789,0,0,1,37.28,44.965ZM32.061,42.6h-14.8l1.577-3.155H30.483Zm13.895-4.732H3.367a.881.881,0,0,1-.789-.932V34.712H46.744v2.222a.881.881,0,0,1-.789.932Z" transform="translate(-1 -0.01)" fill="#1e535a"/>
          <path id="Shape_26_" d="M210.488,103.34a4.732,4.732,0,1,0-4.738-4.732A4.732,4.732,0,0,0,210.488,103.34Zm0-7.887a3.155,3.155,0,1,1-3.16,3.155A3.155,3.155,0,0,1,210.488,95.453Z" transform="translate(-186.826 -85.201)" fill="#1e535a"/>
          <path id="Shape_25_" d="M155.877,49.664a1.577,1.577,0,0,0-1.268,1.547v1.861a1.577,1.577,0,0,0,1.267,1.547l.756.151a7.858,7.858,0,0,0,.319.775l-.427.64a1.584,1.584,0,0,0,.2,1.991l1.317,1.316a1.585,1.585,0,0,0,1.99.2l.646-.431a7.984,7.984,0,0,0,.767.315l.153.763a1.577,1.577,0,0,0,1.547,1.268H165a1.577,1.577,0,0,0,1.547-1.267l.153-.764a8.006,8.006,0,0,0,.767-.315l.646.431a1.584,1.584,0,0,0,1.991-.2l1.316-1.317a1.583,1.583,0,0,0,.2-1.99l-.427-.64a7.848,7.848,0,0,0,.315-.775l.756-.151a1.577,1.577,0,0,0,1.272-1.547V51.21a1.577,1.577,0,0,0-1.267-1.547l-.756-.151a7.869,7.869,0,0,0-.321-.775l.427-.64a1.584,1.584,0,0,0-.2-1.991l-1.317-1.316a1.582,1.582,0,0,0-1.99-.2l-.646.431a7.983,7.983,0,0,0-.767-.315l-.153-.763A1.577,1.577,0,0,0,165,42.677h-1.861a1.577,1.577,0,0,0-1.547,1.267l-.153.764a8.006,8.006,0,0,0-.767.315l-.646-.431a1.583,1.583,0,0,0-1.991.2l-1.316,1.317a1.583,1.583,0,0,0-.2,1.99l.427.64a7.873,7.873,0,0,0-.321.775Zm1.52,1.3a.789.789,0,0,0,.6-.557,6.286,6.286,0,0,1,.552-1.341.789.789,0,0,0-.032-.823l-.685-1.025,1.317-1.316,1.031.688a.784.784,0,0,0,.82.033,6.282,6.282,0,0,1,1.334-.548.789.789,0,0,0,.558-.6l.247-1.22H165l.244,1.22a.789.789,0,0,0,.558.6,6.269,6.269,0,0,1,1.334.548.784.784,0,0,0,.82-.033l1.032-.688,1.316,1.316-.685,1.025a.789.789,0,0,0-.03.825,6.282,6.282,0,0,1,.552,1.341.789.789,0,0,0,.6.557l1.211.241v1.861l-1.211.242a.789.789,0,0,0-.6.557,6.2,6.2,0,0,1-.552,1.341.789.789,0,0,0,.032.823l.685,1.025-1.317,1.316-1.031-.688a.789.789,0,0,0-.82-.033,6.322,6.322,0,0,1-1.334.552.789.789,0,0,0-.558.6L165,60.028h-1.861l-.244-1.22a.789.789,0,0,0-.558-.6,6.32,6.32,0,0,1-1.334-.552.789.789,0,0,0-.82.033l-1.032.688-1.316-1.317.685-1.025a.789.789,0,0,0,.03-.821A6.2,6.2,0,0,1,158,53.869a.789.789,0,0,0-.6-.557l-1.211-.241V51.21Z" transform="translate(-140.412 -38.734)" fill="#1e535a"/>
          <path id="Shape_24_" d="M46.042,286.342h34.7a2.366,2.366,0,1,0,0-4.732h-34.7a2.366,2.366,0,1,0,0,4.732Zm35.49-2.366a.789.789,0,0,1-.789.789H70.491v-1.577H80.744a.789.789,0,0,1,.789.789Zm-35.49-.789H68.914v1.577H46.042a.789.789,0,0,1,0-1.577Z" transform="translate(-39.732 -255.584)" fill="#1e535a"/>
          <g id="Grupo_1185642" data-name="Grupo 1185642" transform="translate(7.897 3.154)">
            <path id="Path_14_" d="M354.778,122.441l.215-.215a12.5,12.5,0,0,1-3.676,8.563.789.789,0,0,0,1.115,1.117,14.068,14.068,0,0,0,4.14-9.707l.246.246a.789.789,0,0,0,1.115-1.115l-1.577-1.577a.789.789,0,0,0-1.115,0l-1.577,1.577a.789.789,0,0,0,1.115,1.115v0Z" transform="translate(-326.627 -111.63)" fill="#1e535a" fill-rule="evenodd"/>
            <path id="Path_13_" d="M88.248,46.526a.789.789,0,0,0,1.115,0l1.577-1.577a.789.789,0,0,0-1.115-1.115l-.215.215a12.5,12.5,0,0,1,3.676-8.563.789.789,0,0,0-1.115-1.117,14.068,14.068,0,0,0-4.14,9.711l-.246-.246a.789.789,0,0,0-1.115,1.115Z" transform="translate(-86.449 -34.138)" fill="#1e535a" fill-rule="evenodd"/>
          </g>
        </g>
      </g>
    </g>
  </g>
</svg>
