<svg xmlns="http://www.w3.org/2000/svg" xmlns:xlink="http://www.w3.org/1999/xlink" width="84" height="84" viewBox="0 0 84 84">
  <defs>
    <clipPath id="clip-path">
      <path id="path2907" d="M0-682.665H49.254v49.254H0Z" transform="translate(0 682.665)" fill="#fff"/>
    </clipPath>
  </defs>
  <g id="Grupo_1185647" data-name="Grupo 1185647" transform="translate(-266.711 -4849)">
    <rect id="Rectángulo_458788" data-name="Rectángulo 458788" width="84" height="84" rx="42" transform="translate(266.711 4849)" fill="#1e535a"/>
    <g id="g2901" transform="translate(283.61 5549.665)">
      <g id="g2903" transform="translate(0 -682.665)">
        <g id="g2905" clip-path="url(#clip-path)">
          <g id="g2911" transform="translate(21.639 0)">
            <path id="path2913" d="M-194.355-53.777h-10.819a4.5,4.5,0,0,1-3.207-1.329,4.5,4.5,0,0,1-1.328-3.205,1.649,1.649,0,0,0-1.647-1.648h0A1.443,1.443,0,0,1-212.8-61.4a1.443,1.443,0,0,1,1.438-1.443h10.824a4.5,4.5,0,0,1,3.207,1.329A4.5,4.5,0,0,1-196-58.311a1.65,1.65,0,0,0,1.648,1.648,1.443,1.443,0,0,1,1.443,1.443A1.443,1.443,0,0,1-194.355-53.777Zm-12.777-6.182a4.509,4.509,0,0,1,.31,1.647,1.636,1.636,0,0,0,.483,1.166,1.636,1.636,0,0,0,1.166.484h6.6a4.512,4.512,0,0,1-.31-1.648,1.635,1.635,0,0,0-.482-1.165,1.635,1.635,0,0,0-1.166-.484Z" transform="translate(212.799 62.845)" fill="#fff"/>
          </g>
          <g id="g2915" transform="translate(32.458 0)">
            <path id="path2917" d="M-197.446-53.777h-7.728a4.539,4.539,0,0,1-4.534-4.534,1.649,1.649,0,0,0-1.647-1.648h0A1.443,1.443,0,0,1-212.8-61.4a1.443,1.443,0,0,1,1.438-1.443h10.824a4.5,4.5,0,0,1,3.207,1.329A4.5,4.5,0,0,1-196-58.311v3.091A1.443,1.443,0,0,1-197.446-53.777Zm-9.686-6.182a4.509,4.509,0,0,1,.31,1.647,1.65,1.65,0,0,0,1.648,1.65h6.285v-1.648a1.635,1.635,0,0,0-.482-1.165,1.636,1.636,0,0,0-1.166-.484Z" transform="translate(212.799 62.845)" fill="#fff"/>
          </g>
          <path id="path2919" d="M478.914-411.894h-6.182a1.443,1.443,0,0,1-1.443-1.443v-10.819a1.443,1.443,0,0,1,1.443-1.443h6.182a1.443,1.443,0,0,1,1.443,1.443v10.819A1.443,1.443,0,0,1,478.914-411.894Zm-4.74-2.886h3.3v-7.933h-3.3Z" transform="translate(-437.285 444.146)" fill="#fff"/>
          <g id="g2921" transform="translate(9.274 27.821)">
            <path id="path2923" d="M-78.187-20a6.087,6.087,0,0,1,6.08,6.08,6.087,6.087,0,0,1-6.08,6.08,6.087,6.087,0,0,1-6.08-6.08A6.087,6.087,0,0,1-78.187-20Zm0,9.274a3.2,3.2,0,0,0,3.194-3.194,3.2,3.2,0,0,0-3.194-3.194A3.2,3.2,0,0,0-81.38-13.92,3.2,3.2,0,0,0-78.187-10.726Z" transform="translate(84.266 20)" fill="#fff"/>
          </g>
          <g id="g2925" transform="translate(10.819 0)">
            <path id="path2927" d="M13.9-238.631H-1.555A1.443,1.443,0,0,1-3-240.074v-4.739H-5.1a1.443,1.443,0,0,1-1.383-1.031,9.324,9.324,0,0,0-.738-1.779,1.443,1.443,0,0,1,.248-1.708l1.484-1.484-2.331-2.331L-9.3-251.663a1.443,1.443,0,0,1-1.708.248,9.322,9.322,0,0,0-1.779-.738,1.443,1.443,0,0,1-1.031-1.383v-2.1h-4.739A1.443,1.443,0,0,1-20-257.076v-15.456a4.5,4.5,0,0,1,1.329-3.207,4.5,4.5,0,0,1,3.205-1.328h7.728a4.5,4.5,0,0,1,3.207,1.329A4.5,4.5,0,0,1-3.2-272.532a1.635,1.635,0,0,0,.482,1.164,1.636,1.636,0,0,0,1.166.484H16.992a1.443,1.443,0,0,1,1.443,1.443v26.275a4.5,4.5,0,0,1-1.329,3.206A4.5,4.5,0,0,1,13.9-238.631ZM-.112-241.517H13.9A1.634,1.634,0,0,0,15.065-242a1.635,1.635,0,0,0,.484-1.166V-268h-17.1a4.5,4.5,0,0,1-3.206-1.329,4.5,4.5,0,0,1-1.328-3.205,1.635,1.635,0,0,0-.482-1.165,1.636,1.636,0,0,0-1.166-.484h-7.728a1.635,1.635,0,0,0-1.164.482,1.636,1.636,0,0,0-.484,1.166v14.013h4.739a1.443,1.443,0,0,1,1.443,1.443v2.516q.159.063.317.131l1.779-1.779a1.443,1.443,0,0,1,2.041,0l4.372,4.372A1.443,1.443,0,0,1-2-250.815a1.443,1.443,0,0,1-.423,1.02L-4.2-248.016q.068.158.131.317h2.516a1.443,1.443,0,0,1,1.443,1.443Z" transform="translate(20 277.066)" fill="#fff"/>
          </g>
          <g id="g2929" transform="translate(0 18.547)">
            <path id="path2931" d="M-243.381-69.068h6.182a1.443,1.443,0,0,1,1.443,1.443v2.516q.159.063.317.131l1.779-1.779a1.443,1.443,0,0,1,2.041,0l4.372,4.372a1.443,1.443,0,0,1,0,2.041l-1.779,1.779q.068.158.131.317h2.516a1.443,1.443,0,0,1,1.443,1.443v6.182a1.443,1.443,0,0,1-1.443,1.443h-2.516q-.063.159-.131.317l1.779,1.779a1.443,1.443,0,0,1,0,2.041l-4.372,4.372a1.443,1.443,0,0,1-1.02.423,1.443,1.443,0,0,1-1.02-.423l-1.779-1.779q-.158.068-.317.131V-39.8a1.443,1.443,0,0,1-1.443,1.443h-6.182a1.443,1.443,0,0,1-1.443-1.443v-2.515q-.159-.063-.317-.131l-1.778,1.779a1.443,1.443,0,0,1-1.02.423,1.443,1.443,0,0,1-1.02-.423l-4.372-4.372a1.443,1.443,0,0,1,0-2.041l1.779-1.779q-.068-.158-.131-.317H-254.2a1.443,1.443,0,0,1-1.443-1.443v-6.182a1.443,1.443,0,0,1,1.443-1.443h2.515q.063-.159.131-.317l-1.779-1.779a1.443,1.443,0,0,1,0-2.041l4.372-4.372a1.443,1.443,0,0,1,2.041,0l1.779,1.779q.158-.068.317-.131v-2.516A1.443,1.443,0,0,1-243.381-69.068Zm4.74,2.886h-3.3v2.1A1.443,1.443,0,0,1-242.97-62.7a9.328,9.328,0,0,0-1.779.738,1.443,1.443,0,0,1-1.708-.248L-247.94-63.7l-2.331,2.331,1.484,1.484a1.443,1.443,0,0,1,.248,1.708,9.317,9.317,0,0,0-.738,1.779,1.443,1.443,0,0,1-1.383,1.031h-2.1v3.3h2.1a1.443,1.443,0,0,1,1.383,1.032,9.322,9.322,0,0,0,.738,1.779,1.443,1.443,0,0,1-.248,1.708l-1.484,1.484,2.331,2.331,1.484-1.484a1.443,1.443,0,0,1,1.709-.248,9.3,9.3,0,0,0,1.778.738,1.443,1.443,0,0,1,1.031,1.383v2.1h3.3v-2.1a1.443,1.443,0,0,1,1.032-1.383,9.32,9.32,0,0,0,1.779-.738,1.443,1.443,0,0,1,1.708.248l1.484,1.484,2.331-2.331-1.484-1.484a1.443,1.443,0,0,1-.248-1.708,9.325,9.325,0,0,0,.738-1.779,1.443,1.443,0,0,1,1.383-1.031h2.1v-3.3h-2.1a1.443,1.443,0,0,1-1.383-1.031,9.329,9.329,0,0,0-.738-1.779,1.443,1.443,0,0,1,.248-1.708l1.484-1.484L-232.64-63.7l-1.484,1.484a1.443,1.443,0,0,1-1.708.248,9.322,9.322,0,0,0-1.779-.738,1.443,1.443,0,0,1-1.031-1.383Z" transform="translate(255.643 69.068)" fill="#fff"/>
          </g>
          <g id="g2933" transform="translate(17.002 12.365)">
            <path id="path2935" d="M4.627-17.114H-18.557A1.443,1.443,0,0,1-20-18.557,1.443,1.443,0,0,1-18.557-20H4.627A1.443,1.443,0,0,1,6.07-18.557,1.443,1.443,0,0,1,4.627-17.114Z" transform="translate(20 20)" fill="#fff"/>
          </g>
        </g>
      </g>
    </g>
  </g>
</svg>
