<svg xmlns="http://www.w3.org/2000/svg" width="84" height="84" viewBox="0 0 84 84">
  <g id="Grupo_1185646" data-name="Grupo 1185646" transform="translate(-1249.711 -4849)">
    <rect id="Rectángulo_458792" data-name="Rectángulo 458792" width="84" height="84" rx="42" transform="translate(1249.711 4849)" fill="#1e535a"/>
    <g id="software_1_" data-name="software (1)" transform="translate(1266.143 4854.139)">
      <path id="Línea_3383" data-name="Línea 3383" d="M48.139-12H0v-3h48.14Z" transform="translate(1.498 38.854)" fill="#fff"/>
      <path id="Línea_3384" data-name="Línea 3384" d="M17.079-12H0v-3H17.079Z" transform="translate(6.492 44.846)" fill="#fff"/>
      <path id="Línea_3385" data-name="Línea 3385" d="M17.079-12H0v-3H17.079Z" transform="translate(27.565 44.846)" fill="#fff"/>
      <path id="Línea_3386" data-name="Línea 3386" d="M17.079-12H0v-3H17.079Z" transform="translate(6.492 50.839)" fill="#fff"/>
      <path id="Línea_3387" data-name="Línea 3387" d="M17.079-12H0v-3H17.079Z" transform="translate(27.565 50.839)" fill="#fff"/>
      <path id="Línea_3388" data-name="Línea 3388" d="M-10.736.625l-2.68-1.34,3-5.993,2.68,1.34Z" transform="translate(22.474 25.397)" fill="#fff"/>
      <path id="Trazado_1031366" data-name="Trazado 1031366" d="M51.136,55.128H35.869v-3H48.139V20.857H3V52.132H15.267v3H0V17.861H51.136Z" fill="#fff"/>
      <path id="Elipse_13738" data-name="Elipse 13738" d="M-3.2-15A11.812,11.812,0,0,1,8.6-3.2,11.812,11.812,0,0,1-3.2,8.6,11.812,11.812,0,0,1-15-3.2,11.812,11.812,0,0,1-3.2-15Zm0,20.6A8.813,8.813,0,0,0,5.6-3.2,8.813,8.813,0,0,0-3.2-12,8.813,8.813,0,0,0-12-3.2,8.813,8.813,0,0,0-3.2,5.6Z" transform="translate(28.769 56.831)" fill="#fff"/>
      <path id="Elipse_13739" data-name="Elipse 13739" d="M-10.482-15a4.523,4.523,0,0,1,4.518,4.518,4.523,4.523,0,0,1-4.518,4.518A4.523,4.523,0,0,1-15-10.482,4.523,4.523,0,0,1-10.482-15Zm0,6.04A1.524,1.524,0,0,0-8.96-10.482,1.524,1.524,0,0,0-10.482-12,1.524,1.524,0,0,0-12-10.482,1.524,1.524,0,0,0-10.482-8.96Z" transform="translate(36.05 64.114)" fill="#fff"/>
    </g>
  </g>
</svg>
