<svg xmlns="http://www.w3.org/2000/svg" width="84" height="84" viewBox="0 0 84 84">
  <g id="Grupo_1185660" data-name="Grupo 1185660" transform="translate(-758.711 -1275)">
    <g id="Grupo_1185249" data-name="Grupo 1185249" transform="translate(0 -3574)">
      <rect id="Rectángulo_458790" data-name="Rectángulo 458790" width="84" height="84" rx="42" transform="translate(758.711 4849)" fill="#1e535a"/>
    </g>
    <g id="diploma" transform="translate(774.711 1291)">
      <g id="Grupo_1185649" data-name="Grupo 1185649" transform="translate(8.995 8.995)">
        <g id="Grupo_1185648" data-name="Grupo 1185648">
          <path id="Trazado_1031375" data-name="Trazado 1031375" d="M97.5,90h-6a1.5,1.5,0,0,0,0,3h6a1.5,1.5,0,0,0,0-3Z" transform="translate(-90 -90)" fill="#fff"/>
        </g>
      </g>
      <g id="Grupo_1185651" data-name="Grupo 1185651" transform="translate(8.995 17.989)">
        <g id="Grupo_1185650" data-name="Grupo 1185650">
          <path id="Trazado_1031376" data-name="Trazado 1031376" d="M97.5,180h-6a1.5,1.5,0,1,0,0,3h6a1.5,1.5,0,0,0,0-3Z" transform="translate(-90 -180)" fill="#fff"/>
        </g>
      </g>
      <g id="Grupo_1185653" data-name="Grupo 1185653" transform="translate(8.995 27.184)">
        <g id="Grupo_1185652" data-name="Grupo 1185652">
          <path id="Trazado_1031377" data-name="Trazado 1031377" d="M100.694,272H91.5a1.5,1.5,0,1,0,0,3h9.195a1.5,1.5,0,1,0,0-3Z" transform="translate(-90 -272)" fill="#fff"/>
        </g>
      </g>
      <g id="Grupo_1185655" data-name="Grupo 1185655" transform="translate(8.995 36.179)">
        <g id="Grupo_1185654" data-name="Grupo 1185654">
          <path id="Trazado_1031378" data-name="Trazado 1031378" d="M118.683,362H91.5a1.5,1.5,0,0,0,0,3h27.184a1.5,1.5,0,1,0,0-3Z" transform="translate(-90 -362)" fill="#fff"/>
        </g>
      </g>
      <g id="Grupo_1185657" data-name="Grupo 1185657">
        <g id="Grupo_1185656" data-name="Grupo 1185656">
          <path id="Trazado_1031379" data-name="Trazado 1031379" d="M43.674,0H7.5A4.5,4.5,0,0,0,3,4.5V42.175H1.5a1.5,1.5,0,0,0-1.5,1.5v1.5a6,6,0,0,0,6,6h33.18a6,6,0,0,0,6-6V11.993h4.5a1.5,1.5,0,0,0,1.5-1.5v-3A7.5,7.5,0,0,0,43.674,0ZM6,48.172a3,3,0,0,1-3-3H33.18a5.961,5.961,0,0,0,.8,3ZM42.175,10.494v34.68a3,3,0,1,1-6,0v-1.5a1.5,1.5,0,0,0-1.5-1.5H6V4.5A1.5,1.5,0,0,1,7.5,3h34.68Zm6-1.5h-3V3.255a4.505,4.505,0,0,1,3,4.241Z" fill="#fff"/>
        </g>
      </g>
      <g id="Grupo_1185659" data-name="Grupo 1185659" transform="translate(21.188 5.996)">
        <g id="Grupo_1185658" data-name="Grupo 1185658">
          <path id="Trazado_1031380" data-name="Trazado 1031380" d="M220.995,60a8.99,8.99,0,0,0-6,15.693v9.992a1.5,1.5,0,0,0,2.331,1.247l3.666-2.444,3.666,2.444a1.5,1.5,0,0,0,2.331-1.247V75.693a8.99,8.99,0,0,0-6-15.693Zm3,22.884-2.167-1.444a1.5,1.5,0,0,0-1.663,0L218,82.884V77.475a8.993,8.993,0,0,0,6,0Zm-3-7.893a6,6,0,1,1,6-6A6,6,0,0,1,220.995,74.991Z" transform="translate(-212 -60)" fill="#fff"/>
        </g>
      </g>
    </g>
  </g>
</svg>
