<svg xmlns="http://www.w3.org/2000/svg" xmlns:xlink="http://www.w3.org/1999/xlink" width="130" height="130" viewBox="0 0 130 130">
  <defs>
    <clipPath id="clip-path">
      <rect id="Rectángulo_454829" data-name="Rectángulo 454829" width="130" height="130" fill="#1e535a"/>
    </clipPath>
  </defs>
  <g id="Grupo_1185276" data-name="Grupo 1185276" transform="translate(-186 -4323.945)">
    <g id="Grupo_1177591" data-name="Grupo 1177591" transform="translate(186 4323.945)">
      <g id="Grupo_1177589" data-name="Grupo 1177589" transform="translate(0 0)">
        <g id="Grupo_1177587" data-name="Grupo 1177587" clip-path="url(#clip-path)">
          <path id="Trazado_997422" data-name="Trazado 997422" d="M124.692,57.54a59.768,59.768,0,0,0-13.5-31.1,6.874,6.874,0,0,0-9.672-9.26,59.68,59.68,0,0,0-30.9-12.073,6.875,6.875,0,0,0-13.353.271A59.762,59.762,0,0,0,27.622,18.05a6.877,6.877,0,0,0-9.545,9.61A59.712,59.712,0,0,0,5.568,57.481,6.88,6.88,0,0,0,5.4,70.954,59.7,59.7,0,0,0,17.522,101.38a6.876,6.876,0,0,0,9.342,9.709,59.757,59.757,0,0,0,30.35,13.274,6.877,6.877,0,0,0,13.473.271,59.706,59.706,0,0,0,31.125-12.3,6.875,6.875,0,0,0,9.624-9.308,59.783,59.783,0,0,0,13.418-32.141,6.877,6.877,0,0,0-.161-13.35M105.274,29.825a6.838,6.838,0,0,0,3.808-1.153,56.758,56.758,0,0,1,12.526,28.85,6.887,6.887,0,0,0-4.395,3.184L99.637,54.116c.014-.192.027-.388.027-.587a6.877,6.877,0,0,0-2.913-5.62L104.44,29.77a7.449,7.449,0,0,0,.834.055m-3.716-1.094L93.917,46.749a6.806,6.806,0,0,0-7.575,4.374L54.544,43.8A6.691,6.691,0,0,0,54.4,42.43L99.523,26.716a6.9,6.9,0,0,0,2.035,2.014M63.979,13.765a6.883,6.883,0,0,0,6.755-5.582A56.663,56.663,0,0,1,99.386,19.388a6.844,6.844,0,0,0-.995,3.554,7.226,7.226,0,0,0,.065.909L53.107,39.641A6.9,6.9,0,0,0,51.861,38.4L63.756,13.754c.075,0,.148.01.223.01M57.286,8.454a6.884,6.884,0,0,0,3.462,4.5L49.086,37.109a6.9,6.9,0,0,0-1.42-.148,6.832,6.832,0,0,0-3.922,1.232L29.921,26.648a6.842,6.842,0,0,0-.233-6.333,56.709,56.709,0,0,1,27.6-11.861M13.6,62.741l28.59-14.746a6.857,6.857,0,0,0,5.424,2.728l9.8,31.321a7,7,0,0,0-1.516,1.678L13.511,66.062a6.836,6.836,0,0,0,.254-1.825,6.916,6.916,0,0,0-.168-1.5m6.752-33.029a6.877,6.877,0,0,0,7.682-.655l13.648,11.4a6.863,6.863,0,0,0-.758,4.755L12.283,59.976a6.88,6.88,0,0,0-3.644-2.388,56.684,56.684,0,0,1,11.71-27.876M23.2,98.391a6.862,6.862,0,0,0-3.417.913,56.633,56.633,0,0,1-11.3-28.38,6.888,6.888,0,0,0,3.572-2.155L54.857,86.6a7.38,7.38,0,0,0-.055.827,6.881,6.881,0,0,0,.412,2.326l-25.886,12.4A6.881,6.881,0,0,0,23.2,98.391M57.347,121.3A56.765,56.765,0,0,1,29.029,108.91a6.81,6.81,0,0,0,1.05-3.637l0-.079,26.8-12.845a6.882,6.882,0,0,0,2.429,1.534l1.606,23.08a6.882,6.882,0,0,0-3.565,4.337M60.2,80.715,50.609,50.057a6.892,6.892,0,0,0,3.27-3.27l32.055,7.38A6.842,6.842,0,0,0,87.028,57.3L65.043,81.426a6.8,6.8,0,0,0-4.844-.71M70.68,121.567a6.88,6.88,0,0,0-6.7-5.332l-.051,0L62.4,94.278a6.87,6.87,0,0,0,4.206-2.041l32.048,14.135c0,.062-.01.117-.01.178a6.848,6.848,0,0,0,1.019,3.589A56.66,56.66,0,0,1,70.68,121.567m28.747-18.2L68.213,89.6a6.842,6.842,0,0,0-.9-6.121l21.92-24.061a6.841,6.841,0,0,0,3.551.995,7.576,7.576,0,0,0,.844-.055l8.193,40.4a6.867,6.867,0,0,0-2.391,2.611M109.3,100.8a6.84,6.84,0,0,0-4.573-1.081L96.532,59.3A6.91,6.91,0,0,0,98.7,57.032l17.566,6.587a6.1,6.1,0,0,0-.031.618,6.88,6.88,0,0,0,5.531,6.745A56.707,56.707,0,0,1,109.3,100.8" transform="translate(0 0.001)" fill="#1e535a"/>
        </g>
      </g>
    </g>
    <g id="Elipse_13614" data-name="Elipse 13614" transform="translate(210.273 4348.213)" fill="#fff" stroke="#1e535a" stroke-width="3">
      <ellipse cx="40.732" cy="40.733" rx="40.732" ry="40.733" stroke="none"/>
      <ellipse cx="40.732" cy="40.733" rx="39.232" ry="39.233" fill="none"/>
    </g>
    <g id="gestion-de-datos" transform="translate(221.093 4359.026)">
      <g id="Grupo_1185742" data-name="Grupo 1185742" transform="translate(7.652 22.56)">
        <g id="Grupo_1185734" data-name="Grupo 1185734" transform="translate(0 26.693)">
          <path id="Trazado_1031490" data-name="Trazado 1031490" d="M49.242,59.033H9.663a.93.93,0,0,0-.907,1.159,4.639,4.639,0,0,0,4.484,3.469H45.673a4.63,4.63,0,0,0,4.476-3.469.93.93,0,0,0-.907-1.159Z" transform="translate(-8.726 -59.033)" fill="#1e535a"/>
        </g>
        <g id="Grupo_1185735" data-name="Grupo 1185735" transform="translate(2.613)">
          <path id="Trazado_1031491" data-name="Trazado 1031491" d="M45.043,26.653H15.193a3.3,3.3,0,0,0-3.3,3.3V52.108H48.34V29.95A3.3,3.3,0,0,0,45.043,26.653Zm-.412,22.356H15.605V30.362H44.631Z" transform="translate(-11.896 -26.653)" fill="#1e535a"/>
        </g>
        <g id="Grupo_1185741" data-name="Grupo 1185741" transform="translate(11.609 6.807)">
          <g id="Grupo_1185736" data-name="Grupo 1185736" transform="translate(4.251 6.798)">
            <path id="Trazado_1031492" data-name="Trazado 1031492" d="M28.584,47.591a.618.618,0,0,1-.618-.618v-3.2a.618.618,0,0,1,1.237,0v3.2A.618.618,0,0,1,28.584,47.591Z" transform="translate(-27.965 -43.157)" fill="#1e535a"/>
          </g>
          <g id="Grupo_1185737" data-name="Grupo 1185737" transform="translate(12.754 4.409)">
            <path id="Trazado_1031493" data-name="Trazado 1031493" d="M38.9,47.082a.618.618,0,0,1-.618-.618V40.877a.618.618,0,0,1,1.237,0v5.587A.618.618,0,0,1,38.9,47.082Z" transform="translate(-38.279 -40.259)" fill="#1e535a"/>
          </g>
          <g id="Grupo_1185738" data-name="Grupo 1185738" transform="translate(0 4.409)">
            <path id="Trazado_1031494" data-name="Trazado 1031494" d="M23.426,47.082a.618.618,0,0,1-.618-.618V40.877a.618.618,0,0,1,1.237,0v5.587A.618.618,0,0,1,23.426,47.082Z" transform="translate(-22.808 -40.259)" fill="#1e535a"/>
          </g>
          <g id="Grupo_1185739" data-name="Grupo 1185739" transform="translate(8.503 2.163)">
            <path id="Trazado_1031495" data-name="Trazado 1031495" d="M33.741,46.6a.618.618,0,0,1-.618-.618V38.152a.618.618,0,0,1,1.237,0v7.833A.618.618,0,0,1,33.741,46.6Z" transform="translate(-33.123 -37.534)" fill="#1e535a"/>
          </g>
          <g id="Grupo_1185740" data-name="Grupo 1185740" transform="translate(17.005)">
            <path id="Trazado_1031496" data-name="Trazado 1031496" d="M44.055,46.143a.618.618,0,0,1-.618-.618v-10a.618.618,0,0,1,1.237,0v10A.618.618,0,0,1,44.055,46.143Z" transform="translate(-43.437 -34.91)" fill="#1e535a"/>
          </g>
        </g>
      </g>
      <g id="Grupo_1185743" data-name="Grupo 1185743" transform="translate(2.616 3.353)">
        <path id="Trazado_1031497" data-name="Trazado 1031497" d="M44.46,16.311H44.4c.033-.363.058-.733.058-1.1a10.6,10.6,0,0,0-17.171-8.3A11.038,11.038,0,0,0,8.131,14.4a10.848,10.848,0,0,0,.717,3.907,8.9,8.9,0,0,0,.181,17.039V25.857a4.542,4.542,0,0,1,4.534-4.534h29.85a4.542,4.542,0,0,1,4.534,4.534V35.3c9.678-2.844,8.309-18.993-3.487-18.985ZM19.169,8.093a6.31,6.31,0,0,0-6.3,6.306.618.618,0,0,1-1.237,0,7.55,7.55,0,0,1,7.535-7.543.618.618,0,0,1,0,1.237Zm14.7,1.278a5.742,5.742,0,0,0-3.627,1.261.622.622,0,0,1-.775-.973,7,7,0,0,1,4.4-1.525.618.618,0,0,1,0,1.237Z" transform="translate(-2.616 -3.353)" fill="#1e535a"/>
      </g>
    </g>
  </g>
</svg>
