<svg xmlns="http://www.w3.org/2000/svg" xmlns:xlink="http://www.w3.org/1999/xlink" width="130" height="130" viewBox="0 0 130 130">
  <defs>
    <clipPath id="clip-path">
      <rect id="Rectángulo_454829" data-name="Rectángulo 454829" width="130" height="130" fill="#1e535a"/>
    </clipPath>
  </defs>
  <g id="Grupo_1185270" data-name="Grupo 1185270" transform="translate(-186 -4323.945)">
    <g id="Grupo_1177591" data-name="Grupo 1177591" transform="translate(186 4323.945)">
      <g id="Grupo_1177589" data-name="Grupo 1177589" transform="translate(0 0)">
        <g id="Grupo_1177587" data-name="Grupo 1177587" clip-path="url(#clip-path)">
          <path id="Trazado_997422" data-name="Trazado 997422" d="M124.692,57.54a59.768,59.768,0,0,0-13.5-31.1,6.874,6.874,0,0,0-9.672-9.26,59.68,59.68,0,0,0-30.9-12.073,6.875,6.875,0,0,0-13.353.271A59.762,59.762,0,0,0,27.622,18.05a6.877,6.877,0,0,0-9.545,9.61A59.712,59.712,0,0,0,5.568,57.481,6.88,6.88,0,0,0,5.4,70.954,59.7,59.7,0,0,0,17.522,101.38a6.876,6.876,0,0,0,9.342,9.709,59.757,59.757,0,0,0,30.35,13.274,6.877,6.877,0,0,0,13.473.271,59.706,59.706,0,0,0,31.125-12.3,6.875,6.875,0,0,0,9.624-9.308,59.783,59.783,0,0,0,13.418-32.141,6.877,6.877,0,0,0-.161-13.35M105.274,29.825a6.838,6.838,0,0,0,3.808-1.153,56.758,56.758,0,0,1,12.526,28.85,6.887,6.887,0,0,0-4.395,3.184L99.637,54.116c.014-.192.027-.388.027-.587a6.877,6.877,0,0,0-2.913-5.62L104.44,29.77a7.449,7.449,0,0,0,.834.055m-3.716-1.094L93.917,46.749a6.806,6.806,0,0,0-7.575,4.374L54.544,43.8A6.691,6.691,0,0,0,54.4,42.43L99.523,26.716a6.9,6.9,0,0,0,2.035,2.014M63.979,13.765a6.883,6.883,0,0,0,6.755-5.582A56.663,56.663,0,0,1,99.386,19.388a6.844,6.844,0,0,0-.995,3.554,7.226,7.226,0,0,0,.065.909L53.107,39.641A6.9,6.9,0,0,0,51.861,38.4L63.756,13.754c.075,0,.148.01.223.01M57.286,8.454a6.884,6.884,0,0,0,3.462,4.5L49.086,37.109a6.9,6.9,0,0,0-1.42-.148,6.832,6.832,0,0,0-3.922,1.232L29.921,26.648a6.842,6.842,0,0,0-.233-6.333,56.709,56.709,0,0,1,27.6-11.861M13.6,62.741l28.59-14.746a6.857,6.857,0,0,0,5.424,2.728l9.8,31.321a7,7,0,0,0-1.516,1.678L13.511,66.062a6.836,6.836,0,0,0,.254-1.825,6.916,6.916,0,0,0-.168-1.5m6.752-33.029a6.877,6.877,0,0,0,7.682-.655l13.648,11.4a6.863,6.863,0,0,0-.758,4.755L12.283,59.976a6.88,6.88,0,0,0-3.644-2.388,56.684,56.684,0,0,1,11.71-27.876M23.2,98.391a6.862,6.862,0,0,0-3.417.913,56.633,56.633,0,0,1-11.3-28.38,6.888,6.888,0,0,0,3.572-2.155L54.857,86.6a7.38,7.38,0,0,0-.055.827,6.881,6.881,0,0,0,.412,2.326l-25.886,12.4A6.881,6.881,0,0,0,23.2,98.391M57.347,121.3A56.765,56.765,0,0,1,29.029,108.91a6.81,6.81,0,0,0,1.05-3.637l0-.079,26.8-12.845a6.882,6.882,0,0,0,2.429,1.534l1.606,23.08a6.882,6.882,0,0,0-3.565,4.337M60.2,80.715,50.609,50.057a6.892,6.892,0,0,0,3.27-3.27l32.055,7.38A6.842,6.842,0,0,0,87.028,57.3L65.043,81.426a6.8,6.8,0,0,0-4.844-.71M70.68,121.567a6.88,6.88,0,0,0-6.7-5.332l-.051,0L62.4,94.278a6.87,6.87,0,0,0,4.206-2.041l32.048,14.135c0,.062-.01.117-.01.178a6.848,6.848,0,0,0,1.019,3.589A56.66,56.66,0,0,1,70.68,121.567m28.747-18.2L68.213,89.6a6.842,6.842,0,0,0-.9-6.121l21.92-24.061a6.841,6.841,0,0,0,3.551.995,7.576,7.576,0,0,0,.844-.055l8.193,40.4a6.867,6.867,0,0,0-2.391,2.611M109.3,100.8a6.84,6.84,0,0,0-4.573-1.081L96.532,59.3A6.91,6.91,0,0,0,98.7,57.032l17.566,6.587a6.1,6.1,0,0,0-.031.618,6.88,6.88,0,0,0,5.531,6.745A56.707,56.707,0,0,1,109.3,100.8" transform="translate(0 0.001)" fill="#1e535a"/>
        </g>
      </g>
    </g>
    <g id="Elipse_13614" data-name="Elipse 13614" transform="translate(210.273 4348.213)" fill="#fff" stroke="#1e535a" stroke-width="3">
      <ellipse cx="40.732" cy="40.733" rx="40.732" ry="40.733" stroke="none"/>
      <ellipse cx="40.732" cy="40.733" rx="39.232" ry="39.233" fill="none"/>
    </g>
    <g id="configuracion-de-la-computadora" transform="translate(223.615 4361.954)">
      <path id="Trazado_1031487" data-name="Trazado 1031487" d="M42.681,64.411H19.105a3.527,3.527,0,0,1,1.124-2.567,3.939,3.939,0,0,1,2.708-1.062H24.4l.648-3.4H36.438l.648,3.4h1.756a3.737,3.737,0,0,1,3.84,3.629Z" transform="translate(-3.344 -12.246)" fill="#1e535a"/>
      <g id="Grupo_1185733" data-name="Grupo 1185733" transform="translate(3.875 9.36)">
        <path id="Trazado_1031488" data-name="Trazado 1031488" d="M47.773,11.54H40.281L39.2,12.882a13.7,13.7,0,0,1,.656,1.311c.07.156.133.312.2.468h7.718v23.81H7V14.662h7.695c.054-.156.117-.3.179-.453a8.836,8.836,0,0,1,.671-1.366l-1.053-1.3H7a3.121,3.121,0,0,0-3.122,3.122v28.36A3.121,3.121,0,0,0,7,46.144H47.773A3.121,3.121,0,0,0,50.9,43.022V14.662a3.121,3.121,0,0,0-3.122-3.122ZM29.722,42.89H25.04a.585.585,0,1,1,0-1.171h4.682a.585.585,0,1,1,0,1.171Z" transform="translate(-3.875 -11.54)" fill="#1e535a"/>
      </g>
      <path id="Trazado_1031489" data-name="Trazado 1031489" d="M44.306,14.963l-1.849-.2A1.081,1.081,0,0,1,41.535,14a11.43,11.43,0,0,0-.554-1.522,12.49,12.49,0,0,0-.632-1.249,1.073,1.073,0,0,1,.094-1.217l.531-.655.671-.827a1.086,1.086,0,0,0-.078-1.444L39.8,5.325a1.08,1.08,0,0,0-1.451-.078L36.806,6.488a1.077,1.077,0,0,1-1.2.109,12.035,12.035,0,0,0-2.7-1.1,1.077,1.077,0,0,1-.78-.929l-.211-1.99a1.089,1.089,0,0,0-1.077-.968h-2.5a1.09,1.09,0,0,0-1.085.968l-.211,1.99a1.079,1.079,0,0,1-.78.929,12.037,12.037,0,0,0-2.7,1.1,1.088,1.088,0,0,1-1.2-.1L20.815,5.247a1.079,1.079,0,0,0-1.452.078L17.6,7.089a1.086,1.086,0,0,0-.078,1.444l.671.827.5.617a1.058,1.058,0,0,1,.086,1.233,8.043,8.043,0,0,0-.632,1.272,13.762,13.762,0,0,0-.523,1.506,1.067,1.067,0,0,1-.921.78l-1.85.2a1.089,1.089,0,0,0-.968,1.077v2.5a1.088,1.088,0,0,0,.968,1.077l1.74.18a1.075,1.075,0,0,1,.929.8A12.681,12.681,0,0,0,18.7,23.524a1.063,1.063,0,0,1-.109,1.2L17.53,26.045a1.077,1.077,0,0,0,.07,1.444l1.764,1.764a1.087,1.087,0,0,0,1.452.07l1.256-1.015a1.072,1.072,0,0,1,1.217-.093,12.153,12.153,0,0,0,3.02,1.272,1.068,1.068,0,0,1,.78.929l.172,1.576a1.083,1.083,0,0,0,1.077.968h2.5a1.089,1.089,0,0,0,1.077-.968l.164-1.584a1.088,1.088,0,0,1,.78-.929,11.728,11.728,0,0,0,3.02-1.264,1.073,1.073,0,0,1,1.217.093l1.257,1.015a1.088,1.088,0,0,0,1.451-.07l1.756-1.764a1.07,1.07,0,0,0,.078-1.444l-1.069-1.319a1.091,1.091,0,0,1-.109-1.2,12.035,12.035,0,0,0,1.178-2.935,1.093,1.093,0,0,1,.936-.8l1.732-.18a1.089,1.089,0,0,0,.976-1.077v-2.5a1.089,1.089,0,0,0-.976-1.077ZM29.587,24.515a7.231,7.231,0,1,1,7.242-7.226A7.234,7.234,0,0,1,29.587,24.515Z" transform="translate(-2.198 0)" fill="#1e535a"/>
    </g>
  </g>
</svg>
