<svg xmlns="http://www.w3.org/2000/svg" xmlns:xlink="http://www.w3.org/1999/xlink" width="129" height="129" viewBox="0 0 129 129">
  <defs>
    <clipPath id="clip-path">
      <rect id="Rectángulo_454829" data-name="Rectángulo 454829" width="129" height="129" fill="#1e535a"/>
    </clipPath>
  </defs>
  <g id="Grupo_1185883" data-name="Grupo 1185883" transform="translate(-186 -4323.945)">
    <g id="Grupo_1177591" data-name="Grupo 1177591" transform="translate(186 4323.945)">
      <g id="Grupo_1177589" data-name="Grupo 1177589" transform="translate(0 0)">
        <g id="Grupo_1177587" data-name="Grupo 1177587" clip-path="url(#clip-path)">
          <path id="Trazado_997422" data-name="Trazado 997422" d="M123.733,57.1a59.308,59.308,0,0,0-13.4-30.862,6.821,6.821,0,0,0-9.6-9.189A59.221,59.221,0,0,0,70.078,5.066a6.822,6.822,0,0,0-13.25.269A59.3,59.3,0,0,0,27.41,17.911a6.824,6.824,0,0,0-9.471,9.536A59.253,59.253,0,0,0,5.526,57.039a6.827,6.827,0,0,0-.163,13.369A59.236,59.236,0,0,0,17.387,100.6a6.823,6.823,0,0,0,9.27,9.635,59.3,59.3,0,0,0,30.116,13.172,6.824,6.824,0,0,0,13.369.269,59.247,59.247,0,0,0,30.886-12.2,6.822,6.822,0,0,0,9.55-9.236,59.323,59.323,0,0,0,13.315-31.893,6.824,6.824,0,0,0-.16-13.247M104.464,29.6a6.785,6.785,0,0,0,3.779-1.144,56.321,56.321,0,0,1,12.43,28.628,6.834,6.834,0,0,0-4.361,3.159L98.87,53.7c.014-.191.027-.385.027-.582a6.825,6.825,0,0,0-2.89-5.577l7.629-18a7.392,7.392,0,0,0,.827.054m-3.687-1.086L93.195,46.39a6.754,6.754,0,0,0-7.517,4.341L54.125,43.462a6.639,6.639,0,0,0-.143-1.358L98.758,26.511a6.846,6.846,0,0,0,2.019,2m-37.29-14.85a6.83,6.83,0,0,0,6.7-5.539A56.228,56.228,0,0,1,98.622,19.239a6.792,6.792,0,0,0-.987,3.527,7.17,7.17,0,0,0,.065.9l-45,15.668A6.85,6.85,0,0,0,51.462,38.1l11.8-24.451c.075,0,.146.01.221.01m-6.642-5.27a6.831,6.831,0,0,0,3.435,4.47L48.708,36.823a6.848,6.848,0,0,0-1.409-.146A6.78,6.78,0,0,0,43.407,37.9L29.691,26.443a6.789,6.789,0,0,0-.232-6.285A56.272,56.272,0,0,1,56.845,8.389M13.492,62.258l28.37-14.633a6.8,6.8,0,0,0,5.383,2.707l9.723,31.08a6.941,6.941,0,0,0-1.5,1.665L13.407,65.554a6.784,6.784,0,0,0,.252-1.811,6.863,6.863,0,0,0-.167-1.484m6.7-32.775a6.824,6.824,0,0,0,7.623-.65l13.543,11.31a6.81,6.81,0,0,0-.752,4.719L12.188,59.514a6.827,6.827,0,0,0-3.616-2.37,56.248,56.248,0,0,1,11.62-27.662m2.826,68.151a6.809,6.809,0,0,0-3.391.906A56.2,56.2,0,0,1,8.416,70.378,6.835,6.835,0,0,0,11.96,68.24l42.475,17.7a7.323,7.323,0,0,0-.054.82,6.828,6.828,0,0,0,.409,2.308L29.1,101.373a6.828,6.828,0,0,0-6.084-3.738m33.888,22.732a56.328,56.328,0,0,1-28.1-12.294,6.758,6.758,0,0,0,1.042-3.609l0-.078,26.6-12.746a6.829,6.829,0,0,0,2.41,1.522l1.593,22.9a6.829,6.829,0,0,0-3.537,4.3m2.829-40.272L50.22,49.672a6.839,6.839,0,0,0,3.244-3.244L85.273,53.75a6.789,6.789,0,0,0,1.086,3.1L64.543,80.8a6.745,6.745,0,0,0-4.807-.7m10.4,40.537a6.827,6.827,0,0,0-6.649-5.291l-.051,0L61.921,93.552a6.817,6.817,0,0,0,4.174-2.026l31.8,14.027c0,.061-.01.116-.01.177a6.8,6.8,0,0,0,1.011,3.561,56.224,56.224,0,0,1-28.761,11.34m28.526-18.058L67.688,88.909a6.789,6.789,0,0,0-.9-6.074L88.544,58.959a6.789,6.789,0,0,0,3.524.987,7.517,7.517,0,0,0,.838-.054l8.13,40.091a6.814,6.814,0,0,0-2.373,2.591m9.8-2.553a6.788,6.788,0,0,0-4.538-1.072L95.789,58.84a6.857,6.857,0,0,0,2.152-2.247l17.431,6.537a6.057,6.057,0,0,0-.031.613,6.827,6.827,0,0,0,5.488,6.693,56.271,56.271,0,0,1-12.369,29.585" transform="translate(0 0.001)" fill="#1e535a"/>
        </g>
      </g>
    </g>
    <g id="Elipse_13614" data-name="Elipse 13614" transform="translate(210.273 4348.213)" fill="#d5f4f8" stroke="#1e535a" stroke-width="3">
      <ellipse cx="40.232" cy="40.233" rx="40.232" ry="40.233" stroke="none"/>
      <ellipse cx="40.232" cy="40.233" rx="38.732" ry="38.733" fill="none"/>
    </g>
    <g id="computacion-en-la-nube_2_" data-name="computacion-en-la-nube (2)" transform="translate(187.676 4360.945)">
      <path id="Trazado_1032919" data-name="Trazado 1032919" d="M72.745,119.329q-.048,0-.1,0a7.662,7.662,0,0,1-.077-15.249,12.926,12.926,0,0,1,23.909-4.041,9.827,9.827,0,0,1,1.088-.061,9.692,9.692,0,0,1,2.985,18.917,1.023,1.023,0,1,1-.629-1.947,7.646,7.646,0,0,0-2.357-14.923,7.734,7.734,0,0,0-1.456.138A1.023,1.023,0,0,1,95,101.611a10.877,10.877,0,0,0-20.531,3.565,1.023,1.023,0,0,1-1.028.9h0a5.616,5.616,0,0,0-.6,11.208,1.023,1.023,0,0,1-.095,2.042Z" transform="translate(-23.064 -83.978)" fill="#1e535a"/>
      <g id="Grupo_1186459" data-name="Grupo 1186459" transform="translate(48.7 24.314)">
        <path id="Rectángulo_459769" data-name="Rectángulo 459769" d="M-8.977-10h27.4a1.023,1.023,0,0,1,1.023,1.023v21.69a1.023,1.023,0,0,1-1.023,1.023h-27.4A1.023,1.023,0,0,1-10,12.713V-8.977A1.023,1.023,0,0,1-8.977-10ZM17.4-7.954H-7.954V11.69H17.4Z" transform="translate(10 10)" fill="#1e535a"/>
        <path id="Rectángulo_459770" data-name="Rectángulo 459770" d="M1.023,0h12.91a1.023,1.023,0,0,1,1.023,1.023V19.634a1.023,1.023,0,0,1-1.023,1.023H1.023A1.023,1.023,0,0,1,0,19.634V1.023A1.023,1.023,0,0,1,1.023,0ZM12.91,2.046H2.046V18.611H12.91Z" transform="translate(25.052 4.39) rotate(90)" fill="#1e535a"/>
        <path id="Trazado_1032920" data-name="Trazado 1032920" d="M210.92,456.059H198.329a1.023,1.023,0,0,1-.921-1.468l2.093-4.329a1.023,1.023,0,0,1,.921-.578h8.406a1.023,1.023,0,0,1,.921.578l2.093,4.329a1.023,1.023,0,0,1-.921,1.468Zm-10.96-2.046h9.33l-1.1-2.283h-7.123Z" transform="translate(-189.902 -427.994)" fill="#1e535a"/>
        <path id="Línea_3273" data-name="Línea 3273" d="M8.085-7.954H-8.977A1.023,1.023,0,0,1-10-8.977,1.023,1.023,0,0,1-8.977-10H8.085A1.023,1.023,0,0,1,9.108-8.977,1.023,1.023,0,0,1,8.085-7.954Z" transform="translate(15.169 36.019)" fill="#1e535a"/>
      </g>
      <g id="Grupo_1186460" data-name="Grupo 1186460" transform="translate(59.638)">
        <path id="Línea_3274" data-name="Línea 3274" d="M-8.977-4.18A1.023,1.023,0,0,1-10-5.2V-8.977A1.023,1.023,0,0,1-8.977-10,1.023,1.023,0,0,1-7.954-8.977V-5.2A1.023,1.023,0,0,1-8.977-4.18Z" transform="translate(12.762 15.66)" fill="#1e535a"/>
        <path id="Elipse_13773" data-name="Elipse 13773" d="M-6.215-10A3.788,3.788,0,0,1-2.43-6.218,3.788,3.788,0,0,1-6.215-2.436,3.788,3.788,0,0,1-10-6.218,3.788,3.788,0,0,1-6.215-10Zm0,5.518A1.739,1.739,0,0,0-4.476-6.218,1.739,1.739,0,0,0-6.215-7.954,1.739,1.739,0,0,0-7.954-6.218,1.739,1.739,0,0,0-6.215-4.482Z" transform="translate(10 10)" fill="#1e535a"/>
      </g>
      <g id="Grupo_1186462" data-name="Grupo 1186462" transform="translate(71.868 5.109)">
        <path id="Trazado_1032921" data-name="Trazado 1032921" d="M352.418,87.2a1.023,1.023,0,0,1-1.023-1.023V77.934a1.023,1.023,0,0,1,1.023-1.023H356.1a1.023,1.023,0,0,1,0,2.046h-2.663v7.219A1.023,1.023,0,0,1,352.418,87.2Z" transform="translate(-351.395 -74.152)" fill="#1e535a"/>
        <g id="Grupo_1186461" data-name="Grupo 1186461" transform="translate(3.818)">
          <path id="Elipse_13774" data-name="Elipse 13774" d="M-6.215-10A3.788,3.788,0,0,1-2.43-6.218,3.788,3.788,0,0,1-6.215-2.436,3.788,3.788,0,0,1-10-6.218,3.788,3.788,0,0,1-6.215-10Zm0,5.518A1.739,1.739,0,0,0-4.476-6.218,1.739,1.739,0,0,0-6.215-7.954,1.739,1.739,0,0,0-7.954-6.218,1.739,1.739,0,0,0-6.215-4.482Z" transform="translate(10 10)" fill="#1e535a"/>
        </g>
      </g>
      <g id="Grupo_1186464" data-name="Grupo 1186464" transform="translate(40.013 9.023)">
        <path id="Trazado_1032922" data-name="Trazado 1032922" d="M100.045,125.458a1.023,1.023,0,0,1-1.023-1.023v-7.219H96.363a1.023,1.023,0,0,1,0-2.046h3.682a1.023,1.023,0,0,1,1.023,1.023v8.242A1.023,1.023,0,0,1,100.045,125.458Z" transform="translate(-89.68 -112.411)" fill="#1e535a"/>
        <g id="Grupo_1186463" data-name="Grupo 1186463">
          <path id="Elipse_13775" data-name="Elipse 13775" d="M-6.215-10A3.788,3.788,0,0,1-2.43-6.218,3.788,3.788,0,0,1-6.215-2.436,3.788,3.788,0,0,1-10-6.218,3.788,3.788,0,0,1-6.215-10Zm0,5.518A1.739,1.739,0,0,0-4.476-6.218,1.739,1.739,0,0,0-6.215-7.954,1.739,1.739,0,0,0-7.954-6.218,1.739,1.739,0,0,0-6.215-4.482Z" transform="translate(10 10)" fill="#1e535a"/>
        </g>
      </g>
    </g>
  </g>
</svg>
