<svg xmlns="http://www.w3.org/2000/svg" xmlns:xlink="http://www.w3.org/1999/xlink" width="150" height="150" viewBox="0 0 150 150">
  <defs>
    <clipPath id="clip-path">
      <rect id="Rectángulo_454829" data-name="Rectángulo 454829" width="150" height="150" fill="#1e535a"/>
    </clipPath>
  </defs>
  <g id="Grupo_1185837" data-name="Grupo 1185837" transform="translate(-186 -4323.945)">
    <g id="Grupo_1177591" data-name="Grupo 1177591" transform="translate(186 4323.945)">
      <g id="Grupo_1177589" data-name="Grupo 1177589" transform="translate(0 0)">
        <g id="Grupo_1177587" data-name="Grupo 1177587" clip-path="url(#clip-path)">
          <path id="Trazado_997422" data-name="Trazado 997422" d="M143.876,66.392A68.963,68.963,0,0,0,128.3,30.506a7.931,7.931,0,0,0-11.16-10.685A68.861,68.861,0,0,0,81.486,5.891,7.933,7.933,0,0,0,66.079,6.2,68.956,68.956,0,0,0,31.872,20.827,7.935,7.935,0,0,0,20.859,31.915,68.9,68.9,0,0,0,6.425,66.324a7.938,7.938,0,0,0-.19,15.546,68.878,68.878,0,0,0,13.982,35.106A7.934,7.934,0,0,0,31,128.179,68.951,68.951,0,0,0,66.016,143.5a7.935,7.935,0,0,0,15.546.313,68.892,68.892,0,0,0,35.914-14.188,7.933,7.933,0,0,0,11.1-10.74A68.98,68.98,0,0,0,144.062,81.8a7.935,7.935,0,0,0-.186-15.4M121.469,34.413a7.89,7.89,0,0,0,4.394-1.33,65.489,65.489,0,0,1,14.453,33.289,7.946,7.946,0,0,0-5.071,3.674l-20.281-7.6c.016-.222.032-.447.032-.677a7.935,7.935,0,0,0-3.361-6.484l8.871-20.93a8.6,8.6,0,0,0,.962.063m-4.287-1.263-8.816,20.791a7.853,7.853,0,0,0-8.741,5.047L62.936,50.537a7.72,7.72,0,0,0-.166-1.58l52.065-18.131a7.961,7.961,0,0,0,2.348,2.324M73.822,15.882a7.941,7.941,0,0,0,7.795-6.441,65.381,65.381,0,0,1,33.059,12.929,7.9,7.9,0,0,0-1.148,4.1,8.337,8.337,0,0,0,.075,1.049L61.277,45.739A7.965,7.965,0,0,0,59.84,44.3L73.565,15.87c.087,0,.17.012.257.012M66.1,9.754a7.943,7.943,0,0,0,3.994,5.2L56.637,42.817A7.963,7.963,0,0,0,55,42.647a7.883,7.883,0,0,0-4.525,1.421L34.524,30.747a7.894,7.894,0,0,0-.269-7.308A65.433,65.433,0,0,1,66.1,9.754M15.688,72.393,48.676,55.378a7.912,7.912,0,0,0,6.259,3.147L66.241,94.665a8.071,8.071,0,0,0-1.75,1.936l-48.9-20.376a7.888,7.888,0,0,0,.293-2.106,7.98,7.98,0,0,0-.194-1.726m7.791-38.111a7.935,7.935,0,0,0,8.864-.756L48.091,46.677a7.919,7.919,0,0,0-.875,5.487L14.172,69.2a7.939,7.939,0,0,0-4.2-2.755A65.4,65.4,0,0,1,23.479,34.282m3.286,79.246a7.918,7.918,0,0,0-3.943,1.053A65.346,65.346,0,0,1,9.786,81.835a7.948,7.948,0,0,0,4.121-2.486L63.3,99.926a8.514,8.514,0,0,0-.063.954,7.939,7.939,0,0,0,.475,2.684L33.839,117.875a7.94,7.94,0,0,0-7.074-4.347M66.17,139.96a65.5,65.5,0,0,1-32.675-14.295,7.858,7.858,0,0,0,1.211-4.2l0-.091,30.926-14.821a7.941,7.941,0,0,0,2.8,1.77l1.853,26.63a7.941,7.941,0,0,0-4.113,5m3.29-46.828L58.4,57.758a7.952,7.952,0,0,0,3.773-3.773L99.154,62.5a7.894,7.894,0,0,0,1.263,3.61L75.049,93.952a7.843,7.843,0,0,0-5.59-.819m12.094,47.136a7.938,7.938,0,0,0-7.731-6.152l-.059,0L72,108.782a7.927,7.927,0,0,0,4.853-2.355l36.978,16.31c0,.071-.012.135-.012.206A7.9,7.9,0,0,0,115,127.083a65.377,65.377,0,0,1-33.443,13.186m33.17-21-36.016-15.89a7.894,7.894,0,0,0-1.041-7.062l25.292-27.762a7.894,7.894,0,0,0,4.1,1.148,8.74,8.74,0,0,0,.974-.063l9.453,46.618a7.923,7.923,0,0,0-2.759,3.013m11.393-2.969a7.893,7.893,0,0,0-5.277-1.247l-9.457-46.638a7.973,7.973,0,0,0,2.5-2.613l20.269,7.6a7.042,7.042,0,0,0-.036.713A7.938,7.938,0,0,0,140.5,81.9a65.431,65.431,0,0,1-14.382,34.4" transform="translate(0 0.002)" fill="#1e535a"/>
        </g>
      </g>
    </g>
    <g id="Elipse_13614" data-name="Elipse 13614" transform="translate(210.273 4348.213)" fill="#fff" stroke="#1e535a" stroke-width="3">
      <ellipse cx="50.732" cy="50.733" rx="50.732" ry="50.733" stroke="none"/>
      <ellipse cx="50.732" cy="50.733" rx="49.232" ry="49.233" fill="none"/>
    </g>
    <g id="administrar" transform="translate(232.355 4372.807)">
      <path id="Trazado_1032899" data-name="Trazado 1032899" d="M39.878,72.674a.929.929,0,0,1-.913-.765l-.875-4.867a.93.93,0,0,1,.76-1.081l5.024-.848a.929.929,0,0,1,1.069.752l.875,4.867a.929.929,0,0,1-.76,1.08l-5.025.848a.9.9,0,0,1-.156.013Zm.207-5.037.546,3.038,3.192-.539L43.277,67.1Zm0,0" transform="translate(-33.652 -57.432)" fill="#1e535a"/>
      <path id="Trazado_1032900" data-name="Trazado 1032900" d="M62.3,142.441l7.327-1.265.316,1.831-7.327,1.266Zm0,0" transform="translate(-55.068 -124.671)" fill="#1e535a"/>
      <path id="Trazado_1032901" data-name="Trazado 1032901" d="M4.82,40.117a.929.929,0,0,1-.913-.765L.015,17.595a.929.929,0,0,1,.813-1.087L14.62,14.99a.929.929,0,0,1,1.031.924V39.188a.929.929,0,0,1-1.858,0V16.951L2.02,18.246l3.716,20.78A.93.93,0,0,1,4.985,40.1a.968.968,0,0,1-.165.014Zm0,0" transform="translate(0 -13.137)" fill="#1e535a"/>
      <path id="Trazado_1032902" data-name="Trazado 1032902" d="M393.437,71.366a.91.91,0,0,1-.159-.014l-5.246-.906a.929.929,0,0,1-.757-1.077l.913-5.2a.928.928,0,0,1,1.073-.755l5.246.906a.929.929,0,0,1,.757,1.077l-.913,5.2A.929.929,0,0,1,393.437,71.366Zm-4.17-2.592,3.415.59.592-3.373-3.415-.59Zm0,0" transform="translate(-342.281 -55.927)" fill="#1e535a"/>
      <path id="Trazado_1032903" data-name="Trazado 1032903" d="M365.129,143.015l.316-1.831,7.327,1.265-.316,1.831Zm0,0" transform="translate(-322.72 -124.678)" fill="#1e535a"/>
      <path id="Trazado_1032904" data-name="Trazado 1032904" d="M374.718,32.981a.9.9,0,0,1-.161-.015.929.929,0,0,1-.755-1.075l2.821-16.072-11.182-1V32.051a.929.929,0,1,1-1.858,0V13.807a.929.929,0,0,1,1.011-.926l13.2,1.175a.929.929,0,0,1,.833,1.086l-3,17.068a.929.929,0,0,1-.914.769Zm0,0" transform="translate(-321.353 -11.275)" fill="#1e535a"/>
      <path id="Trazado_1032905" data-name="Trazado 1032905" d="M164.061,46.428H153.8a.929.929,0,0,1-.929-.929V35.316a.93.93,0,0,1,.929-.929h10.265a.93.93,0,0,1,.929.929V45.5A.929.929,0,0,1,164.061,46.428Zm-9.335-1.858h8.406V36.245h-8.406Zm0,0" transform="translate(-135.112 -30.286)" fill="#1e535a"/>
      <path id="Trazado_1032906" data-name="Trazado 1032906" d="M287.773,50.934H294.6v1.858h-6.827Zm0,0" transform="translate(-254.349 -44.911)" fill="#1e535a"/>
      <path id="Trazado_1032907" data-name="Trazado 1032907" d="M287.773,93.988H294.6v1.858h-6.827Zm0,0" transform="translate(-254.349 -82.965)" fill="#1e535a"/>
      <path id="Trazado_1032908" data-name="Trazado 1032908" d="M157.16,167.473h11.295v1.858H157.16Zm0,0" transform="translate(-138.906 -147.914)" fill="#1e535a"/>
      <path id="Trazado_1032909" data-name="Trazado 1032909" d="M119.679,26.98a.929.929,0,0,1-.929-.929v-25a.929.929,0,0,1,.929-.929h28.437a.93.93,0,0,1,.929.929V20.776a.929.929,0,1,1-1.858,0V1.979H120.608V26.051A.929.929,0,0,1,119.679,26.98Zm0,0" transform="translate(-104.957)" fill="#1e535a"/>
      <path id="Trazado_1032910" data-name="Trazado 1032910" d="M70.211,202.265H23.5a1.519,1.519,0,0,1-1.518-1.428l-1.7-23.99a1.517,1.517,0,0,1,1.517-1.615h24.7l4.675-4.383a3.289,3.289,0,0,1,2.259-.892h18.5a1.518,1.518,0,0,1,1.519,1.591l-1.715,29.286a1.514,1.514,0,0,1-1.518,1.431Zm-.338-1.539v.007Zm-46.039-.017v.009S23.834,200.713,23.834,200.709Zm-.022-.3h46.08l1.675-28.592H53.423a1.437,1.437,0,0,0-.988.389l-5.211,4.886H22.156Zm0,0" transform="translate(-17.919 -150.11)" fill="#1e535a"/>
      <path id="Trazado_1032911" data-name="Trazado 1032911" d="M178.532,296.25h-16.8a1.221,1.221,0,0,1-1.182-1.2l-.465-7.005a1.363,1.363,0,0,1,.349-1.021,1.134,1.134,0,0,1,.833-.367H179a1.132,1.132,0,0,1,.833.367,1.363,1.363,0,0,1,.35,1.021l-.465,7.006A1.22,1.22,0,0,1,178.532,296.25Zm-16.168-1.858H177.9l.39-5.874H161.974Zm0,0" transform="translate(-141.485 -253.258)" fill="#1e535a"/>
      <path id="Trazado_1032912" data-name="Trazado 1032912" d="M198.953,319.949h11.074v1.858H198.953Zm0,0" transform="translate(-175.845 -282.681)" fill="#1e535a"/>
    </g>
  </g>
</svg>
