<svg xmlns="http://www.w3.org/2000/svg" xmlns:xlink="http://www.w3.org/1999/xlink" width="151.457" height="151.466" viewBox="0 0 151.457 151.466">
  <defs>
    <radialGradient id="radial-gradient" cx="0.5" cy="0.5" r="0.5" gradientUnits="objectBoundingBox">
      <stop offset="0" stop-color="#fff"/>
      <stop offset="0.866" stop-color="#fff" stop-opacity="0.078"/>
      <stop offset="1" stop-color="#fff" stop-opacity="0"/>
    </radialGradient>
    <clipPath id="clip-path">
      <rect id="Rectángulo_454829" data-name="Rectángulo 454829" width="96.667" height="96.667" fill="none"/>
    </clipPath>
    <clipPath id="clip-path-2">
      <rect id="Rectángulo_454808" data-name="Rectángulo 454808" width="151.457" height="151.466" fill="none"/>
    </clipPath>
  </defs>
  <g id="Grupo_1185298" data-name="Grupo 1185298" transform="translate(13073 12011)">
    <circle id="Elipse_13694" data-name="Elipse 13694" cx="71" cy="71" r="71" transform="translate(-13068 -12006)" fill="url(#radial-gradient)"/>
    <g id="Grupo_1184530" data-name="Grupo 1184530" transform="translate(-14255.376 -12499.983)">
      <g id="Grupo_1177593" data-name="Grupo 1177593" transform="translate(297.438 346.529)">
        <g id="Grupo_1177591" data-name="Grupo 1177591">
          <g id="Grupo_1177589" data-name="Grupo 1177589" transform="translate(912.333 169.854)">
            <g id="Grupo_1177587" data-name="Grupo 1177587" transform="translate(0 0)" clip-path="url(#clip-path)">
              <path id="Trazado_997422" data-name="Trazado 997422" d="M92.72,42.786A44.443,44.443,0,0,0,82.681,19.659a5.111,5.111,0,0,0-7.192-6.886A44.377,44.377,0,0,0,52.514,3.8a5.112,5.112,0,0,0-9.929.2A44.438,44.438,0,0,0,20.54,13.422a5.114,5.114,0,0,0-7.1,7.146,44.4,44.4,0,0,0-9.3,22.175,5.116,5.116,0,0,0-.122,10.019,44.388,44.388,0,0,0,9.011,22.624,5.113,5.113,0,0,0,6.947,7.22,44.435,44.435,0,0,0,22.568,9.871,5.114,5.114,0,0,0,10.019.2,44.4,44.4,0,0,0,23.144-9.143,5.112,5.112,0,0,0,7.156-6.921,44.454,44.454,0,0,0,9.978-23.9,5.114,5.114,0,0,0-.12-9.927M78.281,22.177a5.085,5.085,0,0,0,2.832-.857,42.2,42.2,0,0,1,9.314,21.453,5.121,5.121,0,0,0-3.268,2.367l-13.07-4.9c.01-.143.02-.288.02-.436a5.114,5.114,0,0,0-2.166-4.179l5.717-13.488a5.54,5.54,0,0,0,.62.041m-2.763-.814-5.681,13.4A5.061,5.061,0,0,0,64.2,38.015L40.559,32.568a4.975,4.975,0,0,0-.107-1.018L74,19.866a5.13,5.13,0,0,0,1.513,1.5M47.575,10.235A5.118,5.118,0,0,0,52.6,6.085a42.135,42.135,0,0,1,21.3,8.332,5.089,5.089,0,0,0-.74,2.643,5.372,5.372,0,0,0,.048.676L39.49,29.476a5.133,5.133,0,0,0-.926-.926l8.845-18.323c.056,0,.11.008.166.008M42.6,6.286a5.119,5.119,0,0,0,2.574,3.35L36.5,27.594a5.132,5.132,0,0,0-1.056-.11,5.08,5.08,0,0,0-2.916.916L22.249,19.815a5.087,5.087,0,0,0-.173-4.709A42.168,42.168,0,0,1,42.6,6.286M10.11,46.654,31.369,35.689A5.1,5.1,0,0,0,35.4,37.717l7.286,23.29a5.2,5.2,0,0,0-1.128,1.248L10.047,49.123a5.083,5.083,0,0,0,.189-1.357,5.143,5.143,0,0,0-.125-1.112m5.021-24.56a5.114,5.114,0,0,0,5.712-.487l10.149,8.475a5.1,5.1,0,0,0-.564,3.536L9.133,44.6a5.116,5.116,0,0,0-2.709-1.776,42.149,42.149,0,0,1,8.707-20.728m2.117,51.07a5.1,5.1,0,0,0-2.541.679,42.112,42.112,0,0,1-8.4-21.1,5.122,5.122,0,0,0,2.656-1.6L40.791,64.4a5.487,5.487,0,0,0-.041.615,5.117,5.117,0,0,0,.306,1.73L21.808,75.964a5.117,5.117,0,0,0-4.559-2.8M42.643,90.2a42.21,42.21,0,0,1-21.057-9.212,5.064,5.064,0,0,0,.781-2.7l0-.059,19.93-9.552a5.118,5.118,0,0,0,1.806,1.14l1.194,17.162A5.117,5.117,0,0,0,42.643,90.2m2.12-30.178-7.131-22.8a5.125,5.125,0,0,0,2.431-2.431L63.9,40.278a5.087,5.087,0,0,0,.814,2.327L48.365,60.547a5.054,5.054,0,0,0-3.6-.528M52.557,90.4a5.116,5.116,0,0,0-4.982-3.965l-.038,0L46.4,70.1a5.108,5.108,0,0,0,3.128-1.518L73.359,79.1c0,.046-.008.087-.008.133a5.092,5.092,0,0,0,.758,2.669,42.132,42.132,0,0,1-21.552,8.5M73.933,76.865,50.723,66.624a5.087,5.087,0,0,0-.671-4.551l16.3-17.891a5.087,5.087,0,0,0,2.64.74,5.635,5.635,0,0,0,.628-.041l6.092,30.043a5.106,5.106,0,0,0-1.778,1.941m7.342-1.913a5.087,5.087,0,0,0-3.4-.8L71.78,44.092a5.138,5.138,0,0,0,1.612-1.684l13.062,4.9a4.535,4.535,0,0,0-.023.459,5.116,5.116,0,0,0,4.113,5.016,42.167,42.167,0,0,1-9.268,22.17" transform="translate(0 0.001)" fill="#fff"/>
            </g>
          </g>
        </g>
      </g>
      <circle id="Elipse_13615" data-name="Elipse 13615" cx="28" cy="28" r="28" transform="translate(1229.833 537)" fill="#fff"/>
      <g id="trabajador-informatico" transform="translate(1241.42 546.983)">
        <g id="Grupo_1185284" data-name="Grupo 1185284" transform="translate(0.9 8.301)">
          <g id="Grupo_1185283" data-name="Grupo 1185283">
            <path id="Trazado_1030329" data-name="Trazado 1030329" d="M11.654,33.337H3.093A2.206,2.206,0,0,1,.9,31.144V16.422a.493.493,0,0,1,.522-.522.493.493,0,0,1,.522.522v14.67A1.159,1.159,0,0,0,3.093,32.24h8.614a.493.493,0,0,1,.522.522A.617.617,0,0,1,11.654,33.337Z" transform="translate(-0.9 -15.9)" fill="#6cb9ff"/>
          </g>
        </g>
        <g id="Grupo_1185285" data-name="Grupo 1185285" transform="translate(3.788 26.782)">
          <path id="Trazado_1030330" data-name="Trazado 1030330" d="M12.419,56.782a.562.562,0,0,1-.731.157L9.5,55.424,7.25,56.938a.529.529,0,1,1-.574-.887l2.3-1.514V51.3h1.044v3.237l2.3,1.514a.561.561,0,0,1,.1.731Z" transform="translate(-6.431 -51.3)" fill="#6cb9ff"/>
        </g>
        <g id="Grupo_1185288" data-name="Grupo 1185288" transform="translate(2.623)">
          <g id="Grupo_1185286" data-name="Grupo 1185286" transform="translate(0.679 7.868)">
            <path id="Trazado_1030331" data-name="Trazado 1030331" d="M11.034,22.081V26.1H17.4a1.961,1.961,0,0,1,1.932,1.932v10.65a1.932,1.932,0,1,1-3.863,0V29.964H8.162A2.794,2.794,0,0,1,5.5,27.2V17.853A2.793,2.793,0,0,1,9.572,15.4c.522.365,2.976,2.715,5.012,4.7h3.446a1.932,1.932,0,0,1,0,3.863H13.8a2.06,2.06,0,0,1-1.305-.522Z" transform="translate(-5.5 -15.07)" fill="#6cb9ff"/>
          </g>
          <g id="Grupo_1185287" data-name="Grupo 1185287">
            <path id="Trazado_1030332" data-name="Trazado 1030332" d="M10.882,3.341a3.341,3.341,0,0,1-6.682,0,3.341,3.341,0,0,1,6.682,0Z" transform="translate(-4.2 0)" fill="#6cb9ff"/>
          </g>
        </g>
        <g id="Grupo_1185290" data-name="Grupo 1185290" transform="translate(18.232 15.14)">
          <g id="Grupo_1185289" data-name="Grupo 1185289">
            <path id="Trazado_1030333" data-name="Trazado 1030333" d="M49.24,29.522v2.454a.523.523,0,0,1-.522.522h-14.1a.523.523,0,0,1-.522-.522V29.522A.561.561,0,0,1,34.622,29h14.1A.523.523,0,0,1,49.24,29.522Z" transform="translate(-34.1 -29)" fill="#6cb9ff"/>
          </g>
        </g>
        <g id="Grupo_1185292" data-name="Grupo 1185292" transform="translate(23.192 19.577)">
          <g id="Grupo_1185291" data-name="Grupo 1185291">
            <path id="Trazado_1030334" data-name="Trazado 1030334" d="M53.78,37.5V50.813a.561.561,0,0,1-.522.522H44.122a.561.561,0,0,1-.522-.522V48.359a.523.523,0,0,1,.522-.522h5.847V37.6h3.289a1.544,1.544,0,0,0,.522-.1Z" transform="translate(-43.6 -37.5)" fill="#6cb9ff"/>
          </g>
        </g>
        <g id="Grupo_1185294" data-name="Grupo 1185294" transform="translate(20.301 0.398)">
          <g id="Grupo_1185293" data-name="Grupo 1185293">
            <path id="Trazado_1030335" data-name="Trazado 1030335" d="M45.443,2.766,41.371,12.58a.956.956,0,0,1-.94.626,1.149,1.149,0,0,1-.418-.052l-1.305-.522a1.06,1.06,0,0,1-.574-1.357l4.072-9.867A1.06,1.06,0,0,1,43.563.834l1.305.574A1.04,1.04,0,0,1,45.443,2.766Z" transform="translate(-38.062 -0.762)" fill="#6cb9ff"/>
          </g>
        </g>
        <g id="Grupo_1185296" data-name="Grupo 1185296" transform="translate(25.698 5.482)">
          <g id="Grupo_1185295" data-name="Grupo 1185295">
            <path id="Trazado_1030336" data-name="Trazado 1030336" d="M48.4,14.885,50.227,10.5A2.844,2.844,0,0,1,48.4,14.885Z" transform="translate(-48.4 -10.5)" fill="#6cb9ff"/>
          </g>
        </g>
        <g id="Grupo_1185297" data-name="Grupo 1185297" transform="translate(25.489 9.971)">
          <path id="Trazado_1030337" data-name="Trazado 1030337" d="M51.5,23.172a.493.493,0,0,1-.522.522H48.522A.523.523,0,0,1,48,23.172a.561.561,0,0,1,.522-.522H49.2V19.779a4.478,4.478,0,0,0,1.044-.679v3.55h.679a.537.537,0,0,1,.574.522Z" transform="translate(-48 -19.1)" fill="#6cb9ff"/>
        </g>
      </g>
    </g>
  </g>
</svg>
