<svg xmlns="http://www.w3.org/2000/svg" width="84" height="84" viewBox="0 0 84 84">
  <g id="Grupo_1185851" data-name="Grupo 1185851" transform="translate(-266.711 -4849)">
    <g id="Grupo_1186423" data-name="Grupo 1186423">
      <rect id="Rectángulo_458788" data-name="Rectángulo 458788" width="84" height="84" rx="42" transform="translate(266.711 4849)" fill="#1e535a"/>
      <g id="codigo-de-acceso" transform="translate(274.056 4852.2)">
        <path id="Trazado_1032896" data-name="Trazado 1032896" d="M29,27.091h4.842l2.518,2.518a1.213,1.213,0,0,0,1.71,0L39.5,28.176l1.132,1.134a.629.629,0,0,0,.445.185h2.7c.513,2.154,2.363,4.237,4.652,4.237h9.6a4.709,4.709,0,0,0,4.709-4.709V19.51a4.709,4.709,0,0,0-4.71-4.71H47.894a4.709,4.709,0,0,0-4.709,4.709v.855H29.114a3.442,3.442,0,0,0-3.452,2.92A3.367,3.367,0,0,0,29,27.091Zm0-4.308h15.4A1.209,1.209,0,0,0,45.6,21.574V19.51a2.291,2.291,0,0,1,2.292-2.292H58.036a2.291,2.291,0,0,1,2.291,2.291v9.514a2.291,2.291,0,0,1-2.291,2.291h-9.6c-1.149,0-2.235-1.474-2.368-2.73v-.873a.634.634,0,0,0-.634-.634H41.824l-1.466-1.467a1.209,1.209,0,0,0-1.71,0l-1.434,1.434L35.2,25.027a1.209,1.209,0,0,0-.855-.354h-5.29a.982.982,0,0,1-.985-.785A.947.947,0,0,1,29,22.783Z" transform="translate(-9.799 0)" fill="#fff"/>
        <path id="Trazado_1032897" data-name="Trazado 1032897" d="M81.533,34.06h1.209A3.269,3.269,0,0,0,86.007,30.8V26.08a3.269,3.269,0,0,0-3.265-3.265H81.533a3.269,3.269,0,0,0-3.265,3.265V30.8A3.269,3.269,0,0,0,81.533,34.06Zm-.846-7.98a.847.847,0,0,1,.846-.846h1.209a.847.847,0,0,1,.846.846V30.8a.847.847,0,0,1-.846.846H81.533a.847.847,0,0,1-.846-.846Z" transform="translate(-36.977 -4.138)" fill="#fff"/>
        <path id="Trazado_1032898" data-name="Trazado 1032898" d="M62.112,67.629a3.482,3.482,0,0,0-1.858-2.805l-.068-.035a3.571,3.571,0,0,0-3.734.347,37.241,37.241,0,0,1-10.689,5.346A7.206,7.206,0,0,1,42.1,70.7l-7.055-1.411a.347.347,0,0,1,.065-.687l4.537-.031a5.141,5.141,0,0,0,4.538-2.6c.041-.074.079-.149.114-.223A2.1,2.1,0,0,0,42.3,62.753a50.123,50.123,0,0,1-12.592-1.059,12.478,12.478,0,0,0-7.9.9,38.729,38.729,0,0,0-7.835,4.989,1.963,1.963,0,0,0-2.507-.318L7.551,69.8a1.962,1.962,0,0,0-.581,2.712L15.4,85.568a1.964,1.964,0,0,0,2.712.583l3.918-2.529a1.962,1.962,0,0,0,.584-2.712l-.064-.1,1.388-.649a7.545,7.545,0,0,1,5.093-.467,46,46,0,0,0,9.012,1.387,15.891,15.891,0,0,0,7.071-1.2,71.589,71.589,0,0,0,15.61-9.087,3.567,3.567,0,0,0,1.384-3.161ZM17.188,83.871,9.25,71.581l2.53-1.635,8.113,12.177Zm42.068-15a69.169,69.169,0,0,1-15.082,8.78,13.481,13.481,0,0,1-5.991,1.016,43.586,43.586,0,0,1-8.538-1.309,9.954,9.954,0,0,0-6.73.615L20.716,79l-5.944-8.922a36.834,36.834,0,0,1,8.073-5.292,10.052,10.052,0,0,1,6.363-.725A52.651,52.651,0,0,0,41.8,65.189a2.876,2.876,0,0,1-2.171.96l-4.536.031a2.765,2.765,0,0,0-.523,5.476l7.057,1.409a9.625,9.625,0,0,0,4.9-.29A39.628,39.628,0,0,0,57.9,67.068a1.139,1.139,0,0,1,1.184-.129l.048.026a1.073,1.073,0,0,1,.566.871,1.161,1.161,0,0,1-.444,1.031Z" transform="translate(0 -24.071)" fill="#fff"/>
      </g>
    </g>
  </g>
</svg>
