<svg xmlns="http://www.w3.org/2000/svg" xmlns:xlink="http://www.w3.org/1999/xlink" width="129" height="129" viewBox="0 0 129 129">
  <defs>
    <clipPath id="clip-path">
      <rect id="Rectángulo_454829" data-name="Rectángulo 454829" width="129" height="129" fill="#1e535a"/>
    </clipPath>
  </defs>
  <g id="Grupo_1185885" data-name="Grupo 1185885" transform="translate(-186 -4323.945)">
    <g id="Grupo_1177591" data-name="Grupo 1177591" transform="translate(186 4323.945)">
      <g id="Grupo_1177589" data-name="Grupo 1177589" transform="translate(0 0)">
        <g id="Grupo_1177587" data-name="Grupo 1177587" clip-path="url(#clip-path)">
          <path id="Trazado_997422" data-name="Trazado 997422" d="M123.733,57.1a59.308,59.308,0,0,0-13.4-30.862,6.821,6.821,0,0,0-9.6-9.189A59.221,59.221,0,0,0,70.078,5.066a6.822,6.822,0,0,0-13.25.269A59.3,59.3,0,0,0,27.41,17.911a6.824,6.824,0,0,0-9.471,9.536A59.253,59.253,0,0,0,5.526,57.039a6.827,6.827,0,0,0-.163,13.369A59.236,59.236,0,0,0,17.387,100.6a6.823,6.823,0,0,0,9.27,9.635,59.3,59.3,0,0,0,30.116,13.172,6.824,6.824,0,0,0,13.369.269,59.247,59.247,0,0,0,30.886-12.2,6.822,6.822,0,0,0,9.55-9.236,59.323,59.323,0,0,0,13.315-31.893,6.824,6.824,0,0,0-.16-13.247M104.464,29.6a6.785,6.785,0,0,0,3.779-1.144,56.321,56.321,0,0,1,12.43,28.628,6.834,6.834,0,0,0-4.361,3.159L98.87,53.7c.014-.191.027-.385.027-.582a6.825,6.825,0,0,0-2.89-5.577l7.629-18a7.392,7.392,0,0,0,.827.054m-3.687-1.086L93.195,46.39a6.754,6.754,0,0,0-7.517,4.341L54.125,43.462a6.639,6.639,0,0,0-.143-1.358L98.758,26.511a6.846,6.846,0,0,0,2.019,2m-37.29-14.85a6.83,6.83,0,0,0,6.7-5.539A56.228,56.228,0,0,1,98.622,19.239a6.792,6.792,0,0,0-.987,3.527,7.17,7.17,0,0,0,.065.9l-45,15.668A6.85,6.85,0,0,0,51.462,38.1l11.8-24.451c.075,0,.146.01.221.01m-6.642-5.27a6.831,6.831,0,0,0,3.435,4.47L48.708,36.823a6.848,6.848,0,0,0-1.409-.146A6.78,6.78,0,0,0,43.407,37.9L29.691,26.443a6.789,6.789,0,0,0-.232-6.285A56.272,56.272,0,0,1,56.845,8.389M13.492,62.258l28.37-14.633a6.8,6.8,0,0,0,5.383,2.707l9.723,31.08a6.941,6.941,0,0,0-1.5,1.665L13.407,65.554a6.784,6.784,0,0,0,.252-1.811,6.863,6.863,0,0,0-.167-1.484m6.7-32.775a6.824,6.824,0,0,0,7.623-.65l13.543,11.31a6.81,6.81,0,0,0-.752,4.719L12.188,59.514a6.827,6.827,0,0,0-3.616-2.37,56.248,56.248,0,0,1,11.62-27.662m2.826,68.151a6.809,6.809,0,0,0-3.391.906A56.2,56.2,0,0,1,8.416,70.378,6.835,6.835,0,0,0,11.96,68.24l42.475,17.7a7.323,7.323,0,0,0-.054.82,6.828,6.828,0,0,0,.409,2.308L29.1,101.373a6.828,6.828,0,0,0-6.084-3.738m33.888,22.732a56.328,56.328,0,0,1-28.1-12.294,6.758,6.758,0,0,0,1.042-3.609l0-.078,26.6-12.746a6.829,6.829,0,0,0,2.41,1.522l1.593,22.9a6.829,6.829,0,0,0-3.537,4.3m2.829-40.272L50.22,49.672a6.839,6.839,0,0,0,3.244-3.244L85.273,53.75a6.789,6.789,0,0,0,1.086,3.1L64.543,80.8a6.745,6.745,0,0,0-4.807-.7m10.4,40.537a6.827,6.827,0,0,0-6.649-5.291l-.051,0L61.921,93.552a6.817,6.817,0,0,0,4.174-2.026l31.8,14.027c0,.061-.01.116-.01.177a6.8,6.8,0,0,0,1.011,3.561,56.224,56.224,0,0,1-28.761,11.34m28.526-18.058L67.688,88.909a6.789,6.789,0,0,0-.9-6.074L88.544,58.959a6.789,6.789,0,0,0,3.524.987,7.517,7.517,0,0,0,.838-.054l8.13,40.091a6.814,6.814,0,0,0-2.373,2.591m9.8-2.553a6.788,6.788,0,0,0-4.538-1.072L95.789,58.84a6.857,6.857,0,0,0,2.152-2.247l17.431,6.537a6.057,6.057,0,0,0-.031.613,6.827,6.827,0,0,0,5.488,6.693,56.271,56.271,0,0,1-12.369,29.585" transform="translate(0 0.001)" fill="#1e535a"/>
        </g>
      </g>
    </g>
    <g id="Elipse_13614" data-name="Elipse 13614" transform="translate(210.273 4348.213)" fill="#d5f4f8" stroke="#1e535a" stroke-width="3">
      <ellipse cx="40.232" cy="40.233" rx="40.232" ry="40.233" stroke="none"/>
      <ellipse cx="40.232" cy="40.233" rx="38.732" ry="38.733" fill="none"/>
    </g>
    <g id="buscar_1_" data-name="buscar (1)" transform="translate(181.549 4361.945)">
      <g id="Grupo_1186465" data-name="Grupo 1186465" transform="translate(62.422 4.292)">
        <path id="Trazado_1032919" data-name="Trazado 1032919" d="M164.331,128.659H153.585a1.008,1.008,0,0,1-1.008-1.008v-1.376a4.793,4.793,0,0,1,4.787-4.787h3.188a4.793,4.793,0,0,1,4.787,4.787v1.376A1.008,1.008,0,0,1,164.331,128.659Zm-9.737-2.017h8.728v-.368a2.773,2.773,0,0,0-2.77-2.77h-3.188a2.773,2.773,0,0,0-2.77,2.77Z" transform="translate(-152.577 -113.528)" fill="#1e535a"/>
        <path id="Elipse_13773" data-name="Elipse 13773" d="M-5.027-10A4.986,4.986,0,0,1-.054-5.012,4.986,4.986,0,0,1-5.027-.024,4.986,4.986,0,0,1-10-5.012,4.986,4.986,0,0,1-5.027-10Zm0,7.959A2.967,2.967,0,0,0-2.071-5.012,2.967,2.967,0,0,0-5.027-7.983,2.967,2.967,0,0,0-7.983-5.012,2.967,2.967,0,0,0-5.027-2.041Z" transform="translate(11.408 10)" fill="#1e535a"/>
      </g>
      <g id="Grupo_1186468" data-name="Grupo 1186468" transform="translate(52.31 0)">
        <g id="Grupo_1186467" data-name="Grupo 1186467">
          <path id="Trazado_1032920" data-name="Trazado 1032920" d="M81.3,51.633H56.027a3.722,3.722,0,0,1-3.717-3.717V3.717A3.722,3.722,0,0,1,56.027,0H81.3a3.722,3.722,0,0,1,3.717,3.717V30.11a1.008,1.008,0,1,1-2.017,0V3.717a1.7,1.7,0,0,0-1.7-1.7H56.027a1.7,1.7,0,0,0-1.7,1.7v44.2a1.7,1.7,0,0,0,1.7,1.7H81.3a1.7,1.7,0,0,0,1.7-1.7V44.6a1.008,1.008,0,1,1,2.017,0v3.318A3.722,3.722,0,0,1,81.3,51.633Z" transform="translate(-52.31 0)" fill="#1e535a"/>
          <g id="Grupo_1186466" data-name="Grupo 1186466" transform="translate(14.215 44.311)">
            <path id="Línea_3273" data-name="Línea 3273" d="M-6.734-7.983H-8.992A1.008,1.008,0,0,1-10-8.992,1.008,1.008,0,0,1-8.992-10h2.258A1.008,1.008,0,0,1-5.725-8.992,1.008,1.008,0,0,1-6.734-7.983Z" transform="translate(10 10)" fill="#1e535a"/>
          </g>
          <path id="Línea_3274" data-name="Línea 3274" d="M10.4-7.983H-8.992A1.008,1.008,0,0,1-10-8.992,1.008,1.008,0,0,1-8.992-10H10.4a1.008,1.008,0,0,1,1.008,1.008A1.008,1.008,0,0,1,10.4-7.983Z" transform="translate(14.866 49.774)" fill="#1e535a"/>
        </g>
      </g>
      <path id="Rectángulo_459769" data-name="Rectángulo 459769" d="M-8.992-10H12.469a1.008,1.008,0,0,1,1.008,1.008v4.674a1.008,1.008,0,0,1-1.008,1.008H-8.992A1.008,1.008,0,0,1-10-4.318V-8.992A1.008,1.008,0,0,1-8.992-10ZM11.461-7.983H-7.983v2.657H11.461Z" transform="translate(66.966 31.811)" fill="#1e535a"/>
      <path id="Trazado_1032921" data-name="Trazado 1032921" d="M118.516,312.064H99.49a1.008,1.008,0,0,1-1.008-1.008v-4.674a1.008,1.008,0,0,1,1.008-1.008h21.461a1.008,1.008,0,0,1,0,2.017H100.5v2.657h18.017a1.008,1.008,0,0,1,0,2.017Z" transform="translate(-41.516 -274.577)" fill="#1e535a"/>
      <path id="Elipse_13774" data-name="Elipse 13774" d="M-2.009-10A8.008,8.008,0,0,1,5.983-1.994,8.008,8.008,0,0,1-2.009,6.012,8.008,8.008,0,0,1-10-1.994,8.008,8.008,0,0,1-2.009-10Zm0,13.995A5.988,5.988,0,0,0,3.966-1.994,5.988,5.988,0,0,0-2.009-7.983,5.988,5.988,0,0,0-7.983-1.994,5.988,5.988,0,0,0-2.009,3.995Z" transform="translate(86.047 39.276)" fill="#1e535a"/>
      <path id="Línea_3275" data-name="Línea 3275" d="M-6.19-5.181a1,1,0,0,1-.713-.3l-2.8-2.8A1.008,1.008,0,0,1-9.7-9.7a1.008,1.008,0,0,1,1.426,0l2.8,2.8a1.008,1.008,0,0,1,0,1.426A1,1,0,0,1-6.19-5.181Z" transform="translate(98.574 50.911)" fill="#1e535a"/>
    </g>
  </g>
</svg>
