<svg xmlns="http://www.w3.org/2000/svg" xmlns:xlink="http://www.w3.org/1999/xlink" width="396" height="194" viewBox="0 0 396 194">
  <defs>
    <clipPath id="clip-path">
      <rect id="Rectángulo_459767" data-name="Rectángulo 459767" width="335.431" height="174.629" fill="none"/>
    </clipPath>
    <clipPath id="clip-path-2">
      <rect id="Rectángulo_459768" data-name="Rectángulo 459768" width="44.216" height="162.703" fill="none"/>
    </clipPath>
  </defs>
  <g id="Grupo_1186409" data-name="Grupo 1186409" transform="translate(-289.711 -419)">
    <g id="Grupo_1186396" data-name="Grupo 1186396">
      <rect id="Rectángulo_459159" data-name="Rectángulo 459159" width="396" height="194" transform="translate(289.711 419)" fill="#69d7e5"/>
      <ellipse id="Elipse_13772" data-name="Elipse 13772" cx="180" cy="7" rx="180" ry="7" transform="translate(301.711 593)" fill="#5ac2cf"/>
      <g id="Grupo_1186406" data-name="Grupo 1186406" transform="translate(319.026 425.411)">
        <g id="Grupo_1186405" data-name="Grupo 1186405" clip-path="url(#clip-path)">
          <path id="Trazado_1032652" data-name="Trazado 1032652" d="M297.555,85.848l-15.067,49.984a3.52,3.52,0,0,1-3.37,2.5H263.08a3.52,3.52,0,0,0-3.52,3.52v33.967a3.52,3.52,0,0,0,3.52,3.52h-26.5a3.52,3.52,0,0,1-3.52-3.52V141.856a3.52,3.52,0,0,1,3.52-3.52H252.62a3.52,3.52,0,0,0,3.37-2.5l14.6-48.447a8.539,8.539,0,0,1,8.176-6.074h15.416A3.52,3.52,0,0,1,297.555,85.848Z" transform="translate(-16.509 -5.76)" fill="none" stroke="#58595b" stroke-linecap="round" stroke-miterlimit="10" stroke-width="2.25"/>
          <path id="Trazado_1032653" data-name="Trazado 1032653" d="M268.13,114.572h20.488a3.751,3.751,0,0,0,3.6-2.676L299.1,89.08A2.4,2.4,0,0,0,296.813,86h-20.5a3.763,3.763,0,0,0-3.6,2.676l-6.871,22.816a2.39,2.39,0,0,0,2.286,3.08" transform="translate(-18.824 -6.092)" fill="#11393d"/>
          <path id="Trazado_1032654" data-name="Trazado 1032654" d="M268.128,114.572h17.7a3.751,3.751,0,0,0,3.6-2.676l6.885-22.816A2.4,2.4,0,0,0,294.024,86h-17.7a3.78,3.78,0,0,0-3.61,2.676l-6.871,22.816a2.39,2.39,0,0,0,2.286,3.08" transform="translate(-18.824 -6.092)" fill="#4b9fa3"/>
          <path id="Trazado_1032655" data-name="Trazado 1032655" d="M274.392,131.925H236.975a3.136,3.136,0,0,0-3.136,3.136v4.878h43.689v-4.878a3.136,3.136,0,0,0-3.136-3.136" transform="translate(-16.564 -9.345)" fill="#4b9fa3"/>
          <path id="Trazado_1032656" data-name="Trazado 1032656" d="M277.933,137.385h-44.8a1.407,1.407,0,0,0-1.407,1.408v1.864a1.408,1.408,0,0,0,1.407,1.408h44.8a1.408,1.408,0,0,0,1.408-1.408v-1.864a1.407,1.407,0,0,0-1.408-1.408" transform="translate(-16.415 -9.732)" fill="#11393d"/>
          <path id="Trazado_1032657" data-name="Trazado 1032657" d="M280.79,81.312h15.416a3.52,3.52,0,0,1,3.37,4.536l-15.066,49.984a3.522,3.522,0,0,1-3.371,2.5H265.1a3.52,3.52,0,0,0-3.521,3.52v33.967a3.52,3.52,0,0,0,3.521,3.52h20.727" transform="translate(-18.529 -5.76)" fill="none" stroke="#808081" stroke-linecap="round" stroke-miterlimit="10" stroke-width="2.25"/>
          <path id="Trazado_1032658" data-name="Trazado 1032658" d="M270.226,65.151c-3.454-1.625-12.216-.527-12.365,1.958s4.073,6.984,8.277,5,6.9-5.629,4.088-6.953" transform="translate(-18.266 -4.561)" fill="#d14e4e"/>
          <path id="Trazado_1032659" data-name="Trazado 1032659" d="M271.17,46.715a6.744,6.744,0,0,1,6.329-1.829c4.124.783.767,8.267,1.835,10.391s3.8,2.879,2.7,5.434-2.73,4.936-.059,6.968,1.346,4.472-2.637,1.974-3-5.981-3.519-7.666-1.684,1.685-3.194-3.89a47.88,47.88,0,0,1-1.451-11.382" transform="translate(-19.209 -3.169)" fill="#0f343d"/>
          <path id="Trazado_1032660" data-name="Trazado 1032660" d="M249.538,92.48c2.236-5.772,4.363-12.489,4.363-12.489l1.62-11.417c-5.624-.387-7.366,6.729-8.585,10.576-1.02,3.217-3.735,10.9-4.6,13.33Z" transform="translate(-17.166 -4.857)" fill="#d86"/>
          <path id="Trazado_1032661" data-name="Trazado 1032661" d="M223.4,166.622a3.388,3.388,0,0,1-.164-.823c.454-1.9,1.518-6.33,3.2-11.514h-4.55c-1.148,4.735-2.283,9.127-3.229,12.245a22.5,22.5,0,0,1-4.752,6.974.128.128,0,0,1-.03.012,4.237,4.237,0,0,0-1.544.817,3.372,3.372,0,0,0-.552.613h6.338a8.7,8.7,0,0,0,1.231-1.6,2.947,2.947,0,0,1,2.92-1.238c.595.519.69,2.886.705,3.443h.746c.259-.665,1.165-3.719.892-4.86-.229-.919-.915-3.046-1.213-4.063" transform="translate(-15.002 -10.929)" fill="#f3a17a"/>
          <path id="Trazado_1032662" data-name="Trazado 1032662" d="M248.993,176.556c-1.412-5.465-2.573-6.885-3.456-21.866-.008-.138-.014-.269-.021-.405h-6.51c2.625,10.073,5.456,21.229,5.245,22.178-.458,2.06-3.591,6.036-4.752,6.973a.078.078,0,0,1-.03.012,4.246,4.246,0,0,0-1.544.818,3.366,3.366,0,0,0-.552.612h6.337a8.6,8.6,0,0,0,1.232-1.6,2.947,2.947,0,0,1,2.92-1.238c.595.519.69,2.886.705,3.443h.746c.259-.665,1.166-3.719.892-4.86-.229-.919-.948-3.036-1.213-4.063" transform="translate(-16.815 -10.929)" fill="#d86"/>
          <path id="Trazado_1032663" data-name="Trazado 1032663" d="M265.313,129.977a27.244,27.244,0,0,0,4.054.449c11.5-.869,9.769-6.837,8.766-10.67-2.676-10.286-5.15-15.137-5.15-15.137a21.158,21.158,0,0,1-5.031.794,71.329,71.329,0,0,1-8.237-.076c-.78-.049-1.484-.1-2.083-.147-1.234-.1-2.007-.181-2.007-.181-1.477,2.857-2.871,9.373-3.966,15.7-.056.327-.111.655-.167.976-.808,4.781-3.792,10.212-1.117,10.5,9.6,1.022,14.939-2.207,14.939-2.207" transform="translate(-17.658 -7.411)" fill="#4f443a"/>
          <path id="Trazado_1032664" data-name="Trazado 1032664" d="M263.866,111.911c-11.03-2.208-28.222-.973-30.05,0-2.378,1.265-5.144,10.886-5.342,12.077-.515,3.085-5.024,20.951-8.189,32.986a7.335,7.335,0,0,0,5.75,1.213s2.875-13.5,6.444-20.38c3.356-6.473,4.771-9.629,5.6-14.633,10.965.641,28.145,9.439,28.145,9.439,3.438-10.889-2.358-20.7-2.358-20.7" transform="translate(-15.604 -7.84)" fill="#716558"/>
          <path id="Trazado_1032665" data-name="Trazado 1032665" d="M242.979,170.547s3.283,0,4.851-2.012a79.476,79.476,0,0,1-2.528-16.341c-.482-8.189,0-14.37-3.387-18.494,0,0,12.8.988,20.3-1.82l-4.977-12.232c-11.029-2.208-15.559,2.588-18.541,2.64-4.784.084-5.219,8.218-4.159,13.242.424,2,6.147,25.084,8.437,35.016" transform="translate(-16.58 -8.434)" fill="#4f443a"/>
          <path id="Trazado_1032666" data-name="Trazado 1032666" d="M259.946,111.161c-11.03-2.208-23.317-.652-25.147.321-2.377,1.265,2.742,9.794,5.3,9.5,10.964.642,17.582,11.9,31.232,11.193,0,0,8.531-1.009,7.782-11.493-.581-8.13-7.2-16.066-7.2-16.066l-17.356.387c-.186,4.3,5.389,6.155,5.389,6.155" transform="translate(-16.589 -7.411)" fill="#716558"/>
          <path id="Trazado_1032667" data-name="Trazado 1032667" d="M256.038,68.576a86.846,86.846,0,0,0,9.226.348c3.106-.094,8.2-.418,10.978,2.961,3.447,4.191.477,11.567-1.925,17.1-.9,2.062-1.336,8.749-.872,13.635,0,0-9.672,3.38-18.173,1.62l-2.919-10.949s-8.114-12.048,3.685-24.712" transform="translate(-17.683 -4.858)" fill="#11393d"/>
          <path id="Trazado_1032668" data-name="Trazado 1032668" d="M260.271,44.9s-4.1.241-5.322,6.183,4.706,5.846,4.706,5.846l3.6-10.315Z" transform="translate(-18.048 -3.18)" fill="#0f343d"/>
          <path id="Trazado_1032669" data-name="Trazado 1032669" d="M263.136,64.593c-3.71.308-5.967-3.16-6.385-7.689-.046-.493-.063-1-.061-1.517a18.632,18.632,0,0,1,.5-4.386c1.626-6.953,11.524-4.167,11.524-4.167,7.755,3.483.875,17.226-5.581,17.759" transform="translate(-18.183 -3.279)" fill="#f3a17a"/>
          <path id="Trazado_1032670" data-name="Trazado 1032670" d="M262.881,55.746c-.007.441-.24.8-.519.791s-.5-.365-.493-.807.24-.8.519-.792.5.366.493.807" transform="translate(-18.55 -3.892)" fill="#1a4850"/>
          <path id="Trazado_1032671" data-name="Trazado 1032671" d="M264.722,57.453a.959.959,0,1,1-1.041-.6.859.859,0,0,1,1.041.6" transform="translate(-18.62 -4.027)" fill="#ed7d66"/>
          <path id="Trazado_1032672" data-name="Trazado 1032672" d="M257.6,57.083a.791.791,0,0,1-.854.517c-.045-.493-.063-1-.06-1.518a1.136,1.136,0,0,1,.2.032.86.86,0,0,1,.71.97" transform="translate(-18.183 -3.973)" fill="#ed7d66"/>
          <path id="Trazado_1032673" data-name="Trazado 1032673" d="M263.193,55.422s-.282-1-.643-1.007-.926.7-.926.7l-.683-.448.647.218s.51-.8,1.016-.665.589,1.2.589,1.2" transform="translate(-18.484 -3.84)" fill="#1a4850"/>
          <path id="Trazado_1032674" data-name="Trazado 1032674" d="M258.494,55.141c-.007.441-.24.8-.518.791s-.5-.365-.494-.807.24-.8.519-.792.5.366.493.807" transform="translate(-18.239 -3.849)" fill="#1a4850"/>
          <path id="Trazado_1032675" data-name="Trazado 1032675" d="M258.777,54.958s-.282-1-.643-1.007-.926.7-.926.7l-.683-.448.647.218s.51-.8,1.017-.665.589,1.2.589,1.2" transform="translate(-18.171 -3.807)" fill="#1a4850"/>
          <path id="Trazado_1032676" data-name="Trazado 1032676" d="M263.7,52.939a.2.2,0,0,1-.164-.085,1.346,1.346,0,0,0-1.226-.5.2.2,0,0,1-.062-.4,1.744,1.744,0,0,1,1.619.665.2.2,0,0,1-.048.282.209.209,0,0,1-.119.037" transform="translate(-18.565 -3.679)" fill="#145b6b"/>
          <path id="Trazado_1032677" data-name="Trazado 1032677" d="M258.81,52.081a.2.2,0,0,1-.119-.041,1.336,1.336,0,0,0-1.32-.1.2.2,0,1,1-.18-.362,1.74,1.74,0,0,1,1.743.139.2.2,0,0,1-.124.365" transform="translate(-18.21 -3.641)" fill="#145b6b"/>
          <path id="Trazado_1032678" data-name="Trazado 1032678" d="M259.417,56.5s-1.738.1-1.539.7,1.243,1.349,1.243,1.349.722-1.311.3-2.053" transform="translate(-18.266 -4.002)" fill="#dd774e"/>
          <path id="Trazado_1032679" data-name="Trazado 1032679" d="M267.674,60.467c-.649,2.049-3.341,5.676-6.424,4.83A3.967,3.967,0,0,1,261,69.524s1,2.558,7.772-1.224c0,0-1.83-.151-1.332-3.908a8.058,8.058,0,0,1,1.332-3.607.661.661,0,0,1-1.1-.318" transform="translate(-18.489 -4.283)" fill="#d86"/>
          <path id="Trazado_1032680" data-name="Trazado 1032680" d="M273.058,58.655c-1.389,1.9-5.621,3.739-5.621,3.739-.489-1.882.55-2.579.55-2.579,1.085.1,2.508-2.546,2.042-3.378-.575-1.036-1.371-.665-1.9-.22a5.049,5.049,0,0,1-1.923-3.552c-.069-.811,1.339-3.114-1.356-4.109s-6.495,0-6.495,0-.978-2.515,2.158-3.715c3.809-1.458,11.769-.905,13.549,4.434.963,2.9.641,7.126-1,9.376" transform="translate(-18.291 -3.127)" fill="#0f343d"/>
          <path id="Trazado_1032681" data-name="Trazado 1032681" d="M260.778,46.683s2.569,10.572,7.33,10.454,4.65,1.4,4.65,1.4-2.006-14.495-11.98-11.853" transform="translate(-18.473 -3.284)" fill="#0f343d"/>
          <path id="Trazado_1032682" data-name="Trazado 1032682" d="M258.949,60.467l2.445.6s-1.778.885-2.445-.6" transform="translate(-18.343 -4.283)" fill="#fff"/>
          <path id="Trazado_1032683" data-name="Trazado 1032683" d="M267.849,90.788l2.834,6.231s6.117-7.605,8.415-15.813c2.032-7.256-1.567-9.081-1.567-9.081-2.749-1.008-4.622,2.912-7.325,10.841-1.488,4.361-2.358,7.823-2.358,7.823" transform="translate(-18.973 -5.098)" fill="#f3a17a"/>
          <path id="Trazado_1032684" data-name="Trazado 1032684" d="M232.712,88.436s10.924.083,15.606,1.305,4.768,5.338,1.284,6.275-16.179-4.955-16.179-4.955Z" transform="translate(-16.484 -6.264)" fill="#d86"/>
          <path id="Trazado_1032685" data-name="Trazado 1032685" d="M269.088,98.183s.107-5.065-2.36-6.07-19.774-3.719-19.774-3.719l-1.626,1.871s16.992,9.8,23.76,7.918" transform="translate(-17.378 -6.261)" fill="#f3a17a"/>
          <path id="Trazado_1032686" data-name="Trazado 1032686" d="M248.735,90.253c-.119,1.219-2.614,1.1-2.614,1.1s-1.414.23-2.16.258c0,0,.07.906-.335.962s-.585-1.45-.585-1.45-.739,1.568-1.038,1.45-.237-1.686-.237-1.686-.872,0-.927.236a5.612,5.612,0,0,1-.362.907c-.181.369-.4.669-.571.55-.348-.237-.174-2.1-.174-2.1a3.22,3.22,0,0,0-.635.056c-.174.062-.585,1.394-1.163.584a3.149,3.149,0,0,1,1.163-2.153,10.553,10.553,0,0,1,3.715-1.1,13.077,13.077,0,0,1,4.4.466c.426.23,1.645.7,1.527,1.917" transform="translate(-16.854 -6.223)" fill="#f3a17a"/>
          <path id="Trazado_1032687" data-name="Trazado 1032687" d="M243.4,91.264s-.181-.951.295-1.122a9.3,9.3,0,0,1,1.346-.3,6.665,6.665,0,0,0-1.674.22c-.635.216-.41,2.032-.41,2.032Z" transform="translate(-17.207 -6.364)" fill="#d86"/>
          <path id="Trazado_1032688" data-name="Trazado 1032688" d="M243,89.379a1.847,1.847,0,0,0-.808.432A3.373,3.373,0,0,0,241.96,91s-.872,0-.927.237a5.647,5.647,0,0,1-.362.906,5.259,5.259,0,0,1,.509-2.027c.4-.635,1.623-.725,1.826-.732" transform="translate(-17.048 -6.331)" fill="#d86"/>
          <path id="Trazado_1032689" data-name="Trazado 1032689" d="M240.928,89.372s-.99.606-1.108,1.219a3.22,3.22,0,0,0-.635.056,2.017,2.017,0,0,1,1.742-1.275" transform="translate(-16.943 -6.331)" fill="#d86"/>
          <path id="Trazado_1032690" data-name="Trazado 1032690" d="M249.192,90.437c-.119,1.219-2.614,1.1-2.614,1.1s-1.414.23-2.16.258c-.1-.348.125-.5.153-.788,0,0,1.053.021,1.254-.174a2.6,2.6,0,0,0,1.422-.112c.432-.286,1.248.731,1.945-.286" transform="translate(-17.312 -6.406)" fill="#d86"/>
          <path id="Trazado_1032691" data-name="Trazado 1032691" d="M225.053,89.969v1h7.027l.914-1.639a12.178,12.178,0,0,0-6.083-.1,5.176,5.176,0,0,0-1.394.693.349.349,0,0,0-.465.047" transform="translate(-15.942 -6.295)" fill="#d86"/>
          <path id="Trazado_1032692" data-name="Trazado 1032692" d="M233.787,90.223a2.217,2.217,0,0,1-2.052,1.025,8.612,8.612,0,0,0-2.041.007s-.268-.394.4-.551,1.741-.719,1.775-1.161l-1.875-.281a5.177,5.177,0,0,0-1.338.281c-.4.2-.5.9-.971,1.314s-.737.243-.737.243a6.027,6.027,0,0,1,.566-1.471,3.6,3.6,0,0,1,.472-.366,1.489,1.489,0,0,0-1.038.559,5.393,5.393,0,0,0-.368,1.035c-.076.179-.368.505-.669.4,0,0,.268-1.23.368-1.712a13.26,13.26,0,0,1-.569,1.556c-.229.235-.4-.035-.3-1.278a2.4,2.4,0,0,0-.234,1.035s-.368.244-.4-.153-.1-1.161.7-1.161c0,0,.469-.923,1.172-.6a9.106,9.106,0,0,1,1.673-.722,4.471,4.471,0,0,1,1.339,0s5.429-.113,4.126,2" transform="translate(-15.921 -6.245)" fill="#f3a17a"/>
          <path id="Trazado_1032693" data-name="Trazado 1032693" d="M257.683,68.713s-5.381,1.963-6.571,9.725S252.15,87,252.15,87s-.187-2.289,1.174-1.418.837,1.371,1.8,1.208a.938.938,0,0,1,1.151.657s.759.641-.152-3.181-.423-10.1,1.728-11.359-.163-4.192-.163-4.192" transform="translate(-17.763 -4.867)" fill="#d14e4e"/>
          <path id="Trazado_1032694" data-name="Trazado 1032694" d="M270.149,65.21s-7.268,4.878-10.675,2.614-1.366,1.829-1.366,1.829-2.569,2.614-.607,4.792,6.492,2.961,10.412,0a27.354,27.354,0,0,1,7.444-4.067,10.02,10.02,0,0,0-2.884-2.054c-1.685-.761,1.3-3.2-2.325-3.113" transform="translate(-18.188 -4.619)" fill="#e56361"/>
          <path id="Trazado_1032695" data-name="Trazado 1032695" d="M250.2,186.954s.96-4.058,0-7.047.639-3.844-.641-4.27-3.215,1.174-4.063,2.989c0,0,.326-3.523-2.023-3.523s-.534,3.31-.748,4.377-2.241,4.271-3.523,4.7-2.456.748-2.242,2.776Z" transform="translate(-16.784 -12.404)" fill="#11393d"/>
          <path id="Trazado_1032696" data-name="Trazado 1032696" d="M224.671,176.545s.96-4.058,0-7.047.639-3.844-.641-4.27-3.214,1.174-4.063,2.989c0,0,.326-3.523-2.023-3.523s-.534,3.31-.748,4.377-2.241,4.271-3.522,4.7-2.457.748-2.243,2.776Z" transform="translate(-14.975 -11.666)" fill="#11393d"/>
          <path id="Trazado_1032697" data-name="Trazado 1032697" d="M31.626,23.271s-4.774-1.426-8.491-.671S20.521,28,20.521,28l8.3-.277,4.2.277Z" transform="translate(-1.443 -1.585)" fill="#11393d"/>
          <path id="Trazado_1032698" data-name="Trazado 1032698" d="M44.617,28.965c4.237,5.842,7.954,29.459,7.954,29.459L65.7,47.613l3.092,1.776S58.378,65.641,52.571,68.661s-11.15-11.494-11.15-11.494Z" transform="translate(-2.934 -2.052)" fill="#11393d"/>
          <path id="Trazado_1032699" data-name="Trazado 1032699" d="M20.609,187.207v-1.628c0-1.876,1.751-5.28,1.751-6.53s4.839,1.016,4.839,1.016a6.025,6.025,0,0,0,1.664,3.639,4.635,4.635,0,0,1,1.174,3.5Z" transform="translate(-1.46 -12.657)" fill="#11393d"/>
          <path id="Trazado_1032700" data-name="Trazado 1032700" d="M55.757,187.173l-.838-.391-.39.391H51.334c-.318-.919-1.4-4.413-.423-6.835,1.132-2.81,4.634-2.06,4.634-2.06s2.376,3.315,3.751,3.909,6.628,2.719,7.253,4.095c.187.412-.132.689-.04.891Z" transform="translate(-3.578 -12.622)" fill="#11393d"/>
          <path id="Trazado_1032701" data-name="Trazado 1032701" d="M42.217,75.162c1.814,26.292,6.765,60.751,12.138,97,0,0-1.054,1.713-7.029.817l-18.4-76.965a.53.53,0,0,0-1.024.168c-.212,5.8-2.072,23.546-1.072,77.043a7.354,7.354,0,0,1-6.49,0S8.473,94.1,11.206,78.946Z" transform="translate(-0.765 -5.324)" fill="#4b9fa3"/>
          <path id="Trazado_1032702" data-name="Trazado 1032702" d="M43.591,45.558c0,.468-.007.941-.007,1.423-.014,1.24-.028,2.509-.056,3.784,0,.474-.014.955-.028,1.429-.021,1.379-.056,2.767-.1,4.139-.014.489-.028.977-.042,1.457-.035,1.275-.077,2.543-.125,3.77-.014.488-.035.977-.049,1.45-.056,1.365-.111,2.682-.16,3.929-.021.494-.042.982-.07,1.456-.042,1.059-.091,2.065-.133,2.991-.028.516-.048,1.01-.076,1.476-.049,1.017-.1,1.917-.133,2.662-.034.641-.07,1.171-.09,1.581-.035.649-.056,1-.056,1s-3.8,4.084-12.167,5.408c-14.725,2.334-19.757-2.955-19.757-2.955s-.076-.78-.2-2.146c-.048-.452-.09-.968-.146-1.547-.091-1.039-.2-2.258-.328-3.615-.042-.475-.084-.969-.125-1.478-.111-1.186-.223-2.46-.334-3.79-.042-.474-.084-.964-.125-1.451-.111-1.294-.223-2.64-.341-4.006-.042-.482-.077-.963-.119-1.45-.09-1.115-.181-2.251-.279-3.379-.034-.48-.07-.963-.112-1.442C7.632,45.984,6.991,35.963,7.368,34.13c.655-3.178,4.983-7.226,11.15-8.948a22.755,22.755,0,0,1,5.039-.808c2.4-.112,4.669-.133,6.746-.02,5.324.278,9.45,1.4,11.652,3.993a3.3,3.3,0,0,1,.243.285,3.557,3.557,0,0,1,.5,1.205,15.93,15.93,0,0,1,.341,1.841c.063.432.111.9.161,1.4.1,1.012.181,2.162.236,3.408.021.454.043.927.057,1.408.034,1.011.062,2.07.076,3.179.007.467.014.933.021,1.413.007,1,.007,2.028.007,3.074" transform="translate(-0.514 -1.72)" fill="#fff"/>
          <path id="Trazado_1032703" data-name="Trazado 1032703" d="M70.2,42.659a24.409,24.409,0,0,1-1.7,3.089c-.7.938-1.949,3.772.446,5.04s7.3-2.11,7.3-2.11A3.536,3.536,0,0,0,77.311,45.3c.767-.686.291-2.348.291-2.348l.827-1.572c-1.774-.875-1.618.986-3.637,2.647a12.414,12.414,0,0,1-2.482.954l0,0a13.194,13.194,0,0,1-1.662.537v-.006a16.238,16.238,0,0,0,.11-2.446c-.08-.813-.551-.41-.551-.41" transform="translate(-4.785 -2.916)" fill="#f3a17a"/>
          <path id="Trazado_1032704" data-name="Trazado 1032704" d="M76.923,47.652s.144-1.345-.279-1.39a1.305,1.305,0,0,0-.714.652A2.593,2.593,0,0,1,74.9,48.832c-1,.737-.463-4-.463-4,.429,1.048,2.094-.04,2.3-.856s.55-1.125.876-1.256.46.341.46.341a.75.75,0,0,0-.51.111A3.717,3.717,0,0,0,76.49,44.7c-.035.431.128-.418.518-.243a.953.953,0,0,1,.5.567s-.391-.318-.637.013a2.674,2.674,0,0,0-.334.989s1.2-.231.391,1.621" transform="translate(-5.263 -3.025)" fill="#d86"/>
          <path id="Trazado_1032705" data-name="Trazado 1032705" d="M70.881,45.811a1.328,1.328,0,0,1,.379,1.87c-.758,1.094-.016,1.707-.016,1.707s2.026-2.315,1.3-4.112l0,0a13.232,13.232,0,0,1-1.663.537" transform="translate(-5.021 -3.207)" fill="#d86"/>
          <path id="Trazado_1032706" data-name="Trazado 1032706" d="M23.21,24.48s-3.108.938-1.112,2.1,5.48,3.647,8.965,2.056,3.459-5.209-7.852-4.155" transform="translate(-1.518 -1.721)" fill="#cdcfd0"/>
          <path id="Trazado_1032707" data-name="Trazado 1032707" d="M34.238,24.278s4.655.676,4.206,17.655S39.636,89.19,39.636,89.19L45.5,84.1l-.649-19.583s2.754-28.367-.745-35.891c0,0-3-4.143-9.871-4.352" transform="translate(-2.425 -1.72)" fill="#1a4850"/>
          <path id="Trazado_1032708" data-name="Trazado 1032708" d="M30.97,23.116s6.533.146,11.15,7.694l-2.291,3.63,2.727,7.4L38.213,52.816s.859-25.413-7.243-28.34Z" transform="translate(-2.194 -1.637)" fill="#11393d"/>
          <path id="Trazado_1032709" data-name="Trazado 1032709" d="M37.7,13.379c-.125.488-.265.962-.432,1.436a16.373,16.373,0,0,1-.669,1.756,11.775,11.775,0,0,1-1.812,3.164c-1.631,1.826-5.728,1.659-8.446-.739-1.8-1.589-2.983-4.139-2.467-7.735,1.3-9.031,7.011-9.7,13.073-5.728,1.742,1.143,1.617,4.571.753,7.847" transform="translate(-1.683 -0.228)" fill="#f3a17a"/>
          <path id="Trazado_1032710" data-name="Trazado 1032710" d="M38.231,7.56s-3.124-3.752-9.379-3.32c0,0-2.338,4.785-3.158,6.988,0,0-2.377.313-1.2,5.283,0,0-2.82-.841-1.869-8.664.825-6.781,4.989-5.6,4.989-5.6S29.351-.659,33.967.137c4.766.823,6.655,5.188,4.264,7.422" transform="translate(-1.589 0)" fill="#4f443a"/>
          <path id="Trazado_1032711" data-name="Trazado 1032711" d="M31.945,11.112c-.113.5.017.947.292,1.01s.59-.286.7-.781-.017-.947-.292-1.01-.59.287-.7.781" transform="translate(-2.26 -0.731)" fill="#1a4850"/>
          <path id="Trazado_1032712" data-name="Trazado 1032712" d="M36.723,12.635c-.113.5.017.947.292,1.01s.59-.286.7-.781-.017-.947-.292-1.01-.59.286-.7.781" transform="translate(-2.598 -0.839)" fill="#1a4850"/>
          <path id="Trazado_1032713" data-name="Trazado 1032713" d="M36.739,17.143a11.775,11.775,0,0,1-1.812,3.164c-1.631,1.826-5.728,1.659-8.446-.739a16.292,16.292,0,0,1-.557-7.54l.293-.739s.084,2.453,3.22,3.763a48.023,48.023,0,0,0,7.3,2.091" transform="translate(-1.823 -0.8)" fill="#716558"/>
          <path id="Trazado_1032714" data-name="Trazado 1032714" d="M35.571,13.325s.6,2.133,1.553,2.042-.194,1.852-2.474.581a2.858,2.858,0,0,1,.922-2.623" transform="translate(-2.451 -0.944)" fill="#dd774e"/>
          <path id="Trazado_1032715" data-name="Trazado 1032715" d="M29.493,12.336a.969.969,0,0,0,1.629.957.968.968,0,0,0-1.629-.957" transform="translate(-2.083 -0.85)" fill="#ed7d66"/>
          <path id="Trazado_1032716" data-name="Trazado 1032716" d="M37.3,14.883a.843.843,0,0,0,.926.705q.237-.707.43-1.434a1.12,1.12,0,0,0-.452-.071.863.863,0,0,0-.905.8" transform="translate(-2.642 -0.998)" fill="#ed7d66"/>
          <path id="Trazado_1032717" data-name="Trazado 1032717" d="M31.974,8.208a.2.2,0,0,1-.04-.382,2.726,2.726,0,0,1,2.005.009.2.2,0,1,1-.155.377,2.357,2.357,0,0,0-1.672-.02.2.2,0,0,1-.138.015" transform="translate(-2.254 -0.54)" fill="#4f443a"/>
          <path id="Trazado_1032718" data-name="Trazado 1032718" d="M38.842,10.64a.2.2,0,0,1-.152-.232c.056-.33-.581-.57-.808-.628a.2.2,0,0,1,.1-.4h0c.462.116,1.214.477,1.111,1.092a.2.2,0,0,1-.235.167l-.016,0" transform="translate(-2.672 -0.664)" fill="#4f443a"/>
          <path id="Trazado_1032719" data-name="Trazado 1032719" d="M25.692,11.974s-1.061-2.024-2.636-1.292-.037,4.361,1.436,4.575,1.2-3.284,1.2-3.284" transform="translate(-1.586 -0.745)" fill="#f3a17a"/>
          <path id="Trazado_1032720" data-name="Trazado 1032720" d="M35.09,18.15l-3.276-.38s-.505,1.774,1.124,2.122S35.09,18.15,35.09,18.15" transform="translate(-2.248 -1.259)" fill="#fff"/>
          <path id="Trazado_1032721" data-name="Trazado 1032721" d="M31.615,21.829s-.989,2.432.163,4.257c0,0-3.653,2.982-8.433-.706,0,0,2.443-5.893.2-10.046,0,0,.559.029,1.444.126,0,0,1.031,6.368,6.631,6.368" transform="translate(-1.654 -1.086)" fill="#d86"/>
          <path id="Trazado_1032722" data-name="Trazado 1032722" d="M20.539,24.776s5.488,13.7,5,27.291S22,89.226,22,89.226L9.573,86.563,8.86,60.069V31.361a17.013,17.013,0,0,1,11.679-6.585" transform="translate(-0.628 -1.755)" fill="#1a4850"/>
          <path id="Trazado_1032723" data-name="Trazado 1032723" d="M8.32,99.036a12.728,12.728,0,0,1,1.058,1.923,9.857,9.857,0,0,1,.1,2.588s-.07.173-.327.006c-.4-.259-.041-1.246-.659-1.543s-.177-2.973-.177-2.973" transform="translate(-0.579 -7.015)" fill="#d86"/>
          <path id="Trazado_1032724" data-name="Trazado 1032724" d="M3.463,96.678s3.312-.4,4.05.521c0,0,.565,2.712.868,3.583.332.956.152,4.29-.358,4.872-1.351,1.539-1.422,1.449-1.748,1.1s.815-1.195.9-1.679a7.048,7.048,0,0,0-.288-1.365,1.94,1.94,0,0,1-.751,1.587c-.647.385-1.19.788-1.524.582-.6-.373.922-1.243.808-1.666-.041-.152-.175-1.129-.175-1.129-.162.281-.176.777-.377,1.007-.258.3-1.449,1.117-1.668.826-.34-.454.763-1.159.77-1.6a9.341,9.341,0,0,0-.153-.943,3.464,3.464,0,0,1-.5.785c-.233.194-1.3.7-1.366.457-.17-.636.888-.9,1-1.81.089-.755-.262-2.509.191-3.265a3.418,3.418,0,0,0,.321-1.859" transform="translate(-0.137 -6.842)" fill="#f3a17a"/>
          <path id="Trazado_1032725" data-name="Trazado 1032725" d="M8.571,31.4s4.159,7.343,3.748,12.165C12.125,45.836,7.9,64.227,7.9,64.227S8.93,87.577,7.34,92.886c0,0-3.4-.106-4.173-.835,0,0-3.85-14.627-3.061-28.937.772-14,5.173-28.622,8.464-31.716" transform="translate(0 -2.224)" fill="#11393d"/>
          <path id="Trazado_1032726" data-name="Trazado 1032726" d="M22.846,22.616s-5.923,1.1-6.564,8.159l4.3,3.514L19.565,40.5l6.4,13.571s1.406-9.691-3.391-25.042c0,0-.781-5.465.267-6.416" transform="translate(-1.153 -1.602)" fill="#11393d"/>
          <path id="Trazado_1032727" data-name="Trazado 1032727" d="M175.174,85.848l-15.067,49.984a3.52,3.52,0,0,1-3.37,2.5H140.7a3.52,3.52,0,0,0-3.52,3.52v33.967a3.52,3.52,0,0,0,3.52,3.52H114.2a3.52,3.52,0,0,1-3.52-3.52V141.856a3.52,3.52,0,0,1,3.52-3.52h16.038a3.52,3.52,0,0,0,3.37-2.5l14.6-48.447a8.539,8.539,0,0,1,8.176-6.074H171.8A3.52,3.52,0,0,1,175.174,85.848Z" transform="translate(-7.84 -5.76)" fill="none" stroke="#58595b" stroke-linecap="round" stroke-miterlimit="10" stroke-width="2.25"/>
          <path id="Trazado_1032728" data-name="Trazado 1032728" d="M145.749,114.572h20.488a3.751,3.751,0,0,0,3.6-2.676l6.885-22.816A2.4,2.4,0,0,0,174.432,86h-20.5a3.763,3.763,0,0,0-3.6,2.676l-6.871,22.816a2.39,2.39,0,0,0,2.286,3.08" transform="translate(-10.155 -6.092)" fill="#11393d"/>
          <path id="Trazado_1032729" data-name="Trazado 1032729" d="M145.747,114.572h17.7a3.751,3.751,0,0,0,3.6-2.676l6.885-22.816A2.4,2.4,0,0,0,171.643,86h-17.7a3.78,3.78,0,0,0-3.61,2.676l-6.871,22.816a2.39,2.39,0,0,0,2.286,3.08" transform="translate(-10.155 -6.092)" fill="#4b9fa3"/>
          <path id="Trazado_1032730" data-name="Trazado 1032730" d="M152.011,131.925H114.594a3.136,3.136,0,0,0-3.136,3.136v4.878h43.689v-4.878a3.136,3.136,0,0,0-3.136-3.136" transform="translate(-7.895 -9.345)" fill="#4b9fa3"/>
          <path id="Trazado_1032731" data-name="Trazado 1032731" d="M155.551,137.385h-44.8a1.407,1.407,0,0,0-1.407,1.408v1.864a1.408,1.408,0,0,0,1.407,1.408h44.8a1.408,1.408,0,0,0,1.408-1.408v-1.864a1.407,1.407,0,0,0-1.408-1.408" transform="translate(-7.746 -9.732)" fill="#11393d"/>
          <path id="Trazado_1032732" data-name="Trazado 1032732" d="M158.409,81.312h15.416a3.52,3.52,0,0,1,3.37,4.536l-15.067,49.984a3.52,3.52,0,0,1-3.37,2.5H142.72a3.52,3.52,0,0,0-3.521,3.52v33.967a3.52,3.52,0,0,0,3.521,3.52h20.727" transform="translate(-9.86 -5.76)" fill="none" stroke="#808081" stroke-linecap="round" stroke-miterlimit="10" stroke-width="2.25"/>
          <path id="Trazado_1032733" data-name="Trazado 1032733" d="M130.906,65.889c-5.554,1.74-8.665,7.652-15.17,15.221A164.778,164.778,0,0,1,108.3,61.891l-3.012.707s3.833,29.294,7.782,29.257,16.893-7.5,18.656-12.146-.815-13.819-.815-13.819" transform="translate(-7.458 -4.384)" fill="#d14e4e"/>
          <path id="Trazado_1032734" data-name="Trazado 1032734" d="M134.366,187.148l.057-1.964c.052-1.819-1.535-5.749-1.5-6.961s-4.72.851-4.72.851a6.85,6.85,0,0,1-1.732,4.061,6.234,6.234,0,0,0-1.268,4.013Z" transform="translate(-8.869 -12.598)" fill="#11393d"/>
          <path id="Trazado_1032735" data-name="Trazado 1032735" d="M106.759,187.141a27.048,27.048,0,0,0-1.489-8.764s-4.216-2.1-5.166,1.264-5.314,4.029-7.543,4.266c-1.625.173-1.847,2.3-1.849,3.234Z" transform="translate(-6.426 -12.59)" fill="#11393d"/>
          <path id="Trazado_1032736" data-name="Trazado 1032736" d="M146.89,116.155l-20.938-.895s-22.418,1.649-33.292,8.618c-4.4,2.82,6.14,51.437,6.14,51.437h8.026l-2.854-40.52s22.927-.672,29.7-3.7,13.219-14.942,13.219-14.942" transform="translate(-6.488 -8.165)" fill="#4f443a"/>
          <path id="Trazado_1032737" data-name="Trazado 1032737" d="M127.066,175.292s-2.994-51.95-.157-54.3,30.712-6.051,30.712-6.051-.058,14.113-7.532,18.489-12.639,5.4-12.639,5.4l-3.574,36.462Z" transform="translate(-8.903 -8.142)" fill="#716558"/>
          <path id="Trazado_1032738" data-name="Trazado 1032738" d="M157.613,112.817c.884-9.7,4.579-37.4,4.316-38.762-.834-4.314-7.522-10.119-16.413-10.565-.971-.049-1.89-.07-2.757-.056-7.1.077-10.984,2.083-13.656,5.8-.769,1.073-2.029,4.714-2.307,9.652a149.043,149.043,0,0,0,1.633,32.7c5.135,5.193,29.184,1.228,29.184,1.228" transform="translate(-8.965 -4.493)" fill="#e56361"/>
          <path id="Trazado_1032739" data-name="Trazado 1032739" d="M140.439,57.622s.64,7.68,2.3,9.46c0,0,1.186-2.317,6.578-3.019,0,0-2.008-5.437-.371-9.868,0,0-1.984.228-2.378-.6,0,0,.112,3.472-6.131,4.024" transform="translate(-9.948 -3.797)" fill="#d86"/>
          <path id="Trazado_1032740" data-name="Trazado 1032740" d="M145.567,69.631l-.83-1.9c-3.791.28-4.919-1.561-4.919-1.561l-1.186,1.561c.23-3.7,2.307-4.8,2.307-4.8a2.865,2.865,0,0,0,.627,1.784l.892,1.951,1.665-1.686c2,.39,4.509-2.216,4.509-2.216l1.442,1.268c.489,3.052-4.508,5.6-4.508,5.6" transform="translate(-9.82 -4.446)" fill="#d14e4e"/>
          <path id="Trazado_1032741" data-name="Trazado 1032741" d="M144.829,67.9c-3.769,1.167-4.92-1.561-4.92-1.561.551-1.318,1.275-1.192,1.275-1.192l1.12,3.14,1.759-1.92Z" transform="translate(-9.911 -4.614)" fill="#e56361"/>
          <path id="Trazado_1032742" data-name="Trazado 1032742" d="M142.751,67.684s-.718,2.267-1.5,5.769-1.633,8.212-2.2,12.966c-.284,2.377-.5,4.762-.669,7-.066,1.121-.129,2.2-.19,3.231s-.073,2-.109,2.9c-.072,1.8-.058,3.294-.062,4.342s0,1.647,0,1.647-.009-.6-.026-1.647-.056-2.547-.016-4.344c.02-.9,0-1.874.056-2.9s.085-2.116.131-3.239c.126-2.245.3-4.637.543-7.025.486-4.775,1.242-9.522,1.975-13.051s1.412-5.851,1.412-5.851Z" transform="translate(-9.772 -4.78)" fill="#d14e4e"/>
          <path id="Trazado_1032743" data-name="Trazado 1032743" d="M144.014,79.691l5.477.9-1.219,7.056-5.4-.763s.533-5.655,1.143-7.194" transform="translate(-10.12 -5.645)" fill="#d14e4e"/>
          <path id="Trazado_1032744" data-name="Trazado 1032744" d="M144.184,94.334c-.119,1.219-2.614,1.1-2.614,1.1s-1.414.23-2.159.258c0,0,.07.906-.335.961s-.586-1.449-.586-1.449-.739,1.568-1.038,1.449-.237-1.686-.237-1.686-.872,0-.926.236a5.7,5.7,0,0,1-.362.907c-.181.369-.4.669-.572.55-.348-.237-.174-2.1-.174-2.1a3.156,3.156,0,0,0-.634.057c-.175.062-.586,1.394-1.164.584a3.15,3.15,0,0,1,1.164-2.153,10.547,10.547,0,0,1,3.714-1.1,13.077,13.077,0,0,1,4.4.466c.426.23,1.646.7,1.527,1.917" transform="translate(-9.448 -6.512)" fill="#f3a17a"/>
          <path id="Trazado_1032745" data-name="Trazado 1032745" d="M138.845,95.345s-.181-.951.295-1.121a9.3,9.3,0,0,1,1.346-.3,6.665,6.665,0,0,0-1.674.22c-.635.215-.41,2.032-.41,2.032Z" transform="translate(-9.801 -6.653)" fill="#d86"/>
          <path id="Trazado_1032746" data-name="Trazado 1032746" d="M138.454,93.46a1.847,1.847,0,0,0-.808.432,3.37,3.37,0,0,0-.237,1.185s-.872,0-.926.237a5.739,5.739,0,0,1-.362.906,5.249,5.249,0,0,1,.508-2.027c.4-.635,1.624-.726,1.826-.732" transform="translate(-9.642 -6.62)" fill="#d86"/>
          <path id="Trazado_1032747" data-name="Trazado 1032747" d="M136.376,93.453s-.99.607-1.109,1.219a3.161,3.161,0,0,0-.634.057,2.016,2.016,0,0,1,1.742-1.276" transform="translate(-9.537 -6.62)" fill="#d86"/>
          <path id="Trazado_1032748" data-name="Trazado 1032748" d="M144.641,94.518c-.119,1.219-2.614,1.1-2.614,1.1s-1.414.23-2.159.258c-.1-.348.125-.5.153-.788,0,0,1.052.02,1.254-.174A2.6,2.6,0,0,0,142.7,94.8c.431-.286,1.247.731,1.944-.286" transform="translate(-9.906 -6.695)" fill="#d86"/>
          <path id="Trazado_1032749" data-name="Trazado 1032749" d="M149.865,52.125c-3.706,8.346-13.079,5.377-13.748,1.365A15.346,15.346,0,0,1,136.624,48c.117-.483.25-.965.4-1.443,1.012-3.24,2.727-6.2,4.812-6.245,7.259-.144,11.736,3.463,8.031,11.809" transform="translate(-9.636 -2.856)" fill="#f3a17a"/>
          <path id="Trazado_1032750" data-name="Trazado 1032750" d="M139.7,41.246s4.641-1.515,9.708,2.178c0,0-.566,5.3-1.043,7.6,0,0,1.846,1.529-1.794,5.111,0,0,2.835.789,6.19-6.342,2.908-6.182-1.246-7.4-1.246-7.4s-.734-3.368-6.368-5.11c-4.62-1.428-7.022,1.032-5.447,3.96" transform="translate(-9.861 -2.612)" fill="#145b6b"/>
          <path id="Trazado_1032751" data-name="Trazado 1032751" d="M144.38,48.054c-.167.479-.518.793-.784.7s-.348-.557-.18-1.036.518-.794.784-.7.347.557.18,1.036" transform="translate(-10.153 -3.329)" fill="#1a4850"/>
          <path id="Trazado_1032752" data-name="Trazado 1032752" d="M139.525,46.8c-.168.479-.519.793-.785.7s-.347-.556-.18-1.035.518-.794.785-.7.348.557.18,1.036" transform="translate(-9.809 -3.241)" fill="#1a4850"/>
          <path id="Trazado_1032753" data-name="Trazado 1032753" d="M139.967,47.991s-1.646,1.485-2.4.9-.82,1.672,1.786,1.808a2.855,2.855,0,0,0,.615-2.711" transform="translate(-9.713 -3.4)" fill="#dd774e"/>
          <path id="Trazado_1032754" data-name="Trazado 1032754" d="M137.733,52.521s3.6.831,3.879,1.424c.332.706-.359.925-1.744.565a2.643,2.643,0,0,1-2.135-1.989" transform="translate(-9.756 -3.72)" fill="#fff"/>
          <path id="Trazado_1032755" data-name="Trazado 1032755" d="M145.757,50.383a.968.968,0,1,1-.922-.782.865.865,0,0,1,.922.782" transform="translate(-10.191 -3.514)" fill="#ed7d66"/>
          <path id="Trazado_1032756" data-name="Trazado 1032756" d="M137.83,48.376a.843.843,0,0,1-1.16.1c.116-.482.249-.964.4-1.443a1.133,1.133,0,0,1,.419.18.863.863,0,0,1,.342,1.159" transform="translate(-9.681 -3.332)" fill="#ed7d66"/>
          <path id="Trazado_1032757" data-name="Trazado 1032757" d="M145.851,45.537a.2.2,0,0,0,.172-.02.2.2,0,0,0,.065-.282,2.726,2.726,0,0,0-1.7-1.059.2.2,0,0,0-.07.4,2.353,2.353,0,0,1,1.426.873.21.21,0,0,0,.11.085" transform="translate(-10.211 -3.129)" fill="#145b6b"/>
          <path id="Trazado_1032758" data-name="Trazado 1032758" d="M138.772,44a.2.2,0,0,0,.252-.115c.129-.309.8-.174,1.019-.1a.2.2,0,0,0,.126-.388c-.453-.148-1.283-.243-1.523.333a.205.205,0,0,0,.111.268l.015.006" transform="translate(-9.82 -3.066)" fill="#145b6b"/>
          <path id="Trazado_1032759" data-name="Trazado 1032759" d="M148.968,52.068s1.974-1.15,2.919.308-2.289,3.712-3.651,3.11.731-3.418.731-3.418" transform="translate(-10.468 -3.658)" fill="#f3a17a"/>
          <path id="Trazado_1032760" data-name="Trazado 1032760" d="M141.788,37.228c-2.086-.051-3.8,2.858-1.94,4.6l.347-.681,1.337,1.2-.059-.988,3.66,1.852-.353-1.1s2.779,1.443,4.614,1.331-3.342-6.119-7.606-6.222" transform="translate(-9.85 -2.637)" fill="#145b6b"/>
          <path id="Trazado_1032761" data-name="Trazado 1032761" d="M160.02,69.547c-6.174-.326-2.885,8.394,2.362,16.614l-20.008,4.971.357,2.512s29.036.793,32.707-1.72c1.981-1.357-5.132-11.646-9.832-17.262-4.006-4.786-5.585-5.116-5.585-5.116" transform="translate(-10.085 -4.926)" fill="#d14e4e"/>
          <path id="Trazado_1032762" data-name="Trazado 1032762" d="M104.984,56.58a24.409,24.409,0,0,0,1.7,3.089c.7.938,1.949,3.772-.446,5.04s-7.3-2.11-7.3-2.11a3.536,3.536,0,0,1-1.054-3.374c-.767-.686-.291-2.348-.291-2.348L96.76,55.3c1.774-.875,1.618.986,3.638,2.647a12.383,12.383,0,0,0,2.481.954l0,0a13.194,13.194,0,0,0,1.662.537v-.006a16.24,16.24,0,0,1-.11-2.446c.08-.813.551-.41.551-.41" transform="translate(-6.854 -3.902)" fill="#f3a17a"/>
          <path id="Trazado_1032763" data-name="Trazado 1032763" d="M98.807,61.573s-.144-1.345.279-1.39a1.3,1.3,0,0,1,.714.652,2.593,2.593,0,0,0,1.027,1.918c1,.737.463-4,.463-4-.429,1.049-2.094-.039-2.3-.855s-.551-1.125-.877-1.256-.459.341-.459.341a.751.751,0,0,1,.51.111,3.717,3.717,0,0,1,1.08,1.528c.035.431-.128-.418-.518-.243a.953.953,0,0,0-.5.567s.391-.318.637.013a2.671,2.671,0,0,1,.335.988s-1.2-.23-.391,1.622" transform="translate(-6.917 -4.011)" fill="#d86"/>
          <path id="Trazado_1032764" data-name="Trazado 1032764" d="M105,59.732a1.328,1.328,0,0,0-.379,1.87c.758,1.094.016,1.707.016,1.707s-2.026-2.315-1.3-4.112l0,0a13.231,13.231,0,0,0,1.663.537" transform="translate(-7.309 -4.193)" fill="#d86"/>
          <path id="Trazado_1032765" data-name="Trazado 1032765" d="M44.174,102.976v76.186a1.6,1.6,0,0,0,1.6,1.6H86.444a1.6,1.6,0,0,0,1.6-1.6V102.976a1.6,1.6,0,0,1,1.6-1.6H330.142a1.6,1.6,0,0,1,1.6,1.6v76.186a1.6,1.6,0,0,1-1.6,1.6H289.474a1.6,1.6,0,0,1-1.6-1.6V102.976a1.6,1.6,0,0,0-1.6-1.6H45.777A1.6,1.6,0,0,0,44.174,102.976Z" transform="translate(-3.129 -7.181)" fill="none" stroke="#58595b" stroke-linecap="round" stroke-miterlimit="10" stroke-width="2.25"/>
          <path id="Trazado_1032766" data-name="Trazado 1032766" d="M330.142,101.373a1.6,1.6,0,0,1,1.6,1.6v76.186a1.6,1.6,0,0,1-1.6,1.6H289.474a1.6,1.6,0,0,1-1.6-1.6V102.976a1.6,1.6,0,0,0-1.6-1.6H45.777a1.6,1.6,0,0,0-1.6,1.6v76.186a1.6,1.6,0,0,0,1.6,1.6" transform="translate(-3.129 -7.181)" fill="none" stroke="#808081" stroke-linecap="round" stroke-miterlimit="10" stroke-width="2.25"/>
          <path id="Trazado_1032767" data-name="Trazado 1032767" d="M290.178,99.907H40.827a.779.779,0,0,1-.779-.779v-3.2h250.13Z" transform="translate(-2.837 -6.795)" fill="#cdcfd0"/>
          <path id="Trazado_1032768" data-name="Trazado 1032768" d="M354.355,94.876H309.247v4.956h44.329a.778.778,0,0,0,.779-.779Z" transform="translate(-21.906 -6.721)" fill="#b8babc"/>
          <path id="Trazado_1032769" data-name="Trazado 1032769" d="M295.832,93.632H37.583a.745.745,0,0,0-.744.745v2.216a.744.744,0,0,0,.744.744H295.832Z" transform="translate(-2.61 -6.633)" fill="#fff"/>
          <path id="Trazado_1032770" data-name="Trazado 1032770" d="M356.286,93.632H307.364a.746.746,0,0,0-.744.745v2.216a.744.744,0,0,0,.744.744h48.921a.864.864,0,0,0,.865-.864V94.5a.866.866,0,0,0-.865-.866" transform="translate(-21.72 -6.633)" fill="#e3e4e5"/>
          <path id="Trazado_1032771" data-name="Trazado 1032771" d="M231.458,93.434v-2.6l12.26,1.16a.862.862,0,0,1,.781.859v.584Z" transform="translate(-16.396 -6.434)" fill="#4f443a"/>
          <path id="Trazado_1032772" data-name="Trazado 1032772" d="M229.832,90.831H209.368a.863.863,0,0,0-.863.863v1.739h21.327Z" transform="translate(-14.77 -6.434)" fill="#716558"/>
          <path id="Trazado_1032773" data-name="Trazado 1032773" d="M232.646,78.81H196.507a2.259,2.259,0,0,1-2.214-2.018l-2.429-27.4a1.824,1.824,0,0,1,1.856-2.018h36.139a2.259,2.259,0,0,1,2.213,2.018l2.43,27.4a1.825,1.825,0,0,1-1.856,2.018" transform="translate(-13.59 -3.356)" fill="#716558"/>
          <path id="Trazado_1032774" data-name="Trazado 1032774" d="M231.145,78.81H195.006a2.26,2.26,0,0,1-2.214-2.018l-2.429-27.4a1.824,1.824,0,0,1,1.856-2.018h36.139a2.259,2.259,0,0,1,2.213,2.018l2.43,27.4a1.825,1.825,0,0,1-1.856,2.018" transform="translate(-13.484 -3.356)" fill="#4f443a"/>
          <path id="Trazado_1032775" data-name="Trazado 1032775" d="M199.49,91.9h19.686L217.7,90.373a1.225,1.225,0,0,0-.751-.368l-7.615-.822,5.837-11.326-1.446-8.684h-7.069l-3.242,20.018-2.713.688a1.231,1.231,0,0,0-.881.857Z" transform="translate(-14.131 -4.9)" fill="#4f443a"/>
          <path id="Trazado_1032776" data-name="Trazado 1032776" d="M203.24,91.9l3.52-21.733a1.183,1.183,0,0,1,1.167-.993h4.457a1.183,1.183,0,0,1,1.129,1.534L206.92,91.9Z" transform="translate(-14.397 -4.9)" fill="#716558"/>
          <path id="Trazado_1032777" data-name="Trazado 1032777" d="M125.847,93.434v-2.6l12.26,1.16a.862.862,0,0,1,.781.859v.584Z" transform="translate(-8.915 -6.434)" fill="#4f443a"/>
          <path id="Trazado_1032778" data-name="Trazado 1032778" d="M124.221,90.831H103.758a.863.863,0,0,0-.864.863v1.739h21.327Z" transform="translate(-7.289 -6.434)" fill="#716558"/>
          <path id="Trazado_1032779" data-name="Trazado 1032779" d="M117.029,78.81H80.89a2.26,2.26,0,0,1-2.214-2.018L76.247,49.4A1.824,1.824,0,0,1,78.1,47.378h36.139a2.259,2.259,0,0,1,2.213,2.018l2.43,27.4a1.825,1.825,0,0,1-1.856,2.018" transform="translate(-5.401 -3.356)" fill="#716558"/>
          <path id="Trazado_1032780" data-name="Trazado 1032780" d="M115.528,78.81H79.389a2.26,2.26,0,0,1-2.214-2.018L74.746,49.4A1.824,1.824,0,0,1,76.6,47.378h36.139a2.259,2.259,0,0,1,2.213,2.018l2.43,27.4a1.825,1.825,0,0,1-1.856,2.018" transform="translate(-5.294 -3.356)" fill="#4f443a"/>
          <path id="Trazado_1032781" data-name="Trazado 1032781" d="M83.872,91.9h19.686l-1.477-1.527a1.225,1.225,0,0,0-.752-.368l-7.615-.822,5.837-11.326-1.446-8.684H91.037L87.795,89.191l-2.713.688a1.23,1.23,0,0,0-.881.857Z" transform="translate(-5.941 -4.9)" fill="#4f443a"/>
          <path id="Trazado_1032782" data-name="Trazado 1032782" d="M87.622,91.9l3.52-21.733a1.183,1.183,0,0,1,1.167-.993h4.457a1.183,1.183,0,0,1,1.129,1.534L91.3,91.9Z" transform="translate(-6.207 -4.9)" fill="#716558"/>
        </g>
      </g>
    </g>
    <g id="Grupo_1186408" data-name="Grupo 1186408" transform="translate(618.711 439.014)">
      <g id="Grupo_1186407" data-name="Grupo 1186407" transform="translate(0 0)" clip-path="url(#clip-path-2)">
        <path id="Trazado_1032783" data-name="Trazado 1032783" d="M9.73,4.166S6.607,10.118,8.024,19.223,17.1,37.672,17.1,37.672s6.317-.974,8.973-5-1.048-13.627.65-19.169S9.73,4.166,9.73,4.166" transform="translate(10.06 -0.309)" fill="#d14e4e"/>
        <path id="Trazado_1032784" data-name="Trazado 1032784" d="M45.751,28.19c-5.121.087-7.466,2-9.245,6.337-1.288,3.141-6.573,17.211-6.573,17.211s-1.52-.4-1.91.932c-1.345,4.6-1.577,10.59,7.394,8.454,8.395-2,10.334-32.935,10.334-32.935" transform="translate(-26.842 -2.088)" fill="#f2ae40"/>
        <path id="Trazado_1032785" data-name="Trazado 1032785" d="M43.791,50.737c-1.6.1-.656,5.513.733,5.34s.66-5.426-.733-5.34" transform="translate(-40.825 -3.758)" fill="#d86"/>
        <path id="Trazado_1032786" data-name="Trazado 1032786" d="M30.25,92.7,11.5,82.284C9.15,103.639,21.835,116.5,22.893,121.509c.535,2.534,9.817,36.614,9.441,38.3-.456,2.052-3.579,6.014-4.735,6.949a.129.129,0,0,1-.03.012,4.223,4.223,0,0,0-1.539.814,3.361,3.361,0,0,0-.55.611H31.8a8.665,8.665,0,0,0,1.227-1.6,2.937,2.937,0,0,1,2.91-1.233c.593.518.688,2.876.7,3.431h.744c.258-.663,1.162-3.706.889-4.844-.228-.916-.944-3.026-1.208-4.049-1.407-5.445-2.564-6.86-3.444-21.79-.481-8.16,0-14.321-3.376-18.43,0,0-1.551-8.988.011-26.984" transform="translate(-4.483 -6.094)" fill="#d86"/>
        <path id="Trazado_1032787" data-name="Trazado 1032787" d="M18.725,175c.636,0,1.865-1.326,2.728-2a2.193,2.193,0,0,1,1.272-.6A4.52,4.52,0,0,1,23.566,175h.743c.258-.663,1.162-3.707.889-4.845a20.993,20.993,0,0,1-.916-3.915c-2.325-1.323-4.32,3.154-7.315,5.675-1.5,1.268-2.438,1.048-2.438,1.048a.18.18,0,0,1-.031.012,8.171,8.171,0,0,0-1.851.577A2.955,2.955,0,0,0,11.211,175Z" transform="translate(8.587 -12.294)" fill="#164353"/>
        <path id="Trazado_1032788" data-name="Trazado 1032788" d="M19.547,63.759S1.282,90.145,35.938,154.844l3.31-2.034s.911-26.4-2.8-34.347-5.545-51.005-5.545-51.005Z" transform="translate(-8.776 -4.722)" fill="#327f87"/>
        <path id="Trazado_1032789" data-name="Trazado 1032789" d="M16.3,167.853a8.629,8.629,0,0,0,1.228-1.6,2.935,2.935,0,0,1,2.909-1.233c.594.518.688,2.877.7,3.432h.743c.258-.663,1.162-3.707.889-4.845-.227-.916-.911-3.034-1.207-4.048a3.341,3.341,0,0,1-.165-.821c.827-3.464,3.669-15.287,8.61-24.817,3.924-7.569,5.189-10.577,5.967-17.362s7.779-9.794,7.779-23.335c0-9.548-9.5-24.008-13.082-9.334s-4.057,32.67-4.656,36.262-5.979,28.766-9.181,39.316a22.409,22.409,0,0,1-4.734,6.949c-.006.006-.012.006-.031.012a4.246,4.246,0,0,0-1.539.814,3.427,3.427,0,0,0-.55.611Z" transform="translate(-8.79 -5.749)" fill="#f3a17a"/>
        <path id="Trazado_1032790" data-name="Trazado 1032790" d="M40.108,175c.636,0,1.865-1.326,2.728-2a2.193,2.193,0,0,1,1.272-.6A4.52,4.52,0,0,1,44.949,175h.743c.258-.663,1.162-3.707.889-4.845a21.143,21.143,0,0,1-.916-3.915c-2.325-1.323-4.32,3.154-7.315,5.675-1.5,1.268-2.438,1.048-2.438,1.048a.18.18,0,0,1-.031.012,8.171,8.171,0,0,0-1.851.577A2.96,2.96,0,0,0,32.594,175Z" transform="translate(-32.595 -12.294)" fill="#164353"/>
        <path id="Trazado_1032791" data-name="Trazado 1032791" d="M10.909,63.759s-.938,21.453,5.435,28.722L9.31,153.43l4.866,1.414S51.394,83.876,28.028,64.555Z" transform="translate(-0.138 -4.722)" fill="#4b9fa3"/>
        <path id="Trazado_1032792" data-name="Trazado 1032792" d="M14.519,28.185s2.814-.113,8.251,0c4.772.1,8.64-.911,11.349,2.5,4.066,5.128-2.55,14.58-6.031,19.477a29.188,29.188,0,0,0-4.59,11.75s-9.192,2.669-17.119-.8L5.788,49.843S.408,38.1,14.519,28.185" transform="translate(4.39 -2.082)" fill="#ffc24e"/>
        <path id="Trazado_1032793" data-name="Trazado 1032793" d="M25.27,30.27l-4.832,3.5a7.917,7.917,0,0,1,4.021-6.4,2.382,2.382,0,0,0,.811,2.894" transform="translate(0.022 -2.028)" fill="#f2ae40"/>
        <path id="Trazado_1032794" data-name="Trazado 1032794" d="M34.623,50.89V54.71h1.157a.754.754,0,0,0,.753-.753V51.642a.754.754,0,0,0-.753-.752Zm-.694-.694h1.852a1.447,1.447,0,0,1,1.447,1.446v2.315A1.448,1.448,0,0,1,35.781,55.4H33.929Z" transform="translate(-24.428 -3.718)" fill="#d14e4e"/>
        <path id="Trazado_1032795" data-name="Trazado 1032795" d="M37.224,56.593h5.834a.512.512,0,0,0,.512-.512v-6.51a.512.512,0,0,0-.512-.511H37.224a.512.512,0,0,0-.512.511v6.51a.512.512,0,0,0,.512.512" transform="translate(-33.347 -3.633)" fill="#e56361"/>
        <path id="Trazado_1032796" data-name="Trazado 1032796" d="M36.251,53.755s-1.331-1.9-2.142-2.02a4.081,4.081,0,0,1-1.042-.231v1.126s-2.469-.726-2.565,0,.482.9.424,1.652a2.6,2.6,0,0,0,1.24,2.257,19.371,19.371,0,0,0,3.8.231Z" transform="translate(-20.268 -3.814)" fill="#f3a17a"/>
        <path id="Trazado_1032797" data-name="Trazado 1032797" d="M22.8,29.749c-6.032,2.9-3.63,27.506-3.63,27.506S8.033,52.788,1.261,51.573c0,0-1.894,1.672-1.041,3.759,0,0,14.6,13.973,23.67,11.37s4.861-23.62,3.472-28.49A24.387,24.387,0,0,0,22.8,29.749" transform="translate(14.662 -2.203)" fill="#f2ae40"/>
        <path id="Trazado_1032798" data-name="Trazado 1032798" d="M43.373,52.5l-.625.244a5.953,5.953,0,0,1,1.207.513c.115.153.6.652.6.652a.379.379,0,0,1-.611.121,2.292,2.292,0,0,0-1.136-.359s.634.372.692.616a8.236,8.236,0,0,0,.3.82s-.175.294-.445-.061a.311.311,0,0,0-.089-.08c-.094-.156-.209-.314-.294-.33-.157-.031-.722-.272-.828-.546s.214-.408.214-.408a.564.564,0,0,1-.455-.41.536.536,0,0,1,.3-.557s-.46-.239-.355-.567.531-.416.531-.416a.61.61,0,0,1-.341-.5.8.8,0,0,1,.183-.508,1.983,1.983,0,0,1,.681-.056,7.076,7.076,0,0,1,1.612.887s-.177.6-.543.3a1.176,1.176,0,0,0-1.255-.168l.981.192,1.046.657s-.252.518-.506.391-.857-.433-.857-.433" transform="translate(-39.247 -3.752)" fill="#f3a17a"/>
        <path id="Trazado_1032799" data-name="Trazado 1032799" d="M40.459,46.469a2.377,2.377,0,0,0,.406-.477,4.412,4.412,0,0,0,.654-1.533,6.5,6.5,0,0,0,.054-2.376,8.655,8.655,0,0,0-.315-1.306c-.149-.418-.3-.843-.454-1.267a7.107,7.107,0,0,1-.307-1.233,7.362,7.362,0,0,1-.114-1.236,8.469,8.469,0,0,1,.251-2.209,8.805,8.805,0,0,1,.773-2.079,3.922,3.922,0,0,0-.383.493,7.069,7.069,0,0,0-.763,1.469,7.653,7.653,0,0,0-.489,2.315,6.383,6.383,0,0,0,.063,1.348,7.594,7.594,0,0,0,.317,1.368l.472,1.248a10.6,10.6,0,0,1,.349,1.2,6.788,6.788,0,0,1,.162,2.2,5.1,5.1,0,0,1-.387,1.532,3.3,3.3,0,0,1-.288.542" transform="translate(-34.257 -2.426)" fill="#fff"/>
        <path id="Trazado_1032800" data-name="Trazado 1032800" d="M21.69,4.661S11.545,1.264,9.5,8.407s.021,14.606,5.482,14.425c6.734-.223,14.585-14.153,6.706-18.171" transform="translate(11.145 -0.285)" fill="#f3a17a"/>
        <path id="Trazado_1032801" data-name="Trazado 1032801" d="M20.62,13.473c-.03.458-.29.814-.58.8s-.5-.406-.471-.864.289-.815.58-.8.5.406.471.864" transform="translate(5.477 -0.934)" fill="#1a4850"/>
        <path id="Trazado_1032802" data-name="Trazado 1032802" d="M19.747,15.507a1,1,0,0,1-1.937.2,1,1,0,0,1,1.937-.2" transform="translate(7.979 -1.098)" fill="#ed7d66"/>
        <path id="Trazado_1032803" data-name="Trazado 1032803" d="M21.573,13.309s-.243-1.055-.617-1.08-1,.678-1,.678l-.686-.5.661.259s.57-.8,1.091-.639.55,1.281.55,1.281" transform="translate(4.8 -0.889)" fill="#1a4850"/>
        <path id="Trazado_1032804" data-name="Trazado 1032804" d="M25.2,12.763c-.03.458-.289.815-.58.8s-.5-.406-.471-.864.289-.814.58-.8.5.406.471.864" transform="translate(-3.346 -0.881)" fill="#1a4850"/>
        <path id="Trazado_1032805" data-name="Trazado 1032805" d="M26.153,12.6s-.243-1.055-.617-1.08-1,.678-1,.678l-.686-.5.66.259s.571-.8,1.091-.639.55,1.281.55,1.281" transform="translate(-4.022 -0.837)" fill="#1a4850"/>
        <path id="Trazado_1032806" data-name="Trazado 1032806" d="M20.065,10.743a.212.212,0,0,1-.166-.1,1.4,1.4,0,0,0-1.247-.581.21.21,0,1,1-.044-.419,1.81,1.81,0,0,1,1.647.773.211.211,0,0,1-.19.324" transform="translate(6.873 -0.714)" fill="#d14e4e"/>
        <path id="Trazado_1032807" data-name="Trazado 1032807" d="M25.251,9.6a.213.213,0,0,1-.121-.048,1.389,1.389,0,0,0-1.367-.173.211.211,0,0,1-.169-.386,1.815,1.815,0,0,1,1.8.235.211.211,0,0,1-.147.372" transform="translate(-2.989 -0.655)" fill="#d14e4e"/>
        <path id="Trazado_1032808" data-name="Trazado 1032808" d="M25.4,14.246s-1.811.017-1.635.653a4.267,4.267,0,0,0,1.223,1.466s.818-1.325.412-2.119" transform="translate(-3.297 -1.055)" fill="#dd774e"/>
        <path id="Trazado_1032809" data-name="Trazado 1032809" d="M7.291,8.634a11.565,11.565,0,0,1,2.2,6.8s1.7-2.086,2.593-.274-2.676,4.461-2.676,4.461.046,4.6,1.627,4.666,5.718-8.768,4.79-11.769S12.051,6.533,7.291,8.634" transform="translate(21.504 -0.587)" fill="#d14e4e"/>
        <path id="Trazado_1032810" data-name="Trazado 1032810" d="M20.206,18.825c-.778,2.1-3.761,5.728-6.923,4.69,0,0,1.52,2.93.206,4.069,0,0,0,4.514,6.954,1.056l.893-9.428a.688.688,0,0,1-1.129-.387" transform="translate(10.582 -1.394)" fill="#d86"/>
        <path id="Trazado_1032811" data-name="Trazado 1032811" d="M21.314,18.825a19.391,19.391,0,0,0,2.35.512s-1.994.8-2.35-.512" transform="translate(0.817 -1.394)" fill="#fff"/>
        <path id="Trazado_1032812" data-name="Trazado 1032812" d="M4.657,3.857C8.37-1.094,14.056-.2,18.7.716s6.315,8.361,4.8,17.468,2.087,10.283,2.2,14.69c0,0-1.588-4.52-5.9-5.781-2.478-.723-7.511-2.546-5.494-10.621,2.285-9.147-5.354-4.953-7.645-11.809L3.673,11.769s-.268-6.242.984-7.911" transform="translate(15.133 0)" fill="#d14e4e"/>
        <path id="Trazado_1032813" data-name="Trazado 1032813" d="M17.881,27.376s-3.263,2.6-5.912,2.894L13.838,34.9s5.866-4.688,5.969-5.99-1.926-1.535-1.926-1.535" transform="translate(13.323 -2.028)" fill="#f2ae40"/>
      </g>
    </g>
  </g>
</svg>
