<svg xmlns="http://www.w3.org/2000/svg" width="84" height="84" viewBox="0 0 84 84">
  <g id="Grupo_1185852" data-name="Grupo 1185852" transform="translate(-1003.711 -4849)">
    <rect id="Rectángulo_458791" data-name="Rectángulo 458791" width="84" height="84" rx="42" transform="translate(1003.711 4849)" fill="#1e535a"/>
    <g id="Layer_1" transform="translate(1021.711 4867)">
      <g id="Grupo_1186411" data-name="Grupo 1186411" transform="translate(2 1)">
        <path id="Trazado_1032884" data-name="Trazado 1032884" d="M45.152,11.788a4.88,4.88,0,0,0-4.623-4.623H34l-.721-2.633A4.814,4.814,0,0,0,28.648,1H18.5a4.813,4.813,0,0,0-4.631,3.532l-.72,2.632H6.623a4.612,4.612,0,0,0-1.541,8.963v25.55a5.564,5.564,0,0,0,5.558,5.557H36.512a5.564,5.564,0,0,0,5.558-5.557V16.127a4.78,4.78,0,0,0,3.082-4.339Zm-28.3-6.441A1.721,1.721,0,0,1,18.5,4.082H28.648A1.721,1.721,0,0,1,30.3,5.346l.5,1.818H16.35Zm19.665,38.8H10.64a2.478,2.478,0,0,1-2.476-2.475V16.411H38.987V41.677A2.478,2.478,0,0,1,36.512,44.152Zm4.017-30.823H6.623a1.541,1.541,0,1,1,0-3.082H40.529a1.541,1.541,0,1,1,0,3.082Z" transform="translate(-2 -1)" fill="#fff"/>
        <path id="Trazado_1032885" data-name="Trazado 1032885" d="M21.541,14A1.548,1.548,0,0,0,20,15.541V30.953a1.541,1.541,0,1,0,3.082,0V15.541A1.548,1.548,0,0,0,21.541,14Z" transform="translate(7.741 6.035)" fill="#fff"/>
        <path id="Trazado_1032886" data-name="Trazado 1032886" d="M11.541,14A1.548,1.548,0,0,0,10,15.541V30.953a1.541,1.541,0,0,0,3.082,0V15.541A1.548,1.548,0,0,0,11.541,14Z" transform="translate(2.329 6.035)" fill="#fff"/>
        <path id="Trazado_1032887" data-name="Trazado 1032887" d="M16.541,14A1.548,1.548,0,0,0,15,15.541V30.953a1.541,1.541,0,1,0,3.082,0V15.541A1.548,1.548,0,0,0,16.541,14Z" transform="translate(5.035 6.035)" fill="#fff"/>
      </g>
    </g>
  </g>
</svg>
