<svg xmlns="http://www.w3.org/2000/svg" xmlns:xlink="http://www.w3.org/1999/xlink" width="84" height="84" viewBox="0 0 84 84">
  <defs>
    <clipPath id="clip-path">
      <path id="path726" d="M0-682.665H48.289v48.289H0Z" transform="translate(0 682.665)" fill="#fff"/>
    </clipPath>
  </defs>
  <g id="Grupo_1185247" data-name="Grupo 1185247" transform="translate(-266.711 -4849)">
    <rect id="Rectángulo_458788" data-name="Rectángulo 458788" width="84" height="84" rx="42" transform="translate(266.711 4849)" fill="#1e535a"/>
    <g id="g720" transform="translate(284.711 5549.665)">
      <g id="g722" transform="translate(0 -682.665)">
        <g id="g724" clip-path="url(#clip-path)">
          <g id="g730" transform="translate(0 0)">
            <path id="path732" d="M-19-614.376H-58.4a4.414,4.414,0,0,1-3.144-1.3,4.415,4.415,0,0,1-1.3-3.142v-39.4a4.415,4.415,0,0,1,1.3-3.143,4.413,4.413,0,0,1,3.143-1.3h7.577a4.414,4.414,0,0,1,3.144,1.3,4.415,4.415,0,0,1,1.3,3.143,1.6,1.6,0,0,0,.473,1.142,1.6,1.6,0,0,0,1.143.474h28.791a1.415,1.415,0,0,1,1.415,1.415v36.368a4.415,4.415,0,0,1-1.3,3.143A4.413,4.413,0,0,1-19-614.376Zm-39.4-45.46a1.6,1.6,0,0,0-1.142.473,1.605,1.605,0,0,0-.474,1.143v39.4a1.6,1.6,0,0,0,.473,1.142,1.6,1.6,0,0,0,1.143.474H-19a1.6,1.6,0,0,0,1.142-.473,1.6,1.6,0,0,0,.474-1.143v-34.953H-44.762a4.414,4.414,0,0,1-3.144-1.3,4.415,4.415,0,0,1-1.3-3.143,1.6,1.6,0,0,0-.473-1.142,1.6,1.6,0,0,0-1.143-.474Z" transform="translate(62.845 662.665)" fill="#fff"/>
          </g>
          <g id="g734" transform="translate(10.607 0)">
            <path id="path736" d="M-211.385-62.844h10.607a4.414,4.414,0,0,1,3.144,1.3,4.415,4.415,0,0,1,1.3,3.142,1.618,1.618,0,0,0,1.616,1.616,1.415,1.415,0,0,1,1.415,1.415,1.415,1.415,0,0,1-1.415,1.415h-10.607a4.414,4.414,0,0,1-3.144-1.3,4.415,4.415,0,0,1-1.3-3.142,1.617,1.617,0,0,0-1.614-1.616h0a1.415,1.415,0,0,1-1.415-1.415A1.415,1.415,0,0,1-211.385-62.844Zm12.527,6.061a4.424,4.424,0,0,1-.3-1.616,1.6,1.6,0,0,0-.473-1.142,1.6,1.6,0,0,0-1.143-.474h-6.465a4.421,4.421,0,0,1,.3,1.614,1.606,1.606,0,0,0,.473,1.144,1.6,1.6,0,0,0,1.143.474Z" transform="translate(212.799 62.844)" fill="#fff"/>
          </g>
          <g id="g738" transform="translate(21.214 0)">
            <path id="path740" d="M-211.385-62.844h10.607a4.414,4.414,0,0,1,3.144,1.3,4.415,4.415,0,0,1,1.3,3.142,1.618,1.618,0,0,0,1.616,1.616,1.415,1.415,0,0,1,1.415,1.415,1.415,1.415,0,0,1-1.415,1.415h-10.607a4.414,4.414,0,0,1-3.144-1.3,4.415,4.415,0,0,1-1.3-3.142,1.618,1.618,0,0,0-1.616-1.616,1.415,1.415,0,0,1-1.415-1.415A1.415,1.415,0,0,1-211.385-62.844Zm12.527,6.061a4.424,4.424,0,0,1-.3-1.616,1.6,1.6,0,0,0-.473-1.142,1.6,1.6,0,0,0-1.143-.474h-6.466a4.424,4.424,0,0,1,.3,1.616,1.6,1.6,0,0,0,.473,1.142,1.6,1.6,0,0,0,1.143.474Z" transform="translate(212.799 62.844)" fill="#fff"/>
          </g>
          <g id="g742" transform="translate(31.822 0)">
            <path id="path744" d="M-211.385-62.844h10.607a4.414,4.414,0,0,1,3.144,1.3,4.415,4.415,0,0,1,1.3,3.142v3.031a1.415,1.415,0,0,1-1.415,1.415h-7.577a4.45,4.45,0,0,1-4.445-4.445,1.618,1.618,0,0,0-1.616-1.616,1.415,1.415,0,0,1-1.415-1.415A1.415,1.415,0,0,1-211.385-62.844Zm12.223,6.061V-58.4a1.6,1.6,0,0,0-.473-1.142,1.6,1.6,0,0,0-1.143-.474h-6.466a4.424,4.424,0,0,1,.3,1.616,1.618,1.618,0,0,0,1.616,1.616Z" transform="translate(212.799 62.844)" fill="#fff"/>
          </g>
          <g id="g746" transform="translate(6.061 13.638)">
            <path id="path748" d="M-12.524-17.171h-6.061A1.415,1.415,0,0,1-20-18.585,1.415,1.415,0,0,1-18.585-20h6.061a1.415,1.415,0,0,1,1.415,1.415A1.415,1.415,0,0,1-12.524-17.171Z" transform="translate(20 20)" fill="#fff"/>
          </g>
          <g id="g750" transform="translate(16.669 19.699)">
            <path id="path752" d="M4.145-17.17h-22.73A1.415,1.415,0,0,1-20-18.585,1.415,1.415,0,0,1-18.585-20H4.145a1.415,1.415,0,0,1,1.415,1.415A1.415,1.415,0,0,1,4.145-17.17Z" transform="translate(20 20)" fill="#fff"/>
          </g>
          <g id="g754" transform="translate(6.061 37.883)">
            <path id="path756" d="M4.145-17.17h-22.73A1.415,1.415,0,0,1-20-18.585,1.415,1.415,0,0,1-18.585-20H4.145a1.415,1.415,0,0,1,1.415,1.415A1.415,1.415,0,0,1,4.145-17.17Z" transform="translate(20 20)" fill="#fff"/>
          </g>
          <g id="g758" transform="translate(6.061 25.76)">
            <path id="path760" d="M14.752-17.171H-18.585A1.415,1.415,0,0,1-20-18.585,1.415,1.415,0,0,1-18.585-20H14.752a1.415,1.415,0,0,1,1.415,1.415A1.415,1.415,0,0,1,14.752-17.171Z" transform="translate(20 20)" fill="#fff"/>
          </g>
          <g id="g762" transform="translate(6.061 31.822)">
            <path id="path764" d="M14.752-17.171H-18.585A1.415,1.415,0,0,1-20-18.585,1.415,1.415,0,0,1-18.585-20H14.752a1.415,1.415,0,0,1,1.415,1.415A1.415,1.415,0,0,1,14.752-17.171Z" transform="translate(20 20)" fill="#fff"/>
          </g>
          <g id="g766" transform="translate(9.092 13.638)">
            <path id="path768" d="M-18.585-11.109A1.415,1.415,0,0,1-20-12.524v-6.061A1.415,1.415,0,0,1-18.585-20a1.415,1.415,0,0,1,1.415,1.415v6.061A1.415,1.415,0,0,1-18.585-11.109Z" transform="translate(20 20)" fill="#fff"/>
          </g>
        </g>
      </g>
    </g>
  </g>
</svg>
