<svg xmlns="http://www.w3.org/2000/svg" xmlns:xlink="http://www.w3.org/1999/xlink" width="133" height="133" viewBox="0 0 133 133">
  <defs>
    <clipPath id="clip-path">
      <rect id="Rectángulo_454829" data-name="Rectángulo 454829" width="133" height="133" fill="#1e535a"/>
    </clipPath>
  </defs>
  <g id="Grupo_1184564" data-name="Grupo 1184564" transform="translate(-186 -4323.945)">
    <g id="Grupo_1177591" data-name="Grupo 1177591" transform="translate(186 4323.945)">
      <g id="Grupo_1177589" data-name="Grupo 1177589" transform="translate(0 0)">
        <g id="Grupo_1177587" data-name="Grupo 1177587" clip-path="url(#clip-path)">
          <path id="Trazado_997422" data-name="Trazado 997422" d="M127.57,58.867a61.147,61.147,0,0,0-13.812-31.819,7.032,7.032,0,0,0-9.895-9.474A61.057,61.057,0,0,0,72.251,5.223,7.034,7.034,0,0,0,58.59,5.5,61.141,61.141,0,0,0,28.26,18.467,7.036,7.036,0,0,0,18.495,28.3,61.09,61.09,0,0,0,5.7,58.808a7.039,7.039,0,0,0-.168,13.784,61.072,61.072,0,0,0,12.4,31.127,7.035,7.035,0,0,0,9.558,9.934,61.136,61.136,0,0,0,31.05,13.58,7.036,7.036,0,0,0,13.784.277,61.084,61.084,0,0,0,31.843-12.58,7.034,7.034,0,0,0,9.846-9.523,61.162,61.162,0,0,0,13.728-32.882,7.036,7.036,0,0,0-.165-13.658M107.7,30.513a7,7,0,0,0,3.9-1.179A58.067,58.067,0,0,1,124.414,58.85a7.046,7.046,0,0,0-4.5,3.257l-17.982-6.743c.014-.2.028-.4.028-.6a7.036,7.036,0,0,0-2.98-5.749l7.866-18.558a7.621,7.621,0,0,0,.853.056m-3.8-1.12L96.085,47.828a6.963,6.963,0,0,0-7.75,4.475L55.8,44.81a6.845,6.845,0,0,0-.147-1.4L101.82,27.333a7.058,7.058,0,0,0,2.081,2.06M65.456,14.082a7.041,7.041,0,0,0,6.911-5.711A57.971,57.971,0,0,1,101.68,19.835a7,7,0,0,0-1.018,3.636,7.392,7.392,0,0,0,.067.93l-46.4,16.153a7.062,7.062,0,0,0-1.274-1.274L65.228,14.072c.077,0,.151.011.228.011M58.608,8.649a7.043,7.043,0,0,0,3.542,4.609L50.219,37.965a7.061,7.061,0,0,0-1.453-.151,6.99,6.99,0,0,0-4.012,1.26L30.611,27.263a7,7,0,0,0-.239-6.48A58.017,58.017,0,0,1,58.608,8.649m-44.7,55.54L43.16,49.1a7.015,7.015,0,0,0,5.549,2.791L58.734,83.936a7.157,7.157,0,0,0-1.551,1.716L13.823,67.586a6.994,6.994,0,0,0,.26-1.867,7.076,7.076,0,0,0-.172-1.53M20.818,30.4a7.036,7.036,0,0,0,7.859-.67L42.64,41.387a7.022,7.022,0,0,0-.776,4.865L12.566,61.36a7.039,7.039,0,0,0-3.728-2.443A57.992,57.992,0,0,1,20.818,30.4m2.913,70.265a7.02,7.02,0,0,0-3.5.934A57.94,57.94,0,0,1,8.677,72.56a7.047,7.047,0,0,0,3.654-2.2L56.122,88.6a7.55,7.55,0,0,0-.056.846,7.04,7.04,0,0,0,.421,2.38L30,104.516a7.04,7.04,0,0,0-6.272-3.854M58.671,124.1A58.075,58.075,0,0,1,29.7,111.424a6.967,6.967,0,0,0,1.074-3.721l0-.081L58.19,94.481a7.041,7.041,0,0,0,2.485,1.569l1.643,23.612a7.041,7.041,0,0,0-3.647,4.437m2.917-41.521L51.777,51.212a7.051,7.051,0,0,0,3.345-3.345l32.795,7.55a7,7,0,0,0,1.12,3.2L66.544,83.3a6.954,6.954,0,0,0-4.956-.727m10.723,41.794a7.039,7.039,0,0,0-6.855-5.455l-.053,0L63.841,96.453a7.028,7.028,0,0,0,4.3-2.088l32.788,14.462c0,.063-.011.119-.011.183a7.006,7.006,0,0,0,1.042,3.672,57.968,57.968,0,0,1-29.653,11.692m29.411-18.617L69.787,91.666a7,7,0,0,0-.923-6.262L91.29,60.787a7,7,0,0,0,3.633,1.018,7.75,7.75,0,0,0,.863-.056l8.382,41.335a7.025,7.025,0,0,0-2.447,2.671m10.1-2.633a7,7,0,0,0-4.679-1.106L98.759,60.665a7.069,7.069,0,0,0,2.218-2.317l17.972,6.739a6.245,6.245,0,0,0-.032.632,7.039,7.039,0,0,0,5.658,6.9,58.016,58.016,0,0,1-12.752,30.5" transform="translate(0 0.001)" fill="#1e535a"/>
        </g>
      </g>
    </g>
    <g id="Elipse_13614" data-name="Elipse 13614" transform="translate(210.273 4348.213)" fill="#fff" stroke="#1e535a" stroke-width="3">
      <ellipse cx="42.232" cy="42.233" rx="42.232" ry="42.233" stroke="none"/>
      <ellipse cx="42.232" cy="42.233" rx="40.732" ry="40.733" fill="none"/>
    </g>
    <g id="editar-tabla" transform="translate(227.74 4305.219)">
      <g id="Grupo_1185630" data-name="Grupo 1185630" transform="translate(4.859 67.982)">
        <g id="Grupo_1185629" data-name="Grupo 1185629" transform="translate(0 0)">
          <path id="Trazado_1031363" data-name="Trazado 1031363" d="M79.165,98.125H46.144a1.662,1.662,0,0,0-1.66,1.66v7.376a1.662,1.662,0,0,0,1.66,1.66H70.052a.866.866,0,1,0,0-1.733H46.217V99.858H79.093v7.231H73.514a.866.866,0,1,0,0,1.733h5.651a1.662,1.662,0,0,0,1.66-1.66V99.785A1.662,1.662,0,0,0,79.165,98.125Z" transform="translate(-44.484 -98.125)" fill="#1e535a"/>
        </g>
      </g>
      <g id="Grupo_1185632" data-name="Grupo 1185632" transform="translate(4.859 80.935)">
        <g id="Grupo_1185631" data-name="Grupo 1185631">
          <path id="Trazado_1031364" data-name="Trazado 1031364" d="M59.914,216.711H45.351a.866.866,0,0,0-.866.866v6.851a.866.866,0,0,0,.866.866H59.914a.866.866,0,0,0,.866-.866v-6.851h0A.866.866,0,0,0,59.914,216.711Zm-13.7,6.851v-5.118h12.83v5.118Z" transform="translate(-44.485 -216.711)" fill="#1e535a"/>
        </g>
      </g>
      <g id="Grupo_1185634" data-name="Grupo 1185634" transform="translate(4.859 92.556)">
        <g id="Grupo_1185633" data-name="Grupo 1185633" transform="translate(0 0)">
          <path id="Trazado_1031365" data-name="Trazado 1031365" d="M59.914,323.09H45.351a.866.866,0,0,0-.866.866v6.851a.866.866,0,0,0,.866.866h8a.866.866,0,0,0,0-1.733H46.218v-5.118h12.83v5.118H56.818a.866.866,0,0,0,0,1.733h3.1a.866.866,0,0,0,.866-.866v-6.851A.866.866,0,0,0,59.914,323.09Z" transform="translate(-44.485 -323.09)" fill="#1e535a"/>
        </g>
      </g>
      <g id="Grupo_1185636" data-name="Grupo 1185636" transform="translate(0 64.285)">
        <g id="Grupo_1185635" data-name="Grupo 1185635" transform="translate(0 0)">
          <path id="Trazado_1031366" data-name="Trazado 1031366" d="M55,81.961,50.36,77.322a3.174,3.174,0,0,0-4.488,0l-.519.519V69.41a5.131,5.131,0,0,0-5.125-5.125H12.746a.866.866,0,1,0,0,1.733H40.228A3.4,3.4,0,0,1,43.62,69.41V79.574l-.326.326-2.888,2.888V81.8a.866.866,0,0,0-.866-.866H24.978a.866.866,0,0,0-.866.866v6.851a.866.866,0,0,0,.866.866h8.7l-3.037,3.037H24.978a.866.866,0,0,0-.866.866v6.851a.866.866,0,0,0,.866.866H28.95l-.044,1.383a.866.866,0,0,0,.866.894H29.8l8.16-.258.015,0a.878.878,0,0,0,.1-.011l.014,0a.85.85,0,0,0,.109-.028l.021-.007a.856.856,0,0,0,.1-.04l.01,0a.824.824,0,0,0,.1-.058l.019-.014a.884.884,0,0,0,.071-.058l.02-.018.012-.011,5.076-5.076v3.216a3.4,3.4,0,0,1-3.393,3.393H5.125a3.4,3.4,0,0,1-3.393-3.393V69.41a3.4,3.4,0,0,1,3.393-3.393H9.28a.866.866,0,1,0,0-1.733H5.125A5.131,5.131,0,0,0,0,69.41v31.634a5.131,5.131,0,0,0,5.125,5.125h35.1a5.131,5.131,0,0,0,5.125-5.125V96.1l3.737-3.737,3.331-3.331L55,86.449a3.174,3.174,0,0,0,0-4.488ZM29.169,94.3c0,.01,0,.02,0,.03s0,.024,0,.036L29,99.407H25.844V94.288h3.325S29.169,94.294,29.169,94.3Zm-3.325-6.51V82.668h12.83V84.52l-3.266,3.266Zm4.823,13.868.165-5.237,5.071,5.071Zm13.207-6.531h0l-5.942,5.942L31.255,94.39l.355-.355h0l4.768-4.768h0l3.774-3.774h0l.422-.422,6.677,6.677Zm4.6-4.6L41.8,83.844l2.106-2.106,6.677,6.677Zm5.3-5.3-1.965,1.965-6.677-6.677L47.1,78.547a1.441,1.441,0,0,1,2.038,0l4.639,4.639a1.441,1.441,0,0,1,0,2.038Z" transform="translate(0 -64.285)" fill="#1e535a"/>
        </g>
      </g>
    </g>
  </g>
</svg>
