<svg xmlns="http://www.w3.org/2000/svg" xmlns:xlink="http://www.w3.org/1999/xlink" width="291" height="318" viewBox="0 0 291 318">
  <defs>
    <clipPath id="clip-path">
      <rect id="Rectángulo_459322" data-name="Rectángulo 459322" width="238.746" height="312.948" fill="none"/>
    </clipPath>
  </defs>
  <g id="Grupo_1186038" data-name="Grupo 1186038" transform="translate(-186 -4248)">
    <path id="Rectángulo_459086" data-name="Rectángulo 459086" d="M6,0H6A285,285,0,0,1,291,285v27a6,6,0,0,1-6,6H6a6,6,0,0,1-6-6V6A6,6,0,0,1,6,0Z" transform="translate(186 4248)" fill="#d5f4f8"/>
    <g id="Grupo_1186037" data-name="Grupo 1186037" transform="translate(218.769 4248)">
      <g id="Grupo_1186036" data-name="Grupo 1186036" clip-path="url(#clip-path)">
        <line id="Línea_3253" data-name="Línea 3253" y2="142.549" transform="translate(34.195 167.764)" fill="none" stroke="#000" stroke-linecap="round" stroke-linejoin="round" stroke-width="1.533"/>
        <path id="Trazado_1032105" data-name="Trazado 1032105" d="M48.7,131.049H15.886a11.523,11.523,0,0,1,0-23.046H48.7a11.523,11.523,0,0,1,0,23.046" transform="translate(1.903 47.114)" fill="#c4ccd4"/>
        <path id="Trazado_1032106" data-name="Trazado 1032106" d="M102.319,178.431,83.6,186.337,94.938,210.75l18.718-7.906Z" transform="translate(36.469 77.837)" fill="#e4a29a"/>
        <path id="Trazado_1032107" data-name="Trazado 1032107" d="M91.494,203.29l18.365-7.757,37.234,3.421L92.476,221.285Z" transform="translate(39.913 85.297)" fill="#101010"/>
        <path id="Trazado_1032108" data-name="Trazado 1032108" d="M108.215,216.536a3.5,3.5,0,0,0-1.79,4.564l-12.011,4.946-2.235-5.8,54.616-22.333,2.235,5.8-36.256,14.8,0-.01a3.509,3.509,0,0,0-4.554-1.963" transform="translate(40.211 86.336)" fill="#fff"/>
        <line id="Línea_3254" data-name="Línea 3254" x1="5.323" y2="4.185" transform="translate(159.67 281.453)" fill="none" stroke="#fff" stroke-linecap="round" stroke-linejoin="round" stroke-width="0.873"/>
        <line id="Línea_3255" data-name="Línea 3255" x1="5.323" y2="4.185" transform="translate(152.513 280.919)" fill="none" stroke="#fff" stroke-linecap="round" stroke-linejoin="round" stroke-width="0.873"/>
        <path id="Trazado_1032109" data-name="Trazado 1032109" d="M72.793,115.281,85.161,128.8a143.964,143.964,0,0,1,22.579,32.877l23.739,55.938-27.857,10.349L80.1,168.687,38.9,124.753Z" transform="translate(16.971 50.289)" fill="#343e92"/>
        <path id="Trazado_1032110" data-name="Trazado 1032110" d="M69.592,181.72H49.272l-8.116,28.107h20.32Z" transform="translate(17.953 79.272)" fill="#e4a29a"/>
        <path id="Trazado_1032111" data-name="Trazado 1032111" d="M43.007,201.289H62.944l32.969,17.637-59-.676Z" transform="translate(16.101 87.809)" fill="#101010"/>
        <path id="Trazado_1032112" data-name="Trazado 1032112" d="M53.186,215.92a3.5,3.5,0,0,0-3.425,3.509l-12.988-.116.2-6.213,59,.676-.2,6.213-39.157-.477V219.5a3.508,3.508,0,0,0-3.431-3.581" transform="translate(16.042 92.961)" fill="#fff"/>
        <line id="Línea_3256" data-name="Línea 3256" x1="6.532" y2="1.785" transform="translate(86.292 295.594)" fill="none" stroke="#fff" stroke-linecap="round" stroke-linejoin="round" stroke-width="0.873"/>
        <line id="Línea_3257" data-name="Línea 3257" x1="6.532" y2="1.785" transform="translate(79.907 292.317)" fill="none" stroke="#fff" stroke-linecap="round" stroke-linejoin="round" stroke-width="0.873"/>
        <path id="Trazado_1032113" data-name="Trazado 1032113" d="M7.771,97.048s-4.81,20.9,33.66,36.252l31.508,25.948L52.132,240.32H82.266l24.865-73.314a24.011,24.011,0,0,0-5.807-27.715L55.671,92.336Z" transform="translate(3.306 40.28)" fill="#464fae"/>
        <path id="Trazado_1032114" data-name="Trazado 1032114" d="M51.953,84.607a13.291,13.291,0,0,0,8.412,5.133l60.194-5.2,1.508-8.645-55.273-5.12Z" transform="translate(22.664 30.874)" fill="#d98b85"/>
        <path id="Trazado_1032115" data-name="Trazado 1032115" d="M100.517,75.043S121.7,66,125.785,83.686H99.009Z" transform="translate(43.191 31.727)" fill="#d98b85"/>
        <path id="Trazado_1032116" data-name="Trazado 1032116" d="M28.064,65.86,62.943,95.612a10.542,10.542,0,0,0,14.272-15.5L46.273,49.373Z" transform="translate(12.242 21.538)" fill="#d98b85"/>
        <path id="Trazado_1032117" data-name="Trazado 1032117" d="M64.441,60.646,44.295,80.189,16.729,61.007S20.241,45.419,31.055,42.3s21.19,10.286,33.385,18.348" transform="translate(7.298 18.25)" fill="#5a94f9"/>
        <path id="Trazado_1032118" data-name="Trazado 1032118" d="M27.179,39.695,10.556,48.238a8.439,8.439,0,0,0-4.582,7.506V75.217l2.5,44.793,47.9-4.712-1.9-57.033a16.116,16.116,0,0,0-12.5-15.171Z" transform="translate(2.606 17.316)" fill="#5a94f9"/>
        <path id="Trazado_1032119" data-name="Trazado 1032119" d="M12.044,46.112l12.487-6.417,11.1,2.552s6.877,4.809,2.312,8.017c-10.777,7.58-25.9-4.152-25.9-4.152" transform="translate(5.254 17.316)" fill="#e4a29a"/>
        <path id="Trazado_1032120" data-name="Trazado 1032120" d="M40.153,69.762c.154-.149-.411-17.137-.411-17.137" transform="translate(17.337 22.957)" fill="none" stroke="#1e0a00" stroke-linecap="round" stroke-linejoin="round" stroke-width="0.536"/>
        <path id="Trazado_1032121" data-name="Trazado 1032121" d="M53.558,75.037l2.6-9.588a5.275,5.275,0,0,1,2.719-3.332l9.381-4.731-1.025,4.161-3.486,2.614a.9.9,0,0,0-.452,1.234c.27.533.81.573,1.343.3l15.017-7.572s5.389,3.638-1.515,11.284S65.183,77.378,57.605,83.062Z" transform="translate(23.364 25.034)" fill="#e4a29a"/>
        <path id="Trazado_1032122" data-name="Trazado 1032122" d="M60.9,69.084l2.627-12.791a1.012,1.012,0,0,1,.58-.722l13.63-5.244a1.016,1.016,0,0,1,1.423,1.043l-2.808,9.921Z" transform="translate(26.567 21.915)" fill="#2c2c2c"/>
        <path id="Trazado_1032123" data-name="Trazado 1032123" d="M66.527,68.329,30.838,84.8a9.161,9.161,0,0,0-4.768,11.981c2.3,5.4,9.012,7.28,16.092,3.852l28.926-23.22Z" transform="translate(11.053 29.807)" fill="#e4a29a"/>
        <path id="Trazado_1032124" data-name="Trazado 1032124" d="M20.522,56.033l30.641,34.1A10.543,10.543,0,0,1,36.034,104.8L4.509,74.659Z" transform="translate(1.967 24.443)" fill="#e4a29a"/>
        <path id="Trazado_1032125" data-name="Trazado 1032125" d="M9.442,89.6l25.93-17.719L15.484,44.82S3.909,48.77,1.068,59.661s0,17.957,8.373,29.941" transform="translate(0 19.552)" fill="#5a94f9"/>
        <line id="Línea_3258" data-name="Línea 3258" x1="11.002" y1="12.244" transform="translate(22.489 80.475)" fill="none" stroke="#1e0a00" stroke-linecap="round" stroke-linejoin="round" stroke-width="0.536"/>
        <line id="Línea_3259" data-name="Línea 3259" x1="3.826" y2="2.615" transform="translate(9.76 106.321)" fill="none" stroke="#1e0a00" stroke-linecap="round" stroke-linejoin="round" stroke-width="0.536"/>
        <path id="Trazado_1032126" data-name="Trazado 1032126" d="M16.047,18.574a18.09,18.09,0,1,0,20.4-15.435,18.09,18.09,0,0,0-20.4,15.435" transform="translate(6.924 1.294)" fill="#d8633a"/>
        <path id="Trazado_1032127" data-name="Trazado 1032127" d="M25.427,24.133,15.906,52.326l15.98,2.844,5.752-21.437Z" transform="translate(6.939 10.528)" fill="#e4a29a"/>
        <path id="Trazado_1032128" data-name="Trazado 1032128" d="M25.3,30.687l5.86,9.6,2.32-8.59-5.942-2.23Z" transform="translate(11.036 12.853)"/>
        <path id="Trazado_1032129" data-name="Trazado 1032129" d="M33.8,4.079s18.388,4.2,18.888,15.849-1.9,28.222-8.211,28.979-19.485-3.5-21.62-12.189S22.614,2.6,33.8,4.079" transform="translate(9.634 1.752)" fill="#e4a29a"/>
        <path id="Trazado_1032130" data-name="Trazado 1032130" d="M42.772,22.617l3.648,6.1a.737.737,0,0,1-.794,1.015l-4.467-.378Z" transform="translate(17.955 9.866)" fill="#e4a29a"/>
        <path id="Trazado_1032131" data-name="Trazado 1032131" d="M41.985,23.185a1.223,1.223,0,1,1-.98-1.426,1.223,1.223,0,0,1,.98,1.426" transform="translate(17.257 9.483)"/>
        <path id="Trazado_1032132" data-name="Trazado 1032132" d="M44.756,18.559s.19,1.462-2,1.191a26.545,26.545,0,0,0-4.737.023,1.358,1.358,0,0,1-1.318-.687.744.744,0,0,1,.263-.959,9.068,9.068,0,0,1,5.051-1.181c2.605.292,2.745,1.613,2.745,1.613" transform="translate(15.975 7.377)" fill="#1e0a00"/>
        <path id="Trazado_1032133" data-name="Trazado 1032133" d="M43.187,29.865A5.323,5.323,0,0,1,38.62,28.5" transform="translate(16.847 12.433)" fill="none" stroke="#000" stroke-linecap="round" stroke-linejoin="round" stroke-width="0.36"/>
        <path id="Trazado_1032134" data-name="Trazado 1032134" d="M33.669,29.616s11.914-8.829.98-14.482l17.051-.6S50.294,3.9,32.516,2.967L21.276,14.96s-4.144,14.6,1.505,21.2l1.771.286a8.467,8.467,0,0,0,6.469-1.614Z" transform="translate(8.642 1.294)" fill="#d8633a"/>
        <path id="Trazado_1032135" data-name="Trazado 1032135" d="M33.99,23.612a5.23,5.23,0,1,1-4.738-5.68,5.231,5.231,0,0,1,4.738,5.68" transform="translate(10.274 7.813)" fill="#e4a29a"/>
        <path id="Trazado_1032136" data-name="Trazado 1032136" d="M26.244,20.308s2.808-.251,3.868,3.491" transform="translate(11.448 8.857)" fill="none" stroke="#000" stroke-linecap="round" stroke-linejoin="round" stroke-width="0.37"/>
        <path id="Trazado_1032137" data-name="Trazado 1032137" d="M48.48,15.211s11.194-.049,3.059-13.8L27.192,3.742Z" transform="translate(11.862 0.617)" fill="#d8633a"/>
        <path id="Trazado_1032138" data-name="Trazado 1032138" d="M34.448,16.911,36.7,34.94,39.747,35s2.216-4.609,9.539-2.775a25.78,25.78,0,0,1-3.94,11.553,3.36,3.36,0,0,1-3.581,1.545c-3.526-.783-10.467-2.766-15.523-7.012l6.592-18.533Z" transform="translate(11.448 7.377)" fill="#d8633a"/>
        <line id="Línea_3260" data-name="Línea 3260" y2="185.28" transform="translate(114.695 126.115)" fill="none" stroke="#8dd3aa" stroke-miterlimit="10" stroke-width="2.182"/>
        <line id="Línea_3261" data-name="Línea 3261" y2="185.28" transform="translate(208.122 126.115)" fill="none" stroke="#8dd3aa" stroke-miterlimit="10" stroke-width="2.182"/>
        <rect id="Rectángulo_459320" data-name="Rectángulo 459320" width="149.749" height="11.483" transform="translate(88.998 117.484)" fill="#202b4e"/>
        <rect id="Rectángulo_459321" data-name="Rectángulo 459321" width="72.469" height="5.201" transform="translate(108.874 112.275)" fill="#b1bac4"/>
        <path id="Trazado_1032139" data-name="Trazado 1032139" d="M126.351,99.11a1.587,1.587,0,0,1-1.37-2.386L156.3,42.908a1.587,1.587,0,1,1,2.745,1.6L127.724,98.32a1.586,1.586,0,0,1-1.373.79" transform="translate(54.426 18.373)" fill="#b1bac4"/>
        <path id="Trazado_1032140" data-name="Trazado 1032140" d="M138.892,51.621h-41.6a7.686,7.686,0,0,1-7.685-7.685V6a6,6,0,0,1,6-6h43.285a6,6,0,0,1,6,6V45.625a6,6,0,0,1-6,6" transform="translate(39.09)" fill="#8dd3aa"/>
        <path id="Trazado_1032141" data-name="Trazado 1032141" d="M95.46,29.3l14.026-11.218,5.114,5.675L128.673,13.09" transform="translate(41.643 5.71)" fill="none" stroke="#fff" stroke-linecap="round" stroke-linejoin="round" stroke-width="1.088"/>
        <path id="Trazado_1032142" data-name="Trazado 1032142" d="M116.729,12.486l3.061.712-.434,2.974" transform="translate(50.921 5.447)" fill="none" stroke="#fff" stroke-linecap="round" stroke-linejoin="round" stroke-width="1.088"/>
        <path id="Trazado_1032143" data-name="Trazado 1032143" d="M120.719,62.058H90.786a7.235,7.235,0,0,1,0-14.47h29.933a7.235,7.235,0,0,1,0,14.47" transform="translate(36.448 20.759)" fill="#5a94f9"/>
        <path id="Trazado_1032144" data-name="Trazado 1032144" d="M95.76,53.224A1.931,1.931,0,1,1,93.823,51.3a1.931,1.931,0,0,1,1.937,1.925" transform="translate(40.089 22.378)" fill="#fff"/>
        <path id="Trazado_1032145" data-name="Trazado 1032145" d="M101.527,53.206a1.931,1.931,0,1,1-1.937-1.925,1.932,1.932,0,0,1,1.937,1.925" transform="translate(42.605 22.37)" fill="#fff"/>
        <path id="Trazado_1032146" data-name="Trazado 1032146" d="M107.293,53.188a1.931,1.931,0,1,1-1.937-1.925,1.932,1.932,0,0,1,1.937,1.925" transform="translate(45.12 22.363)" fill="#fff"/>
      </g>
    </g>
  </g>
</svg>
