<svg xmlns="http://www.w3.org/2000/svg" xmlns:xlink="http://www.w3.org/1999/xlink" width="129" height="129" viewBox="0 0 129 129">
  <defs>
    <clipPath id="clip-path">
      <rect id="Rectángulo_454829" data-name="Rectángulo 454829" width="129" height="129" fill="#1e535a"/>
    </clipPath>
  </defs>
  <g id="Grupo_1185882" data-name="Grupo 1185882" transform="translate(-186 -4323.945)">
    <g id="Grupo_1177591" data-name="Grupo 1177591" transform="translate(186 4323.945)">
      <g id="Grupo_1177589" data-name="Grupo 1177589" transform="translate(0 0)">
        <g id="Grupo_1177587" data-name="Grupo 1177587" clip-path="url(#clip-path)">
          <path id="Trazado_997422" data-name="Trazado 997422" d="M123.733,57.1a59.308,59.308,0,0,0-13.4-30.862,6.821,6.821,0,0,0-9.6-9.189A59.221,59.221,0,0,0,70.078,5.066a6.822,6.822,0,0,0-13.25.269A59.3,59.3,0,0,0,27.41,17.911a6.824,6.824,0,0,0-9.471,9.536A59.253,59.253,0,0,0,5.526,57.039a6.827,6.827,0,0,0-.163,13.369A59.236,59.236,0,0,0,17.387,100.6a6.823,6.823,0,0,0,9.27,9.635,59.3,59.3,0,0,0,30.116,13.172,6.824,6.824,0,0,0,13.369.269,59.247,59.247,0,0,0,30.886-12.2,6.822,6.822,0,0,0,9.55-9.236,59.323,59.323,0,0,0,13.315-31.893,6.824,6.824,0,0,0-.16-13.247M104.464,29.6a6.785,6.785,0,0,0,3.779-1.144,56.321,56.321,0,0,1,12.43,28.628,6.834,6.834,0,0,0-4.361,3.159L98.87,53.7c.014-.191.027-.385.027-.582a6.825,6.825,0,0,0-2.89-5.577l7.629-18a7.392,7.392,0,0,0,.827.054m-3.687-1.086L93.195,46.39a6.754,6.754,0,0,0-7.517,4.341L54.125,43.462a6.639,6.639,0,0,0-.143-1.358L98.758,26.511a6.846,6.846,0,0,0,2.019,2m-37.29-14.85a6.83,6.83,0,0,0,6.7-5.539A56.228,56.228,0,0,1,98.622,19.239a6.792,6.792,0,0,0-.987,3.527,7.17,7.17,0,0,0,.065.9l-45,15.668A6.85,6.85,0,0,0,51.462,38.1l11.8-24.451c.075,0,.146.01.221.01m-6.642-5.27a6.831,6.831,0,0,0,3.435,4.47L48.708,36.823a6.848,6.848,0,0,0-1.409-.146A6.78,6.78,0,0,0,43.407,37.9L29.691,26.443a6.789,6.789,0,0,0-.232-6.285A56.272,56.272,0,0,1,56.845,8.389M13.492,62.258l28.37-14.633a6.8,6.8,0,0,0,5.383,2.707l9.723,31.08a6.941,6.941,0,0,0-1.5,1.665L13.407,65.554a6.784,6.784,0,0,0,.252-1.811,6.863,6.863,0,0,0-.167-1.484m6.7-32.775a6.824,6.824,0,0,0,7.623-.65l13.543,11.31a6.81,6.81,0,0,0-.752,4.719L12.188,59.514a6.827,6.827,0,0,0-3.616-2.37,56.248,56.248,0,0,1,11.62-27.662m2.826,68.151a6.809,6.809,0,0,0-3.391.906A56.2,56.2,0,0,1,8.416,70.378,6.835,6.835,0,0,0,11.96,68.24l42.475,17.7a7.323,7.323,0,0,0-.054.82,6.828,6.828,0,0,0,.409,2.308L29.1,101.373a6.828,6.828,0,0,0-6.084-3.738m33.888,22.732a56.328,56.328,0,0,1-28.1-12.294,6.758,6.758,0,0,0,1.042-3.609l0-.078,26.6-12.746a6.829,6.829,0,0,0,2.41,1.522l1.593,22.9a6.829,6.829,0,0,0-3.537,4.3m2.829-40.272L50.22,49.672a6.839,6.839,0,0,0,3.244-3.244L85.273,53.75a6.789,6.789,0,0,0,1.086,3.1L64.543,80.8a6.745,6.745,0,0,0-4.807-.7m10.4,40.537a6.827,6.827,0,0,0-6.649-5.291l-.051,0L61.921,93.552a6.817,6.817,0,0,0,4.174-2.026l31.8,14.027c0,.061-.01.116-.01.177a6.8,6.8,0,0,0,1.011,3.561,56.224,56.224,0,0,1-28.761,11.34m28.526-18.058L67.688,88.909a6.789,6.789,0,0,0-.9-6.074L88.544,58.959a6.789,6.789,0,0,0,3.524.987,7.517,7.517,0,0,0,.838-.054l8.13,40.091a6.814,6.814,0,0,0-2.373,2.591m9.8-2.553a6.788,6.788,0,0,0-4.538-1.072L95.789,58.84a6.857,6.857,0,0,0,2.152-2.247l17.431,6.537a6.057,6.057,0,0,0-.031.613,6.827,6.827,0,0,0,5.488,6.693,56.271,56.271,0,0,1-12.369,29.585" transform="translate(0 0.001)" fill="#1e535a"/>
        </g>
      </g>
    </g>
    <g id="Elipse_13614" data-name="Elipse 13614" transform="translate(210.273 4348.213)" fill="#d5f4f8" stroke="#1e535a" stroke-width="3">
      <ellipse cx="40.232" cy="40.233" rx="40.232" ry="40.233" stroke="none"/>
      <ellipse cx="40.232" cy="40.233" rx="38.732" ry="38.733" fill="none"/>
    </g>
    <g id="archivo_1_" data-name="archivo (1)" transform="translate(210.228 4365.084)">
      <path id="Rectángulo_459769" data-name="Rectángulo 459769" d="M-9.065-10H11.891a.935.935,0,0,1,.935.935V3.977a.935.935,0,0,1-.935.935H-9.065A.935.935,0,0,1-10,3.977V-9.065A.935.935,0,0,1-9.065-10ZM10.956-8.13H-8.13V3.042H10.956Z" transform="translate(38.86 21.514)" fill="#1e535a"/>
      <g id="Grupo_1186452" data-name="Grupo 1186452" transform="translate(33.389 15.392)">
        <g id="Grupo_1186449" data-name="Grupo 1186449" transform="translate(5.108 0)">
          <path id="Línea_3273" data-name="Línea 3273" d="M-9.067-2.847a.934.934,0,0,1-.283-.044.935.935,0,0,1-.608-1.174l1.68-5.286A.935.935,0,0,1-7.1-9.958.935.935,0,0,1-6.5-8.784L-8.177-3.5A.935.935,0,0,1-9.067-2.847Z" transform="translate(10.003 10.003)" fill="#1e535a"/>
        </g>
        <g id="Grupo_1186450" data-name="Grupo 1186450" transform="translate(10.339 0)">
          <path id="Trazado_1032919" data-name="Trazado 1032919" d="M293.9,171.815a.935.935,0,0,1-.809-1.4l1.282-2.218-1.274-2.118a.935.935,0,1,1,1.6-.964l1.558,2.59a.935.935,0,0,1,.008.95l-1.558,2.7A.934.934,0,0,1,293.9,171.815Z" transform="translate(-292.967 -164.66)" fill="#1e535a"/>
        </g>
        <g id="Grupo_1186451" data-name="Grupo 1186451" transform="translate(0 0)">
          <path id="Trazado_1032920" data-name="Trazado 1032920" d="M184.86,171.815a.934.934,0,0,1-.81-.467l-1.558-2.7a.935.935,0,0,1,.008-.95l1.558-2.59a.935.935,0,0,1,1.6.964l-1.274,2.118,1.282,2.218a.935.935,0,0,1-.808,1.4Z" transform="translate(-182.367 -164.659)" fill="#1e535a"/>
        </g>
      </g>
      <g id="Grupo_1186457" data-name="Grupo 1186457" transform="translate(18.027 0)">
        <g id="Grupo_1186455" data-name="Grupo 1186455" transform="translate(0 16.797)">
          <g id="Grupo_1186453" data-name="Grupo 1186453" transform="translate(37.386)">
            <path id="Línea_3274" data-name="Línea 3274" d="M-3.83-8.13H-9.065A.935.935,0,0,1-10-9.065.935.935,0,0,1-9.065-10H-3.83a.935.935,0,0,1,.935.935A.935.935,0,0,1-3.83-8.13Z" transform="translate(10 10)" fill="#1e535a"/>
            <path id="Línea_3275" data-name="Línea 3275" d="M-3.83-8.13H-9.065A.935.935,0,0,1-10-9.065.935.935,0,0,1-9.065-10H-3.83a.935.935,0,0,1,.935.935A.935.935,0,0,1-3.83-8.13Z" transform="translate(10 22.398)" fill="#1e535a"/>
            <path id="Trazado_1032921" data-name="Trazado 1032921" d="M424.134,244.29a.932.932,0,0,1-.662-.275l-1.8-1.8H418.9a.935.935,0,1,1,0-1.87h3.164a.935.935,0,0,1,.662.275L424.8,242.7a.935.935,0,0,1-.662,1.595Z" transform="translate(-417.964 -234.673)" fill="#1e535a"/>
          </g>
          <g id="Grupo_1186454" data-name="Grupo 1186454">
            <path id="Línea_3276" data-name="Línea 3276" d="M-3.83-8.13H-9.065A.935.935,0,0,1-10-9.065.935.935,0,0,1-9.065-10H-3.83a.935.935,0,0,1,.935.935A.935.935,0,0,1-3.83-8.13Z" transform="translate(10 10)" fill="#1e535a"/>
            <path id="Línea_3277" data-name="Línea 3277" d="M-3.83-8.13H-9.065A.935.935,0,0,1-10-9.065.935.935,0,0,1-9.065-10H-3.83a.935.935,0,0,1,.935.935A.935.935,0,0,1-3.83-8.13Z" transform="translate(10 22.398)" fill="#1e535a"/>
            <path id="Trazado_1032922" data-name="Trazado 1032922" d="M18.962,244.29A.935.935,0,0,1,18.3,242.7l2.072-2.077a.935.935,0,0,1,.662-.275H24.2a.935.935,0,0,1,0,1.87H21.422l-1.8,1.8A.932.932,0,0,1,18.962,244.29Z" transform="translate(-18.027 -234.673)" fill="#1e535a"/>
          </g>
        </g>
        <g id="Grupo_1186456" data-name="Grupo 1186456" transform="translate(5.398 0)">
          <path id="Trazado_1032923" data-name="Trazado 1032923" d="M76.71,0h25.177a.935.935,0,0,1,.662.275l6.648,6.67a.935.935,0,0,1,.273.66V46.927a.935.935,0,0,1-.935.935H76.71a.935.935,0,0,1-.935-.935V.935A.935.935,0,0,1,76.71,0ZM101.5,1.87H77.645V45.992H107.6v-38Z" transform="translate(-75.775 0)" fill="#1e535a"/>
          <path id="Trazado_1032924" data-name="Trazado 1032924" d="M352.693,8.54h-6.648a.935.935,0,0,1-.935-.935V.935a.935.935,0,0,1,1.6-.66l6.648,6.67a.935.935,0,0,1-.662,1.595ZM346.98,6.67h3.462L346.98,3.2Z" transform="translate(-319.933 0)" fill="#1e535a"/>
        </g>
      </g>
      <g id="Grupo_1186458" data-name="Grupo 1186458" transform="translate(30.259 33.125)">
        <path id="Trazado_1032925" data-name="Trazado 1032925" d="M156.265,364.482a.934.934,0,0,1-.5-.147l-6.455-4.128a.935.935,0,0,1,0-1.575l6.455-4.128a.935.935,0,0,1,1.438.788v1.063h9.826a.935.935,0,0,1,.935.935v4.251a.935.935,0,0,1-.935.935H157.2v1.073a.935.935,0,0,1-.935.935Zm-4.72-5.063,3.785,2.421v-.3a.935.935,0,0,1,.935-.935h9.826v-2.381h-9.826a.935.935,0,0,1-.935-.935V357Z" transform="translate(-148.875 -354.356)" fill="#1e535a"/>
      </g>
      <path id="Línea_3278" data-name="Línea 3278" d="M1.5-8.13H-9.065A.935.935,0,0,1-10-9.065.935.935,0,0,1-9.065-10H1.5a.935.935,0,0,1,.935.935A.935.935,0,0,1,1.5-8.13Z" transform="translate(43.584 16.67)" fill="#1e535a"/>
      <path id="Línea_3279" data-name="Línea 3279" d="M11.891-8.13H-9.065A.935.935,0,0,1-10-9.065.935.935,0,0,1-9.065-10H11.891a.935.935,0,0,1,.935.935A.935.935,0,0,1,11.891-8.13Z" transform="translate(38.86 39.191)" fill="#1e535a"/>
    </g>
  </g>
</svg>
