<svg xmlns="http://www.w3.org/2000/svg" xmlns:xlink="http://www.w3.org/1999/xlink" width="129" height="129" viewBox="0 0 129 129">
  <defs>
    <clipPath id="clip-path">
      <rect id="Rectángulo_454829" data-name="Rectángulo 454829" width="129" height="129" fill="#1e535a"/>
    </clipPath>
  </defs>
  <g id="Grupo_1185880" data-name="Grupo 1185880" transform="translate(-186 -4323.945)">
    <g id="Grupo_1177591" data-name="Grupo 1177591" transform="translate(186 4323.945)">
      <g id="Grupo_1177589" data-name="Grupo 1177589" transform="translate(0 0)">
        <g id="Grupo_1177587" data-name="Grupo 1177587" clip-path="url(#clip-path)">
          <path id="Trazado_997422" data-name="Trazado 997422" d="M123.733,57.1a59.308,59.308,0,0,0-13.4-30.862,6.821,6.821,0,0,0-9.6-9.189A59.221,59.221,0,0,0,70.078,5.066a6.822,6.822,0,0,0-13.25.269A59.3,59.3,0,0,0,27.41,17.911a6.824,6.824,0,0,0-9.471,9.536A59.253,59.253,0,0,0,5.526,57.039a6.827,6.827,0,0,0-.163,13.369A59.236,59.236,0,0,0,17.387,100.6a6.823,6.823,0,0,0,9.27,9.635,59.3,59.3,0,0,0,30.116,13.172,6.824,6.824,0,0,0,13.369.269,59.247,59.247,0,0,0,30.886-12.2,6.822,6.822,0,0,0,9.55-9.236,59.323,59.323,0,0,0,13.315-31.893,6.824,6.824,0,0,0-.16-13.247M104.464,29.6a6.785,6.785,0,0,0,3.779-1.144,56.321,56.321,0,0,1,12.43,28.628,6.834,6.834,0,0,0-4.361,3.159L98.87,53.7c.014-.191.027-.385.027-.582a6.825,6.825,0,0,0-2.89-5.577l7.629-18a7.392,7.392,0,0,0,.827.054m-3.687-1.086L93.195,46.39a6.754,6.754,0,0,0-7.517,4.341L54.125,43.462a6.639,6.639,0,0,0-.143-1.358L98.758,26.511a6.846,6.846,0,0,0,2.019,2m-37.29-14.85a6.83,6.83,0,0,0,6.7-5.539A56.228,56.228,0,0,1,98.622,19.239a6.792,6.792,0,0,0-.987,3.527,7.17,7.17,0,0,0,.065.9l-45,15.668A6.85,6.85,0,0,0,51.462,38.1l11.8-24.451c.075,0,.146.01.221.01m-6.642-5.27a6.831,6.831,0,0,0,3.435,4.47L48.708,36.823a6.848,6.848,0,0,0-1.409-.146A6.78,6.78,0,0,0,43.407,37.9L29.691,26.443a6.789,6.789,0,0,0-.232-6.285A56.272,56.272,0,0,1,56.845,8.389M13.492,62.258l28.37-14.633a6.8,6.8,0,0,0,5.383,2.707l9.723,31.08a6.941,6.941,0,0,0-1.5,1.665L13.407,65.554a6.784,6.784,0,0,0,.252-1.811,6.863,6.863,0,0,0-.167-1.484m6.7-32.775a6.824,6.824,0,0,0,7.623-.65l13.543,11.31a6.81,6.81,0,0,0-.752,4.719L12.188,59.514a6.827,6.827,0,0,0-3.616-2.37,56.248,56.248,0,0,1,11.62-27.662m2.826,68.151a6.809,6.809,0,0,0-3.391.906A56.2,56.2,0,0,1,8.416,70.378,6.835,6.835,0,0,0,11.96,68.24l42.475,17.7a7.323,7.323,0,0,0-.054.82,6.828,6.828,0,0,0,.409,2.308L29.1,101.373a6.828,6.828,0,0,0-6.084-3.738m33.888,22.732a56.328,56.328,0,0,1-28.1-12.294,6.758,6.758,0,0,0,1.042-3.609l0-.078,26.6-12.746a6.829,6.829,0,0,0,2.41,1.522l1.593,22.9a6.829,6.829,0,0,0-3.537,4.3m2.829-40.272L50.22,49.672a6.839,6.839,0,0,0,3.244-3.244L85.273,53.75a6.789,6.789,0,0,0,1.086,3.1L64.543,80.8a6.745,6.745,0,0,0-4.807-.7m10.4,40.537a6.827,6.827,0,0,0-6.649-5.291l-.051,0L61.921,93.552a6.817,6.817,0,0,0,4.174-2.026l31.8,14.027c0,.061-.01.116-.01.177a6.8,6.8,0,0,0,1.011,3.561,56.224,56.224,0,0,1-28.761,11.34m28.526-18.058L67.688,88.909a6.789,6.789,0,0,0-.9-6.074L88.544,58.959a6.789,6.789,0,0,0,3.524.987,7.517,7.517,0,0,0,.838-.054l8.13,40.091a6.814,6.814,0,0,0-2.373,2.591m9.8-2.553a6.788,6.788,0,0,0-4.538-1.072L95.789,58.84a6.857,6.857,0,0,0,2.152-2.247l17.431,6.537a6.057,6.057,0,0,0-.031.613,6.827,6.827,0,0,0,5.488,6.693,56.271,56.271,0,0,1-12.369,29.585" transform="translate(0 0.001)" fill="#1e535a"/>
        </g>
      </g>
    </g>
    <g id="Elipse_13614" data-name="Elipse 13614" transform="translate(210.273 4348.213)" fill="#d5f4f8" stroke="#1e535a" stroke-width="3">
      <ellipse cx="40.232" cy="40.233" rx="40.232" ry="40.233" stroke="none"/>
      <ellipse cx="40.232" cy="40.233" rx="38.732" ry="38.733" fill="none"/>
    </g>
    <g id="archivos" transform="translate(226.652 4352.087)">
      <g id="Grupo_1186432" data-name="Grupo 1186432" transform="translate(0 49.32)">
        <path id="Trazado_1032919" data-name="Trazado 1032919" d="M15.722,393.425a.943.943,0,0,1,.509.149l6.259,4.013a.943.943,0,0,1,0,1.588l-6.259,4.013a.943.943,0,0,1-1.452-.794v-1H.943A.943.943,0,0,1,0,400.451v-4.132a.943.943,0,0,1,.943-.943H14.779v-1.008a.943.943,0,0,1,.943-.943Zm4.512,4.956-3.569-2.288v.226a.943.943,0,0,1-.943.943H1.886v2.245H15.722a.943.943,0,0,1,.943.943v.217Z" transform="translate(0 -393.425)" fill="#1e535a"/>
      </g>
      <g id="Grupo_1186439" data-name="Grupo 1186439" transform="translate(0 13.487)">
        <g id="Grupo_1186436" data-name="Grupo 1186436" transform="translate(4.681 10.42)">
          <g id="Grupo_1186433" data-name="Grupo 1186433" transform="translate(5.013 0)">
            <path id="Línea_3273" data-name="Línea 3273" d="M-9.059-2.916a.943.943,0,0,1-.285-.044.943.943,0,0,1-.614-1.184l1.649-5.2a.943.943,0,0,1,1.184-.614.943.943,0,0,1,.614,1.184l-1.649,5.2A.944.944,0,0,1-9.059-2.916Z" transform="translate(10.003 10.003)" fill="#1e535a"/>
          </g>
          <g id="Grupo_1186434" data-name="Grupo 1186434" transform="translate(10.147 0)">
            <path id="Trazado_1032920" data-name="Trazado 1032920" d="M158.164,131.053a.943.943,0,0,1-.816-1.414l1.252-2.171-1.243-2.072a.943.943,0,0,1,1.617-.971l1.529,2.548a.943.943,0,0,1,.008.956l-1.529,2.652A.943.943,0,0,1,158.164,131.053Z" transform="translate(-157.221 -123.966)" fill="#1e535a"/>
          </g>
          <g id="Grupo_1186435" data-name="Grupo 1186435" transform="translate(0 0)">
            <path id="Trazado_1032921" data-name="Trazado 1032921" d="M52.106,131.053a.943.943,0,0,1-.818-.472l-1.529-2.652a.943.943,0,0,1,.008-.956l1.529-2.548a.943.943,0,1,1,1.617.971l-1.243,2.072,1.252,2.171a.943.943,0,0,1-.816,1.414Z" transform="translate(-49.633 -123.966)" fill="#1e535a"/>
          </g>
        </g>
        <g id="Grupo_1186438" data-name="Grupo 1186438" transform="translate(0 0)">
          <g id="Grupo_1186437" data-name="Grupo 1186437">
            <path id="Trazado_1032922" data-name="Trazado 1032922" d="M.943,13.487H15.927a.943.943,0,0,1,.669.278l6.055,6.09a.943.943,0,0,1,.274.665V45.463a.943.943,0,0,1-.943.943H.943A.943.943,0,0,1,0,45.463V14.43A.943.943,0,0,1,.943,13.487Zm14.591,1.886H1.886V44.52H21.038V20.909Z" transform="translate(0 -13.487)" fill="#1e535a"/>
            <path id="Trazado_1032923" data-name="Trazado 1032923" d="M165.864,21.463h-6.055a.943.943,0,0,1-.943-.943V14.43a.943.943,0,0,1,1.612-.665l6.055,6.09a.943.943,0,0,1-.669,1.608Zm-5.112-1.886H163.6l-2.844-2.86Z" transform="translate(-143.883 -13.487)" fill="#1e535a"/>
          </g>
        </g>
        <path id="Rectángulo_459769" data-name="Rectángulo 459769" d="M-9.057-10H3.258a.943.943,0,0,1,.943.943V-3.92a.943.943,0,0,1-.943.943H-9.057A.943.943,0,0,1-10-3.92V-9.057A.943.943,0,0,1-9.057-10ZM2.315-8.114H-8.114v3.25H2.315Z" transform="translate(14.61 30.501)" fill="#1e535a"/>
      </g>
      <g id="Grupo_1186442" data-name="Grupo 1186442" transform="translate(25.364 25.955)">
        <g id="Grupo_1186441" data-name="Grupo 1186441">
          <g id="Grupo_1186440" data-name="Grupo 1186440">
            <path id="Trazado_1032924" data-name="Trazado 1032924" d="M269.877,145.686H284.86a.943.943,0,0,1,.669.278l6.055,6.09a.943.943,0,0,1,.274.665v24.943a.943.943,0,0,1-.943.943H269.877a.943.943,0,0,1-.943-.943V146.629A.943.943,0,0,1,269.877,145.686Zm14.591,1.886H270.82v29.146h19.152V153.108Z" transform="translate(-268.934 -145.686)" fill="#1e535a"/>
            <path id="Trazado_1032925" data-name="Trazado 1032925" d="M434.8,153.662h-6.055a.943.943,0,0,1-.943-.943v-6.09a.943.943,0,0,1,1.612-.665l6.055,6.09a.943.943,0,0,1-.669,1.608Zm-5.112-1.886h2.844l-2.844-2.86Z" transform="translate(-412.816 -145.686)" fill="#1e535a"/>
          </g>
        </g>
      </g>
      <path id="Trazado_1032926" data-name="Trazado 1032926" d="M322.971,240.3a.941.941,0,0,1,.592.209l.869.7a8.936,8.936,0,0,0,4.72,1.94.943.943,0,0,1,.848.938v8.864a5.1,5.1,0,0,1-2.791,4.563l-3.809,1.945a.943.943,0,0,1-.858,0l-3.809-1.945a5.1,5.1,0,0,1-2.791-4.563v-8.864a.943.943,0,0,1,.848-.938,8.935,8.935,0,0,0,4.72-1.94l.869-.7A.941.941,0,0,1,322.971,240.3Zm5.142,4.607a10.815,10.815,0,0,1-4.866-2.229l-.277-.223-.277.223a10.815,10.815,0,0,1-4.866,2.229v8.045a3.222,3.222,0,0,0,1.762,2.883l3.38,1.726,3.38-1.726a3.221,3.221,0,0,0,1.762-2.883Z" transform="translate(-286.144 -205.426)" fill="#1e535a"/>
    </g>
  </g>
</svg>
