<svg xmlns="http://www.w3.org/2000/svg" xmlns:xlink="http://www.w3.org/1999/xlink" width="129" height="129" viewBox="0 0 129 129">
  <defs>
    <clipPath id="clip-path">
      <rect id="Rectángulo_454829" data-name="Rectángulo 454829" width="129" height="129" fill="#1e535a"/>
    </clipPath>
  </defs>
  <g id="Grupo_1185881" data-name="Grupo 1185881" transform="translate(-186 -4323.945)">
    <g id="Grupo_1177591" data-name="Grupo 1177591" transform="translate(186 4323.945)">
      <g id="Grupo_1177589" data-name="Grupo 1177589" transform="translate(0 0)">
        <g id="Grupo_1177587" data-name="Grupo 1177587" clip-path="url(#clip-path)">
          <path id="Trazado_997422" data-name="Trazado 997422" d="M123.733,57.1a59.308,59.308,0,0,0-13.4-30.862,6.821,6.821,0,0,0-9.6-9.189A59.221,59.221,0,0,0,70.078,5.066a6.822,6.822,0,0,0-13.25.269A59.3,59.3,0,0,0,27.41,17.911a6.824,6.824,0,0,0-9.471,9.536A59.253,59.253,0,0,0,5.526,57.039a6.827,6.827,0,0,0-.163,13.369A59.236,59.236,0,0,0,17.387,100.6a6.823,6.823,0,0,0,9.27,9.635,59.3,59.3,0,0,0,30.116,13.172,6.824,6.824,0,0,0,13.369.269,59.247,59.247,0,0,0,30.886-12.2,6.822,6.822,0,0,0,9.55-9.236,59.323,59.323,0,0,0,13.315-31.893,6.824,6.824,0,0,0-.16-13.247M104.464,29.6a6.785,6.785,0,0,0,3.779-1.144,56.321,56.321,0,0,1,12.43,28.628,6.834,6.834,0,0,0-4.361,3.159L98.87,53.7c.014-.191.027-.385.027-.582a6.825,6.825,0,0,0-2.89-5.577l7.629-18a7.392,7.392,0,0,0,.827.054m-3.687-1.086L93.195,46.39a6.754,6.754,0,0,0-7.517,4.341L54.125,43.462a6.639,6.639,0,0,0-.143-1.358L98.758,26.511a6.846,6.846,0,0,0,2.019,2m-37.29-14.85a6.83,6.83,0,0,0,6.7-5.539A56.228,56.228,0,0,1,98.622,19.239a6.792,6.792,0,0,0-.987,3.527,7.17,7.17,0,0,0,.065.9l-45,15.668A6.85,6.85,0,0,0,51.462,38.1l11.8-24.451c.075,0,.146.01.221.01m-6.642-5.27a6.831,6.831,0,0,0,3.435,4.47L48.708,36.823a6.848,6.848,0,0,0-1.409-.146A6.78,6.78,0,0,0,43.407,37.9L29.691,26.443a6.789,6.789,0,0,0-.232-6.285A56.272,56.272,0,0,1,56.845,8.389M13.492,62.258l28.37-14.633a6.8,6.8,0,0,0,5.383,2.707l9.723,31.08a6.941,6.941,0,0,0-1.5,1.665L13.407,65.554a6.784,6.784,0,0,0,.252-1.811,6.863,6.863,0,0,0-.167-1.484m6.7-32.775a6.824,6.824,0,0,0,7.623-.65l13.543,11.31a6.81,6.81,0,0,0-.752,4.719L12.188,59.514a6.827,6.827,0,0,0-3.616-2.37,56.248,56.248,0,0,1,11.62-27.662m2.826,68.151a6.809,6.809,0,0,0-3.391.906A56.2,56.2,0,0,1,8.416,70.378,6.835,6.835,0,0,0,11.96,68.24l42.475,17.7a7.323,7.323,0,0,0-.054.82,6.828,6.828,0,0,0,.409,2.308L29.1,101.373a6.828,6.828,0,0,0-6.084-3.738m33.888,22.732a56.328,56.328,0,0,1-28.1-12.294,6.758,6.758,0,0,0,1.042-3.609l0-.078,26.6-12.746a6.829,6.829,0,0,0,2.41,1.522l1.593,22.9a6.829,6.829,0,0,0-3.537,4.3m2.829-40.272L50.22,49.672a6.839,6.839,0,0,0,3.244-3.244L85.273,53.75a6.789,6.789,0,0,0,1.086,3.1L64.543,80.8a6.745,6.745,0,0,0-4.807-.7m10.4,40.537a6.827,6.827,0,0,0-6.649-5.291l-.051,0L61.921,93.552a6.817,6.817,0,0,0,4.174-2.026l31.8,14.027c0,.061-.01.116-.01.177a6.8,6.8,0,0,0,1.011,3.561,56.224,56.224,0,0,1-28.761,11.34m28.526-18.058L67.688,88.909a6.789,6.789,0,0,0-.9-6.074L88.544,58.959a6.789,6.789,0,0,0,3.524.987,7.517,7.517,0,0,0,.838-.054l8.13,40.091a6.814,6.814,0,0,0-2.373,2.591m9.8-2.553a6.788,6.788,0,0,0-4.538-1.072L95.789,58.84a6.857,6.857,0,0,0,2.152-2.247l17.431,6.537a6.057,6.057,0,0,0-.031.613,6.827,6.827,0,0,0,5.488,6.693,56.271,56.271,0,0,1-12.369,29.585" transform="translate(0 0.001)" fill="#1e535a"/>
        </g>
      </g>
    </g>
    <g id="Elipse_13614" data-name="Elipse 13614" transform="translate(210.273 4348.213)" fill="#d5f4f8" stroke="#1e535a" stroke-width="3">
      <ellipse cx="40.232" cy="40.233" rx="40.232" ry="40.233" stroke="none"/>
      <ellipse cx="40.232" cy="40.233" rx="38.732" ry="38.733" fill="none"/>
    </g>
    <g id="reparar" transform="translate(176.441 4363.899)">
      <path id="Trazado_1032919" data-name="Trazado 1032919" d="M135.4,93.759a1,1,0,0,1,1,1v5.122l2.351,1.714,2.351-1.714V94.757a1,1,0,0,1,1.418-.9,8.947,8.947,0,0,1,.336,16.061v14.634a1,1,0,0,1-1,1h-6.214a1,1,0,0,1-1-1V109.914a8.947,8.947,0,0,1,.336-16.061A1,1,0,0,1,135.4,93.759Zm5.458,29.791V109.281a1,1,0,0,1,.607-.918A6.95,6.95,0,0,0,143.1,96.544v3.842a1,1,0,0,1-.41.806l-3.348,2.441a1,1,0,0,1-1.175,0l-3.348-2.441a1,1,0,0,1-.41-.806V96.544a6.95,6.95,0,0,0,1.629,11.819,1,1,0,0,1,.607.918V123.55Z" transform="translate(-65.26 -84.406)" fill="#1e535a"/>
      <g id="Grupo_1186446" data-name="Grupo 1186446" transform="translate(57.316 0)">
        <g id="Grupo_1186445" data-name="Grupo 1186445">
          <g id="Grupo_1186444" data-name="Grupo 1186444">
            <path id="Trazado_1032920" data-name="Trazado 1032920" d="M85.989,51.074h-25A3.681,3.681,0,0,1,57.316,47.4V3.677A3.681,3.681,0,0,1,60.993,0h25a3.681,3.681,0,0,1,3.677,3.677v24.4a1,1,0,1,1-2,0V3.677A1.684,1.684,0,0,0,85.989,2h-25a1.684,1.684,0,0,0-1.682,1.682V47.4a1.684,1.684,0,0,0,1.682,1.682h25A1.684,1.684,0,0,0,87.671,47.4V43.119a1,1,0,1,1,2,0V47.4A3.681,3.681,0,0,1,85.989,51.074Z" transform="translate(-57.316 0)" fill="#1e535a"/>
            <g id="Grupo_1186443" data-name="Grupo 1186443" transform="translate(14.061 43.831)">
              <path id="Línea_3273" data-name="Línea 3273" d="M-6.769-8H-9a1,1,0,0,1-1-1,1,1,0,0,1,1-1h2.233a1,1,0,0,1,1,1A1,1,0,0,1-6.769-8Z" transform="translate(10 10)" fill="#1e535a"/>
            </g>
            <path id="Línea_3274" data-name="Línea 3274" d="M10.677-8H-9a1,1,0,0,1-1-1,1,1,0,0,1,1-1h19.68a1,1,0,0,1,1,1A1,1,0,0,1,10.677-8Z" transform="translate(14.813 49.144)" fill="#1e535a"/>
          </g>
          <path id="Línea_3275" data-name="Línea 3275" d="M8.232-8H-9a1,1,0,0,1-1-1,1,1,0,0,1,1-1H8.232a1,1,0,0,1,1,1A1,1,0,0,1,8.232-8Z" transform="translate(16.56 14.737)" fill="#1e535a"/>
        </g>
      </g>
      <g id="Grupo_1186448" data-name="Grupo 1186448" transform="translate(80.383 27.222)">
        <g id="Grupo_1186447" data-name="Grupo 1186447">
          <path id="Trazado_1032921" data-name="Trazado 1032921" d="M298.237,289.481h-2.8a1,1,0,0,1-.973-.779l-.085-.378a7.494,7.494,0,0,1-.846-.351l-.327.207a1,1,0,0,1-1.239-.138l-1.979-1.98a1,1,0,0,1-.138-1.238l.207-.328a7.5,7.5,0,0,1-.351-.848l-.378-.085a1,1,0,0,1-.778-.973v-2.8a1,1,0,0,1,.778-.973l.378-.085a7.5,7.5,0,0,1,.351-.848l-.207-.328a1,1,0,0,1,.138-1.238l1.979-1.98a1,1,0,0,1,1.239-.138l.327.207a7.486,7.486,0,0,1,.846-.351l.085-.378a1,1,0,0,1,.973-.779h2.8a1,1,0,0,1,.973.779l.085.378a7.494,7.494,0,0,1,.846.351l.327-.207a1,1,0,0,1,1.239.138l1.979,1.98a1,1,0,0,1,.138,1.238l-.207.328a7.5,7.5,0,0,1,.351.848l.378.085a1,1,0,0,1,.778.973v2.8a1,1,0,0,1-.778.973l-.378.085a7.5,7.5,0,0,1-.351.848l.207.328a1,1,0,0,1-.138,1.238l-1.979,1.98a1,1,0,0,1-1.239.138l-.327-.207a7.483,7.483,0,0,1-.846.351l-.085.378A1,1,0,0,1,298.237,289.481Zm-2-2h1.2l.038-.169a1,1,0,0,1,.728-.748,5.5,5.5,0,0,0,1.466-.608,1,1,0,0,1,1.045.014l.146.092.851-.852-.093-.147a1,1,0,0,1-.014-1.043,5.514,5.514,0,0,0,.608-1.468,1,1,0,0,1,.748-.728l.168-.038v-1.205l-.168-.038a1,1,0,0,1-.748-.728,5.515,5.515,0,0,0-.608-1.468,1,1,0,0,1,.014-1.043l.093-.147-.851-.852-.146.092a1,1,0,0,1-1.044.014,5.5,5.5,0,0,0-1.466-.608,1,1,0,0,1-.728-.748l-.038-.169h-1.2l-.038.169a1,1,0,0,1-.728.748,5.5,5.5,0,0,0-1.466.608,1,1,0,0,1-1.044-.014l-.146-.092-.851.852.093.147a1,1,0,0,1,.014,1.043,5.515,5.515,0,0,0-.608,1.468,1,1,0,0,1-.748.728l-.168.038v1.205l.168.038a1,1,0,0,1,.748.728,5.514,5.514,0,0,0,.608,1.468,1,1,0,0,1-.014,1.043l-.093.147.851.852.146-.092a1,1,0,0,1,1.044-.014,5.505,5.505,0,0,0,1.466.608,1,1,0,0,1,.728.748Z" transform="translate(-288.552 -272.897)" fill="#1e535a"/>
        </g>
        <path id="Línea_3276" data-name="Línea 3276" transform="translate(8.286 8.292)" fill="#1e535a"/>
      </g>
    </g>
  </g>
</svg>
