<svg xmlns="http://www.w3.org/2000/svg" xmlns:xlink="http://www.w3.org/1999/xlink" width="129" height="129" viewBox="0 0 129 129">
  <defs>
    <clipPath id="clip-path">
      <rect id="Rectángulo_454829" data-name="Rectángulo 454829" width="129" height="129" fill="#1e535a"/>
    </clipPath>
  </defs>
  <g id="Grupo_1185884" data-name="Grupo 1185884" transform="translate(-186 -4323.945)">
    <g id="Grupo_1177591" data-name="Grupo 1177591" transform="translate(186 4323.945)">
      <g id="Grupo_1177589" data-name="Grupo 1177589" transform="translate(0 0)">
        <g id="Grupo_1177587" data-name="Grupo 1177587" clip-path="url(#clip-path)">
          <path id="Trazado_997422" data-name="Trazado 997422" d="M123.733,57.1a59.308,59.308,0,0,0-13.4-30.862,6.821,6.821,0,0,0-9.6-9.189A59.221,59.221,0,0,0,70.078,5.066a6.822,6.822,0,0,0-13.25.269A59.3,59.3,0,0,0,27.41,17.911a6.824,6.824,0,0,0-9.471,9.536A59.253,59.253,0,0,0,5.526,57.039a6.827,6.827,0,0,0-.163,13.369A59.236,59.236,0,0,0,17.387,100.6a6.823,6.823,0,0,0,9.27,9.635,59.3,59.3,0,0,0,30.116,13.172,6.824,6.824,0,0,0,13.369.269,59.247,59.247,0,0,0,30.886-12.2,6.822,6.822,0,0,0,9.55-9.236,59.323,59.323,0,0,0,13.315-31.893,6.824,6.824,0,0,0-.16-13.247M104.464,29.6a6.785,6.785,0,0,0,3.779-1.144,56.321,56.321,0,0,1,12.43,28.628,6.834,6.834,0,0,0-4.361,3.159L98.87,53.7c.014-.191.027-.385.027-.582a6.825,6.825,0,0,0-2.89-5.577l7.629-18a7.392,7.392,0,0,0,.827.054m-3.687-1.086L93.195,46.39a6.754,6.754,0,0,0-7.517,4.341L54.125,43.462a6.639,6.639,0,0,0-.143-1.358L98.758,26.511a6.846,6.846,0,0,0,2.019,2m-37.29-14.85a6.83,6.83,0,0,0,6.7-5.539A56.228,56.228,0,0,1,98.622,19.239a6.792,6.792,0,0,0-.987,3.527,7.17,7.17,0,0,0,.065.9l-45,15.668A6.85,6.85,0,0,0,51.462,38.1l11.8-24.451c.075,0,.146.01.221.01m-6.642-5.27a6.831,6.831,0,0,0,3.435,4.47L48.708,36.823a6.848,6.848,0,0,0-1.409-.146A6.78,6.78,0,0,0,43.407,37.9L29.691,26.443a6.789,6.789,0,0,0-.232-6.285A56.272,56.272,0,0,1,56.845,8.389M13.492,62.258l28.37-14.633a6.8,6.8,0,0,0,5.383,2.707l9.723,31.08a6.941,6.941,0,0,0-1.5,1.665L13.407,65.554a6.784,6.784,0,0,0,.252-1.811,6.863,6.863,0,0,0-.167-1.484m6.7-32.775a6.824,6.824,0,0,0,7.623-.65l13.543,11.31a6.81,6.81,0,0,0-.752,4.719L12.188,59.514a6.827,6.827,0,0,0-3.616-2.37,56.248,56.248,0,0,1,11.62-27.662m2.826,68.151a6.809,6.809,0,0,0-3.391.906A56.2,56.2,0,0,1,8.416,70.378,6.835,6.835,0,0,0,11.96,68.24l42.475,17.7a7.323,7.323,0,0,0-.054.82,6.828,6.828,0,0,0,.409,2.308L29.1,101.373a6.828,6.828,0,0,0-6.084-3.738m33.888,22.732a56.328,56.328,0,0,1-28.1-12.294,6.758,6.758,0,0,0,1.042-3.609l0-.078,26.6-12.746a6.829,6.829,0,0,0,2.41,1.522l1.593,22.9a6.829,6.829,0,0,0-3.537,4.3m2.829-40.272L50.22,49.672a6.839,6.839,0,0,0,3.244-3.244L85.273,53.75a6.789,6.789,0,0,0,1.086,3.1L64.543,80.8a6.745,6.745,0,0,0-4.807-.7m10.4,40.537a6.827,6.827,0,0,0-6.649-5.291l-.051,0L61.921,93.552a6.817,6.817,0,0,0,4.174-2.026l31.8,14.027c0,.061-.01.116-.01.177a6.8,6.8,0,0,0,1.011,3.561,56.224,56.224,0,0,1-28.761,11.34m28.526-18.058L67.688,88.909a6.789,6.789,0,0,0-.9-6.074L88.544,58.959a6.789,6.789,0,0,0,3.524.987,7.517,7.517,0,0,0,.838-.054l8.13,40.091a6.814,6.814,0,0,0-2.373,2.591m9.8-2.553a6.788,6.788,0,0,0-4.538-1.072L95.789,58.84a6.857,6.857,0,0,0,2.152-2.247l17.431,6.537a6.057,6.057,0,0,0-.031.613,6.827,6.827,0,0,0,5.488,6.693,56.271,56.271,0,0,1-12.369,29.585" transform="translate(0 0.001)" fill="#1e535a"/>
        </g>
      </g>
    </g>
    <g id="Elipse_13614" data-name="Elipse 13614" transform="translate(210.273 4348.213)" fill="#d5f4f8" stroke="#1e535a" stroke-width="3">
      <ellipse cx="40.232" cy="40.233" rx="40.232" ry="40.233" stroke="none"/>
      <ellipse cx="40.232" cy="40.233" rx="38.732" ry="38.733" fill="none"/>
    </g>
    <g id="bicho" transform="translate(177.395 4361.945)">
      <path id="Trazado_1032919" data-name="Trazado 1032919" d="M121.169,308.5H102.464a1.035,1.035,0,0,1-1.035-1.035v-5.108a1.035,1.035,0,0,1,1.035-1.035h20.219a1.035,1.035,0,0,1,0,2.07H103.5v3.038h17.67a1.035,1.035,0,1,1,0,2.07Z" transform="translate(-41.392 -270.13)" fill="#1e535a"/>
      <g id="Grupo_1186475" data-name="Grupo 1186475" transform="translate(55.257 0)">
        <g id="Grupo_1186470" data-name="Grupo 1186470">
          <path id="Trazado_1032920" data-name="Trazado 1032920" d="M85.011,53H59.073a3.82,3.82,0,0,1-3.816-3.816V3.816A3.82,3.82,0,0,1,59.073,0H85.011a3.82,3.82,0,0,1,3.816,3.816V28.722a1.035,1.035,0,1,1-2.07,0V3.816A1.748,1.748,0,0,0,85.011,2.07H59.073a1.748,1.748,0,0,0-1.746,1.746V49.184a1.748,1.748,0,0,0,1.746,1.746H85.011a1.748,1.748,0,0,0,1.746-1.746V45.056a1.035,1.035,0,1,1,2.07,0v4.128A3.82,3.82,0,0,1,85.011,53Z" transform="translate(-55.257 0)" fill="#1e535a"/>
          <g id="Grupo_1186469" data-name="Grupo 1186469" transform="translate(14.591 45.484)">
            <path id="Línea_3273" data-name="Línea 3273" d="M-6.647-7.93H-8.965A1.035,1.035,0,0,1-10-8.965,1.035,1.035,0,0,1-8.965-10h2.318A1.035,1.035,0,0,1-5.612-8.965,1.035,1.035,0,0,1-6.647-7.93Z" transform="translate(10 10)" fill="#1e535a"/>
          </g>
          <path id="Línea_3274" data-name="Línea 3274" d="M10.94-7.93h-19.9A1.035,1.035,0,0,1-10-8.965,1.035,1.035,0,0,1-8.965-10h19.9a1.035,1.035,0,0,1,1.035,1.035A1.035,1.035,0,0,1,10.94-7.93Z" transform="translate(14.994 50.62)" fill="#1e535a"/>
        </g>
        <g id="Grupo_1186474" data-name="Grupo 1186474" transform="translate(8.287 9.402)">
          <path id="Elipse_13773" data-name="Elipse 13773" d="M-5.426-10A4.583,4.583,0,0,1-.852-5.419,4.583,4.583,0,0,1-5.426-.838,4.583,4.583,0,0,1-10-5.419,4.583,4.583,0,0,1-5.426-10Zm0,7.092a2.51,2.51,0,0,0,2.5-2.511,2.51,2.51,0,0,0-2.5-2.511,2.51,2.51,0,0,0-2.5,2.511A2.51,2.51,0,0,0-5.426-2.908Z" transform="translate(13.925 10)" fill="#1e535a"/>
          <g id="Grupo_1186471" data-name="Grupo 1186471" transform="translate(1.564 6.837)">
            <path id="Línea_3275" data-name="Línea 3275" d="M-8.965-6.952a1.032,1.032,0,0,1-.731-.3,1.035,1.035,0,0,1,0-1.464l.976-.978a1.035,1.035,0,0,1,1.464,0,1.035,1.035,0,0,1,0,1.464l-.976.978A1.032,1.032,0,0,1-8.965-6.952Z" transform="translate(20.824 10)" fill="#1e535a"/>
            <path id="Línea_3276" data-name="Línea 3276" d="M-7.989-6.952a1.032,1.032,0,0,1-.733-.3L-9.7-8.234A1.035,1.035,0,0,1-9.7-9.7a1.035,1.035,0,0,1,1.464,0l.976.978a1.035,1.035,0,0,1,0,1.464A1.032,1.032,0,0,1-7.989-6.952Z" transform="translate(10 10)" fill="#1e535a"/>
          </g>
          <g id="Grupo_1186472" data-name="Grupo 1186472" transform="translate(1.564 14.708)">
            <path id="Línea_3277" data-name="Línea 3277" d="M-8.965-6.918a1.032,1.032,0,0,1-.731-.3,1.035,1.035,0,0,1,0-1.464L-8.688-9.7a1.035,1.035,0,0,1,1.464,0,1.035,1.035,0,0,1,0,1.464l-1.01,1.012A1.032,1.032,0,0,1-8.965-6.918Z" transform="translate(10 10.007)" fill="#1e535a"/>
            <path id="Línea_3278" data-name="Línea 3278" d="M-7.948-6.911a1.032,1.032,0,0,1-.733-.3L-9.7-8.234A1.035,1.035,0,0,1-9.7-9.7a1.035,1.035,0,0,1,1.464,0l1.017,1.019a1.035,1.035,0,0,1,0,1.464A1.032,1.032,0,0,1-7.948-6.911Z" transform="translate(20.783 10)" fill="#1e535a"/>
          </g>
          <g id="Grupo_1186473" data-name="Grupo 1186473" transform="translate(0 11.289)">
            <path id="Línea_3279" data-name="Línea 3279" d="M-7.459-7.93H-8.965A1.035,1.035,0,0,1-10-8.965,1.035,1.035,0,0,1-8.965-10h1.506A1.035,1.035,0,0,1-6.424-8.965,1.035,1.035,0,0,1-7.459-7.93Z" transform="translate(23.421 10)" fill="#1e535a"/>
            <path id="Línea_3280" data-name="Línea 3280" d="M-7.473-7.93H-8.965A1.035,1.035,0,0,1-10-8.965,1.035,1.035,0,0,1-8.965-10h1.492A1.035,1.035,0,0,1-6.438-8.965,1.035,1.035,0,0,1-7.473-7.93Z" transform="translate(10 10)" fill="#1e535a"/>
          </g>
          <path id="Trazado_1032921" data-name="Trazado 1032921" d="M157.171,161.875a6.971,6.971,0,0,1-3.1-13.207A1.035,1.035,0,1,1,155,150.52a4.885,4.885,0,1,0,4.373.011,1.035,1.035,0,0,1,.935-1.847,6.971,6.971,0,0,1-3.133,13.19Z" transform="translate(-148.672 -142.583)" fill="#1e535a"/>
        </g>
        <path id="Línea_3281" data-name="Línea 3281" d="M8.92-7.93H-8.965A1.035,1.035,0,0,1-10-8.965,1.035,1.035,0,0,1-8.965-10H8.92A1.035,1.035,0,0,1,9.955-8.965,1.035,1.035,0,0,1,8.92-7.93Z" transform="translate(16.808 14.916)" fill="#1e535a"/>
      </g>
      <g id="Grupo_1186477" data-name="Grupo 1186477" transform="translate(78.835 27.913)">
        <path id="Elipse_13774" data-name="Elipse 13774" d="M-1.009-10A9.01,9.01,0,0,1,7.983-.992,9.01,9.01,0,0,1-1.009,8.015,9.01,9.01,0,0,1-10-.992,9.01,9.01,0,0,1-1.009-10Zm0,15.945A6.937,6.937,0,0,0,5.912-.992,6.937,6.937,0,0,0-1.009-7.93,6.937,6.937,0,0,0-7.93-.992,6.937,6.937,0,0,0-1.009,5.945Z" transform="translate(10 10)" fill="#1e535a"/>
        <g id="Grupo_1186476" data-name="Grupo 1186476" transform="translate(7.956 5.849)">
          <path id="Línea_3282" data-name="Línea 3282" d="M-8.965-4.681A1.035,1.035,0,0,1-10-5.716v-5.249A1.035,1.035,0,0,1-8.965-12,1.035,1.035,0,0,1-7.93-10.965v5.249A1.035,1.035,0,0,1-8.965-4.681Z" transform="translate(10 10)" fill="#1e535a"/>
          <path id="Línea_3282-2" data-name="Línea 3282" d="M-8.965-6.681A1.035,1.035,0,0,1-10-7.716v-.249A1.035,1.035,0,0,1-8.965-9,1.035,1.035,0,0,1-7.93-7.965v.249A1.035,1.035,0,0,1-8.965-6.681Z" transform="translate(10 15)" fill="#1e535a"/>
          <path id="Línea_3283" data-name="Línea 3283" transform="translate(1.035 6.315)" fill="#1e535a"/>
        </g>
      </g>
    </g>
  </g>
</svg>
