<svg xmlns="http://www.w3.org/2000/svg" xmlns:xlink="http://www.w3.org/1999/xlink" width="396" height="616" viewBox="0 0 396 616">
  <defs>
    <clipPath id="clip-path">
      <rect id="Rectángulo_459279" data-name="Rectángulo 459279" width="286.576" height="285.896" fill="#69d7e5"/>
    </clipPath>
  </defs>
  <g id="Grupo_1186483" data-name="Grupo 1186483" transform="translate(-7300 6187)">
    <path id="Trazado_1032926" data-name="Trazado 1032926" d="M0,0H396V616H0Z" transform="translate(7300 -6187)" fill="#d5f4f8"/>
    <path id="Trazado_1032927" data-name="Trazado 1032927" d="M19.958,14.737a4.528,4.528,0,0,1-1.525,3.252,5.355,5.355,0,0,1-3.625,1.187,4.816,4.816,0,0,1-3.872-1.657,6.793,6.793,0,0,1-1.411-4.548v-.782a7.671,7.671,0,0,1,.65-3.252,4.874,4.874,0,0,1,1.859-2.158,5.207,5.207,0,0,1,2.808-.751,5.217,5.217,0,0,1,3.568,1.187,4.866,4.866,0,0,1,1.564,3.331H17.339a2.673,2.673,0,0,0-.69-1.8,2.555,2.555,0,0,0-1.806-.558,2.24,2.24,0,0,0-1.973.945,5.3,5.3,0,0,0-.672,2.931v.967a5.667,5.667,0,0,0,.628,3.032,2.2,2.2,0,0,0,1.982.958,2.6,2.6,0,0,0,1.824-.558,2.521,2.521,0,0,0,.69-1.727Zm1.214-.58a5.64,5.64,0,0,1,.545-2.522,3.989,3.989,0,0,1,1.569-1.714,4.577,4.577,0,0,1,2.377-.606,4.33,4.33,0,0,1,3.142,1.178,4.727,4.727,0,0,1,1.358,3.2l.018.65a4.97,4.97,0,0,1-1.222,3.511,4.247,4.247,0,0,1-3.278,1.323A4.268,4.268,0,0,1,22.4,17.857a5.058,5.058,0,0,1-1.226-3.586Zm2.54.18a3.555,3.555,0,0,0,.51,2.073,1.831,1.831,0,0,0,2.9.009,3.89,3.89,0,0,0,.519-2.267,3.519,3.519,0,0,0-.519-2.06,1.686,1.686,0,0,0-1.459-.731,1.658,1.658,0,0,0-1.441.726A3.955,3.955,0,0,0,23.712,14.338ZM34.128,9.49l.079,1.1a3.32,3.32,0,0,1,2.733-1.274,2.759,2.759,0,0,1,2.25.888,4.142,4.142,0,0,1,.756,2.654V19h-2.54V12.918a1.648,1.648,0,0,0-.352-1.173,1.574,1.574,0,0,0-1.169-.365,1.747,1.747,0,0,0-1.608.914V19h-2.54V9.49ZM44.958,7.152V9.49h1.626v1.863H44.958V16.1a1.133,1.133,0,0,0,.2.756,1.015,1.015,0,0,0,.773.229,4.051,4.051,0,0,0,.747-.062v1.925a5.229,5.229,0,0,1-1.538.229,2.425,2.425,0,0,1-2.725-2.7V11.354H41.029V9.49h1.389V7.152Zm8.43,4.72a6.9,6.9,0,0,0-.914-.07,1.86,1.86,0,0,0-1.89.976V19h-2.54V9.49h2.4l.07,1.134a2.354,2.354,0,0,1,2.118-1.31,2.662,2.662,0,0,1,.791.114Zm.555,2.285a5.64,5.64,0,0,1,.545-2.522,3.989,3.989,0,0,1,1.569-1.714,4.577,4.577,0,0,1,2.377-.606,4.33,4.33,0,0,1,3.142,1.178,4.727,4.727,0,0,1,1.358,3.2l.018.65a4.97,4.97,0,0,1-1.222,3.511,4.735,4.735,0,0,1-6.561,0,5.058,5.058,0,0,1-1.226-3.586Zm2.54.18a3.555,3.555,0,0,0,.51,2.073,1.831,1.831,0,0,0,2.9.009,3.89,3.89,0,0,0,.519-2.267,3.519,3.519,0,0,0-.519-2.06,1.686,1.686,0,0,0-1.459-.731,1.658,1.658,0,0,0-1.441.726A3.955,3.955,0,0,0,56.482,14.338ZM67.241,19H64.692V5.5h2.549Zm6.269-4.825a5.731,5.731,0,0,1,1-3.542,3.237,3.237,0,0,1,2.729-1.318,2.913,2.913,0,0,1,2.294,1.037V5.5h2.549V19H79.785l-.123-1.011a2.989,2.989,0,0,1-2.443,1.187,3.228,3.228,0,0,1-2.694-1.323A5.916,5.916,0,0,1,73.51,14.175Zm2.54.189a3.754,3.754,0,0,0,.466,2.051,1.517,1.517,0,0,0,1.354.713,1.7,1.7,0,0,0,1.661-.995V12.375a1.675,1.675,0,0,0-1.644-.995Q76.05,11.38,76.05,14.364Zm12.42,4.812a4.668,4.668,0,0,1-3.406-1.283,4.561,4.561,0,0,1-1.314-3.419v-.246a5.745,5.745,0,0,1,.554-2.562,4.064,4.064,0,0,1,1.569-1.74,4.4,4.4,0,0,1,2.316-.611,3.947,3.947,0,0,1,3.072,1.23,5,5,0,0,1,1.121,3.489v1.037H86.325a2.36,2.36,0,0,0,.743,1.494,2.245,2.245,0,0,0,1.569.563,2.742,2.742,0,0,0,2.294-1.063l1.248,1.4a3.813,3.813,0,0,1-1.547,1.261A5.075,5.075,0,0,1,88.47,19.176Zm-.29-7.813a1.587,1.587,0,0,0-1.226.512,2.651,2.651,0,0,0-.6,1.466h3.533v-.2a1.891,1.891,0,0,0-.457-1.311A1.638,1.638,0,0,0,88.18,11.362ZM103.906,19a2.821,2.821,0,0,1-.255-.853,3.073,3.073,0,0,1-2.4,1.028,3.376,3.376,0,0,1-2.316-.809,2.6,2.6,0,0,1-.918-2.039,2.687,2.687,0,0,1,1.121-2.32,5.529,5.529,0,0,1,3.239-.817h1.169v-.545a1.567,1.567,0,0,0-.338-1.055,1.331,1.331,0,0,0-1.068-.4,1.513,1.513,0,0,0-1.006.308,1.045,1.045,0,0,0-.365.844h-2.54a2.551,2.551,0,0,1,.51-1.529,3.37,3.37,0,0,1,1.441-1.1,5.253,5.253,0,0,1,2.092-.4,4.15,4.15,0,0,1,2.791.883,3.09,3.09,0,0,1,1.033,2.483V16.8a4.546,4.546,0,0,0,.378,2.048V19Zm-2.1-1.767a2.188,2.188,0,0,0,1.037-.25,1.645,1.645,0,0,0,.7-.672V14.676H102.6q-1.907,0-2.03,1.318l-.009.149a1.017,1.017,0,0,0,.334.782A1.3,1.3,0,0,0,101.8,17.233Zm10.24-.105a1.666,1.666,0,0,0,1.143-.387,1.355,1.355,0,0,0,.457-1.028h2.382a3.258,3.258,0,0,1-.527,1.771,3.48,3.48,0,0,1-1.419,1.248,4.442,4.442,0,0,1-1.991.444,4.129,4.129,0,0,1-3.217-1.3,5.13,5.13,0,0,1-1.178-3.582v-.167a5.071,5.071,0,0,1,1.169-3.507,4.08,4.08,0,0,1,3.208-1.31,4,4,0,0,1,2.861,1.015,3.594,3.594,0,0,1,1.094,2.7h-2.382a1.745,1.745,0,0,0-.457-1.206,1.7,1.7,0,0,0-2.5.183,3.749,3.749,0,0,0-.453,2.1v.264a3.8,3.8,0,0,0,.448,2.113A1.549,1.549,0,0,0,112.045,17.128Zm9.432,0a1.666,1.666,0,0,0,1.143-.387,1.355,1.355,0,0,0,.457-1.028h2.382a3.258,3.258,0,0,1-.527,1.771,3.48,3.48,0,0,1-1.419,1.248,4.442,4.442,0,0,1-1.991.444,4.129,4.129,0,0,1-3.217-1.3,5.13,5.13,0,0,1-1.178-3.582v-.167a5.071,5.071,0,0,1,1.169-3.507,4.08,4.08,0,0,1,3.208-1.31,4,4,0,0,1,2.861,1.015,3.594,3.594,0,0,1,1.094,2.7h-2.382a1.745,1.745,0,0,0-.457-1.206,1.7,1.7,0,0,0-2.5.183,3.749,3.749,0,0,0-.453,2.1v.264a3.8,3.8,0,0,0,.448,2.113A1.549,1.549,0,0,0,121.477,17.128Zm9.854,2.048a4.668,4.668,0,0,1-3.406-1.283,4.561,4.561,0,0,1-1.314-3.419v-.246a5.745,5.745,0,0,1,.554-2.562,4.064,4.064,0,0,1,1.569-1.74,4.4,4.4,0,0,1,2.316-.611,3.947,3.947,0,0,1,3.072,1.23,5,5,0,0,1,1.121,3.489v1.037h-6.056a2.36,2.36,0,0,0,.743,1.494,2.245,2.245,0,0,0,1.569.563,2.742,2.742,0,0,0,2.294-1.063l1.248,1.4a3.813,3.813,0,0,1-1.547,1.261A5.075,5.075,0,0,1,131.331,19.176Zm-.29-7.813a1.587,1.587,0,0,0-1.226.512,2.651,2.651,0,0,0-.6,1.466h3.533v-.2a1.891,1.891,0,0,0-.457-1.311A1.638,1.638,0,0,0,131.04,11.362Zm10.838,5.01a.818.818,0,0,0-.461-.734,5.241,5.241,0,0,0-1.481-.479q-3.393-.712-3.393-2.883a2.613,2.613,0,0,1,1.05-2.114,4.237,4.237,0,0,1,2.747-.848,4.56,4.56,0,0,1,2.9.853,2.687,2.687,0,0,1,1.085,2.215h-2.54a1.229,1.229,0,0,0-.352-.9,1.488,1.488,0,0,0-1.1-.356,1.52,1.52,0,0,0-.993.29.916.916,0,0,0-.352.738.783.783,0,0,0,.4.681,4.114,4.114,0,0,0,1.349.448,11.019,11.019,0,0,1,1.6.426,2.628,2.628,0,0,1,2.013,2.558,2.481,2.481,0,0,1-1.116,2.1,4.815,4.815,0,0,1-2.883.8,5.029,5.029,0,0,1-2.123-.426,3.561,3.561,0,0,1-1.455-1.169,2.716,2.716,0,0,1-.527-1.6h2.408a1.326,1.326,0,0,0,.5,1.037,1.987,1.987,0,0,0,1.248.36,1.839,1.839,0,0,0,1.1-.277A.861.861,0,0,0,141.878,16.372Zm3.754-2.215a5.64,5.64,0,0,1,.545-2.522,3.989,3.989,0,0,1,1.569-1.714,4.577,4.577,0,0,1,2.377-.606,4.33,4.33,0,0,1,3.142,1.178,4.727,4.727,0,0,1,1.358,3.2l.018.65a4.97,4.97,0,0,1-1.222,3.511,4.735,4.735,0,0,1-6.561,0,5.058,5.058,0,0,1-1.226-3.586Zm2.54.18a3.555,3.555,0,0,0,.51,2.073,1.831,1.831,0,0,0,2.9.009,3.89,3.89,0,0,0,.519-2.267,3.519,3.519,0,0,0-.519-2.06,1.686,1.686,0,0,0-1.459-.731,1.658,1.658,0,0,0-1.441.726A3.955,3.955,0,0,0,148.172,14.338ZM14.477,36.383a12.079,12.079,0,0,1,.473-3.391,9.85,9.85,0,0,1,1.41-2.953,6,6,0,0,1,1.945-1.875l.3.953a6.222,6.222,0,0,0-1.871,2.672,11.583,11.583,0,0,0-.8,4.023l-.008.664a11.643,11.643,0,0,0,1.1,5.234A6.252,6.252,0,0,0,18.6,43.789l-.3.883a6.192,6.192,0,0,1-1.984-1.937A10.859,10.859,0,0,1,14.477,36.383Zm14.188,3.125a3.465,3.465,0,0,1-1.613,1.238,6.517,6.517,0,0,1-2.41.41,4.674,4.674,0,0,1-2.469-.652,4.346,4.346,0,0,1-1.668-1.855,6.408,6.408,0,0,1-.605-2.789v-.992a5.982,5.982,0,0,1,1.2-3.984,4.179,4.179,0,0,1,3.371-1.414,4.316,4.316,0,0,1,2.867.91,3.965,3.965,0,0,1,1.328,2.582h-1.5A2.48,2.48,0,0,0,24.478,30.7a2.655,2.655,0,0,0-2.285,1.06,5.173,5.173,0,0,0-.785,3.069v.93a4.848,4.848,0,0,0,.875,3.046,2.836,2.836,0,0,0,2.367,1.13,5.229,5.229,0,0,0,1.477-.187,2.283,2.283,0,0,0,1.047-.631V36.563H24.541V35.336h4.125ZM35.378,36.4H32.706V41H31.2V29.625h3.766a4.457,4.457,0,0,1,2.957.875,3.148,3.148,0,0,1,1.035,2.547,3.062,3.062,0,0,1-.574,1.852,3.428,3.428,0,0,1-1.6,1.18l2.672,4.828V41H37.846Zm-2.672-1.227h2.3a2.6,2.6,0,0,0,1.777-.579,1.959,1.959,0,0,0,.66-1.55,2.062,2.062,0,0,0-.629-1.62A2.663,2.663,0,0,0,35,30.852h-2.3Zm14.673,2.852H42.613L41.543,41H40L44.34,29.625h1.313L50,41H48.465ZM43.066,36.8h3.867L45,31.477ZM60.317,41H58.809l-5.727-8.766V41H51.575V29.625h1.508l5.742,8.8v-8.8h1.492ZM70.88,30.852H67.224V41H65.732V30.852H62.084V29.625h8.8Zm5.478,11.125H75.117l4.75-12.352H81.1ZM91.1,36.4H88.431V41H86.923V29.625h3.766a4.457,4.457,0,0,1,2.957.875,3.148,3.148,0,0,1,1.035,2.547,3.062,3.062,0,0,1-.574,1.852,3.428,3.428,0,0,1-1.6,1.18l2.672,4.828V41H93.572Zm-2.672-1.227h2.3a2.6,2.6,0,0,0,1.777-.579,1.959,1.959,0,0,0,.66-1.55,2.062,2.062,0,0,0-.629-1.62,2.663,2.663,0,0,0-1.816-.571h-2.3Zm14.821.57h-4.93v4.031h5.727V41H96.823V29.625h7.148v1.227H98.323v3.664h4.93Zm6.47,3.266,3.25-9.383h1.641L110.394,41h-1.328l-4.211-11.375h1.633Zm15.1-3.328a7.037,7.037,0,0,1-.562,2.918,4.261,4.261,0,0,1-1.594,1.9,4.4,4.4,0,0,1-6.4-1.887,6.752,6.752,0,0,1-.59-2.832v-.82a6.953,6.953,0,0,1,.57-2.9,4.218,4.218,0,0,1,4-2.594,4.41,4.41,0,0,1,2.41.66,4.253,4.253,0,0,1,1.605,1.914,7.071,7.071,0,0,1,.563,2.918Zm-1.492-.734a5.1,5.1,0,0,0-.812-3.105,2.68,2.68,0,0,0-2.273-1.082,2.651,2.651,0,0,0-2.238,1.082,5,5,0,0,0-.84,3v.836a5.107,5.107,0,0,0,.824,3.082,2.888,2.888,0,0,0,4.52.063,5.079,5.079,0,0,0,.82-3.035Zm6.673.766-1.391,1.445V41h-1.5V29.625h1.5V35.25l5.055-5.625h1.813l-4.477,5.023L135.833,41h-1.8Zm13.61.031h-4.93v4.031h5.727V41h-7.227V29.625h7.148v1.227h-5.648v3.664h4.93Zm5.813.719a12.085,12.085,0,0,1-.457,3.34,9.876,9.876,0,0,1-1.4,2.949,6.127,6.127,0,0,1-1.973,1.922l-.3-.883a6.281,6.281,0,0,0,1.934-2.863,12.387,12.387,0,0,0,.746-4.309v-.25a12.861,12.861,0,0,0-.344-3.051,10.3,10.3,0,0,0-.957-2.527,5.838,5.838,0,0,0-1.379-1.742l.3-.883a6.1,6.1,0,0,1,1.965,1.906,9.9,9.9,0,0,1,1.4,2.945A12.364,12.364,0,0,1,149.429,36.461Z" transform="translate(7421.289 -6087.296)" fill="#12263f"/>
    <path id="Trazado_1032928" data-name="Trazado 1032928" d="M8.14,15.827l2.9-9.624h2.936L9.52,19H6.769L2.331,6.2H5.258ZM20.165,19a2.821,2.821,0,0,1-.255-.853,3.073,3.073,0,0,1-2.4,1.028,3.376,3.376,0,0,1-2.316-.809,2.6,2.6,0,0,1-.918-2.039,2.687,2.687,0,0,1,1.121-2.32,5.529,5.529,0,0,1,3.239-.817H19.8v-.545a1.567,1.567,0,0,0-.338-1.055,1.331,1.331,0,0,0-1.068-.4,1.513,1.513,0,0,0-1.006.308,1.045,1.045,0,0,0-.365.844h-2.54A2.551,2.551,0,0,1,15,10.817a3.37,3.37,0,0,1,1.441-1.1,5.253,5.253,0,0,1,2.092-.4,4.15,4.15,0,0,1,2.791.883,3.09,3.09,0,0,1,1.033,2.483V16.8a4.546,4.546,0,0,0,.378,2.048V19Zm-2.1-1.767a2.188,2.188,0,0,0,1.037-.25,1.645,1.645,0,0,0,.7-.672V14.676h-.949q-1.907,0-2.03,1.318l-.009.149a1.017,1.017,0,0,0,.334.782A1.3,1.3,0,0,0,18.064,17.233ZM27.03,19H24.481V5.5H27.03Zm4.817,0H29.3V9.49h2.549Zm-2.7-11.971a1.251,1.251,0,0,1,.382-.94,1.648,1.648,0,0,1,2.079,0,1.244,1.244,0,0,1,.387.94,1.247,1.247,0,0,1-.391.949,1.629,1.629,0,0,1-2.065,0A1.247,1.247,0,0,1,29.149,7.029Zm4.44,7.146a5.731,5.731,0,0,1,1-3.542,3.237,3.237,0,0,1,2.729-1.318,2.913,2.913,0,0,1,2.294,1.037V5.5h2.549V19H39.864l-.123-1.011A2.989,2.989,0,0,1,37.3,19.176,3.228,3.228,0,0,1,34.6,17.853,5.916,5.916,0,0,1,33.589,14.175Zm2.54.189a3.754,3.754,0,0,0,.466,2.051,1.517,1.517,0,0,0,1.354.713,1.7,1.7,0,0,0,1.661-.995V12.375a1.675,1.675,0,0,0-1.644-.995Q36.129,11.38,36.129,14.364ZM49.683,19a2.821,2.821,0,0,1-.255-.853,3.073,3.073,0,0,1-2.4,1.028,3.376,3.376,0,0,1-2.316-.809,2.6,2.6,0,0,1-.918-2.039,2.687,2.687,0,0,1,1.121-2.32,5.529,5.529,0,0,1,3.239-.817h1.169v-.545a1.567,1.567,0,0,0-.338-1.055,1.331,1.331,0,0,0-1.068-.4,1.513,1.513,0,0,0-1.006.308,1.045,1.045,0,0,0-.365.844h-2.54a2.551,2.551,0,0,1,.51-1.529,3.37,3.37,0,0,1,1.441-1.1,5.253,5.253,0,0,1,2.092-.4,4.15,4.15,0,0,1,2.791.883,3.09,3.09,0,0,1,1.033,2.483V16.8a4.546,4.546,0,0,0,.378,2.048V19Zm-2.1-1.767a2.188,2.188,0,0,0,1.037-.25,1.645,1.645,0,0,0,.7-.672V14.676h-.949q-1.907,0-2.03,1.318l-.009.149a1.017,1.017,0,0,0,.334.782A1.3,1.3,0,0,0,47.582,17.233Zm10.24-.105a1.666,1.666,0,0,0,1.143-.387,1.355,1.355,0,0,0,.457-1.028H61.8a3.258,3.258,0,0,1-.527,1.771,3.48,3.48,0,0,1-1.419,1.248,4.442,4.442,0,0,1-1.991.444,4.129,4.129,0,0,1-3.217-1.3A5.13,5.13,0,0,1,53.472,14.3v-.167a5.071,5.071,0,0,1,1.169-3.507,4.08,4.08,0,0,1,3.208-1.31A4,4,0,0,1,60.71,10.33a3.594,3.594,0,0,1,1.094,2.7H59.422a1.745,1.745,0,0,0-.457-1.206,1.7,1.7,0,0,0-2.5.183,3.749,3.749,0,0,0-.453,2.1v.264a3.8,3.8,0,0,0,.448,2.113A1.549,1.549,0,0,0,57.823,17.128ZM65.98,19H63.431V9.49H65.98Zm-2.7-11.971a1.251,1.251,0,0,1,.382-.94,1.648,1.648,0,0,1,2.079,0,1.244,1.244,0,0,1,.387.94,1.247,1.247,0,0,1-.391.949,1.629,1.629,0,0,1-2.065,0A1.247,1.247,0,0,1,63.282,7.029Zm4.44,7.128a5.64,5.64,0,0,1,.545-2.522,3.989,3.989,0,0,1,1.569-1.714,4.577,4.577,0,0,1,2.377-.606,4.33,4.33,0,0,1,3.142,1.178,4.727,4.727,0,0,1,1.358,3.2l.018.65a4.97,4.97,0,0,1-1.222,3.511,4.735,4.735,0,0,1-6.561,0,5.058,5.058,0,0,1-1.226-3.586Zm2.54.18a3.555,3.555,0,0,0,.51,2.073,1.831,1.831,0,0,0,2.9.009,3.89,3.89,0,0,0,.519-2.267,3.519,3.519,0,0,0-.519-2.06,1.686,1.686,0,0,0-1.459-.731,1.658,1.658,0,0,0-1.441.726A3.955,3.955,0,0,0,70.261,14.338ZM72.713,5.5h2.769L73.047,8.225H70.982Zm7.964,3.99.079,1.1A3.32,3.32,0,0,1,83.49,9.314a2.759,2.759,0,0,1,2.25.888,4.142,4.142,0,0,1,.756,2.654V19h-2.54V12.918a1.648,1.648,0,0,0-.352-1.173,1.574,1.574,0,0,0-1.169-.365,1.747,1.747,0,0,0-1.608.914V19h-2.54V9.49ZM92.6,14.175a5.731,5.731,0,0,1,1-3.542,3.237,3.237,0,0,1,2.729-1.318,2.913,2.913,0,0,1,2.294,1.037V5.5h2.549V19H98.873l-.123-1.011a2.989,2.989,0,0,1-2.443,1.187,3.228,3.228,0,0,1-2.694-1.323A5.916,5.916,0,0,1,92.6,14.175Zm2.54.189a3.754,3.754,0,0,0,.466,2.051,1.517,1.517,0,0,0,1.354.713,1.7,1.7,0,0,0,1.661-.995V12.375a1.675,1.675,0,0,0-1.644-.995Q95.137,11.38,95.137,14.364Zm12.42,4.812a4.668,4.668,0,0,1-3.406-1.283,4.561,4.561,0,0,1-1.314-3.419v-.246a5.745,5.745,0,0,1,.554-2.562,4.064,4.064,0,0,1,1.569-1.74,4.4,4.4,0,0,1,2.316-.611,3.947,3.947,0,0,1,3.072,1.23,5,5,0,0,1,1.121,3.489v1.037h-6.056a2.36,2.36,0,0,0,.743,1.494,2.245,2.245,0,0,0,1.569.563,2.742,2.742,0,0,0,2.294-1.063l1.248,1.4a3.813,3.813,0,0,1-1.547,1.261A5.075,5.075,0,0,1,107.557,19.176Zm-.29-7.813a1.587,1.587,0,0,0-1.226.512,2.651,2.651,0,0,0-.6,1.466h3.533v-.2a1.891,1.891,0,0,0-.457-1.311A1.638,1.638,0,0,0,107.267,11.362Zm9.819,2.813a5.731,5.731,0,0,1,1-3.542,3.237,3.237,0,0,1,2.729-1.318,2.913,2.913,0,0,1,2.294,1.037V5.5h2.549V19h-2.294l-.123-1.011a2.989,2.989,0,0,1-2.443,1.187,3.228,3.228,0,0,1-2.694-1.323A5.916,5.916,0,0,1,117.087,14.175Zm2.54.189a3.754,3.754,0,0,0,.466,2.051,1.517,1.517,0,0,0,1.354.713,1.7,1.7,0,0,0,1.661-.995V12.375a1.675,1.675,0,0,0-1.644-.995Q119.627,11.38,119.627,14.364ZM133.181,19a2.821,2.821,0,0,1-.255-.853,3.073,3.073,0,0,1-2.4,1.028,3.376,3.376,0,0,1-2.316-.809,2.6,2.6,0,0,1-.918-2.039,2.687,2.687,0,0,1,1.121-2.32,5.529,5.529,0,0,1,3.239-.817h1.169v-.545a1.567,1.567,0,0,0-.338-1.055,1.331,1.331,0,0,0-1.068-.4,1.513,1.513,0,0,0-1.006.308,1.045,1.045,0,0,0-.365.844H127.5a2.551,2.551,0,0,1,.51-1.529,3.37,3.37,0,0,1,1.441-1.1,5.253,5.253,0,0,1,2.092-.4,4.15,4.15,0,0,1,2.791.883,3.09,3.09,0,0,1,1.033,2.483V16.8a4.546,4.546,0,0,0,.378,2.048V19Zm-2.1-1.767a2.188,2.188,0,0,0,1.037-.25,1.645,1.645,0,0,0,.7-.672V14.676h-.949q-1.907,0-2.03,1.318l-.009.149a1.017,1.017,0,0,0,.334.782A1.3,1.3,0,0,0,131.08,17.233Zm9.326-10.081V9.49h1.626v1.863h-1.626V16.1a1.133,1.133,0,0,0,.2.756,1.015,1.015,0,0,0,.773.229,4.051,4.051,0,0,0,.747-.062v1.925a5.229,5.229,0,0,1-1.538.229,2.425,2.425,0,0,1-2.725-2.7V11.354h-1.389V9.49h1.389V7.152Zm2.427,7a5.64,5.64,0,0,1,.545-2.522,3.989,3.989,0,0,1,1.569-1.714,4.577,4.577,0,0,1,2.377-.606,4.33,4.33,0,0,1,3.142,1.178,4.727,4.727,0,0,1,1.358,3.2l.018.65a4.97,4.97,0,0,1-1.222,3.511,4.735,4.735,0,0,1-6.561,0,5.058,5.058,0,0,1-1.226-3.586Zm2.54.18a3.555,3.555,0,0,0,.51,2.073,1.831,1.831,0,0,0,2.9.009,3.89,3.89,0,0,0,.519-2.267,3.519,3.519,0,0,0-.519-2.06,1.686,1.686,0,0,0-1.459-.731,1.658,1.658,0,0,0-1.441.726A3.955,3.955,0,0,0,145.373,14.338ZM158.6,16.372a.818.818,0,0,0-.461-.734,5.241,5.241,0,0,0-1.481-.479q-3.393-.712-3.393-2.883a2.613,2.613,0,0,1,1.05-2.114,4.237,4.237,0,0,1,2.747-.848,4.56,4.56,0,0,1,2.9.853,2.687,2.687,0,0,1,1.085,2.215h-2.54a1.229,1.229,0,0,0-.352-.9,1.488,1.488,0,0,0-1.1-.356,1.52,1.52,0,0,0-.993.29.916.916,0,0,0-.352.738.783.783,0,0,0,.4.681,4.114,4.114,0,0,0,1.349.448,11.019,11.019,0,0,1,1.6.426,2.628,2.628,0,0,1,2.013,2.558,2.481,2.481,0,0,1-1.116,2.1,4.815,4.815,0,0,1-2.883.8,5.029,5.029,0,0,1-2.123-.426,3.561,3.561,0,0,1-1.455-1.169,2.716,2.716,0,0,1-.527-1.6h2.408a1.326,1.326,0,0,0,.5,1.037,1.987,1.987,0,0,0,1.248.36,1.839,1.839,0,0,0,1.1-.277A.861.861,0,0,0,158.6,16.372Z" transform="translate(7517.777 -6168.5)" fill="#12263f"/>
    <path id="Trazado_1032929" data-name="Trazado 1032929" d="M41.136,14.491V19H38.5V6.2h4.992a5.776,5.776,0,0,1,2.536.527,3.886,3.886,0,0,1,1.683,1.5,4.178,4.178,0,0,1,.589,2.21,3.674,3.674,0,0,1-1.288,2.966,5.363,5.363,0,0,1-3.564,1.085Zm0-2.136h2.355a2.316,2.316,0,0,0,1.6-.492,1.79,1.79,0,0,0,.549-1.406,2.111,2.111,0,0,0-.554-1.521,2.068,2.068,0,0,0-1.529-.6H41.136Zm14.2-.483a6.9,6.9,0,0,0-.914-.07,1.86,1.86,0,0,0-1.89.976V19h-2.54V9.49h2.4l.07,1.134a2.354,2.354,0,0,1,2.118-1.31,2.662,2.662,0,0,1,.791.114Zm6.962,6.161a3.185,3.185,0,0,1-2.6,1.143,3,3,0,0,1-2.333-.879,3.752,3.752,0,0,1-.822-2.575V9.49h2.54v6.151q0,1.487,1.354,1.487a1.834,1.834,0,0,0,1.775-.9V9.49h2.549V19H62.364Zm8.8,1.143a4.668,4.668,0,0,1-3.406-1.283,4.561,4.561,0,0,1-1.314-3.419v-.246a5.745,5.745,0,0,1,.554-2.562A4.064,4.064,0,0,1,68.5,9.925a4.4,4.4,0,0,1,2.316-.611,3.947,3.947,0,0,1,3.072,1.23A5,5,0,0,1,75,14.034v1.037H68.948a2.36,2.36,0,0,0,.743,1.494,2.245,2.245,0,0,0,1.569.563,2.742,2.742,0,0,0,2.294-1.063l1.248,1.4a3.813,3.813,0,0,1-1.547,1.261A5.075,5.075,0,0,1,71.092,19.176Zm-.29-7.813a1.587,1.587,0,0,0-1.226.512,2.651,2.651,0,0,0-.6,1.466h3.533v-.2a1.891,1.891,0,0,0-.457-1.311A1.638,1.638,0,0,0,70.8,11.362Zm14.257,2.971a5.758,5.758,0,0,1-.976,3.564,3.231,3.231,0,0,1-2.725,1.279,2.969,2.969,0,0,1-2.47-1.187L78.775,19H76.49V5.5h2.54v4.843a2.893,2.893,0,0,1,2.312-1.028,3.258,3.258,0,0,1,2.729,1.279,5.767,5.767,0,0,1,.989,3.6Zm-2.54-.185a3.783,3.783,0,0,0-.457-2.1A1.545,1.545,0,0,0,80.7,11.38a1.676,1.676,0,0,0-1.67.993v3.753a1.7,1.7,0,0,0,1.688,1,1.568,1.568,0,0,0,1.617-1.213A6.257,6.257,0,0,0,82.519,14.148ZM92.179,19a2.821,2.821,0,0,1-.255-.853,3.073,3.073,0,0,1-2.4,1.028,3.376,3.376,0,0,1-2.316-.809,2.6,2.6,0,0,1-.918-2.039,2.687,2.687,0,0,1,1.121-2.32,5.529,5.529,0,0,1,3.239-.817h1.169v-.545a1.567,1.567,0,0,0-.338-1.055,1.331,1.331,0,0,0-1.068-.4,1.513,1.513,0,0,0-1.006.308,1.045,1.045,0,0,0-.365.844H86.5a2.551,2.551,0,0,1,.51-1.529,3.37,3.37,0,0,1,1.441-1.1,5.253,5.253,0,0,1,2.092-.4,4.15,4.15,0,0,1,2.791.883,3.09,3.09,0,0,1,1.033,2.483V16.8a4.546,4.546,0,0,0,.378,2.048V19Zm-2.1-1.767a2.188,2.188,0,0,0,1.037-.25,1.645,1.645,0,0,0,.7-.672V14.676H90.87q-1.907,0-2.03,1.318l-.009.149a1.017,1.017,0,0,0,.334.782A1.3,1.3,0,0,0,90.079,17.233Zm11.436-.861a.818.818,0,0,0-.461-.734,5.241,5.241,0,0,0-1.481-.479q-3.393-.712-3.393-2.883a2.613,2.613,0,0,1,1.05-2.114,4.237,4.237,0,0,1,2.747-.848,4.56,4.56,0,0,1,2.9.853,2.687,2.687,0,0,1,1.085,2.215h-2.54a1.229,1.229,0,0,0-.352-.9,1.488,1.488,0,0,0-1.1-.356,1.52,1.52,0,0,0-.993.29.916.916,0,0,0-.352.738.783.783,0,0,0,.4.681,4.114,4.114,0,0,0,1.349.448,11.019,11.019,0,0,1,1.6.426,2.628,2.628,0,0,1,2.013,2.558,2.481,2.481,0,0,1-1.116,2.1,4.815,4.815,0,0,1-2.883.8,5.029,5.029,0,0,1-2.123-.426,3.561,3.561,0,0,1-1.455-1.169,2.716,2.716,0,0,1-.527-1.6h2.408a1.326,1.326,0,0,0,.5,1.037,1.987,1.987,0,0,0,1.248.36,1.839,1.839,0,0,0,1.1-.277A.861.861,0,0,0,101.514,16.372Z" transform="translate(7495.801 -5642.718)" fill="#12263f"/>
    <path id="Trazado_1032930" data-name="Trazado 1032930" d="M46.548,14.315h-2.1V19H41.811V6.2h4.755a5.375,5.375,0,0,1,3.5,1.011,3.488,3.488,0,0,1,1.23,2.856,3.937,3.937,0,0,1-.567,2.184,3.866,3.866,0,0,1-1.718,1.393l2.769,5.229V19h-2.83Zm-2.1-2.136h2.127a2.178,2.178,0,0,0,1.538-.505,1.806,1.806,0,0,0,.545-1.393,1.933,1.933,0,0,0-.514-1.424,2.137,2.137,0,0,0-1.578-.519H44.447Zm13.106,7a4.668,4.668,0,0,1-3.406-1.283,4.561,4.561,0,0,1-1.314-3.419v-.246a5.745,5.745,0,0,1,.554-2.562,4.064,4.064,0,0,1,1.569-1.74,4.4,4.4,0,0,1,2.316-.611,3.947,3.947,0,0,1,3.072,1.23,5,5,0,0,1,1.121,3.489v1.037H55.409a2.36,2.36,0,0,0,.743,1.494,2.245,2.245,0,0,0,1.569.563,2.742,2.742,0,0,0,2.294-1.063l1.248,1.4a3.813,3.813,0,0,1-1.547,1.261A5.075,5.075,0,0,1,57.553,19.176Zm-.29-7.813a1.587,1.587,0,0,0-1.226.512,2.651,2.651,0,0,0-.6,1.466h3.533v-.2a1.891,1.891,0,0,0-.457-1.311A1.638,1.638,0,0,0,57.263,11.362ZM68.1,16.372a.818.818,0,0,0-.461-.734,5.241,5.241,0,0,0-1.481-.479q-3.393-.712-3.393-2.883a2.613,2.613,0,0,1,1.05-2.114,4.237,4.237,0,0,1,2.747-.848,4.56,4.56,0,0,1,2.9.853,2.687,2.687,0,0,1,1.085,2.215H68a1.229,1.229,0,0,0-.352-.9,1.488,1.488,0,0,0-1.1-.356,1.52,1.52,0,0,0-.993.29.916.916,0,0,0-.352.738.783.783,0,0,0,.4.681,4.114,4.114,0,0,0,1.349.448,11.019,11.019,0,0,1,1.6.426,2.628,2.628,0,0,1,2.013,2.558,2.481,2.481,0,0,1-1.116,2.1,4.815,4.815,0,0,1-2.883.8,5.029,5.029,0,0,1-2.123-.426,3.561,3.561,0,0,1-1.455-1.169,2.716,2.716,0,0,1-.527-1.6h2.408a1.326,1.326,0,0,0,.5,1.037,1.987,1.987,0,0,0,1.248.36,1.839,1.839,0,0,0,1.1-.277A.861.861,0,0,0,68.1,16.372Zm12.71-2.039a5.7,5.7,0,0,1-1,3.52,3.2,3.2,0,0,1-2.694,1.323,2.963,2.963,0,0,1-2.329-1v4.482H72.25V9.49h2.355l.088.932A2.985,2.985,0,0,1,77.1,9.314a3.22,3.22,0,0,1,2.733,1.3,5.858,5.858,0,0,1,.976,3.586Zm-2.54-.185A3.743,3.743,0,0,0,77.8,12.1a1.532,1.532,0,0,0-1.367-.721,1.663,1.663,0,0,0-1.644.914v3.894a1.692,1.692,0,0,0,1.661.94Q78.271,17.128,78.271,14.148ZM87.94,19a2.821,2.821,0,0,1-.255-.853,3.073,3.073,0,0,1-2.4,1.028,3.376,3.376,0,0,1-2.316-.809,2.6,2.6,0,0,1-.918-2.039,2.687,2.687,0,0,1,1.121-2.32,5.529,5.529,0,0,1,3.239-.817H87.58v-.545a1.567,1.567,0,0,0-.338-1.055,1.331,1.331,0,0,0-1.068-.4,1.513,1.513,0,0,0-1.006.308,1.045,1.045,0,0,0-.365.844h-2.54a2.551,2.551,0,0,1,.51-1.529,3.37,3.37,0,0,1,1.441-1.1,5.253,5.253,0,0,1,2.092-.4A4.15,4.15,0,0,1,89.1,10.2a3.09,3.09,0,0,1,1.033,2.483V16.8a4.546,4.546,0,0,0,.378,2.048V19Zm-2.1-1.767a2.188,2.188,0,0,0,1.037-.25,1.645,1.645,0,0,0,.7-.672V14.676H86.63q-1.907,0-2.03,1.318l-.009.149a1.017,1.017,0,0,0,.334.782A1.3,1.3,0,0,0,85.839,17.233ZM94.805,19H92.256V5.5h2.549Zm1.741-4.825a5.731,5.731,0,0,1,1-3.542,3.237,3.237,0,0,1,2.729-1.318,2.913,2.913,0,0,1,2.294,1.037V5.5h2.549V19h-2.294l-.123-1.011a2.989,2.989,0,0,1-2.443,1.187,3.228,3.228,0,0,1-2.694-1.323A5.916,5.916,0,0,1,96.547,14.175Zm2.54.189a3.754,3.754,0,0,0,.466,2.051,1.517,1.517,0,0,0,1.354.713,1.7,1.7,0,0,0,1.661-.995V12.375a1.675,1.675,0,0,0-1.644-.995Q99.087,11.38,99.087,14.364Zm7.648-.207a5.64,5.64,0,0,1,.545-2.522,3.989,3.989,0,0,1,1.569-1.714,4.577,4.577,0,0,1,2.377-.606,4.33,4.33,0,0,1,3.142,1.178,4.727,4.727,0,0,1,1.358,3.2l.018.65a4.97,4.97,0,0,1-1.222,3.511,4.735,4.735,0,0,1-6.561,0,5.058,5.058,0,0,1-1.226-3.586Zm2.54.18a3.555,3.555,0,0,0,.51,2.073,1.831,1.831,0,0,0,2.9.009,3.89,3.89,0,0,0,.519-2.267,3.519,3.519,0,0,0-.519-2.06,1.686,1.686,0,0,0-1.459-.731,1.658,1.658,0,0,0-1.441.726A3.955,3.955,0,0,0,109.274,14.338ZM47.411,36.383a12.079,12.079,0,0,1,.473-3.391,9.85,9.85,0,0,1,1.41-2.953,6,6,0,0,1,1.945-1.875l.3.953a6.222,6.222,0,0,0-1.871,2.672,11.583,11.583,0,0,0-.8,4.023l-.008.664a11.643,11.643,0,0,0,1.1,5.234,6.252,6.252,0,0,0,1.578,2.078l-.3.883a6.192,6.192,0,0,1-1.984-1.937A10.859,10.859,0,0,1,47.411,36.383ZM53.2,41V29.625H56.92a4.317,4.317,0,0,1,2.785.766,2.759,2.759,0,0,1,.934,2.266,2.31,2.31,0,0,1-.453,1.41,2.937,2.937,0,0,1-1.234.949,2.638,2.638,0,0,1,1.457.98,2.814,2.814,0,0,1,.535,1.723,3.042,3.042,0,0,1-.992,2.406,4.1,4.1,0,0,1-2.8.875Zm1.5-5.32v4.094h2.477a2.385,2.385,0,0,0,1.652-.543,1.907,1.907,0,0,0,.605-1.5q0-2.055-2.234-2.055Zm0-1.2h2.266a2.375,2.375,0,0,0,1.574-.493,1.654,1.654,0,0,0,.59-1.339,1.626,1.626,0,0,0-.547-1.366,2.686,2.686,0,0,0-1.664-.427H54.7ZM68.194,41a3.036,3.036,0,0,1-.2-.891,3.225,3.225,0,0,1-2.406,1.047,2.984,2.984,0,0,1-2.051-.707,2.287,2.287,0,0,1-.8-1.793,2.39,2.39,0,0,1,1-2.051,4.733,4.733,0,0,1,2.824-.73h1.406v-.664A1.623,1.623,0,0,0,67.514,34a1.821,1.821,0,0,0-1.336-.449,2.107,2.107,0,0,0-1.3.391,1.151,1.151,0,0,0-.523.945H62.9a2,2,0,0,1,.449-1.223,3.066,3.066,0,0,1,1.219-.934,4.1,4.1,0,0,1,1.691-.344,3.342,3.342,0,0,1,2.289.73,2.635,2.635,0,0,1,.859,2.012v3.891a4.757,4.757,0,0,0,.3,1.852V41Zm-2.4-1.1a2.54,2.54,0,0,0,1.289-.352,2.127,2.127,0,0,0,.883-.914V36.9H66.835q-2.656,0-2.656,1.555a1.316,1.316,0,0,0,.453,1.063A1.742,1.742,0,0,0,65.8,39.9Zm9.313.078a2.082,2.082,0,0,0,1.352-.469,1.649,1.649,0,0,0,.641-1.172h1.367a2.621,2.621,0,0,1-.5,1.383,3.293,3.293,0,0,1-1.23,1.047,3.55,3.55,0,0,1-1.629.391A3.482,3.482,0,0,1,72.363,40a4.59,4.59,0,0,1-1.02-3.152v-.242a5.089,5.089,0,0,1,.453-2.2,3.451,3.451,0,0,1,1.3-1.492,3.7,3.7,0,0,1,2-.531,3.39,3.39,0,0,1,2.363.852,3.043,3.043,0,0,1,1,2.211H77.1a1.992,1.992,0,0,0-.621-1.348,1.932,1.932,0,0,0-1.379-.527,2.023,2.023,0,0,0-1.707.793,3.724,3.724,0,0,0-.605,2.293v.273a3.65,3.65,0,0,0,.6,2.25A2.033,2.033,0,0,0,75.109,39.977Zm7.384-2.891-.906.945V41H80.141V29h1.445v7.258l.773-.93,2.633-2.781H86.75l-3.289,3.531L87.133,41h-1.7ZM93.5,40.164a3.07,3.07,0,0,1-2.477.992,2.628,2.628,0,0,1-2.059-.785,3.4,3.4,0,0,1-.715-2.324v-5.5H89.7v5.461q0,1.922,1.563,1.922a2.163,2.163,0,0,0,2.2-1.234V32.547h1.445V41H93.533Zm10.782-3.3a5.062,5.062,0,0,1-.883,3.109,2.829,2.829,0,0,1-2.391,1.18,3.1,3.1,0,0,1-2.422-.977v4.07H97.143v-11.7h1.32l.07.938a2.977,2.977,0,0,1,2.453-1.094,2.882,2.882,0,0,1,2.41,1.148,5.117,5.117,0,0,1,.887,3.2Zm-1.445-.164a3.735,3.735,0,0,0-.609-2.258,1.963,1.963,0,0,0-1.672-.828,2.125,2.125,0,0,0-1.969,1.164V38.82a2.129,2.129,0,0,0,1.984,1.156,1.954,1.954,0,0,0,1.652-.824A4.077,4.077,0,0,0,102.838,36.7Zm6.657-.242a12.085,12.085,0,0,1-.457,3.34,9.876,9.876,0,0,1-1.4,2.949,6.127,6.127,0,0,1-1.973,1.922l-.3-.883a6.281,6.281,0,0,0,1.934-2.863,12.387,12.387,0,0,0,.746-4.309v-.25a12.861,12.861,0,0,0-.344-3.051,10.3,10.3,0,0,0-.957-2.527,5.838,5.838,0,0,0-1.379-1.742l.3-.883a6.1,6.1,0,0,1,1.965,1.906,9.9,9.9,0,0,1,1.4,2.945A12.363,12.363,0,0,1,109.5,36.461Z" transform="translate(7360.301 -5642.718)" fill="#12263f"/>
    <path id="Trazado_1032931" data-name="Trazado 1032931" d="M9.175,14.315h-2.1V19H4.438V6.2H9.193a5.375,5.375,0,0,1,3.5,1.011,3.488,3.488,0,0,1,1.23,2.856,3.937,3.937,0,0,1-.567,2.184,3.866,3.866,0,0,1-1.718,1.393L14.4,18.877V19h-2.83Zm-2.1-2.136H9.2a2.178,2.178,0,0,0,1.538-.505,1.806,1.806,0,0,0,.545-1.393,1.933,1.933,0,0,0-.514-1.424,2.137,2.137,0,0,0-1.578-.519H7.075Zm13.106,7a4.668,4.668,0,0,1-3.406-1.283,4.561,4.561,0,0,1-1.314-3.419v-.246a5.745,5.745,0,0,1,.554-2.562,4.064,4.064,0,0,1,1.569-1.74A4.4,4.4,0,0,1,19.9,9.314a3.947,3.947,0,0,1,3.072,1.23,5,5,0,0,1,1.121,3.489v1.037H18.036a2.36,2.36,0,0,0,.743,1.494,2.245,2.245,0,0,0,1.569.563,2.742,2.742,0,0,0,2.294-1.063l1.248,1.4a3.813,3.813,0,0,1-1.547,1.261A5.075,5.075,0,0,1,20.18,19.176Zm-.29-7.813a1.587,1.587,0,0,0-1.226.512,2.651,2.651,0,0,0-.6,1.466H21.6v-.2a1.891,1.891,0,0,0-.457-1.311A1.638,1.638,0,0,0,19.89,11.362Zm9.643,5.766a1.666,1.666,0,0,0,1.143-.387,1.355,1.355,0,0,0,.457-1.028h2.382a3.258,3.258,0,0,1-.527,1.771,3.48,3.48,0,0,1-1.419,1.248,4.442,4.442,0,0,1-1.991.444,4.129,4.129,0,0,1-3.217-1.3A5.13,5.13,0,0,1,25.182,14.3v-.167a5.071,5.071,0,0,1,1.169-3.507,4.08,4.08,0,0,1,3.208-1.31A4,4,0,0,1,32.42,10.33a3.594,3.594,0,0,1,1.094,2.7H31.132a1.745,1.745,0,0,0-.457-1.206,1.7,1.7,0,0,0-2.5.183,3.749,3.749,0,0,0-.453,2.1v.264a3.8,3.8,0,0,0,.448,2.113A1.549,1.549,0,0,0,29.533,17.128Zm11.172.905a3.185,3.185,0,0,1-2.6,1.143A3,3,0,0,1,35.77,18.3a3.752,3.752,0,0,1-.822-2.575V9.49h2.54v6.151q0,1.487,1.354,1.487a1.834,1.834,0,0,0,1.775-.9V9.49h2.549V19H40.775Zm12.982-3.7a5.7,5.7,0,0,1-1,3.52A3.2,3.2,0,0,1,50,19.176a2.963,2.963,0,0,1-2.329-1v4.482h-2.54V9.49h2.355l.088.932a2.985,2.985,0,0,1,2.408-1.107,3.22,3.22,0,0,1,2.733,1.3,5.858,5.858,0,0,1,.976,3.586Zm-2.54-.185a3.743,3.743,0,0,0-.47-2.048,1.532,1.532,0,0,0-1.367-.721,1.663,1.663,0,0,0-1.644.914v3.894a1.692,1.692,0,0,0,1.661.94Q51.147,17.128,51.147,14.148Zm8.535,5.027a4.668,4.668,0,0,1-3.406-1.283,4.561,4.561,0,0,1-1.314-3.419v-.246a5.745,5.745,0,0,1,.554-2.562,4.064,4.064,0,0,1,1.569-1.74A4.4,4.4,0,0,1,59.4,9.314a3.947,3.947,0,0,1,3.072,1.23,5,5,0,0,1,1.121,3.489v1.037H57.538a2.36,2.36,0,0,0,.743,1.494,2.245,2.245,0,0,0,1.569.563,2.742,2.742,0,0,0,2.294-1.063l1.248,1.4a3.813,3.813,0,0,1-1.547,1.261A5.075,5.075,0,0,1,59.683,19.176Zm-.29-7.813a1.587,1.587,0,0,0-1.226.512,2.651,2.651,0,0,0-.6,1.466H61.1v-.2a1.891,1.891,0,0,0-.457-1.311A1.638,1.638,0,0,0,59.392,11.362Zm11.031.51a6.9,6.9,0,0,0-.914-.07,1.86,1.86,0,0,0-1.89.976V19H65.08V9.49h2.4l.07,1.134a2.354,2.354,0,0,1,2.118-1.31,2.662,2.662,0,0,1,.791.114ZM76.938,19a2.821,2.821,0,0,1-.255-.853,3.073,3.073,0,0,1-2.4,1.028,3.376,3.376,0,0,1-2.316-.809,2.6,2.6,0,0,1-.918-2.039,2.687,2.687,0,0,1,1.121-2.32,5.529,5.529,0,0,1,3.239-.817h1.169v-.545a1.567,1.567,0,0,0-.338-1.055,1.331,1.331,0,0,0-1.068-.4,1.513,1.513,0,0,0-1.006.308,1.045,1.045,0,0,0-.365.844H71.26a2.551,2.551,0,0,1,.51-1.529,3.37,3.37,0,0,1,1.441-1.1,5.253,5.253,0,0,1,2.092-.4,4.15,4.15,0,0,1,2.791.883,3.09,3.09,0,0,1,1.033,2.483V16.8a4.546,4.546,0,0,0,.378,2.048V19Zm-2.1-1.767a2.188,2.188,0,0,0,1.037-.25,1.645,1.645,0,0,0,.7-.672V14.676h-.949q-1.907,0-2.03,1.318l-.009.149a1.017,1.017,0,0,0,.334.782A1.3,1.3,0,0,0,74.837,17.233Zm10.24-.105a1.666,1.666,0,0,0,1.143-.387,1.355,1.355,0,0,0,.457-1.028h2.382a3.258,3.258,0,0,1-.527,1.771,3.48,3.48,0,0,1-1.419,1.248,4.442,4.442,0,0,1-1.991.444,4.129,4.129,0,0,1-3.217-1.3A5.13,5.13,0,0,1,80.727,14.3v-.167A5.071,5.071,0,0,1,81.9,10.624,4.08,4.08,0,0,1,85.1,9.314a4,4,0,0,1,2.861,1.015,3.594,3.594,0,0,1,1.094,2.7H86.677a1.745,1.745,0,0,0-.457-1.206,1.7,1.7,0,0,0-2.5.183,3.749,3.749,0,0,0-.453,2.1v.264a3.8,3.8,0,0,0,.448,2.113A1.549,1.549,0,0,0,85.077,17.128ZM93.235,19H90.686V9.49h2.549Zm-2.7-11.971a1.251,1.251,0,0,1,.382-.94,1.648,1.648,0,0,1,2.079,0,1.244,1.244,0,0,1,.387.94,1.247,1.247,0,0,1-.391.949,1.629,1.629,0,0,1-2.065,0A1.247,1.247,0,0,1,90.536,7.029Zm4.44,7.128a5.64,5.64,0,0,1,.545-2.522A3.989,3.989,0,0,1,97.09,9.921a4.577,4.577,0,0,1,2.377-.606,4.33,4.33,0,0,1,3.142,1.178,4.727,4.727,0,0,1,1.358,3.2l.018.65a4.97,4.97,0,0,1-1.222,3.511,4.735,4.735,0,0,1-6.561,0,5.058,5.058,0,0,1-1.226-3.586Zm2.54.18a3.555,3.555,0,0,0,.51,2.073,1.831,1.831,0,0,0,2.9.009,3.89,3.89,0,0,0,.519-2.267,3.519,3.519,0,0,0-.519-2.06,1.686,1.686,0,0,0-1.459-.731,1.658,1.658,0,0,0-1.441.726A3.955,3.955,0,0,0,97.516,14.338ZM99.968,5.5h2.769L100.3,8.225H98.237Zm7.964,3.99.079,1.1a3.32,3.32,0,0,1,2.733-1.274,2.759,2.759,0,0,1,2.25.888,4.142,4.142,0,0,1,.756,2.654V19h-2.54V12.918a1.648,1.648,0,0,0-.352-1.173,1.574,1.574,0,0,0-1.169-.365,1.747,1.747,0,0,0-1.608.914V19h-2.54V9.49Zm-80.9,26.893a12.079,12.079,0,0,1,.473-3.391,9.85,9.85,0,0,1,1.41-2.953,6,6,0,0,1,1.945-1.875l.3.953a6.222,6.222,0,0,0-1.871,2.672,11.583,11.583,0,0,0-.8,4.023l-.008.664a11.643,11.643,0,0,0,1.1,5.234,6.252,6.252,0,0,0,1.578,2.078l-.3.883a6.192,6.192,0,0,1-1.984-1.937A10.859,10.859,0,0,1,27.031,36.383Zm9.962.016H34.321V41H32.814V29.625h3.766a4.457,4.457,0,0,1,2.957.875,3.148,3.148,0,0,1,1.035,2.547A3.062,3.062,0,0,1,40,34.9a3.428,3.428,0,0,1-1.6,1.18l2.672,4.828V41H39.462Zm-2.672-1.227h2.3a2.6,2.6,0,0,0,1.777-.579,1.959,1.959,0,0,0,.66-1.55,2.062,2.062,0,0,0-.629-1.62,2.663,2.663,0,0,0-1.816-.571h-2.3Zm11.673,5.984a3.693,3.693,0,0,1-2.8-1.129,4.19,4.19,0,0,1-1.078-3.02v-.266A5.073,5.073,0,0,1,42.6,34.5a3.748,3.748,0,0,1,1.344-1.547,3.378,3.378,0,0,1,1.871-.559,3.166,3.166,0,0,1,2.563,1.086,4.7,4.7,0,0,1,.914,3.109v.6H43.565a3,3,0,0,0,.73,2.02,2.3,2.3,0,0,0,1.777.77,2.517,2.517,0,0,0,1.3-.312,3.258,3.258,0,0,0,.93-.828l.883.688A3.55,3.55,0,0,1,45.994,41.156Zm-.18-7.578a1.928,1.928,0,0,0-1.469.637A3.1,3.1,0,0,0,43.611,36h4.234v-.109a2.753,2.753,0,0,0-.594-1.707A1.815,1.815,0,0,0,45.815,33.578Zm10.11,5.18a1.064,1.064,0,0,0-.441-.91,4.249,4.249,0,0,0-1.539-.559,7.277,7.277,0,0,1-1.742-.562,2.479,2.479,0,0,1-.953-.781,1.869,1.869,0,0,1-.309-1.078,2.193,2.193,0,0,1,.879-1.758,3.432,3.432,0,0,1,2.246-.719,3.532,3.532,0,0,1,2.332.742,2.357,2.357,0,0,1,.895,1.9H55.839a1.3,1.3,0,0,0-.5-1.023,1.888,1.888,0,0,0-1.27-.43,1.976,1.976,0,0,0-1.234.344,1.082,1.082,0,0,0-.445.9.877.877,0,0,0,.414.789,5.1,5.1,0,0,0,1.5.508,7.8,7.8,0,0,1,1.754.578,2.558,2.558,0,0,1,1,.809,1.988,1.988,0,0,1,.324,1.152,2.163,2.163,0,0,1-.906,1.816,3.8,3.8,0,0,1-2.352.684,4.257,4.257,0,0,1-1.8-.359,2.922,2.922,0,0,1-1.223-1,2.42,2.42,0,0,1-.441-1.395H52.1a1.5,1.5,0,0,0,.582,1.152,2.258,2.258,0,0,0,1.434.426,2.331,2.331,0,0,0,1.316-.332A1.02,1.02,0,0,0,55.925,38.758ZM61.254,30.5v2.047h1.578v1.117H61.254v5.249a1.173,1.173,0,0,0,.211.763.888.888,0,0,0,.719.254,3.5,3.5,0,0,0,.688-.094V41a4.215,4.215,0,0,1-1.109.155A1.8,1.8,0,0,1,60.3,40.57a2.517,2.517,0,0,1-.492-1.664V33.664H58.27V32.547h1.539V30.5Zm2.767,6.2a4.993,4.993,0,0,1,.488-2.234,3.643,3.643,0,0,1,1.359-1.531,3.7,3.7,0,0,1,1.988-.539,3.565,3.565,0,0,1,2.793,1.2,4.6,4.6,0,0,1,1.066,3.18v.1a5.036,5.036,0,0,1-.473,2.215,3.589,3.589,0,0,1-1.352,1.527,3.743,3.743,0,0,1-2.02.547,3.556,3.556,0,0,1-2.785-1.2A4.575,4.575,0,0,1,64.02,36.8Zm1.453.172a3.616,3.616,0,0,0,.652,2.258,2.211,2.211,0,0,0,3.5-.012A3.955,3.955,0,0,0,70.27,36.7a3.61,3.61,0,0,0-.66-2.254,2.1,2.1,0,0,0-1.754-.863,2.075,2.075,0,0,0-1.727.852A3.925,3.925,0,0,0,65.474,36.867Zm12.181-3.023a4.331,4.331,0,0,0-.711-.055A1.9,1.9,0,0,0,75.014,35v6H73.568V32.547h1.406l.023.977a2.251,2.251,0,0,1,2.016-1.133,1.477,1.477,0,0,1,.641.109Zm4.876,7.313a3.693,3.693,0,0,1-2.8-1.129,4.19,4.19,0,0,1-1.078-3.02v-.266a5.073,5.073,0,0,1,.48-2.246,3.748,3.748,0,0,1,1.344-1.547,3.378,3.378,0,0,1,1.871-.559,3.166,3.166,0,0,1,2.563,1.086,4.7,4.7,0,0,1,.914,3.109v.6H80.1a3,3,0,0,0,.73,2.02,2.3,2.3,0,0,0,1.777.77,2.517,2.517,0,0,0,1.3-.312,3.259,3.259,0,0,0,.93-.828l.883.688A3.55,3.55,0,0,1,82.53,41.156Zm-.18-7.578a1.928,1.928,0,0,0-1.469.637A3.1,3.1,0,0,0,80.147,36h4.234v-.109a2.753,2.753,0,0,0-.594-1.707A1.815,1.815,0,0,0,82.35,33.578Zm8.524,2.883a12.085,12.085,0,0,1-.457,3.34,9.876,9.876,0,0,1-1.4,2.949,6.127,6.127,0,0,1-1.973,1.922l-.3-.883a6.281,6.281,0,0,0,1.934-2.863,12.387,12.387,0,0,0,.746-4.309v-.25a12.861,12.861,0,0,0-.344-3.051,10.3,10.3,0,0,0-.957-2.527,5.838,5.838,0,0,0-1.379-1.742l.3-.883a6.1,6.1,0,0,1,1.965,1.906,9.9,9.9,0,0,1,1.4,2.945A12.363,12.363,0,0,1,90.875,36.461Z" transform="translate(7312 -6168)" fill="#12263f"/>
    <g id="Grupo_1185985" data-name="Grupo 1185985" transform="translate(-937 -492)">
      <circle id="Elipse_13753" data-name="Elipse 13753" cx="152" cy="152" r="152" transform="translate(8283 -5520)" fill="#fff"/>
      <g id="Grupo_1185958" data-name="Grupo 1185958" transform="translate(8578.288 -5225.156) rotate(180)">
        <g id="Grupo_1185957" data-name="Grupo 1185957" clip-path="url(#clip-path)">
          <path id="Trazado_1031884" data-name="Trazado 1031884" d="M60.867,117.02l60.622-19.7a9.084,9.084,0,0,0,5.5-12.266C106.2,36.835,62.252,4.9,9.969.04A9.082,9.082,0,0,0,0,9.055V72.944a9.089,9.089,0,0,0,7.46,8.909A61.954,61.954,0,0,1,50.094,112.7a9.11,9.11,0,0,0,10.773,4.322" transform="translate(147.35 0)" fill="#63b2e8"/>
          <path id="Trazado_1031885" data-name="Trazado 1031885" d="M38.959,3.707,1.727,54.953A9.083,9.083,0,0,0,4.492,68.107c45.158,26.8,99.48,26.794,144.639,0A9.083,9.083,0,0,0,151.9,54.953L114.665,3.707A9.122,9.122,0,0,0,103.322.912a61.572,61.572,0,0,1-26.51,5.965A61.566,61.566,0,0,1,50.3.912,9.122,9.122,0,0,0,38.959,3.707" transform="translate(66.476 197.692)" fill="#69d7e5"/>
          <path id="Trazado_1031886" data-name="Trazado 1031886" d="M81.387,38.065a62.361,62.361,0,0,1,.52-8.057,9.109,9.109,0,0,0-6.165-9.9L15.225.446A9.082,9.082,0,0,0,3.571,7.141C-7.96,58.37,8.826,110.034,48.267,144.7a9.082,9.082,0,0,0,13.364-1.434L98.9,91.965A9.12,9.12,0,0,0,98.1,80.354,61.665,61.665,0,0,1,81.387,38.065" transform="translate(0 104.603)" fill="#e569d4"/>
          <path id="Trazado_1031887" data-name="Trazado 1031887" d="M85.393.446,24.877,20.109a9.112,9.112,0,0,0-6.166,9.9,62.358,62.358,0,0,1,.521,8.057A61.662,61.662,0,0,1,2.522,80.354a9.12,9.12,0,0,0-.809,11.61l37.274,51.3A9.081,9.081,0,0,0,52.351,144.7c39.441-34.668,56.228-86.332,44.7-137.561A9.083,9.083,0,0,0,85.393.446" transform="translate(185.958 104.603)" fill="#9a69e5"/>
          <path id="Trazado_1031888" data-name="Trazado 1031888" d="M127.74,72.944V9.055A9.083,9.083,0,0,0,117.77.04C65.488,4.9,21.538,36.835.755,85.057A9.083,9.083,0,0,0,6.248,97.323l60.623,19.7A9.11,9.11,0,0,0,77.644,112.7a61.945,61.945,0,0,1,42.635-30.845,9.089,9.089,0,0,0,7.46-8.909" transform="translate(11.487 0)" fill="#69e59b"/>
        </g>
      </g>
      <g id="Grupo_1185899" data-name="Grupo 1185899" transform="translate(8517.569 -5322.629) rotate(-71)">
        <path id="flecha-izquierda" d="M6.544,6.853c21.671-.026,21.666,3.793,0,3.819l3.595,3.584a1.915,1.915,0,0,1-2.712,2.7L.562,10.12a1.905,1.905,0,0,1,0-2.7L7.442.564a1.91,1.91,0,1,1,2.705,2.7Z" transform="translate(0 0)" fill="#344866" fill-rule="evenodd"/>
        <path id="Trazado_1031908" data-name="Trazado 1031908" d="M1.268.029,20.1.007a1.259,1.259,0,0,1,1.263,1.26v.773A1.267,1.267,0,0,1,20.093,3.3L1.264,3.325A1.259,1.259,0,0,1,0,2.065V1.292A1.267,1.267,0,0,1,1.268.029Z" transform="translate(25.319 10.418) rotate(180)" fill="#344866"/>
      </g>
      <g id="Grupo_1185959" data-name="Grupo 1185959" transform="translate(8420.061 -5273)">
        <path id="flecha-izquierda-2" data-name="flecha-izquierda" d="M6.516,6.871c21.6,0,21.6,3.832,0,3.832L10.1,14.3a1.912,1.912,0,1,1-2.7,2.71L.559,10.142a1.921,1.921,0,0,1,0-2.71L7.4.561a1.912,1.912,0,0,1,2.7,2.71Z" transform="translate(0 0)" fill="#344866" fill-rule="evenodd"/>
        <rect id="Rectángulo_459221" data-name="Rectángulo 459221" width="21.285" height="3.307" rx="1.5" transform="translate(25.228 10.441) rotate(180)" fill="#344866"/>
      </g>
      <g id="Grupo_1185960" data-name="Grupo 1185960" transform="matrix(0.326, 0.946, -0.946, 0.326, 8341.718, -5353.885)">
        <path id="flecha-izquierda-3" data-name="flecha-izquierda" d="M6.534,6.842c21.671.026,21.676,3.845,0,3.819l3.6,3.592a1.91,1.91,0,1,1-2.705,2.7L.56,10.094a1.905,1.905,0,0,1,0-2.7L7.417.555a1.915,1.915,0,0,1,2.712,2.7Z" transform="translate(0 0)" fill="#344866" fill-rule="evenodd"/>
        <path id="Trazado_1031909" data-name="Trazado 1031909" d="M1.263,0,20.092.022a1.267,1.267,0,0,1,1.266,1.263v.773A1.259,1.259,0,0,1,20.1,3.318L1.267,3.3A1.267,1.267,0,0,1,0,2.033V1.259A1.259,1.259,0,0,1,1.263,0Z" transform="translate(25.313 10.42) rotate(180)" fill="#344866"/>
      </g>
      <g id="Grupo_1185961" data-name="Grupo 1185961" transform="matrix(-0.819, 0.574, -0.574, -0.819, 8391.728, -5452.638)">
        <path id="flecha-izquierda-4" data-name="flecha-izquierda" d="M6.533,6.871c21.624-.039,21.617,3.788-.007,3.828l3.584,3.589A1.916,1.916,0,0,1,7.4,17L.562,10.149a1.915,1.915,0,0,1,0-2.706L7.433.567a1.909,1.909,0,1,1,2.7,2.7Z" transform="translate(0 0)" fill="#344866" fill-rule="evenodd"/>
        <path id="Trazado_1031904" data-name="Trazado 1031904" d="M1.267.044,20.055.01a1.258,1.258,0,0,1,1.26,1.262v.775a1.269,1.269,0,0,1-1.265,1.266L1.261,3.347A1.258,1.258,0,0,1,0,2.085V1.31A1.269,1.269,0,0,1,1.267.044Z" transform="translate(25.266 10.448) rotate(180)" fill="#344866"/>
      </g>
      <g id="Grupo_1185962" data-name="Grupo 1185962" transform="translate(8506.793 -5436.159) rotate(-150)">
        <path id="flecha-izquierda-5" data-name="flecha-izquierda" d="M6.516,6.857c21.617.036,21.623,3.865.006,3.829l3.6,3.6a1.909,1.909,0,1,1-2.7,2.7L.558,10.114a1.917,1.917,0,0,1,0-2.707L7.393.554A1.915,1.915,0,0,1,10.1,3.266Z" transform="translate(0 0)" fill="#344866" fill-rule="evenodd"/>
        <path id="Trazado_1031907" data-name="Trazado 1031907" d="M1.259,0,20.041.031A1.268,1.268,0,0,1,21.305,1.3v.775a1.258,1.258,0,0,1-1.26,1.262L1.265,3.3A1.268,1.268,0,0,1,0,2.037V1.262A1.258,1.258,0,0,1,1.259,0Z" transform="translate(25.248 10.452) rotate(180)" fill="#344866"/>
      </g>
      <circle id="Elipse_13754" data-name="Elipse 13754" cx="49" cy="49" r="49" transform="translate(8386 -5417)" fill="#d5f4f8"/>
      <g id="candado-abierto" transform="translate(8341.773 -5494.63)">
        <g id="Grupo_1185974" data-name="Grupo 1185974" transform="translate(77.125 0)">
          <path id="Trazado_1031930" data-name="Trazado 1031930" d="M109.049,19.708h-22.1V12.586a7.678,7.678,0,0,1,5.894-7.613,7.523,7.523,0,0,1,8.84,7.367,2.456,2.456,0,1,0,4.911,0A12.331,12.331,0,0,0,93.087.062,12.75,12.75,0,0,0,82.036,12.832v6.876H79.581a2.461,2.461,0,0,0-2.456,2.456V46.72a2.641,2.641,0,0,0,2.456,2.456h29.468A2.461,2.461,0,0,0,111.5,46.72V22.163A2.32,2.32,0,0,0,109.049,19.708ZM96.77,36.161v3.192a2.456,2.456,0,1,1-4.911,0V36.161A5.065,5.065,0,0,1,89.4,31.986a4.865,4.865,0,0,1,6.139-4.666A5.535,5.535,0,0,1,99.226,31,4.781,4.781,0,0,1,96.77,36.161Z" transform="translate(-77.125 0)" fill="#344866"/>
        </g>
      </g>
      <g id="insignia" transform="translate(8506.902 -5457.37)">
        <path id="Trazado_1031931" data-name="Trazado 1031931" d="M372.186,322.9l-4.9-4.9a9.7,9.7,0,0,1-1.716,4.7,10.908,10.908,0,0,1-4.947,3.422,9.415,9.415,0,0,0-1.249.583,9.574,9.574,0,0,0-.922.965,18.409,18.409,0,0,1-1.813,1.85l4.46,4.46a1.547,1.547,0,0,0,2.551-.576l2.087-5.87,5.87-2.087A1.553,1.553,0,0,0,372.186,322.9Z" transform="translate(-319.863 -254.382)" fill="#344866"/>
        <path id="Trazado_1031932" data-name="Trazado 1031932" d="M169.6,131.36a9.911,9.911,0,0,0-9.9,9.9c.5,13.116,19.3,13.112,19.8,0A9.911,9.911,0,0,0,169.6,131.36Zm5.656,7.854-5.694,6.188a1.547,1.547,0,0,1-2.262.015l-3.342-3.536a1.547,1.547,0,0,1,2.248-2.125l2.2,2.33,4.571-4.967a1.547,1.547,0,1,1,2.277,2.095Z" transform="translate(-143.229 -86.988)" fill="#344866"/>
        <path id="Trazado_1031933" data-name="Trazado 1031933" d="M85.5,69.809a9.883,9.883,0,0,1,1.855-.92,8.121,8.121,0,0,0,3.655-2.41c1.41-1.871,1.005-4.262,1.574-6.249a9.581,9.581,0,0,1,.918-1.76c2.039-3.11,2.036-5.289,0-8.4a9.576,9.576,0,0,1-.918-1.76,10.089,10.089,0,0,1-.338-2.053c-.24-3.669-1.459-5.3-4.891-6.606a9.885,9.885,0,0,1-1.855-.92A9.675,9.675,0,0,1,84.055,37.3c-2.319-2.8-4.238-3.471-7.786-2.529a6.991,6.991,0,0,1-4.238,0,8.071,8.071,0,0,0-4.294-.173,8.147,8.147,0,0,0-3.492,2.7A9.674,9.674,0,0,1,62.8,38.736c-1.729,1.124-4.131,1.434-5.51,3.33a8.1,8.1,0,0,0-1.236,4.2,10.087,10.087,0,0,1-.338,2.053,9.576,9.576,0,0,1-.918,1.76c-2.039,3.11-2.036,5.289,0,8.4a9.576,9.576,0,0,1,.918,1.76c.568,1.987.163,4.377,1.573,6.249a8.122,8.122,0,0,0,3.655,2.41,9.884,9.884,0,0,1,1.855.92c1.617,1.279,2.681,3.44,4.933,4.134a5.144,5.144,0,0,0,1.575.232,12.3,12.3,0,0,0,2.719-.4,6.991,6.991,0,0,1,4.238,0c3.555.944,5.467.268,7.786-2.529A9.684,9.684,0,0,1,85.5,69.809ZM74.15,67.266A13.009,13.009,0,0,1,61.156,54.272c.653-17.214,25.337-17.21,25.988,0A13.008,13.008,0,0,1,74.15,67.266Z" transform="translate(-47.781)" fill="#344866"/>
        <path id="Trazado_1031934" data-name="Trazado 1031934" d="M14.147,327.939a9.577,9.577,0,0,0-.922-.965c-2.031-1.055-4.343-1.529-6.2-4A9.673,9.673,0,0,1,5.316,318.3L.45,323.164a1.553,1.553,0,0,0,.576,2.551L6.9,327.8l2.087,5.87a1.547,1.547,0,0,0,2.551.576l4.444-4.444a18.306,18.306,0,0,1-1.831-1.866Z" transform="translate(0 -254.648)" fill="#344866"/>
      </g>
      <g id="engranaje_2_" data-name="engranaje (2)" transform="translate(8471.123 -5308.663)">
        <g id="Grupo_1185975" data-name="Grupo 1185975">
          <path id="Trazado_1031935" data-name="Trazado 1031935" d="M43.148,17.45H39.464a17.7,17.7,0,0,0-1.673-4.037L40.4,10.807a1.3,1.3,0,0,0,0-1.842L35.485,4.054a1.3,1.3,0,0,0-1.842,0L31.038,6.66A17.7,17.7,0,0,0,27,4.987V1.3A1.3,1.3,0,0,0,25.7,0H18.753a1.3,1.3,0,0,0-1.3,1.3V4.987A17.7,17.7,0,0,0,13.413,6.66L10.807,4.054a1.3,1.3,0,0,0-1.842,0L4.054,8.965a1.3,1.3,0,0,0,0,1.842L6.66,13.413A17.691,17.691,0,0,0,4.987,17.45H1.3a1.3,1.3,0,0,0-1.3,1.3V25.7A1.3,1.3,0,0,0,1.3,27H4.987A17.7,17.7,0,0,0,6.66,31.037L4.054,33.643a1.3,1.3,0,0,0,0,1.842L8.965,40.4a1.3,1.3,0,0,0,1.842,0l2.606-2.606a17.7,17.7,0,0,0,4.037,1.673v3.684a1.3,1.3,0,0,0,1.3,1.3H25.7a1.3,1.3,0,0,0,1.3-1.3V39.464a17.7,17.7,0,0,0,4.037-1.673L33.643,40.4a1.3,1.3,0,0,0,1.842,0L40.4,35.485a1.3,1.3,0,0,0,0-1.842L37.79,31.037A17.691,17.691,0,0,0,39.463,27h3.685a1.3,1.3,0,0,0,1.3-1.3V18.752A1.3,1.3,0,0,0,43.148,17.45ZM22.225,32.209a9.984,9.984,0,1,1,9.984-9.984A10,10,0,0,1,22.225,32.209Z" fill="#344866"/>
        </g>
      </g>
      <g id="disco-duro-externo" transform="translate(8344.336 -5316.663)">
        <path id="Trazado_1031936" data-name="Trazado 1031936" d="M33,17.6a.845.845,0,0,0,.845.845H40.6a.845.845,0,0,0,.845-.845V15.913H51.32a4.026,4.026,0,0,1,3.091,1.178,4.74,4.74,0,0,1,1,3.468H58.79a8.055,8.055,0,0,0-1.906-5.771,7.388,7.388,0,0,0-5.564-2.254H41.447V10.845A.845.845,0,0,0,40.6,10H33.845a.845.845,0,0,0-.845.845Z" transform="translate(-13.286)" fill="#344866"/>
        <path id="Trazado_1031937" data-name="Trazado 1031937" d="M20.845,12a.845.845,0,0,0-.845.845v5.068a.845.845,0,0,0,.845.845h1.689a.845.845,0,0,0,.845-.845V12.845A.845.845,0,0,0,22.534,12Z" transform="translate(-5.776 -1.155)" fill="#344866"/>
        <path id="Trazado_1031938" data-name="Trazado 1031938" d="M15.35,39H46.887a5.35,5.35,0,0,1,5.35,5.35V58.3a7.588,7.588,0,0,0-5.913-2.824H15.913A7.588,7.588,0,0,0,10,58.3V44.35A5.35,5.35,0,0,1,15.35,39Z" transform="translate(0 -16.751)" fill="#344866"/>
        <path id="Trazado_1031939" data-name="Trazado 1031939" d="M15.913,82h30.41a5.913,5.913,0,1,1,0,11.826H15.913a5.913,5.913,0,0,1,0-11.826Zm23.653,5.913a1.689,1.689,0,0,1,1.689-1.689H45.9a1.689,1.689,0,1,1,0,3.379H41.255A1.689,1.689,0,0,1,39.566,87.913Z" transform="translate(0 -41.59)" fill="#344866" fill-rule="evenodd"/>
      </g>
      <g id="computacion-en-la-nube_1_" data-name="computacion-en-la-nube (1)" transform="translate(8321.289 -5421.277)">
        <g id="Grupo_1185977" data-name="Grupo 1185977" transform="translate(0 0.277)">
          <g id="Grupo_1185976" data-name="Grupo 1185976">
            <path id="Trazado_1031940" data-name="Trazado 1031940" d="M35.987,8.849a10.069,10.069,0,0,0-9.755-7.622,9.962,9.962,0,0,0-5.043,1.35A8.813,8.813,0,0,0,6.443,8.793a8.81,8.81,0,0,0,2.366,17.3H33.428a8.81,8.81,0,0,0,2.559-17.24Z" transform="translate(0 -0.277)" fill="#344866"/>
          </g>
        </g>
        <g id="Grupo_1185979" data-name="Grupo 1185979" transform="translate(0 27.619)">
          <g id="Grupo_1185978" data-name="Grupo 1185978">
            <path id="Trazado_1031941" data-name="Trazado 1031941" d="M13.281,332.667v2.355H8.9a4.537,4.537,0,1,0,0,2.475h5.617a1.237,1.237,0,0,0,1.237-1.237v-3.593Z" transform="translate(0 -331.723)" fill="#344866"/>
          </g>
        </g>
        <g id="Grupo_1185981" data-name="Grupo 1185981" transform="translate(16.581 28.564)">
          <g id="Grupo_1185980" data-name="Grupo 1185980">
            <path id="Trazado_1031942" data-name="Trazado 1031942" d="M206.775,348.173v-5H204.3v5a4.537,4.537,0,1,0,2.475,0Z" transform="translate(-201 -343.17)" fill="#344866"/>
          </g>
        </g>
        <g id="Grupo_1185983" data-name="Grupo 1185983" transform="translate(26.481 27.619)">
          <g id="Grupo_1185982" data-name="Grupo 1185982">
            <path id="Trazado_1031943" data-name="Trazado 1031943" d="M332.219,331.723a4.544,4.544,0,0,0-4.364,3.3h-4.38v-2.355H321v3.593a1.237,1.237,0,0,0,1.237,1.237h5.617a4.537,4.537,0,1,0,4.364-5.774Z" transform="translate(-321 -331.723)" fill="#344866"/>
          </g>
        </g>
      </g>
    </g>
    <path id="Trazado_1031944" data-name="Trazado 1031944" d="M7395.5-5942.313l-30.486-30.486v-141.5" fill="none" stroke="#9a69e5" stroke-width="3"/>
    <path id="Trazado_1031945" data-name="Trazado 1031945" d="M7365.012-5942.313,7395.5-5972.8v-141.5" transform="translate(234.765)" fill="none" stroke="#e569d4" stroke-width="3"/>
    <path id="Trazado_1031946" data-name="Trazado 1031946" d="M7397-6076.187h-3V-6114.3h3Z" transform="translate(102.779 82)" fill="#69d7e5"/>
    <path id="Trazado_1031946-2" data-name="Trazado 1031946" d="M7397-6022.079h-3V-6114.3h3Z" transform="translate(14963.799 -11767.188) rotate(180)" fill="#69e59b"/>
    <path id="Trazado_1031946-3" data-name="Trazado 1031946" d="M7397-6022.079h-3V-6114.3h3Z" transform="translate(14832.799 -11767.188) rotate(180)" fill="#63b2e8"/>
    <path id="Trazado_1032932" data-name="Trazado 1032932" d="M5,0A5,5,0,1,1,0,5,5,5,0,0,1,5,0Z" transform="translate(7360 -6119)" fill="#9a69e5"/>
    <path id="Trazado_1032933" data-name="Trazado 1032933" d="M5,0A5,5,0,1,1,0,5,5,5,0,0,1,5,0Z" transform="translate(7625.275 -6119)" fill="#e569d4"/>
    <path id="Trazado_1032934" data-name="Trazado 1032934" d="M5,0A5,5,0,1,1,0,5,5,5,0,0,1,5,0Z" transform="translate(7493.289 -6037)" fill="#69d7e5"/>
    <path id="Trazado_1032935" data-name="Trazado 1032935" d="M5,0A5,5,0,1,1,0,5,5,5,0,0,1,5,0Z" transform="translate(7573.289 -5648.187) rotate(180)" fill="#69e59b"/>
    <path id="Trazado_1032936" data-name="Trazado 1032936" d="M5,0A5,5,0,1,1,0,5,5,5,0,0,1,5,0Z" transform="translate(7442.289 -5648.187) rotate(180)" fill="#63b2e8"/>
    <g id="sensible" transform="translate(7461.031 -5906.27)">
      <path id="Trazado_1031976" data-name="Trazado 1031976" d="M35.5,0C55.106,0,71,15.67,71,35S55.106,70,35.5,70,0,54.33,0,35,15.894,0,35.5,0Z" transform="translate(2.938 11.27)" fill="#fff"/>
      <rect id="Rectángulo_459282" data-name="Rectángulo 459282" width="11.357" height="5.949" transform="translate(26.797 61.063)" fill="#445ea0"/>
      <rect id="Rectángulo_459283" data-name="Rectángulo 459283" width="2.863" height="5.949" transform="translate(26.797 61.063)" fill="#2e4c89"/>
      <path id="Trazado_1031946-4" data-name="Trazado 1031946" d="M150.508,398.763H123.2a.738.738,0,0,0-.736.736v3.69a.738.738,0,0,0,.736.736h27.313v-5.162Z" transform="translate(-104.79 -331.894)" fill="#293d7c"/>
      <path id="Trazado_1031947" data-name="Trazado 1031947" d="M125.322,403.188V399.5a.738.738,0,0,1,.736-.736H123.2a.738.738,0,0,0-.736.736v3.69a.738.738,0,0,0,.736.736h2.863A.738.738,0,0,1,125.322,403.188Z" transform="translate(-104.79 -331.894)" fill="#1a2b63"/>
      <path id="Trazado_1031948" data-name="Trazado 1031948" d="M64.216,58.964H.736A.738.738,0,0,0,0,59.7v41.9a.738.738,0,0,0,.736.736H45.719V80.29a1.011,1.011,0,0,1,1.01-1.01H64.953V59.7A.738.738,0,0,0,64.216,58.964Z" transform="translate(0 -41.125)" fill="#293d7c"/>
      <path id="Trazado_1031949" data-name="Trazado 1031949" d="M22.4,137.786a.443.443,0,0,0,.442.442H64.883V123.105a1.011,1.011,0,0,1,1.01-1.01H80.886V109H22.4Z" transform="translate(-19.165 -83.939)" fill="#fff"/>
      <path id="Trazado_1031950" data-name="Trazado 1031950" d="M25.259,137.786V109H22.4v28.788a.443.443,0,0,0,.442.442H25.7A.443.443,0,0,1,25.259,137.786Z" transform="translate(-19.165 -83.939)" fill="#d9eafc"/>
      <circle id="Elipse_13761" data-name="Elipse 13761" cx="1.987" cy="1.987" r="1.987" transform="translate(30.489 55.747)" fill="#445ea0"/>
      <path id="Trazado_1031951" data-name="Trazado 1031951" d="M268.573,223.146h-7.708a.434.434,0,0,0-.433.433v8.605a.434.434,0,0,0,.433.433h7.708Z" transform="translate(-222.855 -181.617)" fill="#c3ddf4"/>
      <path id="Trazado_1031952" data-name="Trazado 1031952" d="M263.295,232.184v-8.605a.434.434,0,0,1,.433-.433h-2.863a.434.434,0,0,0-.433.433v8.605a.434.434,0,0,0,.433.433h2.863A.434.434,0,0,1,263.295,232.184Z" transform="translate(-222.855 -181.617)" fill="#aec1ed"/>
      <path id="Trazado_1031953" data-name="Trazado 1031953" d="M114.914,139.541h6.726v-9.434a.724.724,0,0,0-.721-.721H80.4a.724.724,0,0,0-.721.721v9.6a.724.724,0,0,0,.721.721h33.509A1.011,1.011,0,0,1,114.914,139.541Z" transform="translate(-68.185 -101.386)" fill="#c3ddf4"/>
      <path id="Trazado_1031954" data-name="Trazado 1031954" d="M82.545,139.705v-9.6a.724.724,0,0,1,.721-.721H80.4a.724.724,0,0,0-.721.721v9.6a.724.724,0,0,0,.721.721h2.863A.724.724,0,0,1,82.545,139.705Z" transform="translate(-68.185 -101.385)" fill="#aec1ed"/>
      <path id="Trazado_1031955" data-name="Trazado 1031955" d="M80.444,84.983H22.838a.443.443,0,0,0-.442.442v3.168h58.49V85.425A.443.443,0,0,0,80.444,84.983Z" transform="translate(-19.165 -63.389)" fill="#ffaf10"/>
      <path id="Trazado_1031956" data-name="Trazado 1031956" d="M25.7,84.983H22.838a.443.443,0,0,0-.442.442v3.168h2.863V85.425A.443.443,0,0,1,25.7,84.983Z" transform="translate(-19.165 -63.389)" fill="#ff9518"/>
      <g id="Grupo_1185986" data-name="Grupo 1185986" transform="translate(11.519 41.649)">
        <path id="Trazado_1031957" data-name="Trazado 1031957" d="M93.061,226.143H80.916a1.082,1.082,0,1,1,0-2.164H93.061a1.082,1.082,0,1,1,0,2.164Z" transform="translate(-79.834 -223.979)" fill="#5dc1d8"/>
        <path id="Trazado_1031958" data-name="Trazado 1031958" d="M93.061,250.63H80.916a1.082,1.082,0,1,1,0-2.164H93.061a1.082,1.082,0,1,1,0,2.164Z" transform="translate(-79.834 -244.933)" fill="#5dc1d8"/>
        <path id="Trazado_1031959" data-name="Trazado 1031959" d="M93.061,275.117H80.916a1.082,1.082,0,1,1,0-2.164H93.061a1.082,1.082,0,1,1,0,2.164Z" transform="translate(-79.834 -265.887)" fill="#5dc1d8"/>
        <path id="Trazado_1031960" data-name="Trazado 1031960" d="M194.068,226.143h-6.251a1.082,1.082,0,1,1,0-2.164h6.251a1.082,1.082,0,1,1,0,2.164Z" transform="translate(-171.309 -223.979)" fill="#5dc1d8"/>
        <path id="Trazado_1031961" data-name="Trazado 1031961" d="M194.068,250.63h-6.251a1.082,1.082,0,1,1,0-2.164h6.251a1.082,1.082,0,1,1,0,2.164Z" transform="translate(-171.309 -244.933)" fill="#5dc1d8"/>
        <path id="Trazado_1031962" data-name="Trazado 1031962" d="M194.068,275.117h-6.251a1.082,1.082,0,1,1,0-2.164h6.251a1.082,1.082,0,1,1,0,2.164Z" transform="translate(-171.309 -265.887)" fill="#5dc1d8"/>
      </g>
      <path id="Trazado_1031963" data-name="Trazado 1031963" d="M343,198.768a1.158,1.158,0,0,1,1.154,1.154v34.885A1.158,1.158,0,0,1,343,235.961H317.01a1.158,1.158,0,0,1-1.154-1.154V199.922a1.158,1.158,0,0,1,1.154-1.154Z" transform="translate(-270.281 -160.757)" fill="#445ea0"/>
      <path id="Trazado_1031964" data-name="Trazado 1031964" d="M333.288,244.617a.724.724,0,0,1-.721-.721V214.9a.724.724,0,0,1,.721-.721h22.036a.724.724,0,0,1,.721.721V243.9a.724.724,0,0,1-.721.721Z" transform="translate(-284.581 -173.945)" fill="#fff"/>
      <path id="Trazado_1031965" data-name="Trazado 1031965" d="M335.43,243.9V214.9a.724.724,0,0,1,.721-.721h-2.863a.724.724,0,0,0-.721.721V243.9a.724.724,0,0,0,.721.721h2.863A.724.724,0,0,1,335.43,243.9Z" transform="translate(-284.581 -173.945)" fill="#d9eafc"/>
      <path id="Trazado_1031966" data-name="Trazado 1031966" d="M400.288,434.9a.724.724,0,0,1-.721-.721V433.9a.724.724,0,0,1,.721-.721h2.7a.724.724,0,0,1,.721.721v.281a.724.724,0,0,1-.721.721Z" transform="translate(-341.914 -361.345)" fill="#445ea0"/>
      <path id="Trazado_1031967" data-name="Trazado 1031967" d="M356.046,216.964V214.9a.724.724,0,0,0-.721-.721H333.288a.724.724,0,0,0-.721.721v2.062Z" transform="translate(-284.581 -173.945)" fill="#ffaf10"/>
      <path id="Trazado_1031968" data-name="Trazado 1031968" d="M336.151,214.18h-2.863a.724.724,0,0,0-.721.721v2.062h2.863V214.9A.724.724,0,0,1,336.151,214.18Z" transform="translate(-284.581 -173.945)" fill="#ff9518"/>
      <g id="Grupo_1185987" data-name="Grupo 1185987" transform="translate(53.725 54.051)">
        <path id="Trazado_1031969" data-name="Trazado 1031969" d="M383.262,312.1h-9.836a1.082,1.082,0,0,1,0-2.164h9.836a1.082,1.082,0,0,1,0,2.164Z" transform="translate(-372.344 -309.933)" fill="#5dc1d8"/>
        <path id="Trazado_1031970" data-name="Trazado 1031970" d="M383.262,335.224h-9.836a1.082,1.082,0,0,1,0-2.164h9.836a1.082,1.082,0,0,1,0,2.164Z" transform="translate(-372.344 -329.723)" fill="#5dc1d8"/>
        <path id="Trazado_1031971" data-name="Trazado 1031971" d="M383.262,358.349h-9.836a1.082,1.082,0,0,1,0-2.164h9.836a1.082,1.082,0,0,1,0,2.164Z" transform="translate(-372.344 -349.511)" fill="#5dc1d8"/>
      </g>
      <path id="Trazado_1031972" data-name="Trazado 1031972" d="M367.1,252.685a.724.724,0,0,1-.721.721H348.822a.724.724,0,0,1-.721-.721v-5.951a.724.724,0,0,1,.721-.721h17.553a.724.724,0,0,1,.721.721Z" transform="translate(-297.874 -201.185)" fill="#c3ddf4"/>
      <path id="Trazado_1031973" data-name="Trazado 1031973" d="M350.964,252.685v-5.951a.724.724,0,0,1,.721-.721h-2.863a.724.724,0,0,0-.721.721v5.951a.724.724,0,0,0,.721.721h2.863A.724.724,0,0,1,350.964,252.685Z" transform="translate(-297.874 -201.185)" fill="#aec1ed"/>
      <path id="Trazado_1031974" data-name="Trazado 1031974" d="M379.9,390.667a.724.724,0,0,1-.721.721H366.821a.724.724,0,0,1-.721-.721v-2.44a.724.724,0,0,1,.721-.721h12.359a.724.724,0,0,1,.721.721v2.44Z" transform="translate(-313.276 -322.262)" fill="#c3ddf4"/>
      <path id="Trazado_1031975" data-name="Trazado 1031975" d="M368.963,390.667v-2.44a.724.724,0,0,1,.721-.721h-2.863a.724.724,0,0,0-.721.721v2.44a.724.724,0,0,0,.721.721h2.863A.724.724,0,0,1,368.963,390.667Z" transform="translate(-313.276 -322.262)" fill="#aec1ed"/>
    </g>
  </g>
</svg>
