<svg xmlns="http://www.w3.org/2000/svg" xmlns:xlink="http://www.w3.org/1999/xlink" width="150" height="150" viewBox="0 0 150 150">
  <defs>
    <clipPath id="clip-path">
      <rect id="Rectángulo_454829" data-name="Rectángulo 454829" width="150" height="150" fill="#1e535a"/>
    </clipPath>
    <clipPath id="clip-path-2">
      <path id="path3711" d="M0-682.665H53.171v53.171H0Z" transform="translate(0 682.665)" fill="#1e535a"/>
    </clipPath>
  </defs>
  <g id="Grupo_1185835" data-name="Grupo 1185835" transform="translate(-186 -4323.945)">
    <g id="Grupo_1177591" data-name="Grupo 1177591" transform="translate(186 4323.945)">
      <g id="Grupo_1177589" data-name="Grupo 1177589" transform="translate(0 0)">
        <g id="Grupo_1177587" data-name="Grupo 1177587" clip-path="url(#clip-path)">
          <path id="Trazado_997422" data-name="Trazado 997422" d="M143.876,66.392A68.963,68.963,0,0,0,128.3,30.506a7.931,7.931,0,0,0-11.16-10.685A68.861,68.861,0,0,0,81.486,5.891,7.933,7.933,0,0,0,66.079,6.2,68.956,68.956,0,0,0,31.872,20.827,7.935,7.935,0,0,0,20.859,31.915,68.9,68.9,0,0,0,6.425,66.324a7.938,7.938,0,0,0-.19,15.546,68.878,68.878,0,0,0,13.982,35.106A7.934,7.934,0,0,0,31,128.179,68.951,68.951,0,0,0,66.016,143.5a7.935,7.935,0,0,0,15.546.313,68.892,68.892,0,0,0,35.914-14.188,7.933,7.933,0,0,0,11.1-10.74A68.98,68.98,0,0,0,144.062,81.8a7.935,7.935,0,0,0-.186-15.4M121.469,34.413a7.89,7.89,0,0,0,4.394-1.33,65.489,65.489,0,0,1,14.453,33.289,7.946,7.946,0,0,0-5.071,3.674l-20.281-7.6c.016-.222.032-.447.032-.677a7.935,7.935,0,0,0-3.361-6.484l8.871-20.93a8.6,8.6,0,0,0,.962.063m-4.287-1.263-8.816,20.791a7.853,7.853,0,0,0-8.741,5.047L62.936,50.537a7.72,7.72,0,0,0-.166-1.58l52.065-18.131a7.961,7.961,0,0,0,2.348,2.324M73.822,15.882a7.941,7.941,0,0,0,7.795-6.441,65.381,65.381,0,0,1,33.059,12.929,7.9,7.9,0,0,0-1.148,4.1,8.337,8.337,0,0,0,.075,1.049L61.277,45.739A7.965,7.965,0,0,0,59.84,44.3L73.565,15.87c.087,0,.17.012.257.012M66.1,9.754a7.943,7.943,0,0,0,3.994,5.2L56.637,42.817A7.963,7.963,0,0,0,55,42.647a7.883,7.883,0,0,0-4.525,1.421L34.524,30.747a7.894,7.894,0,0,0-.269-7.308A65.433,65.433,0,0,1,66.1,9.754M15.688,72.393,48.676,55.378a7.912,7.912,0,0,0,6.259,3.147L66.241,94.665a8.071,8.071,0,0,0-1.75,1.936l-48.9-20.376a7.888,7.888,0,0,0,.293-2.106,7.98,7.98,0,0,0-.194-1.726m7.791-38.111a7.935,7.935,0,0,0,8.864-.756L48.091,46.677a7.919,7.919,0,0,0-.875,5.487L14.172,69.2a7.939,7.939,0,0,0-4.2-2.755A65.4,65.4,0,0,1,23.479,34.282m3.286,79.246a7.918,7.918,0,0,0-3.943,1.053A65.346,65.346,0,0,1,9.786,81.835a7.948,7.948,0,0,0,4.121-2.486L63.3,99.926a8.514,8.514,0,0,0-.063.954,7.939,7.939,0,0,0,.475,2.684L33.839,117.875a7.94,7.94,0,0,0-7.074-4.347M66.17,139.96a65.5,65.5,0,0,1-32.675-14.295,7.858,7.858,0,0,0,1.211-4.2l0-.091,30.926-14.821a7.941,7.941,0,0,0,2.8,1.77l1.853,26.63a7.941,7.941,0,0,0-4.113,5m3.29-46.828L58.4,57.758a7.952,7.952,0,0,0,3.773-3.773L99.154,62.5a7.894,7.894,0,0,0,1.263,3.61L75.049,93.952a7.843,7.843,0,0,0-5.59-.819m12.094,47.136a7.938,7.938,0,0,0-7.731-6.152l-.059,0L72,108.782a7.927,7.927,0,0,0,4.853-2.355l36.978,16.31c0,.071-.012.135-.012.206A7.9,7.9,0,0,0,115,127.083a65.377,65.377,0,0,1-33.443,13.186m33.17-21-36.016-15.89a7.894,7.894,0,0,0-1.041-7.062l25.292-27.762a7.894,7.894,0,0,0,4.1,1.148,8.74,8.74,0,0,0,.974-.063l9.453,46.618a7.923,7.923,0,0,0-2.759,3.013m11.393-2.969a7.893,7.893,0,0,0-5.277-1.247l-9.457-46.638a7.973,7.973,0,0,0,2.5-2.613l20.269,7.6a7.042,7.042,0,0,0-.036.713A7.938,7.938,0,0,0,140.5,81.9a65.431,65.431,0,0,1-14.382,34.4" transform="translate(0 0.002)" fill="#1e535a"/>
        </g>
      </g>
    </g>
    <g id="Elipse_13614" data-name="Elipse 13614" transform="translate(210.273 4348.213)" fill="#fff" stroke="#1e535a" stroke-width="3">
      <ellipse cx="50.732" cy="50.733" rx="50.732" ry="50.733" stroke="none"/>
      <ellipse cx="50.732" cy="50.733" rx="49.232" ry="49.233" fill="none"/>
    </g>
    <g id="g3705" transform="translate(234.414 5056.914)">
      <g id="g3707" transform="translate(0 -682.665)">
        <g id="g3709" clip-path="url(#clip-path-2)">
          <g id="g3715" transform="translate(0 0)">
            <path id="path3717" d="M-484.611-478.458h-8.412a1.038,1.038,0,0,1-1.038-1.039,1.038,1.038,0,0,1,1.038-1.039h8.412a1.04,1.04,0,0,0,1.039-1.039v-35.309a1.04,1.04,0,0,0-1.039-1.039h-46.94a1.04,1.04,0,0,0-1.039,1.039v35.309a1.04,1.04,0,0,0,1.039,1.039h8.412A1.039,1.039,0,0,1-522.1-479.5a1.039,1.039,0,0,1-1.039,1.039h-8.412a3.119,3.119,0,0,1-3.116-3.116v-35.309A3.119,3.119,0,0,1-531.551-520h46.94a3.119,3.119,0,0,1,3.116,3.116v35.309A3.119,3.119,0,0,1-484.611-478.458Z" transform="translate(534.667 519.999)" fill="#1e535a"/>
          </g>
          <g id="g3719" transform="translate(0.312 4.154)">
            <path id="path3721" d="M-648.353-7.1H-660.5a1.039,1.039,0,0,1-1.039-1.038A1.039,1.039,0,0,1-660.5-9.179h12.15a3.119,3.119,0,0,0,3.115-3.116,1.039,1.039,0,0,1,1.039-1.038h34.183a1.039,1.039,0,0,1,1.039,1.038,1.039,1.039,0,0,1-1.039,1.039h-33.249A5.2,5.2,0,0,1-648.353-7.1Z" transform="translate(661.542 13.333)" fill="#1e535a"/>
          </g>
          <g id="g3723" transform="translate(13.5 5.192)">
            <path id="path3725" fill="#1e535a"/>
          </g>
          <g id="g3727" transform="translate(9.346 5.192)">
            <path id="path3729" fill="#1e535a"/>
          </g>
          <g id="g3731" transform="translate(5.192 5.192)">
            <path id="path3733" fill="#1e535a"/>
          </g>
          <g id="g3735" transform="translate(22.951 45.902)">
            <path id="path3737" d="M-43.032-72.73a3.639,3.639,0,0,1-3.635-3.635A3.639,3.639,0,0,1-43.032-80,3.639,3.639,0,0,1-39.4-76.365,3.639,3.639,0,0,1-43.032-72.73Zm0-5.193a1.56,1.56,0,0,0-1.558,1.558,1.56,1.56,0,0,0,1.558,1.558,1.56,1.56,0,0,0,1.558-1.558A1.56,1.56,0,0,0-43.032-77.923Z" transform="translate(46.667 80)" fill="#1e535a"/>
          </g>
          <g id="g3739" transform="translate(25.547 41.838)">
            <path id="path3741" d="M-12.295-7.491a1.039,1.039,0,0,1-1.039-1.039v-3.766a1.039,1.039,0,0,1,1.039-1.039,1.039,1.039,0,0,1,1.039,1.039v3.766A1.039,1.039,0,0,1-12.295-7.491Z" transform="translate(13.333 13.333)" fill="#1e535a"/>
          </g>
          <g id="g3743" transform="translate(14.234 48.498)">
            <path id="path3745" d="M-3.876-11.256h-8.419a1.039,1.039,0,0,1-1.039-1.039,1.039,1.039,0,0,1,1.039-1.039h8.419a1.039,1.039,0,0,1,1.039,1.039A1.039,1.039,0,0,1-3.876-11.256Z" transform="translate(13.333 13.333)" fill="#1e535a"/>
          </g>
          <g id="g3747" transform="translate(28.442 48.498)">
            <path id="path3749" d="M-111.963-11.256h-8.419a1.038,1.038,0,0,1-1.038-1.039,1.038,1.038,0,0,1,1.038-1.039h8.419a1.038,1.038,0,0,1,1.038,1.039A1.038,1.038,0,0,1-111.963-11.256Z" transform="translate(121.42 13.333)" fill="#1e535a"/>
          </g>
          <g id="g3751" transform="translate(11.008 16.616)">
            <path id="path3753" d="M-356.885-120h24.924a3.119,3.119,0,0,1,3.116,3.116v4.154a3.1,3.1,0,0,1-.8,2.077,3.1,3.1,0,0,1,.8,2.077v4.154a3.1,3.1,0,0,1-.8,2.077,3.1,3.1,0,0,1,.8,2.077v4.154A3.119,3.119,0,0,1-331.961-93h-24.924A3.119,3.119,0,0,1-360-96.114v-4.154a3.1,3.1,0,0,1,.8-2.077,3.1,3.1,0,0,1-.8-2.077v-4.154a3.1,3.1,0,0,1,.8-2.077,3.1,3.1,0,0,1-.8-2.077v-4.154A3.119,3.119,0,0,1-356.885-120ZM-333-110.653a1.039,1.039,0,0,1,1.039-1.038,1.04,1.04,0,0,0,1.039-1.038v-4.154a1.04,1.04,0,0,0-1.039-1.039h-24.924a1.04,1.04,0,0,0-1.039,1.039v4.154a1.04,1.04,0,0,0,1.039,1.038,1.039,1.039,0,0,1,1.039,1.038,1.039,1.039,0,0,1-1.039,1.039,1.04,1.04,0,0,0-1.039,1.039v4.154a1.04,1.04,0,0,0,1.039,1.038,1.039,1.039,0,0,1,1.039,1.039,1.039,1.039,0,0,1-1.039,1.039,1.04,1.04,0,0,0-1.039,1.038v4.154a1.04,1.04,0,0,0,1.039,1.039h24.924a1.04,1.04,0,0,0,1.039-1.039v-4.154a1.04,1.04,0,0,0-1.039-1.038A1.039,1.039,0,0,1-333-102.345a1.039,1.039,0,0,1,1.039-1.039,1.04,1.04,0,0,0,1.039-1.038v-4.154a1.04,1.04,0,0,0-1.039-1.039A1.039,1.039,0,0,1-333-110.653Z" transform="translate(360 120)" fill="#1e535a"/>
          </g>
          <g id="g3755" transform="translate(13.085 24.924)">
            <path id="path3757" d="M12.629-11.256H-12.295a1.039,1.039,0,0,1-1.039-1.039,1.039,1.039,0,0,1,1.039-1.039H12.629a1.039,1.039,0,0,1,1.039,1.039A1.039,1.039,0,0,1,12.629-11.256Z" transform="translate(13.333 13.333)" fill="#1e535a"/>
          </g>
          <g id="g3759" transform="translate(13.085 33.232)">
            <path id="path3761" d="M12.629-11.256H-12.295a1.039,1.039,0,0,1-1.039-1.039,1.039,1.039,0,0,1,1.039-1.039H12.629a1.039,1.039,0,0,1,1.039,1.039A1.039,1.039,0,0,1,12.629-11.256Z" transform="translate(13.333 13.333)" fill="#1e535a"/>
          </g>
          <g id="g3763" transform="translate(17.238 21.808)">
            <path id="path3765" fill="#1e535a"/>
          </g>
          <g id="g3767" transform="translate(21.911 21.808)">
            <path id="path3769" fill="#1e535a"/>
          </g>
          <g id="g3771" transform="translate(26.584 21.808)">
            <path id="path3773" fill="#1e535a"/>
          </g>
          <g id="g3775" transform="translate(17.238 30.116)">
            <path id="path3777" fill="#1e535a"/>
          </g>
          <g id="g3779" transform="translate(21.911 30.116)">
            <path id="path3781" fill="#1e535a"/>
          </g>
          <g id="g3783" transform="translate(26.584 30.116)">
            <path id="path3785" fill="#1e535a"/>
          </g>
          <g id="g3787" transform="translate(17.238 38.424)">
            <path id="path3789" fill="#1e535a"/>
          </g>
          <g id="g3791" transform="translate(21.912 38.424)">
            <path id="path3793" fill="#1e535a"/>
          </g>
          <g id="g3795" transform="translate(26.585 38.424)">
            <path id="path3797" fill="#1e535a"/>
          </g>
          <g id="g3799" transform="translate(5.816 12.462)">
            <path id="path3801" d="M-479.5-324.772a1.039,1.039,0,0,1-1.039-1.039v-25.443h-37.386v25.443a1.039,1.039,0,0,1-1.039,1.039A1.039,1.039,0,0,1-520-325.811v-26.482a1.038,1.038,0,0,1,1.039-1.038H-479.5a1.038,1.038,0,0,1,1.039,1.038v26.482A1.039,1.039,0,0,1-479.5-324.772Z" transform="translate(519.999 353.331)" fill="#1e535a"/>
          </g>
        </g>
      </g>
      <path id="Trazado_1032916" data-name="Trazado 1032916" d="M198.953,319.949h11.074v1.858H198.953Zm0,0" transform="translate(-172.367 -964.787)" fill="#1e535a"/>
      <path id="Trazado_1032917" data-name="Trazado 1032917" d="M198.953,319.949h11.074v1.858H198.953Zm0,0" transform="translate(-172.367 -972.787)" fill="#1e535a"/>
      <path id="Trazado_1032918" data-name="Trazado 1032918" d="M198.953,319.949h11.074v1.858H198.953Zm0,0" transform="translate(-172.367 -981.787)" fill="#1e535a"/>
    </g>
  </g>
</svg>
