<svg xmlns="http://www.w3.org/2000/svg" width="292" height="218" viewBox="0 0 292 218">
  <g id="Grupo_1185749" data-name="Grupo 1185749" transform="translate(-913.711 -3754)">
    <rect id="Rectángulo_458825" data-name="Rectángulo 458825" width="292" height="218" transform="translate(913.711 3754)" fill="#fff7df"/>
    <ellipse id="Elipse_13714" data-name="Elipse 13714" cx="100" cy="33.5" rx="100" ry="33.5" transform="translate(955.711 3890)" fill="#eee3c7"/>
    <g id="Grupo_1185748" data-name="Grupo 1185748" transform="translate(973.711 3770)">
      <g id="Grupo_1185725" data-name="Grupo 1185725">
        <g id="Grupo_1185724" data-name="Grupo 1185724">
          <g id="Grupo_1185691" data-name="Grupo 1185691">
            <g id="Grupo_1185690" data-name="Grupo 1185690">
              <g id="Grupo_1185685" data-name="Grupo 1185685">
                <g id="Grupo_1185679" data-name="Grupo 1185679" transform="translate(34.618 114.013)">
                  <path id="Trazado_1031437" data-name="Trazado 1031437" d="M88.3,51.138a2,2,0,0,1-1.188,1.632l-48.8,28.176a6.076,6.076,0,0,1-5.6,0l-17.04-9.9a1.981,1.981,0,0,1-1.17-1.61l.014,9.522a1.982,1.982,0,0,0,1.17,1.61l17.04,9.9a6.075,6.075,0,0,0,5.6,0l48.8-28.176a2,2,0,0,0,1.188-1.632Z" transform="translate(-14.5 -26.856)" fill="#383736"/>
                  <path id="Trazado_1031438" data-name="Trazado 1031438" d="M76.65,51.133v9.543a1.983,1.983,0,0,1-1.176,1.617l-48.818,28.2a6.229,6.229,0,0,1-5.588,0l-.037-9.544a6.081,6.081,0,0,0,5.624,0L75.437,52.787a2.055,2.055,0,0,0,1.213-1.654Z" transform="translate(-2.835 -26.866)" fill="#2d2c2b"/>
                  <path id="Trazado_1031439" data-name="Trazado 1031439" d="M58.182,52.787,30.692,68.655v9.537l27.527-15.9a1.983,1.983,0,0,0,1.176-1.617V51.133a2.055,2.055,0,0,1-1.213,1.654Z" transform="translate(14.419 -26.866)" fill="#191918"/>
                  <path id="Trazado_1031440" data-name="Trazado 1031440" d="M15.688,75.62c-1.577.91-1.585,2.331-.018,3.242l17.04,9.9a6.075,6.075,0,0,0,5.6,0l48.8-28.176c1.577-.91,1.585-2.331.018-3.242l-17.04-9.9a6.076,6.076,0,0,0-5.6,0Z" transform="translate(-14.5 -34.674)" fill="#434240"/>
                  <g id="Grupo_1185678" data-name="Grupo 1185678" transform="translate(13.352)">
                    <g id="Grupo_1185677" data-name="Grupo 1185677">
                      <g id="Grupo_1185674" data-name="Grupo 1185674" transform="translate(0 20.706)">
                        <path id="Trazado_1031441" data-name="Trazado 1031441" d="M25.855,77.683l-6.365-3.7-.2-24.129,6.365,3.7Z" transform="translate(-19.292 -49.855)" fill="#b2b0af"/>
                      </g>
                      <g id="Grupo_1185675" data-name="Grupo 1185675" transform="translate(0)">
                        <path id="Trazado_1031442" data-name="Trazado 1031442" d="M25.657,66.828l-6.365-3.7L55.156,42.423l6.365,3.7Z" transform="translate(-19.292 -42.423)" fill="#798284"/>
                      </g>
                      <g id="Grupo_1185676" data-name="Grupo 1185676" transform="translate(6.365 3.699)">
                        <path id="Trazado_1031443" data-name="Trazado 1031443" d="M57.441,43.75l.2,24.129L21.774,88.586l-.2-24.129Z" transform="translate(-21.577 -43.75)" fill="#c4c2c0"/>
                      </g>
                    </g>
                  </g>
                </g>
                <g id="Grupo_1185680" data-name="Grupo 1185680" transform="translate(0.001)">
                  <path id="Trazado_1031444" data-name="Trazado 1031444" d="M131.017,6.743c-1.082-.631-2.584-.541-4.233.412L16.251,70.972A13.051,13.051,0,0,0,10.33,81.229l.251,88.009c0,1.875.664,3.2,1.733,3.814l-8.255-4.84c-1.069-.618-1.733-1.939-1.733-3.814L2.075,76.389A13.051,13.051,0,0,1,8,66.132L118.529,2.316c1.649-.954,3.151-1.044,4.227-.412Z" transform="translate(-2.075 -1.5)" fill="#e9e8e6"/>
                </g>
                <g id="Grupo_1185681" data-name="Grupo 1185681" transform="translate(0 30.932)">
                  <path id="Trazado_1031445" data-name="Trazado 1031445" d="M74.622,17.443l-58.371,33.7A13.046,13.046,0,0,0,10.33,61.4l.252,88.009c0,1.874.663,3.2,1.733,3.815L4.06,148.382c-1.07-.619-1.734-1.939-1.734-3.815L2.075,56.56A13.057,13.057,0,0,1,8,46.3L66.366,12.6Z" transform="translate(-2.075 -12.602)" fill="#d6d4d2"/>
                </g>
                <g id="Grupo_1185682" data-name="Grupo 1185682" transform="translate(0.018 64.616)">
                  <path id="Trazado_1031446" data-name="Trazado 1031446" d="M10.322,39.8l.257,88.005c0,1.875.662,3.2,1.728,3.823L4.03,126.777c-1.066-.625-1.728-1.912-1.728-3.786L2.082,34.949A12.964,12.964,0,0,1,8,24.692l8.24,4.848A13.16,13.16,0,0,0,10.322,39.8Z" transform="translate(-2.081 -24.692)" fill="#c4c2c0"/>
                  <path id="Trazado_1031447" data-name="Trazado 1031447" d="M12.263,104.482,3.987,99.634c-1.067-.625-1.728-1.912-1.728-3.786L2.106,39.89l8.24,4.847.189,55.922c0,1.876.661,3.2,1.728,3.824Z" transform="translate(-2.038 2.45)" fill="#b2b0af"/>
                </g>
                <g id="Grupo_1185683" data-name="Grupo 1185683" transform="translate(8.255 4.841)">
                  <path id="Trazado_1031448" data-name="Trazado 1031448" d="M127.7,95.457a13.053,13.053,0,0,1-5.921,10.263L11.249,169.536c-3.279,1.894-5.953.374-5.96-3.4l-.026-9.078L5.038,78.126a13.051,13.051,0,0,1,5.921-10.257L121.492,4.052c3.286-1.894,5.953-.374,5.966,3.4l.219,78.976Z" transform="translate(-5.038 -3.237)" fill="#434240"/>
                  <path id="Trazado_1031449" data-name="Trazado 1031449" d="M115.046,83.535,8.109,145.239,7.856,69.824a3.01,3.01,0,0,1,1.505-2.618L112.57,7.514a1.507,1.507,0,0,1,2.261,1.3Z" transform="translate(-0.005 4.035)" fill="#3f9ae0"/>
                  <path id="Trazado_1031450" data-name="Trazado 1031450" d="M127.558,42.128a13.053,13.053,0,0,1-5.921,10.263L11.1,116.208c-3.279,1.894-5.953.374-5.96-3.4l-.026-9.078L127.532,33.1Z" transform="translate(-4.893 50.091)" fill="#e9e8e6"/>
                </g>
                <g id="Grupo_1185684" data-name="Grupo 1185684" transform="translate(70.397 123.51)">
                  <path id="Trazado_1031451" data-name="Trazado 1031451" d="M35.259,48.621A8.724,8.724,0,0,1,31.3,55.456c-2.165,1.268-3.959.247-3.959-2.258a8.774,8.774,0,0,1,3.928-6.835c2.2-1.238,3.99-.248,3.99,2.258Z" transform="translate(-27.342 -45.832)" fill="#d6d4d2"/>
                </g>
              </g>
              <g id="Grupo_1185689" data-name="Grupo 1185689" transform="translate(38.13 36.674)">
                <g id="Grupo_1185686" data-name="Grupo 1185686" transform="translate(0.049 10.283)">
                  <path id="Trazado_1031452" data-name="Trazado 1031452" d="M76.21,19.219l-59.931,34.6.137,48.271,59.931-34.6ZM20.18,95.573,20.067,55.98,72.447,25.739l.112,39.592Z" transform="translate(-14.883 -16.809)" fill="#343331"/>
                  <path id="Trazado_1031453" data-name="Trazado 1031453" d="M15.925,106.046l-.147-51.482L78.492,18.354l.146,51.485ZM18.57,56.169l.128,45.058L75.846,68.234l-.127-45.061Zm1.118,43.358-.121-42.8L74.727,24.875l.122,42.8Zm2.67-41.2.1,36.381,49.6-28.635-.1-36.381Z" transform="translate(-15.778 -18.354)" fill="#21201f"/>
                </g>
                <g id="Grupo_1185687" data-name="Grupo 1185687">
                  <path id="Trazado_1031454" data-name="Trazado 1031454" d="M78.5,14.663l.029,10.311L15.79,61.272l-.029-10.311Z" transform="translate(-15.761 -14.663)" fill="#e9e8e6"/>
                </g>
                <g id="Grupo_1185688" data-name="Grupo 1185688" transform="translate(5.241 19.225)">
                  <path id="Trazado_1031455" data-name="Trazado 1031455" d="M70.131,61.154,17.753,91.382l-.111-39.59L70.02,21.564Z" transform="translate(-17.642 -21.564)" fill="#fff"/>
                </g>
              </g>
            </g>
          </g>
          <g id="Grupo_1185713" data-name="Grupo 1185713" transform="translate(112.253 50.612)">
            <g id="Grupo_1185712" data-name="Grupo 1185712">
              <g id="Grupo_1185711" data-name="Grupo 1185711">
                <g id="Grupo_1185710" data-name="Grupo 1185710">
                  <g id="Grupo_1185709" data-name="Grupo 1185709">
                    <g id="Grupo_1185708" data-name="Grupo 1185708">
                      <g id="Grupo_1185706" data-name="Grupo 1185706">
                        <g id="Grupo_1185705" data-name="Grupo 1185705">
                          <g id="Grupo_1185700" data-name="Grupo 1185700" transform="translate(0.012 9.108)">
                            <g id="Grupo_1185692" data-name="Grupo 1185692" transform="translate(0.116 78.735)">
                              <path id="Trazado_1031456" data-name="Trazado 1031456" d="M48.553,55.883l-5.484-3.241a1.578,1.578,0,0,1-.657-1.446L47.9,54.437a1.578,1.578,0,0,0,.657,1.446Z" transform="translate(-42.412 -51.196)" fill="#c4c2c0"/>
                            </g>
                            <g id="Grupo_1185694" data-name="Grupo 1185694" transform="translate(0 29.806)">
                              <g id="Grupo_1185693" data-name="Grupo 1185693">
                                <path id="Trazado_1031457" data-name="Trazado 1031457" d="M47.97,85.8l-5.484-3.241L42.37,33.634l5.484,3.241Z" transform="translate(-42.37 -33.634)" fill="#d6d4d2"/>
                              </g>
                            </g>
                            <g id="Grupo_1185696" data-name="Grupo 1185696" transform="translate(0 40.095)">
                              <g id="Grupo_1185695" data-name="Grupo 1185695">
                                <path id="Trazado_1031458" data-name="Trazado 1031458" d="M47.97,79.208l-5.484-3.241-.115-38.64,5.484,3.241Z" transform="translate(-42.37 -37.327)" fill="#c4c2c0"/>
                              </g>
                            </g>
                            <g id="Grupo_1185698" data-name="Grupo 1185698" transform="translate(0 60.671)">
                              <g id="Grupo_1185697" data-name="Grupo 1185697">
                                <path id="Trazado_1031459" data-name="Trazado 1031459" d="M47.97,66.017l-5.484-3.241L42.37,44.712l5.484,3.241Z" transform="translate(-42.37 -44.712)" fill="#d6d4d2"/>
                              </g>
                            </g>
                            <g id="Grupo_1185699" data-name="Grupo 1185699" transform="translate(5.484)">
                              <path id="Trazado_1031460" data-name="Trazado 1031460" d="M101.579,22.936l.115,48.929a4.951,4.951,0,0,1-2.246,3.891L46.715,106.2c-1.244.718-2.257.141-2.261-1.289l-.115-48.929Z" transform="translate(-44.339 -22.936)" fill="#e9e8e6"/>
                              <path id="Trazado_1031461" data-name="Trazado 1031461" d="M44.988,55.021,98.62,24.057l.108,45.808a3.206,3.206,0,0,1-1.343,2.323L45.113,102.366Z" transform="translate(-43.178 -20.933)" fill="#fff"/>
                            </g>
                          </g>
                          <g id="Grupo_1185704" data-name="Grupo 1185704">
                            <g id="Grupo_1185702" data-name="Grupo 1185702">
                              <path id="Trazado_1031462" data-name="Trazado 1031462" d="M44.612,32.958a4.948,4.948,0,0,0-2.246,3.89l.012,4.269,5.485,3.242-.012-4.269A4.951,4.951,0,0,1,50.1,36.2l6.086-3.514L50.7,29.444Z" transform="translate(-42.366 -2.203)" fill="#81d672"/>
                              <path id="Trazado_1031463" data-name="Trazado 1031463" d="M45.357,34.4l5.484,3.241,13.39-7.73-5.484-3.241Z" transform="translate(-37.024 -7.159)" fill="#3db542"/>
                              <path id="Trazado_1031464" data-name="Trazado 1031464" d="M76.115,23.839,70.631,20.6,55.106,29.561,60.59,32.8Z" transform="translate(-19.611 -18.003)" fill="#3db542"/>
                              <g id="Grupo_1185701" data-name="Grupo 1185701" transform="translate(21.722)">
                                <path id="Trazado_1031465" data-name="Trazado 1031465" d="M63.935,23.815,50.163,31.767l5.484,3.241,13.773-7.952Z" transform="translate(-50.163 -12.257)" fill="#81d672"/>
                                <path id="Trazado_1031466" data-name="Trazado 1031466" d="M70.122,23.217a1.589,1.589,0,0,1,1.6-.157l-5.484-3.241a1.591,1.591,0,0,0-1.6.157l-3.959,2.286L66.163,25.5Z" transform="translate(-31.381 -19.666)" fill="#81d672"/>
                              </g>
                            </g>
                            <g id="Grupo_1185703" data-name="Grupo 1185703" transform="translate(5.484 3.241)">
                              <path id="Trazado_1031467" data-name="Trazado 1031467" d="M99.314,21.139c1.245-.719,2.257-.142,2.261,1.288l.012,4.269L44.346,59.744l-.012-4.269a4.95,4.95,0,0,1,2.246-3.89Z" transform="translate(-44.334 -20.83)" fill="#6dcb60"/>
                            </g>
                          </g>
                        </g>
                      </g>
                      <g id="Grupo_1185707" data-name="Grupo 1185707" transform="translate(7.741 30.605)">
                        <path id="Trazado_1031468" data-name="Trazado 1031468" d="M46.413,32.542c.688-.4,1.256-.085,1.258.717a2.773,2.773,0,0,1-1.25,2.176c-.7.4-1.275.085-1.277-.717A2.776,2.776,0,0,1,46.413,32.542Z" transform="translate(-45.144 -27.581)" fill="#fff"/>
                        <path id="Trazado_1031469" data-name="Trazado 1031469" d="M47.893,31.687c.7-.4,1.265-.09,1.268.712A2.776,2.776,0,0,1,47.9,34.58c-.7.4-1.266.079-1.268-.722A2.757,2.757,0,0,1,47.893,31.687Z" transform="translate(-42.484 -29.115)" fill="#fff"/>
                        <path id="Trazado_1031470" data-name="Trazado 1031470" d="M49.383,30.827c.7-.4,1.265-.09,1.268.712a2.776,2.776,0,0,1-1.26,2.182c-.7.4-1.265.079-1.268-.722A2.757,2.757,0,0,1,49.383,30.827Z" transform="translate(-39.824 -30.651)" fill="#fff"/>
                      </g>
                    </g>
                  </g>
                </g>
              </g>
            </g>
          </g>
          <g id="Grupo_1185723" data-name="Grupo 1185723" transform="translate(130.209 81.41)">
            <g id="Grupo_1185722" data-name="Grupo 1185722">
              <g id="Grupo_1185714" data-name="Grupo 1185714" transform="translate(13.308 14.789)">
                <path id="Trazado_1031471" data-name="Trazado 1031471" d="M56.319,45.3l-2.732-1.588L66.9,36.028l2.732,1.588Z" transform="translate(-53.587 -36.028)" fill="#a0a8aa"/>
              </g>
              <g id="Grupo_1185715" data-name="Grupo 1185715" transform="translate(16.357)">
                <path id="Trazado_1031472" data-name="Trazado 1031472" d="M66.887,33.208c-2.433-1.4-5.778-1.2-9.468.933l-2.737-1.581c3.69-2.149,7.055-2.352,9.468-.933Z" transform="translate(-54.682 -30.72)" fill="#f25a5a"/>
              </g>
              <g id="Grupo_1185716" data-name="Grupo 1185716" transform="translate(16.357 0.013)">
                <path id="Trazado_1031473" data-name="Trazado 1031473" d="M58.977,30.784a13.482,13.482,0,0,0-4.3,1.662l2.737,1.581a13.549,13.549,0,0,1,4.314-1.652Z" transform="translate(-54.682 -30.62)" fill="#c44141"/>
                <path id="Trazado_1031474" data-name="Trazado 1031474" d="M64.133,33.2,61.4,31.618a7.37,7.37,0,0,0-5.173-.73l2.756,1.592A7.469,7.469,0,0,1,64.133,33.2Z" transform="translate(-51.928 -30.725)" fill="#f25a5a"/>
              </g>
              <g id="Grupo_1185717" data-name="Grupo 1185717" transform="translate(19.088 1.592)">
                <path id="Trazado_1031475" data-name="Trazado 1031475" d="M55.662,33.118c7.355-4.246,13.327-.832,13.351,7.608L55.705,48.409Z" transform="translate(-55.662 -31.292)" fill="#cc4848"/>
              </g>
              <g id="Grupo_1185718" data-name="Grupo 1185718" transform="translate(16.356 1.83)">
                <path id="Trazado_1031476" data-name="Trazado 1031476" d="M57.457,48.257l-2.732-1.588-.043-15.292,2.732,1.588Z" transform="translate(-54.681 -31.377)" fill="#dd4a4a"/>
              </g>
              <g id="Grupo_1185719" data-name="Grupo 1185719" transform="translate(0 7.175)">
                <path id="Trazado_1031477" data-name="Trazado 1031477" d="M55.426,66.4l-2.732-1.588c-2.389-1.389-3.871-4.34-3.883-8.533C48.787,47.83,54.729,37.537,62.075,33.3l2.732,1.588c-7.346,4.241-13.288,14.534-13.264,22.986.012,4.193,1.494,7.145,3.883,8.533Z" transform="translate(-48.811 -33.296)" fill="#3f9ae0"/>
              </g>
              <g id="Grupo_1185720" data-name="Grupo 1185720" transform="translate(0 7.175)">
                <path id="Trazado_1031478" data-name="Trazado 1031478" d="M52.657,49.308,55.389,50.9c-2.152-1.251-3.557-3.779-3.826-7.331l-2.732-1.588C49.1,45.529,50.505,48.057,52.657,49.308Z" transform="translate(-48.774 -17.789)" fill="#a0a8aa"/>
                <path id="Trazado_1031479" data-name="Trazado 1031479" d="M48.811,48.756c0,.416.028.811.057,1.2L51.6,51.546c-.03-.392-.056-.786-.057-1.2a25.886,25.886,0,0,1,2.9-11.247l-2.732-1.588a25.886,25.886,0,0,0-2.9,11.247Z" transform="translate(-48.811 -25.771)" fill="#6d797a"/>
                <path id="Trazado_1031480" data-name="Trazado 1031480" d="M56.736,33.3A22.737,22.737,0,0,0,51.8,37.249l2.732,1.588a22.738,22.738,0,0,1,4.936-3.954Z" transform="translate(-43.471 -33.296)" fill="#a0a8aa"/>
                <path id="Trazado_1031481" data-name="Trazado 1031481" d="M49.851,42.5l2.732,1.588a31.47,31.47,0,0,1,5.43-7.785l-2.732-1.588a31.464,31.464,0,0,0-5.43,7.785Z" transform="translate(-46.952 -30.761)" fill="#7e8a8c"/>
              </g>
              <g id="Grupo_1185721" data-name="Grupo 1185721" transform="translate(2.732 8.762)">
                <path id="Trazado_1031482" data-name="Trazado 1031482" d="M63.056,33.866l.043,15.3,13.317-7.689c.024,8.441-5.909,18.728-13.274,22.98-7.346,4.241-13.327.832-13.351-7.608S55.71,38.107,63.056,33.865Z" transform="translate(-49.791 -33.865)" fill="#8d9799"/>
              </g>
            </g>
          </g>
        </g>
      </g>
      <g id="Grupo_1185730" data-name="Grupo 1185730" transform="translate(55.692 66.849)">
        <g id="Grupo_1185726" data-name="Grupo 1185726" transform="translate(13.919 22.054)">
          <path id="Trazado_1031483" data-name="Trazado 1031483" d="M27.06,35.313c7.664-4.425,13.9-.869,13.928,7.937-3.832,2.212-7.308,2.424-9.827.989s-4.089-4.523-4.1-8.926Z" transform="translate(-27.06 -33.41)" fill="#3f9ae0"/>
        </g>
        <g id="Grupo_1185727" data-name="Grupo 1185727" transform="translate(0 14.121)">
          <path id="Trazado_1031484" data-name="Trazado 1031484" d="M22.064,32.466c7.664-4.425,13.894-.875,13.919,7.932-3.832,2.212-7.308,2.435-9.826,1s-4.08-4.529-4.092-8.932Z" transform="translate(-22.064 -30.562)" fill="#ffd651"/>
        </g>
        <g id="Grupo_1185728" data-name="Grupo 1185728" transform="translate(13.919)">
          <path id="Trazado_1031485" data-name="Trazado 1031485" d="M40.9,25.494A28.121,28.121,0,0,1,36.86,39.12a28.3,28.3,0,0,1-9.8,10.331C27.035,40.644,33.234,29.919,40.9,25.494Z" transform="translate(-27.06 -25.494)" fill="#81d672"/>
        </g>
        <g id="Grupo_1185729" data-name="Grupo 1185729" transform="translate(0.09 23.957)">
          <path id="Trazado_1031486" data-name="Trazado 1031486" d="M35.925,34.093A28.086,28.086,0,0,1,31.9,47.713a28.335,28.335,0,0,1-9.8,10.342c-.025-8.807,6.164-19.538,13.828-23.963Z" transform="translate(-22.097 -34.093)" fill="#f25a5a"/>
        </g>
      </g>
    </g>
  </g>
</svg>
