<svg xmlns="http://www.w3.org/2000/svg" width="396" height="739" viewBox="0 0 396 739">
  <g id="Grupo_1186484" data-name="Grupo 1186484" transform="translate(734 4401)">
    <g id="Grupo_1185934" data-name="Grupo 1185934">
      <path id="Trazado_1032955" data-name="Trazado 1032955" d="M0,0H396V739H0Z" transform="translate(-734 -4401)" fill="#a4e7f0"/>
      <path id="Trazado_1032956" data-name="Trazado 1032956" d="M10,0H130a10,10,0,0,1,10,10V46a10,10,0,0,1-10,10H10A10,10,0,0,1,0,46V10A10,10,0,0,1,10,0Z" transform="translate(-692 -4279)" fill="#2ebed1"/>
      <path id="Trazado_1032957" data-name="Trazado 1032957" d="M10,0H130a10,10,0,0,1,10,10V46a10,10,0,0,1-10,10H10A10,10,0,0,1,0,46V10A10,10,0,0,1,10,0Z" transform="translate(-531 -4111)" fill="#2ebed1"/>
      <path id="Trazado_1032958" data-name="Trazado 1032958" d="M10,0H130a10,10,0,0,1,10,10V46a10,10,0,0,1-10,10H10A10,10,0,0,1,0,46V10A10,10,0,0,1,10,0Z" transform="translate(-690 -3943)" fill="#2ebed1"/>
      <path id="Trazado_1032959" data-name="Trazado 1032959" d="M10,0H130a10,10,0,0,1,10,10V46a10,10,0,0,1-10,10H10A10,10,0,0,1,0,46V10A10,10,0,0,1,10,0Z" transform="translate(-527 -3767)" fill="#2ebed1"/>
      <path id="Trazado_1032960" data-name="Trazado 1032960" d="M10,0H130a10,10,0,0,1,10,10V46a10,10,0,0,1-10,10H10A10,10,0,0,1,0,46V10A10,10,0,0,1,10,0Z" transform="translate(-392 -4300) rotate(180)" fill="#448dcf"/>
      <path id="Trazado_1032961" data-name="Trazado 1032961" d="M10,0H130a10,10,0,0,1,10,10V46a10,10,0,0,1-10,10H10A10,10,0,0,1,0,46V10A10,10,0,0,1,10,0Z" transform="translate(-552 -4132) rotate(180)" fill="#448dcf"/>
      <path id="Trazado_1032962" data-name="Trazado 1032962" d="M10,0H130a10,10,0,0,1,10,10V46a10,10,0,0,1-10,10H10A10,10,0,0,1,0,46V10A10,10,0,0,1,10,0Z" transform="translate(-395 -3963) rotate(180)" fill="#448dcf"/>
      <path id="Trazado_1032963" data-name="Trazado 1032963" d="M10,0H130a10,10,0,0,1,10,10V46a10,10,0,0,1-10,10H10A10,10,0,0,1,0,46V10A10,10,0,0,1,10,0Z" transform="translate(-550 -3788) rotate(180)" fill="#448dcf"/>
      <path id="Trazado_1032964" data-name="Trazado 1032964" d="M10,0H111a10,10,0,0,1,10,10v95a10,10,0,0,1-10,10H10A10,10,0,0,1,0,105V10A10,10,0,0,1,10,0Z" transform="translate(-683 -4356)" fill="#fff"/>
      <path id="Trazado_1032965" data-name="Trazado 1032965" d="M27.219,7.742H23.805V17H21.063V7.742H17.712V5.625h9.508ZM31.744,17a2.973,2.973,0,0,1-.25-.758,2.448,2.448,0,0,1-2.031.914,3,3,0,0,1-2.031-.723,2.3,2.3,0,0,1-.836-1.816,2.364,2.364,0,0,1,1.016-2.078,5.174,5.174,0,0,1,2.953-.7h.813v-.448q0-1.17-1.008-1.17a.824.824,0,0,0-.937.926H26.8a2.36,2.36,0,0,1,1.043-1.99,4.383,4.383,0,0,1,2.66-.765,3.843,3.843,0,0,1,2.555.789,2.743,2.743,0,0,1,.961,2.164v3.742a3.832,3.832,0,0,0,.359,1.781V17ZM30.1,15.281a1.469,1.469,0,0,0,.816-.211,1.322,1.322,0,0,0,.465-.477V13.242h-.766q-1.375,0-1.375,1.234a.754.754,0,0,0,.242.582A.876.876,0,0,0,30.1,15.281Zm13.267-2.437a5.152,5.152,0,0,1-.859,3.2,2.878,2.878,0,0,1-2.422,1.117A2.5,2.5,0,0,1,38,16.133L37.893,17H35.534V5h2.633V9.227a2.41,2.41,0,0,1,1.9-.836A2.879,2.879,0,0,1,42.5,9.523a5.179,5.179,0,0,1,.859,3.188Zm-2.641-.168a3.437,3.437,0,0,0-.324-1.735,1.093,1.093,0,0,0-1-.519,1.261,1.261,0,0,0-1.234.679v3.354a1.268,1.268,0,0,0,1.25.671,1.118,1.118,0,0,0,1.18-.9A6.5,6.5,0,0,0,40.721,12.676ZM47.339,17H44.7V5h2.641Zm6.423,0a2.973,2.973,0,0,1-.25-.758,2.448,2.448,0,0,1-2.031.914,3,3,0,0,1-2.031-.723,2.3,2.3,0,0,1-.836-1.816,2.364,2.364,0,0,1,1.016-2.078,5.174,5.174,0,0,1,2.953-.7H53.4v-.448q0-1.17-1.008-1.17a.824.824,0,0,0-.937.926H48.817a2.36,2.36,0,0,1,1.043-1.99,4.383,4.383,0,0,1,2.66-.765,3.843,3.843,0,0,1,2.555.789,2.743,2.743,0,0,1,.961,2.164v3.742a3.832,3.832,0,0,0,.359,1.781V17Zm-1.648-1.719a1.469,1.469,0,0,0,.816-.211,1.322,1.322,0,0,0,.465-.477V13.242h-.766q-1.375,0-1.375,1.234a.754.754,0,0,0,.242.582A.876.876,0,0,0,52.114,15.281Zm9.111-2.57a5.164,5.164,0,0,1,.867-3.164,2.854,2.854,0,0,1,2.422-1.156,2.428,2.428,0,0,1,1.906.891V5h2.641V17H66.694l-.133-.906A2.493,2.493,0,0,1,64.5,17.156,2.849,2.849,0,0,1,62.108,16,5.327,5.327,0,0,1,61.225,12.711Zm2.633.164q0,2.25,1.313,2.25a1.3,1.3,0,0,0,1.25-.734V11.172a1.261,1.261,0,0,0-1.234-.75q-1.219,0-1.32,1.969Zm10.829,4.281A4.345,4.345,0,0,1,71.538,16a4.006,4.006,0,0,1-1.2-3.02v-.219a5.191,5.191,0,0,1,.48-2.289,3.516,3.516,0,0,1,1.4-1.535,4.233,4.233,0,0,1,2.188-.543A3.659,3.659,0,0,1,77.218,9.5a4.344,4.344,0,0,1,1.031,3.082V13.6H73.015a1.9,1.9,0,0,0,.617,1.117,1.836,1.836,0,0,0,1.234.406,2.366,2.366,0,0,0,1.953-.875l1.2,1.422a3.363,3.363,0,0,1-1.395,1.082A4.713,4.713,0,0,1,74.687,17.156Zm-.3-6.734q-1.156,0-1.375,1.531h2.656v-.2a1.3,1.3,0,0,0-.32-.98A1.275,1.275,0,0,0,74.39,10.422ZM28.361,32.711a5.164,5.164,0,0,1,.867-3.164,2.854,2.854,0,0,1,2.422-1.156,2.428,2.428,0,0,1,1.906.891V25H36.2V37H33.83l-.133-.906a2.493,2.493,0,0,1-2.062,1.063A2.849,2.849,0,0,1,29.244,36,5.327,5.327,0,0,1,28.361,32.711Zm2.633.164q0,2.25,1.312,2.25a1.3,1.3,0,0,0,1.25-.734V31.172a1.261,1.261,0,0,0-1.234-.75q-1.219,0-1.32,1.969ZM42.5,37a2.973,2.973,0,0,1-.25-.758,2.448,2.448,0,0,1-2.031.914,3,3,0,0,1-2.031-.723,2.3,2.3,0,0,1-.836-1.816,2.364,2.364,0,0,1,1.016-2.078,5.174,5.174,0,0,1,2.953-.7h.813v-.448q0-1.17-1.008-1.17a.824.824,0,0,0-.937.926H37.55a2.36,2.36,0,0,1,1.043-1.99,4.383,4.383,0,0,1,2.66-.765,3.843,3.843,0,0,1,2.555.789,2.743,2.743,0,0,1,.961,2.164v3.742a3.832,3.832,0,0,0,.359,1.781V37Zm-1.648-1.719a1.469,1.469,0,0,0,.816-.211,1.322,1.322,0,0,0,.465-.477V33.242h-.766q-1.375,0-1.375,1.234a.754.754,0,0,0,.242.582A.876.876,0,0,0,40.847,35.281Zm8.485-8.836v2.1h1.391v1.828H49.332v3.867a.987.987,0,0,0,.172.664.922.922,0,0,0,.68.188,3.862,3.862,0,0,0,.656-.047V36.93a4.859,4.859,0,0,1-1.484.227,2.758,2.758,0,0,1-2.008-.641A2.626,2.626,0,0,1,46.7,34.57v-4.2H45.621V28.547H46.7v-2.1Zm1.9,6.25a4.989,4.989,0,0,1,.492-2.254,3.52,3.52,0,0,1,1.414-1.52,4.259,4.259,0,0,1,2.164-.531,3.887,3.887,0,0,1,2.992,1.176,4.512,4.512,0,0,1,1.094,3.2v.094A4.378,4.378,0,0,1,58.29,36a3.9,3.9,0,0,1-2.973,1.16,3.942,3.942,0,0,1-2.9-1.082,4.232,4.232,0,0,1-1.18-2.934Zm2.633.164a3.145,3.145,0,0,0,.367,1.719,1.223,1.223,0,0,0,1.086.547q1.406,0,1.438-2.164V32.7q0-2.273-1.453-2.273-1.32,0-1.43,1.961Zm11.149,1.766a.608.608,0,0,0-.352-.539,5.347,5.347,0,0,0-1.336-.422A6.092,6.092,0,0,1,61.7,33.09a2.722,2.722,0,0,1-.977-.863,2.061,2.061,0,0,1-.336-1.164,2.336,2.336,0,0,1,.961-1.918,3.958,3.958,0,0,1,2.516-.754,4.386,4.386,0,0,1,2.688.758,2.37,2.37,0,0,1,1.016,1.992H64.928q0-1.016-1.07-1.016a1.061,1.061,0,0,0-.7.23.714.714,0,0,0-.281.574.655.655,0,0,0,.344.57,3.248,3.248,0,0,0,1.1.359,9.486,9.486,0,0,1,1.324.336,2.406,2.406,0,0,1,1.906,2.352,2.214,2.214,0,0,1-1.027,1.883,4.505,4.505,0,0,1-2.66.727,4.6,4.6,0,0,1-1.937-.391A3.24,3.24,0,0,1,60.6,35.7a2.406,2.406,0,0,1-.477-1.414h2.461a1.017,1.017,0,0,0,.391.855,1.607,1.607,0,0,0,.961.27,1.264,1.264,0,0,0,.809-.219A.7.7,0,0,0,65.014,34.625Z" transform="translate(-670 -4301)" fill="#12263f"/>
      <path id="Trazado_1032966" data-name="Trazado 1032966" d="M8,0l8,10H0Z" transform="translate(-612 -4233) rotate(180)" fill="#fff"/>
      <path id="Trazado_1032967" data-name="Trazado 1032967" d="M8,0l8,10H0Z" transform="translate(-453 -4065) rotate(180)" fill="#fff"/>
      <path id="Trazado_1032968" data-name="Trazado 1032968" d="M8,0l8,10H0Z" transform="translate(-612 -3897) rotate(180)" fill="#fff"/>
      <path id="Trazado_1032969" data-name="Trazado 1032969" d="M8,0l8,10H0Z" transform="translate(-449 -3721) rotate(180)" fill="#fff"/>
      <path id="Trazado_1032970" data-name="Trazado 1032970" d="M8,0l8,10H0Z" transform="translate(-472 -4346)" fill="#fff"/>
      <path id="Trazado_1032971" data-name="Trazado 1032971" d="M8,0l8,10H0Z" transform="translate(-630 -4178)" fill="#fff"/>
      <path id="Trazado_1032972" data-name="Trazado 1032972" d="M8,0l8,10H0Z" transform="translate(-473 -4009)" fill="#fff"/>
      <path id="Trazado_1032973" data-name="Trazado 1032973" d="M8,0l8,10H0Z" transform="translate(-628 -3834)" fill="#fff"/>
      <path id="Trazado_1032974" data-name="Trazado 1032974" d="M10,0H111a10,10,0,0,1,10,10v95a10,10,0,0,1-10,10H10A10,10,0,0,1,0,105V10A10,10,0,0,1,10,0Z" transform="translate(-522 -4339)" fill="#fff"/>
      <path id="Trazado_1032975" data-name="Trazado 1032975" d="M28.65,13.977a1.127,1.127,0,0,0-.426-.937,5.292,5.292,0,0,0-1.5-.7,14.353,14.353,0,0,1-1.75-.7,3.314,3.314,0,0,1-2.211-2.984A2.676,2.676,0,0,1,23.318,7a3.562,3.562,0,0,1,1.559-1.125,6.065,6.065,0,0,1,2.266-.4,5.305,5.305,0,0,1,2.2.438,3.482,3.482,0,0,1,1.512,1.246A3.254,3.254,0,0,1,31.392,9H28.658a1.375,1.375,0,0,0-.426-1.078,1.66,1.66,0,0,0-1.152-.383,1.872,1.872,0,0,0-1.16.324.955.955,0,0,0,.043,1.617,5.911,5.911,0,0,0,1.648.734,10.1,10.1,0,0,1,1.938.816,3.256,3.256,0,0,1,1.844,2.93A2.778,2.778,0,0,1,30.267,16.3a5,5,0,0,1-3.086.852,6.122,6.122,0,0,1-2.5-.5A3.775,3.775,0,0,1,22.99,15.3a3.542,3.542,0,0,1-.566-1.988h2.75a1.744,1.744,0,0,0,.473,1.348,2.234,2.234,0,0,0,1.535.434,1.765,1.765,0,0,0,1.074-.293A.967.967,0,0,0,28.65,13.977Zm11.243-1.8H35.581v2.719h5.094V17H32.838V5.625H40.69V7.742H35.581v2.4h4.313Zm4.681,2.719h4.773V17H41.832V5.625h2.742ZM57.6,12.172H53.286v2.719h5.094V17H50.543V5.625h7.852V7.742H53.286v2.4H57.6Zm11.142.977a4.154,4.154,0,0,1-.641,2.1,3.866,3.866,0,0,1-1.645,1.41,5.6,5.6,0,0,1-2.418.5A4.467,4.467,0,0,1,60.505,15.7a6.032,6.032,0,0,1-1.289-4.125v-.562A6.885,6.885,0,0,1,59.8,8.082a4.41,4.41,0,0,1,1.676-1.937,4.676,4.676,0,0,1,2.531-.684,4.9,4.9,0,0,1,3.328,1.09,4.306,4.306,0,0,1,1.43,3H66.029a2.037,2.037,0,0,0-.523-1.492,2.153,2.153,0,0,0-1.5-.453,1.638,1.638,0,0,0-1.5.766,4.921,4.921,0,0,0-.5,2.445v.8a5.445,5.445,0,0,0,.457,2.6,1.672,1.672,0,0,0,1.574.781,2.106,2.106,0,0,0,1.445-.445,1.89,1.89,0,0,0,.531-1.414ZM78.78,7.742H75.366V17H72.623V7.742H69.272V5.625H78.78Z" transform="translate(-513 -4291)" fill="#12263f"/>
      <path id="Trazado_1032976" data-name="Trazado 1032976" d="M10,0h99a10,10,0,0,1,10,10v95a10,10,0,0,1-10,10H10A10,10,0,0,1,0,105V10A10,10,0,0,1,10,0Z" transform="translate(-679 -3827)" fill="#fff"/>
      <path id="Trazado_1032977" data-name="Trazado 1032977" d="M10,0H110a10,10,0,0,1,10,10v95a10,10,0,0,1-10,10H10A10,10,0,0,1,0,105V10A10,10,0,0,1,10,0Z" transform="translate(-682 -4171)" fill="#fff"/>
      <path id="Trazado_1032978" data-name="Trazado 1032978" d="M10,0H111a10,10,0,0,1,10,10v95a10,10,0,0,1-10,10H10A10,10,0,0,1,0,105V10A10,10,0,0,1,10,0Z" transform="translate(-680 -4020)" fill="#fff"/>
      <path id="Trazado_1032979" data-name="Trazado 1032979" d="M10,0H110a10,10,0,0,1,10,10v95a10,10,0,0,1-10,10H10A10,10,0,0,1,0,105V10A10,10,0,0,1,10,0Z" transform="translate(-517 -3844)" fill="#fff"/>
      <path id="Trazado_1032980" data-name="Trazado 1032980" d="M10,0H110a10,10,0,0,1,10,10v95a10,10,0,0,1-10,10H10A10,10,0,0,1,0,105V10A10,10,0,0,1,10,0Z" transform="translate(-521 -4188)" fill="#fff"/>
      <path id="Trazado_1032981" data-name="Trazado 1032981" d="M10,0h99a10,10,0,0,1,10,10v95a10,10,0,0,1-10,10H10A10,10,0,0,1,0,105V10A10,10,0,0,1,10,0Z" transform="translate(-524 -4002)" fill="#fff"/>
      <path id="Trazado_1032982" data-name="Trazado 1032982" d="M33.346,12.758l1.3-7.133h2.719L34.955,17H32.111l-1.523-6.484L29.1,17H26.26L23.838,5.625h2.727l1.3,7.133,1.563-7.133H31.76ZM47.987,17H45.261V12.25H41.222V17H38.48V5.625h2.742v4.516h4.039V5.625h2.727Zm8.829-4.828H52.5v2.719H57.6V17H49.762V5.625h7.852V7.742H52.5v2.4h4.313Zm6.165.8H61.5V17H58.755V5.625h4.477a5,5,0,0,1,3.164.9,3.041,3.041,0,0,1,1.141,2.536,3.693,3.693,0,0,1-.48,1.967,3.41,3.41,0,0,1-1.5,1.264l2.375,4.593V17H64.989ZM61.5,10.867h1.734a1.557,1.557,0,0,0,1.176-.411A1.59,1.59,0,0,0,64.8,9.309a1.608,1.608,0,0,0-.4-1.155,1.542,1.542,0,0,0-1.172-.419H61.5Zm14.79,1.3H71.975v2.719h5.094V17H69.232V5.625h7.852V7.742H71.975v2.4h4.313ZM29.728,32.383a12.079,12.079,0,0,1,.473-3.391,9.85,9.85,0,0,1,1.41-2.953,6,6,0,0,1,1.945-1.875l.3.953a6.222,6.222,0,0,0-1.871,2.672,11.583,11.583,0,0,0-.8,4.023l-.008.664a11.643,11.643,0,0,0,1.1,5.234,6.252,6.252,0,0,0,1.578,2.078l-.3.883a6.192,6.192,0,0,1-1.984-1.937A10.859,10.859,0,0,1,29.728,32.383ZM35.775,37V29.664H34.44V28.547h1.336v-.719a2.937,2.937,0,0,1,.809-2.2,3.136,3.136,0,0,1,2.285-.789,6.881,6.881,0,0,1,2.211.477l-.242,1.219a5.008,5.008,0,0,0-1.859-.391,1.819,1.819,0,0,0-1.34.418,1.723,1.723,0,0,0-.41,1.254v.734h1.727v1.117H37.229V37ZM41.8,37H40.346V28.547H41.8Zm3.962,0H44.315V25h1.445Zm4.313-10.5v2.047h1.578v1.117H50.074v5.249a1.173,1.173,0,0,0,.211.763A.888.888,0,0,0,51,35.93a3.5,3.5,0,0,0,.688-.094V37a4.215,4.215,0,0,1-1.109.155,1.8,1.8,0,0,1-1.461-.586,2.517,2.517,0,0,1-.492-1.664V29.664H47.09V28.547h1.539V26.5Zm7.392,3.344a4.331,4.331,0,0,0-.711-.055A1.9,1.9,0,0,0,54.825,31v6H53.38V28.547h1.406l.023.977a2.251,2.251,0,0,1,2.016-1.133,1.477,1.477,0,0,1,.641.109Zm.829,2.852a4.993,4.993,0,0,1,.488-2.234,3.643,3.643,0,0,1,1.359-1.531,3.7,3.7,0,0,1,1.988-.539,3.565,3.565,0,0,1,2.793,1.2,4.6,4.6,0,0,1,1.066,3.18v.1a5.036,5.036,0,0,1-.473,2.215,3.589,3.589,0,0,1-1.352,1.527,3.743,3.743,0,0,1-2.02.547,3.556,3.556,0,0,1-2.785-1.2A4.575,4.575,0,0,1,58.295,32.8Zm1.453.172a3.616,3.616,0,0,0,.652,2.258,2.211,2.211,0,0,0,3.5-.012,3.955,3.955,0,0,0,.648-2.418,3.61,3.61,0,0,0-.66-2.254,2.1,2.1,0,0,0-1.754-.863,2.075,2.075,0,0,0-1.727.852A3.925,3.925,0,0,0,59.748,32.867Zm11.431-.406a12.085,12.085,0,0,1-.457,3.34,9.876,9.876,0,0,1-1.4,2.949,6.127,6.127,0,0,1-1.973,1.922l-.3-.883a6.281,6.281,0,0,0,1.934-2.863,12.387,12.387,0,0,0,.746-4.309v-.25a12.861,12.861,0,0,0-.344-3.051,10.3,10.3,0,0,0-.957-2.527,5.838,5.838,0,0,0-1.379-1.742l.3-.883a6.1,6.1,0,0,1,1.965,1.906,9.9,9.9,0,0,1,1.4,2.945A12.363,12.363,0,0,1,71.179,32.461Z" transform="translate(-511 -4150)" fill="#12263f"/>
      <path id="Trazado_1032983" data-name="Trazado 1032983" d="M37.78,5.625h2.734v7.8a3.732,3.732,0,0,1-.5,1.938,3.44,3.44,0,0,1-1.406,1.32,4.3,4.3,0,0,1-2.012.469,4.143,4.143,0,0,1-2.891-.937,3.407,3.407,0,0,1-1.031-2.656h2.75a1.878,1.878,0,0,0,.27,1.133,1.067,1.067,0,0,0,.9.352,1.021,1.021,0,0,0,.879-.426,2,2,0,0,0,.309-1.191Zm14.134,5.922a6.708,6.708,0,0,1-.617,2.945,4.561,4.561,0,0,1-1.754,1.973,4.884,4.884,0,0,1-2.59.691,4.953,4.953,0,0,1-2.578-.668,4.554,4.554,0,0,1-1.754-1.91,6.515,6.515,0,0,1-.66-2.852v-.641a6.737,6.737,0,0,1,.613-2.949,4.55,4.55,0,0,1,1.758-1.973,5.2,5.2,0,0,1,5.184-.008,4.632,4.632,0,0,1,1.762,1.957,6.544,6.544,0,0,1,.637,2.91Zm-2.789-.477A4.783,4.783,0,0,0,48.558,8.5a1.817,1.817,0,0,0-1.621-.879q-2.062,0-2.18,3.094l-.008.836a4.92,4.92,0,0,0,.555,2.57,1.814,1.814,0,0,0,1.648.9,1.792,1.792,0,0,0,1.6-.883,4.785,4.785,0,0,0,.57-2.539ZM56.29,17H53.555V5.625H56.29Zm11.446,0H65.009L60.978,9.922V17H58.236V5.625h2.742L65,12.7V5.625h2.734ZM2.522,32.383a12.079,12.079,0,0,1,.473-3.391A9.85,9.85,0,0,1,4.4,26.039,6,6,0,0,1,6.35,24.164l.3.953a6.222,6.222,0,0,0-1.871,2.672,11.583,11.583,0,0,0-.8,4.023l-.008.664a11.643,11.643,0,0,0,1.1,5.234,6.252,6.252,0,0,0,1.578,2.078l-.3.883a6.192,6.192,0,0,1-1.984-1.937A10.859,10.859,0,0,1,2.522,32.383Zm8.954,3.594a2.082,2.082,0,0,0,1.352-.469,1.649,1.649,0,0,0,.641-1.172h1.367a2.621,2.621,0,0,1-.5,1.383,3.293,3.293,0,0,1-1.23,1.047,3.55,3.55,0,0,1-1.629.391A3.482,3.482,0,0,1,8.73,36a4.59,4.59,0,0,1-1.02-3.152v-.242a5.089,5.089,0,0,1,.453-2.2,3.451,3.451,0,0,1,1.3-1.492,3.7,3.7,0,0,1,2-.531,3.39,3.39,0,0,1,2.363.852,3.043,3.043,0,0,1,1,2.211H13.468a1.992,1.992,0,0,0-.621-1.348,1.932,1.932,0,0,0-1.379-.527,2.023,2.023,0,0,0-1.707.793,3.724,3.724,0,0,0-.605,2.293v.273a3.65,3.65,0,0,0,.6,2.25A2.033,2.033,0,0,0,11.476,35.977ZM16.118,32.7a4.993,4.993,0,0,1,.488-2.234,3.643,3.643,0,0,1,1.359-1.531,3.7,3.7,0,0,1,1.988-.539,3.565,3.565,0,0,1,2.793,1.2,4.6,4.6,0,0,1,1.066,3.18v.1a5.036,5.036,0,0,1-.473,2.215,3.589,3.589,0,0,1-1.352,1.527,3.743,3.743,0,0,1-2.02.547,3.556,3.556,0,0,1-2.785-1.2A4.575,4.575,0,0,1,16.118,32.8Zm1.453.172a3.616,3.616,0,0,0,.652,2.258,2.211,2.211,0,0,0,3.5-.012,3.955,3.955,0,0,0,.648-2.418,3.61,3.61,0,0,0-.66-2.254,2.1,2.1,0,0,0-1.754-.863,2.075,2.075,0,0,0-1.727.852A3.925,3.925,0,0,0,17.571,32.867Zm9.454-4.32.039.938a3.122,3.122,0,0,1,2.508-1.094,2.417,2.417,0,0,1,2.414,1.359,3.2,3.2,0,0,1,1.1-.984,3.242,3.242,0,0,1,1.6-.375q2.781,0,2.828,2.945V37H36.064V31.422a1.941,1.941,0,0,0-.414-1.355,1.823,1.823,0,0,0-1.391-.449,1.916,1.916,0,0,0-1.336.48,1.949,1.949,0,0,0-.617,1.293V37H30.853V31.461a1.613,1.613,0,0,0-1.8-1.844A1.934,1.934,0,0,0,27.1,30.828V37H25.658V28.547Zm19.86,4.32a5.026,5.026,0,0,1-.891,3.113A2.846,2.846,0,0,1,43.6,37.156a2.947,2.947,0,0,1-2.477-1.133l-.07.977H39.729V25h1.445v4.477a2.93,2.93,0,0,1,2.414-1.086,2.863,2.863,0,0,1,2.418,1.164,5.177,5.177,0,0,1,.879,3.188ZM45.44,32.7a3.906,3.906,0,0,0-.57-2.281,1.888,1.888,0,0,0-1.641-.8,2.122,2.122,0,0,0-2.055,1.328V34.6a2.181,2.181,0,0,0,2.07,1.328,1.878,1.878,0,0,0,1.617-.8A4.153,4.153,0,0,0,45.44,32.7ZM50.316,37H48.871V28.547h1.445ZM48.753,26.3a.863.863,0,0,1,.215-.594.807.807,0,0,1,.637-.242.819.819,0,0,1,.641.242.854.854,0,0,1,.219.594.826.826,0,0,1-.219.586.834.834,0,0,1-.641.234.821.821,0,0,1-.637-.234A.834.834,0,0,1,48.753,26.3Zm5.282,2.242.047,1.063a3.08,3.08,0,0,1,2.531-1.219q2.68,0,2.7,3.023V37H57.872V31.406a1.946,1.946,0,0,0-.418-1.352,1.675,1.675,0,0,0-1.277-.437,2.086,2.086,0,0,0-1.234.375,2.546,2.546,0,0,0-.828.984V37H52.668V28.547ZM66.755,37a3.036,3.036,0,0,1-.2-.891,3.225,3.225,0,0,1-2.406,1.047,2.984,2.984,0,0,1-2.051-.707,2.287,2.287,0,0,1-.8-1.793,2.39,2.39,0,0,1,1-2.051,4.733,4.733,0,0,1,2.824-.73h1.406v-.664A1.623,1.623,0,0,0,66.076,30a1.821,1.821,0,0,0-1.336-.449,2.107,2.107,0,0,0-1.3.391,1.151,1.151,0,0,0-.523.945H61.466a2,2,0,0,1,.449-1.223,3.066,3.066,0,0,1,1.219-.934,4.1,4.1,0,0,1,1.691-.344,3.342,3.342,0,0,1,2.289.73,2.635,2.635,0,0,1,.859,2.012v3.891a4.757,4.757,0,0,0,.3,1.852V37Zm-2.4-1.1a2.54,2.54,0,0,0,1.289-.352,2.127,2.127,0,0,0,.883-.914V32.9H65.4q-2.656,0-2.656,1.555a1.316,1.316,0,0,0,.453,1.063A1.742,1.742,0,0,0,64.357,35.9Zm9.313.078a2.082,2.082,0,0,0,1.352-.469,1.649,1.649,0,0,0,.641-1.172H77.03a2.621,2.621,0,0,1-.5,1.383,3.293,3.293,0,0,1-1.23,1.047,3.55,3.55,0,0,1-1.629.391A3.482,3.482,0,0,1,70.924,36a4.59,4.59,0,0,1-1.02-3.152v-.242a5.089,5.089,0,0,1,.453-2.2,3.451,3.451,0,0,1,1.3-1.492,3.7,3.7,0,0,1,2-.531,3.39,3.39,0,0,1,2.363.852,3.043,3.043,0,0,1,1,2.211H75.662a1.992,1.992,0,0,0-.621-1.348,1.932,1.932,0,0,0-1.379-.527,2.023,2.023,0,0,0-1.707.793,3.724,3.724,0,0,0-.605,2.293v.273a3.65,3.65,0,0,0,.6,2.25A2.033,2.033,0,0,0,73.67,35.977ZM80.265,37H78.82V28.547h1.445ZM78.7,26.3a.863.863,0,0,1,.215-.594.807.807,0,0,1,.637-.242.819.819,0,0,1,.641.242.854.854,0,0,1,.219.594.826.826,0,0,1-.219.586.834.834,0,0,1-.641.234.821.821,0,0,1-.637-.234A.834.834,0,0,1,78.7,26.3ZM82.235,32.7a4.993,4.993,0,0,1,.488-2.234,3.643,3.643,0,0,1,1.359-1.531,3.7,3.7,0,0,1,1.988-.539,3.565,3.565,0,0,1,2.793,1.2,4.6,4.6,0,0,1,1.066,3.18v.1a5.036,5.036,0,0,1-.473,2.215,3.589,3.589,0,0,1-1.352,1.527,3.743,3.743,0,0,1-2.02.547,3.556,3.556,0,0,1-2.785-1.2A4.575,4.575,0,0,1,82.235,32.8Zm1.453.172a3.616,3.616,0,0,0,.652,2.258,2.211,2.211,0,0,0,3.5-.012,3.955,3.955,0,0,0,.648-2.418,3.61,3.61,0,0,0-.66-2.254,2.1,2.1,0,0,0-1.754-.863,2.075,2.075,0,0,0-1.727.852A3.925,3.925,0,0,0,83.688,32.867ZM86.727,25h1.75l-2.094,2.3-1.164,0Zm6.423,3.547.047,1.063a3.08,3.08,0,0,1,2.531-1.219q2.68,0,2.7,3.023V37H96.986V31.406a1.946,1.946,0,0,0-.418-1.352,1.675,1.675,0,0,0-1.277-.437,2.086,2.086,0,0,0-1.234.375,2.546,2.546,0,0,0-.828.984V37H91.783V28.547ZM15.679,52.7a4.952,4.952,0,0,1,.922-3.129,2.915,2.915,0,0,1,2.414-1.184,2.932,2.932,0,0,1,2.352,1.016V45h1.445V57H21.484l-.07-.906A2.943,2.943,0,0,1,19,57.156a2.887,2.887,0,0,1-2.395-1.2,5.008,5.008,0,0,1-.926-3.141Zm1.445.164a3.749,3.749,0,0,0,.594,2.25,1.92,1.92,0,0,0,1.641.813A2.108,2.108,0,0,0,21.367,54.7V50.813a2.125,2.125,0,0,0-1.992-1.2,1.929,1.929,0,0,0-1.656.82A4.128,4.128,0,0,0,17.125,52.867ZM28.6,57.156a3.693,3.693,0,0,1-2.8-1.129,4.19,4.19,0,0,1-1.078-3.02v-.266a5.073,5.073,0,0,1,.48-2.246,3.748,3.748,0,0,1,1.344-1.547,3.378,3.378,0,0,1,1.871-.559,3.166,3.166,0,0,1,2.563,1.086,4.7,4.7,0,0,1,.914,3.109v.6H26.173a3,3,0,0,0,.73,2.02,2.3,2.3,0,0,0,1.777.77,2.517,2.517,0,0,0,1.3-.312,3.259,3.259,0,0,0,.93-.828l.883.688A3.55,3.55,0,0,1,28.6,57.156Zm-.18-7.578a1.928,1.928,0,0,0-1.469.637A3.1,3.1,0,0,0,26.219,52h4.234v-.109a2.753,2.753,0,0,0-.594-1.707A1.815,1.815,0,0,0,28.423,49.578ZM39.573,46.5v2.047h1.578v1.117H39.573v5.249a1.173,1.173,0,0,0,.211.763.888.888,0,0,0,.719.254,3.5,3.5,0,0,0,.688-.094V57a4.215,4.215,0,0,1-1.109.155,1.8,1.8,0,0,1-1.461-.586,2.517,2.517,0,0,1-.492-1.664V49.664H36.588V48.547h1.539V46.5ZM48.1,57a3.036,3.036,0,0,1-.2-.891,3.225,3.225,0,0,1-2.406,1.047,2.984,2.984,0,0,1-2.051-.707,2.287,2.287,0,0,1-.8-1.793,2.39,2.39,0,0,1,1-2.051,4.733,4.733,0,0,1,2.824-.73h1.406v-.664A1.623,1.623,0,0,0,47.417,50a1.821,1.821,0,0,0-1.336-.449,2.107,2.107,0,0,0-1.3.391,1.151,1.151,0,0,0-.523.945H42.808a2,2,0,0,1,.449-1.223,3.066,3.066,0,0,1,1.219-.934,4.1,4.1,0,0,1,1.691-.344,3.342,3.342,0,0,1,2.289.73,2.635,2.635,0,0,1,.859,2.012v3.891a4.757,4.757,0,0,0,.3,1.852V57Zm-2.4-1.1a2.54,2.54,0,0,0,1.289-.352,2.127,2.127,0,0,0,.883-.914V52.9H46.738q-2.656,0-2.656,1.555a1.316,1.316,0,0,0,.453,1.063A1.742,1.742,0,0,0,45.7,55.9Zm13.079-3.031a5.026,5.026,0,0,1-.891,3.113A2.846,2.846,0,0,1,55.5,57.156a2.947,2.947,0,0,1-2.477-1.133L52.95,57H51.622V45h1.445v4.477a2.93,2.93,0,0,1,2.414-1.086A2.863,2.863,0,0,1,57.9,49.555a5.177,5.177,0,0,1,.879,3.188ZM57.333,52.7a3.906,3.906,0,0,0-.57-2.281,1.888,1.888,0,0,0-1.641-.8,2.122,2.122,0,0,0-2.055,1.328V54.6a2.181,2.181,0,0,0,2.07,1.328,1.878,1.878,0,0,0,1.617-.8A4.153,4.153,0,0,0,57.333,52.7ZM62.208,57H60.763V45h1.445Zm7.571,0a3.036,3.036,0,0,1-.2-.891,3.225,3.225,0,0,1-2.406,1.047,2.984,2.984,0,0,1-2.051-.707,2.287,2.287,0,0,1-.8-1.793,2.39,2.39,0,0,1,1-2.051,4.733,4.733,0,0,1,2.824-.73h1.406v-.664A1.623,1.623,0,0,0,69.1,50a1.821,1.821,0,0,0-1.336-.449,2.107,2.107,0,0,0-1.3.391,1.151,1.151,0,0,0-.523.945H64.491a2,2,0,0,1,.449-1.223,3.066,3.066,0,0,1,1.219-.934,4.1,4.1,0,0,1,1.691-.344,3.342,3.342,0,0,1,2.289.73A2.635,2.635,0,0,1,71,51.133v3.891a4.757,4.757,0,0,0,.3,1.852V57Zm-2.4-1.1a2.54,2.54,0,0,0,1.289-.352,2.127,2.127,0,0,0,.883-.914V52.9H68.42q-2.656,0-2.656,1.555a1.316,1.316,0,0,0,.453,1.063A1.742,1.742,0,0,0,67.381,55.9Zm10.845-1.141a1.064,1.064,0,0,0-.441-.91,4.249,4.249,0,0,0-1.539-.559,7.277,7.277,0,0,1-1.742-.562,2.479,2.479,0,0,1-.953-.781,1.869,1.869,0,0,1-.309-1.078,2.193,2.193,0,0,1,.879-1.758,3.432,3.432,0,0,1,2.246-.719,3.532,3.532,0,0,1,2.332.742,2.357,2.357,0,0,1,.895,1.9H78.14a1.3,1.3,0,0,0-.5-1.023,1.888,1.888,0,0,0-1.27-.43,1.976,1.976,0,0,0-1.234.344,1.082,1.082,0,0,0-.445.9.877.877,0,0,0,.414.789,5.1,5.1,0,0,0,1.5.508,7.8,7.8,0,0,1,1.754.578,2.558,2.558,0,0,1,1,.809,1.988,1.988,0,0,1,.324,1.152,2.163,2.163,0,0,1-.906,1.816,3.8,3.8,0,0,1-2.352.684,4.257,4.257,0,0,1-1.8-.359,2.922,2.922,0,0,1-1.223-1,2.42,2.42,0,0,1-.441-1.395H74.4a1.5,1.5,0,0,0,.582,1.152,2.258,2.258,0,0,0,1.434.426,2.331,2.331,0,0,0,1.316-.332A1.02,1.02,0,0,0,78.226,54.758Zm6.7-2.3a12.085,12.085,0,0,1-.457,3.34,9.876,9.876,0,0,1-1.4,2.949A6.127,6.127,0,0,1,81.1,60.672l-.3-.883a6.281,6.281,0,0,0,1.934-2.863,12.387,12.387,0,0,0,.746-4.309v-.25a12.861,12.861,0,0,0-.344-3.051,10.3,10.3,0,0,0-.957-2.527A5.838,5.838,0,0,0,80.8,45.047l.3-.883a6.1,6.1,0,0,1,1.965,1.906,9.9,9.9,0,0,1,1.4,2.945A12.363,12.363,0,0,1,84.93,52.461Z" transform="translate(-672 -4153)" fill="#12263f"/>
      <path id="Trazado_1032984" data-name="Trazado 1032984" d="M21.852,15.594A4.409,4.409,0,0,1,20,16.727a7.986,7.986,0,0,1-2.672.43,4.764,4.764,0,0,1-3.57-1.367,5.534,5.534,0,0,1-1.43-3.8L12.321,11a6.788,6.788,0,0,1,.594-2.934,4.409,4.409,0,0,1,1.7-1.93,4.807,4.807,0,0,1,2.559-.676,5.039,5.039,0,0,1,3.3.973,4.121,4.121,0,0,1,1.371,2.9H19.2a2.157,2.157,0,0,0-.609-1.359,1.966,1.966,0,0,0-1.328-.406,1.789,1.789,0,0,0-1.594.875,4.672,4.672,0,0,0-.57,2.5v.688a4.574,4.574,0,0,0,.582,2.559,2.059,2.059,0,0,0,1.832.855,2.3,2.3,0,0,0,1.594-.477V12.8H17.2V10.922h4.648Zm5.86-2.617H26.228V17H23.486V5.625h4.477a5,5,0,0,1,3.164.9,3.041,3.041,0,0,1,1.141,2.536,3.693,3.693,0,0,1-.48,1.967,3.41,3.41,0,0,1-1.5,1.264l2.375,4.593V17H29.72Zm-1.484-2.109h1.734a1.557,1.557,0,0,0,1.176-.411,1.59,1.59,0,0,0,.395-1.147,1.608,1.608,0,0,0-.4-1.155,1.542,1.542,0,0,0-1.172-.419H26.228Zm17.368.68a6.708,6.708,0,0,1-.617,2.945,4.561,4.561,0,0,1-1.754,1.973,4.884,4.884,0,0,1-2.59.691,4.953,4.953,0,0,1-2.578-.668,4.554,4.554,0,0,1-1.754-1.91,6.515,6.515,0,0,1-.66-2.852v-.641a6.737,6.737,0,0,1,.613-2.949,4.55,4.55,0,0,1,1.758-1.973A5.2,5.2,0,0,1,41.2,6.156,4.632,4.632,0,0,1,42.96,8.113a6.544,6.544,0,0,1,.637,2.91Zm-2.789-.477A4.783,4.783,0,0,0,40.241,8.5a1.817,1.817,0,0,0-1.621-.879q-2.062,0-2.18,3.094l-.008.836a4.92,4.92,0,0,0,.555,2.57,1.814,1.814,0,0,0,1.648.9,1.792,1.792,0,0,0,1.6-.883,4.785,4.785,0,0,0,.57-2.539ZM53.972,5.625V13.07a4.279,4.279,0,0,1-.539,2.191,3.492,3.492,0,0,1-1.547,1.41,5.449,5.449,0,0,1-2.383.484,4.708,4.708,0,0,1-3.273-1.078,3.845,3.845,0,0,1-1.219-2.953v-7.5h2.758V13.18q.047,1.867,1.734,1.867a1.679,1.679,0,0,0,1.289-.469,2.191,2.191,0,0,0,.438-1.523V5.625Zm4.493,7.516V17H55.723V5.625h4.539a5.287,5.287,0,0,1,2.309.48,3.621,3.621,0,0,1,1.555,1.367,3.734,3.734,0,0,1,.551,2.012,3.291,3.291,0,0,1-1.191,2.66,4.943,4.943,0,0,1-3.27,1Zm0-2.117h1.8a1.7,1.7,0,0,0,1.215-.4A1.48,1.48,0,0,0,61.9,9.5a1.83,1.83,0,0,0-.43-1.273,1.522,1.522,0,0,0-1.172-.484H58.465ZM70.2,17V5.625h4.086a5.786,5.786,0,0,1,3.34.8,2.677,2.677,0,0,1,1.145,2.336,2.706,2.706,0,0,1-.406,1.508,2.367,2.367,0,0,1-1.2.922,2.4,2.4,0,0,1,1.367.875,2.544,2.544,0,0,1,.477,1.563,3.012,3.012,0,0,1-1.059,2.512A5.038,5.038,0,0,1,74.819,17Zm2.742-4.836v2.727h1.8a1.709,1.709,0,0,0,1.141-.34,1.189,1.189,0,0,0,.4-.957,1.261,1.261,0,0,0-1.414-1.43Zm0-1.8h1.43a2.031,2.031,0,0,0,1.281-.329,1.168,1.168,0,0,0,.383-.948,1.226,1.226,0,0,0-.414-1.038,2.216,2.216,0,0,0-1.336-.317H72.944Zm11.352.2L86.39,5.625h2.961l-3.664,7.289V17H82.906V12.914L79.249,5.625h2.945ZM5.9,32.383a12.079,12.079,0,0,1,.473-3.391,9.85,9.85,0,0,1,1.41-2.953,6,6,0,0,1,1.945-1.875l.3.953a6.222,6.222,0,0,0-1.871,2.672,11.583,11.583,0,0,0-.8,4.023l-.008.664a11.643,11.643,0,0,0,1.1,5.234,6.252,6.252,0,0,0,1.578,2.078l-.3.883a6.192,6.192,0,0,1-1.984-1.937A10.859,10.859,0,0,1,5.9,32.383ZM16.683,37a3.036,3.036,0,0,1-.2-.891,3.225,3.225,0,0,1-2.406,1.047,2.984,2.984,0,0,1-2.051-.707,2.287,2.287,0,0,1-.8-1.793,2.39,2.39,0,0,1,1-2.051,4.733,4.733,0,0,1,2.824-.73h1.406v-.664A1.623,1.623,0,0,0,16,30a1.821,1.821,0,0,0-1.336-.449,2.108,2.108,0,0,0-1.3.391,1.151,1.151,0,0,0-.523.945H11.394a2,2,0,0,1,.449-1.223,3.066,3.066,0,0,1,1.219-.934,4.1,4.1,0,0,1,1.691-.344,3.342,3.342,0,0,1,2.289.73,2.635,2.635,0,0,1,.859,2.012v3.891a4.757,4.757,0,0,0,.3,1.852V37Zm-2.4-1.1a2.54,2.54,0,0,0,1.289-.352,2.127,2.127,0,0,0,.883-.914V32.9H15.324q-2.656,0-2.656,1.555a1.316,1.316,0,0,0,.453,1.063A1.742,1.742,0,0,0,14.285,35.9Zm5.579-3.2a4.968,4.968,0,0,1,.914-3.145,3.151,3.151,0,0,1,4.836-.074l.07-.937H27V36.8a3.439,3.439,0,0,1-.973,2.586,3.589,3.589,0,0,1-2.613.945,4.348,4.348,0,0,1-1.789-.391,3.08,3.08,0,0,1-1.336-1.07l.75-.867a2.826,2.826,0,0,0,2.273,1.148,2.214,2.214,0,0,0,1.645-.594,2.269,2.269,0,0,0,.59-1.672v-.727a2.971,2.971,0,0,1-2.367,1,2.887,2.887,0,0,1-2.4-1.2A5.224,5.224,0,0,1,19.864,32.7Zm1.453.164a3.79,3.79,0,0,0,.586,2.246,1.9,1.9,0,0,0,1.641.816,2.117,2.117,0,0,0,2.008-1.242V30.828a2.142,2.142,0,0,0-1.992-1.211,1.921,1.921,0,0,0-1.648.82A4.128,4.128,0,0,0,21.317,32.867ZM33.31,29.844a4.331,4.331,0,0,0-.711-.055A1.9,1.9,0,0,0,30.67,31v6H29.224V28.547H30.63l.023.977a2.251,2.251,0,0,1,2.016-1.133,1.477,1.477,0,0,1,.641.109Zm6.587,6.32a3.07,3.07,0,0,1-2.477.992,2.628,2.628,0,0,1-2.059-.785,3.4,3.4,0,0,1-.715-2.324v-5.5h1.445v5.461q0,1.922,1.563,1.922a2.163,2.163,0,0,0,2.2-1.234V28.547H41.3V37H39.928Zm10.782-3.3a5.062,5.062,0,0,1-.883,3.109,2.829,2.829,0,0,1-2.391,1.18,3.1,3.1,0,0,1-2.422-.977v4.07H43.539v-11.7h1.32l.07.938a2.977,2.977,0,0,1,2.453-1.094,2.882,2.882,0,0,1,2.41,1.148,5.117,5.117,0,0,1,.887,3.2ZM49.234,32.7a3.735,3.735,0,0,0-.609-2.258,1.963,1.963,0,0,0-1.672-.828,2.125,2.125,0,0,0-1.969,1.164V34.82a2.129,2.129,0,0,0,1.984,1.156,1.954,1.954,0,0,0,1.652-.824A4.077,4.077,0,0,0,49.234,32.7Zm8.54,4.3a3.036,3.036,0,0,1-.2-.891,3.225,3.225,0,0,1-2.406,1.047,2.984,2.984,0,0,1-2.051-.707,2.287,2.287,0,0,1-.8-1.793,2.39,2.39,0,0,1,1-2.051,4.733,4.733,0,0,1,2.824-.73h1.406v-.664A1.623,1.623,0,0,0,57.094,30a1.821,1.821,0,0,0-1.336-.449,2.107,2.107,0,0,0-1.3.391,1.151,1.151,0,0,0-.523.945H52.485a2,2,0,0,1,.449-1.223,3.066,3.066,0,0,1,1.219-.934,4.1,4.1,0,0,1,1.691-.344,3.342,3.342,0,0,1,2.289.73,2.635,2.635,0,0,1,.859,2.012v3.891a4.757,4.757,0,0,0,.3,1.852V37Zm-2.4-1.1a2.54,2.54,0,0,0,1.289-.352,2.127,2.127,0,0,0,.883-.914V32.9H56.415q-2.656,0-2.656,1.555a1.316,1.316,0,0,0,.453,1.063A1.742,1.742,0,0,0,55.375,35.9Zm9.313.078a2.082,2.082,0,0,0,1.352-.469,1.649,1.649,0,0,0,.641-1.172h1.367a2.621,2.621,0,0,1-.5,1.383,3.293,3.293,0,0,1-1.23,1.047,3.55,3.55,0,0,1-1.629.391A3.482,3.482,0,0,1,61.943,36a4.59,4.59,0,0,1-1.02-3.152v-.242a5.089,5.089,0,0,1,.453-2.2,3.451,3.451,0,0,1,1.3-1.492,3.7,3.7,0,0,1,2-.531,3.39,3.39,0,0,1,2.363.852,3.043,3.043,0,0,1,1,2.211H66.681a1.992,1.992,0,0,0-.621-1.348,1.932,1.932,0,0,0-1.379-.527,2.023,2.023,0,0,0-1.707.793,3.724,3.724,0,0,0-.605,2.293v.273a3.65,3.65,0,0,0,.6,2.25A2.033,2.033,0,0,0,64.689,35.977ZM71.284,37H69.838V28.547h1.445ZM69.721,26.3a.863.863,0,0,1,.215-.594.807.807,0,0,1,.637-.242.819.819,0,0,1,.641.242.854.854,0,0,1,.219.594.826.826,0,0,1-.219.586.834.834,0,0,1-.641.234.821.821,0,0,1-.637-.234A.834.834,0,0,1,69.721,26.3ZM73.253,32.7a4.993,4.993,0,0,1,.488-2.234A3.643,3.643,0,0,1,75.1,28.93a3.7,3.7,0,0,1,1.988-.539,3.565,3.565,0,0,1,2.793,1.2,4.6,4.6,0,0,1,1.066,3.18v.1a5.036,5.036,0,0,1-.473,2.215,3.589,3.589,0,0,1-1.352,1.527,3.743,3.743,0,0,1-2.02.547,3.556,3.556,0,0,1-2.785-1.2A4.575,4.575,0,0,1,73.253,32.8Zm1.453.172a3.616,3.616,0,0,0,.652,2.258,2.211,2.211,0,0,0,3.5-.012A3.955,3.955,0,0,0,79.5,32.7a3.61,3.61,0,0,0-.66-2.254,2.1,2.1,0,0,0-1.754-.863,2.075,2.075,0,0,0-1.727.852A3.925,3.925,0,0,0,74.706,32.867ZM77.745,25H79.5L77.4,27.3l-1.164,0Zm6.423,3.547.047,1.063a3.08,3.08,0,0,1,2.531-1.219q2.68,0,2.7,3.023V37H88V31.406a1.946,1.946,0,0,0-.418-1.352,1.675,1.675,0,0,0-1.277-.437,2.086,2.086,0,0,0-1.234.375,2.546,2.546,0,0,0-.828.984V37H82.8V28.547Zm10.837,3.914a12.085,12.085,0,0,1-.457,3.34,9.876,9.876,0,0,1-1.4,2.949,6.127,6.127,0,0,1-1.973,1.922l-.3-.883a6.281,6.281,0,0,0,1.934-2.863,12.387,12.387,0,0,0,.746-4.309v-.25a12.861,12.861,0,0,0-.344-3.051,10.3,10.3,0,0,0-.957-2.527,5.838,5.838,0,0,0-1.379-1.742l.3-.883a6.1,6.1,0,0,1,1.965,1.906,9.9,9.9,0,0,1,1.4,2.945A12.363,12.363,0,0,1,95.005,32.461Z" transform="translate(-670 -3982)" fill="#12263f"/>
      <path id="Trazado_1032985" data-name="Trazado 1032985" d="M21.238,12.469H16.817V17H14.074V5.625h7.609V7.742H16.817v2.617h4.422Zm6.368,3.617a2.714,2.714,0,0,1-2.258,1.07,2.662,2.662,0,0,1-2.105-.809,3.4,3.4,0,0,1-.715-2.324V8.547h2.633v5.492a.946.946,0,0,0,1.055,1.086,1.376,1.376,0,0,0,1.289-.648V8.547h2.648V17H27.685Zm6.446-7.539.086.992a2.867,2.867,0,0,1,2.414-1.148,2.412,2.412,0,0,1,1.973.789,3.757,3.757,0,0,1,.676,2.375V17H36.561V11.664a1.426,1.426,0,0,0-.258-.941,1.193,1.193,0,0,0-.937-.3,1.256,1.256,0,0,0-1.148.609V17H31.584V8.547Zm10.22,6.578a1.171,1.171,0,0,0,.859-.3,1.1,1.1,0,0,0,.3-.84H47.9a2.922,2.922,0,0,1-1,2.281,3.705,3.705,0,0,1-2.566.891A3.751,3.751,0,0,1,41.429,16a4.556,4.556,0,0,1-1.062-3.2v-.109a5.149,5.149,0,0,1,.473-2.262A3.441,3.441,0,0,1,42.2,8.918a4.065,4.065,0,0,1,2.109-.527,3.658,3.658,0,0,1,2.617.914,3.242,3.242,0,0,1,.969,2.477H45.429a1.445,1.445,0,0,0-.32-1.008,1.106,1.106,0,0,0-.859-.352q-1.023,0-1.2,1.3A9.206,9.206,0,0,0,43,12.867a3.616,3.616,0,0,0,.3,1.766A1.055,1.055,0,0,0,44.272,15.125ZM51.828,17H49.188V8.547h2.641Zm-2.8-10.633a1.175,1.175,0,0,1,.406-.922,1.727,1.727,0,0,1,2.109,0,1.175,1.175,0,0,1,.406.922,1.175,1.175,0,0,1-.406.922,1.727,1.727,0,0,1-2.109,0A1.175,1.175,0,0,1,49.031,6.367ZM53.157,12.7a4.989,4.989,0,0,1,.492-2.254,3.52,3.52,0,0,1,1.414-1.52,4.259,4.259,0,0,1,2.164-.531A3.887,3.887,0,0,1,60.22,9.566a4.512,4.512,0,0,1,1.094,3.2v.094A4.378,4.378,0,0,1,60.216,16a3.9,3.9,0,0,1-2.973,1.16,3.942,3.942,0,0,1-2.9-1.082,4.232,4.232,0,0,1-1.18-2.934Zm2.633.164a3.145,3.145,0,0,0,.367,1.719,1.223,1.223,0,0,0,1.086.547q1.406,0,1.438-2.164V12.7q0-2.273-1.453-2.273-1.32,0-1.43,1.961Zm9.142-4.312.086.992a2.867,2.867,0,0,1,2.414-1.148A2.412,2.412,0,0,1,69.4,9.18a3.757,3.757,0,0,1,.676,2.375V17H67.439V11.664a1.426,1.426,0,0,0-.258-.941,1.193,1.193,0,0,0-.937-.3,1.256,1.256,0,0,0-1.148.609V17H62.463V8.547Zm10.735,8.609A4.345,4.345,0,0,1,72.518,16a4.006,4.006,0,0,1-1.2-3.02v-.219a5.191,5.191,0,0,1,.48-2.289,3.516,3.516,0,0,1,1.4-1.535,4.233,4.233,0,0,1,2.188-.543A3.659,3.659,0,0,1,78.2,9.5a4.344,4.344,0,0,1,1.031,3.082V13.6H74a1.9,1.9,0,0,0,.617,1.117,1.836,1.836,0,0,0,1.234.406A2.366,2.366,0,0,0,77.8,14.25L79,15.672a3.363,3.363,0,0,1-1.395,1.082A4.713,4.713,0,0,1,75.667,17.156Zm-.3-6.734q-1.156,0-1.375,1.531h2.656v-.2a1.3,1.3,0,0,0-.32-.98A1.275,1.275,0,0,0,75.37,10.422Zm9.384,4.2a.608.608,0,0,0-.352-.539,5.348,5.348,0,0,0-1.336-.422,6.092,6.092,0,0,1-1.625-.574,2.722,2.722,0,0,1-.977-.863,2.061,2.061,0,0,1-.336-1.164,2.336,2.336,0,0,1,.961-1.918,3.958,3.958,0,0,1,2.516-.754,4.386,4.386,0,0,1,2.688.758,2.37,2.37,0,0,1,1.016,1.992H84.668q0-1.016-1.07-1.016a1.061,1.061,0,0,0-.7.23.714.714,0,0,0-.281.574.655.655,0,0,0,.344.57,3.248,3.248,0,0,0,1.1.359,9.486,9.486,0,0,1,1.324.336,2.406,2.406,0,0,1,1.906,2.352,2.214,2.214,0,0,1-1.027,1.883,4.505,4.505,0,0,1-2.66.727,4.6,4.6,0,0,1-1.937-.391A3.24,3.24,0,0,1,80.34,15.7a2.406,2.406,0,0,1-.477-1.414h2.461a1.017,1.017,0,0,0,.391.855,1.607,1.607,0,0,0,.961.27,1.264,1.264,0,0,0,.809-.219A.7.7,0,0,0,84.754,14.625ZM11.168,32.383a12.079,12.079,0,0,1,.473-3.391,9.85,9.85,0,0,1,1.41-2.953A6,6,0,0,1,15,24.164l.3.953a6.222,6.222,0,0,0-1.871,2.672,11.583,11.583,0,0,0-.8,4.023l-.008.664a11.643,11.643,0,0,0,1.1,5.234,6.252,6.252,0,0,0,1.578,2.078l-.3.883a6.192,6.192,0,0,1-1.984-1.937A10.859,10.859,0,0,1,11.168,32.383Zm9.142-.453A7.053,7.053,0,0,1,17.5,30.566a2.6,2.6,0,0,1-.879-2A2.751,2.751,0,0,1,17.7,26.348a4.269,4.269,0,0,1,2.793-.879,4.66,4.66,0,0,1,2.09.453A3.436,3.436,0,0,1,24,27.172a3.2,3.2,0,0,1,.5,1.742H23a2.08,2.08,0,0,0-.656-1.627,2.669,2.669,0,0,0-1.852-.592,2.732,2.732,0,0,0-1.73.489,1.632,1.632,0,0,0-.621,1.358,1.468,1.468,0,0,0,.59,1.178,5.785,5.785,0,0,0,2.008.88,9.316,9.316,0,0,1,2.219.88A3.367,3.367,0,0,1,24.141,32.6a2.861,2.861,0,0,1,.387,1.508,2.658,2.658,0,0,1-1.078,2.215,4.6,4.6,0,0,1-2.883.832,5.347,5.347,0,0,1-2.187-.449,3.681,3.681,0,0,1-1.566-1.23,3,3,0,0,1-.551-1.773H17.77a1.959,1.959,0,0,0,.762,1.629,3.207,3.207,0,0,0,2.035.6,2.948,2.948,0,0,0,1.82-.484,1.573,1.573,0,0,0,.633-1.32,1.545,1.545,0,0,0-.586-1.293A6.755,6.755,0,0,0,20.309,31.93Zm14.188-6.3v7.734a3.628,3.628,0,0,1-1.012,2.633,4.077,4.077,0,0,1-2.723,1.148l-.4.016a4.258,4.258,0,0,1-2.977-1.008,3.6,3.6,0,0,1-1.125-2.773v-7.75h1.484v7.7a2.372,2.372,0,0,0,2.617,2.6,2.63,2.63,0,0,0,1.949-.68,2.6,2.6,0,0,0,.676-1.914V25.625Zm4.345,0,3.719,9.281,3.719-9.281h1.945V37h-1.5V32.57l.141-4.781L43.131,37H41.983l-3.727-9.187L38.4,32.57V37H36.9V25.625Zm11.8,13.641-.82-.562a3.77,3.77,0,0,0,.766-2.109v-1.3H52v1.133A3.559,3.559,0,0,1,51.613,38,3.7,3.7,0,0,1,50.64,39.266Zm13.736-5.242H59.611L58.54,37H56.994l4.344-11.375H62.65L67,37H65.462ZM60.064,32.8h3.867l-1.937-5.32Zm11.595,2.211,3.25-9.383h1.641L72.33,37H71L66.791,25.625h1.633Zm14.852.5A3.465,3.465,0,0,1,84.9,36.746a6.517,6.517,0,0,1-2.41.41,4.674,4.674,0,0,1-2.469-.652,4.346,4.346,0,0,1-1.668-1.855,6.408,6.408,0,0,1-.605-2.789v-.992a5.982,5.982,0,0,1,1.2-3.984,4.179,4.179,0,0,1,3.371-1.414,4.316,4.316,0,0,1,2.867.91,3.965,3.965,0,0,1,1.328,2.582h-1.5A2.48,2.48,0,0,0,82.324,26.7a2.655,2.655,0,0,0-2.285,1.06,5.173,5.173,0,0,0-.785,3.069v.93a4.848,4.848,0,0,0,.875,3.046A2.836,2.836,0,0,0,82.5,35.93a5.229,5.229,0,0,0,1.477-.187,2.283,2.283,0,0,0,1.047-.631V32.563H82.386V31.336h4.125Zm2.267,3.758-.82-.562a3.77,3.77,0,0,0,.766-2.109v-1.3h1.414v1.133A3.559,3.559,0,0,1,89.75,38,3.7,3.7,0,0,1,88.778,39.266ZM33.7,45.625l3.719,9.281,3.719-9.281h1.945V57h-1.5V52.57l.141-4.781L37.987,57H36.838l-3.727-9.187.148,4.758V57h-1.5V45.625Zm18.352,8.4H47.285L46.214,57H44.667l4.344-11.375h1.313L54.675,57H53.136ZM47.738,52.8H51.6l-1.937-5.32Zm12.22-2.812,2.727-4.359H64.45l-3.594,5.641L64.536,57H62.754l-2.8-4.437L57.145,57H55.372l3.688-5.734-3.6-5.641h1.758Zm9.47,2.477a12.085,12.085,0,0,1-.457,3.34,9.876,9.876,0,0,1-1.4,2.949A6.127,6.127,0,0,1,65.6,60.672l-.3-.883a6.281,6.281,0,0,0,1.934-2.863,12.387,12.387,0,0,0,.746-4.309v-.25a12.861,12.861,0,0,0-.344-3.051,10.3,10.3,0,0,0-.957-2.527,5.838,5.838,0,0,0-1.379-1.742l.3-.883a6.1,6.1,0,0,1,1.965,1.906,9.9,9.9,0,0,1,1.4,2.945A12.363,12.363,0,0,1,69.427,52.461Z" transform="translate(-515 -3974)" fill="#12263f"/>
      <path id="Trazado_1032986" data-name="Trazado 1032986" d="M29.782,11.547a6.708,6.708,0,0,1-.617,2.945,4.561,4.561,0,0,1-1.754,1.973,4.884,4.884,0,0,1-2.59.691,4.953,4.953,0,0,1-2.578-.668,4.554,4.554,0,0,1-1.754-1.91,6.515,6.515,0,0,1-.66-2.852v-.641a6.737,6.737,0,0,1,.613-2.949A4.55,4.55,0,0,1,22.2,6.164a5.2,5.2,0,0,1,5.184-.008,4.632,4.632,0,0,1,1.762,1.957,6.544,6.544,0,0,1,.637,2.91Zm-2.789-.477A4.783,4.783,0,0,0,26.426,8.5a1.817,1.817,0,0,0-1.621-.879q-2.062,0-2.18,3.094l-.008.836a4.92,4.92,0,0,0,.555,2.57,1.814,1.814,0,0,0,1.648.9,1.792,1.792,0,0,0,1.6-.883,4.785,4.785,0,0,0,.57-2.539Zm8.47,1.906H33.978V17H31.236V5.625h4.477a5,5,0,0,1,3.164.9,3.041,3.041,0,0,1,1.141,2.536,3.693,3.693,0,0,1-.48,1.967,3.41,3.41,0,0,1-1.5,1.264l2.375,4.593V17H37.47Zm-1.484-2.109h1.734a1.557,1.557,0,0,0,1.176-.411,1.59,1.59,0,0,0,.395-1.147,1.608,1.608,0,0,0-.4-1.155,1.542,1.542,0,0,0-1.172-.419H33.978ZM41.713,17V5.625h3.664a5.39,5.39,0,0,1,2.711.684,4.805,4.805,0,0,1,1.879,1.93,5.826,5.826,0,0,1,.684,2.793v.523a5.86,5.86,0,0,1-.66,2.8,4.826,4.826,0,0,1-1.859,1.938A5.271,5.271,0,0,1,45.456,17Zm2.742-9.258v7.148h.953a2.133,2.133,0,0,0,1.813-.84,4.116,4.116,0,0,0,.633-2.5v-.492a4.082,4.082,0,0,0-.633-2.484,2.17,2.17,0,0,0-1.844-.836Zm14.7,4.43H54.839v2.719h5.094V17H52.1V5.625h7.852V7.742H54.839v2.4h4.313Zm6.165.8H63.833V17H61.09V5.625h4.477a5,5,0,0,1,3.164.9,3.041,3.041,0,0,1,1.141,2.536,3.693,3.693,0,0,1-.48,1.967,3.41,3.41,0,0,1-1.5,1.264l2.375,4.593V17H67.325Zm-1.484-2.109h1.734a1.557,1.557,0,0,0,1.176-.411,1.59,1.59,0,0,0,.395-1.147,1.608,1.608,0,0,0-.4-1.155,1.542,1.542,0,0,0-1.172-.419H63.833ZM75.592,17V5.625h4.086a5.786,5.786,0,0,1,3.34.8,2.677,2.677,0,0,1,1.145,2.336,2.706,2.706,0,0,1-.406,1.508,2.367,2.367,0,0,1-1.2.922,2.4,2.4,0,0,1,1.367.875,2.544,2.544,0,0,1,.477,1.563,3.012,3.012,0,0,1-1.059,2.512A5.038,5.038,0,0,1,80.209,17Zm2.742-4.836v2.727h1.8a1.709,1.709,0,0,0,1.141-.34,1.189,1.189,0,0,0,.4-.957,1.261,1.261,0,0,0-1.414-1.43Zm0-1.8h1.43a2.031,2.031,0,0,0,1.281-.329,1.168,1.168,0,0,0,.383-.948,1.226,1.226,0,0,0-.414-1.038,2.216,2.216,0,0,0-1.336-.317H78.334Zm11.352.2,2.094-4.937h2.961l-3.664,7.289V17H88.3V12.914L84.64,5.625h2.945ZM2.775,32.383a12.079,12.079,0,0,1,.473-3.391,9.85,9.85,0,0,1,1.41-2.953A6,6,0,0,1,6.6,24.164l.3.953a6.222,6.222,0,0,0-1.871,2.672,11.583,11.583,0,0,0-.8,4.023l-.008.664a11.643,11.643,0,0,0,1.1,5.234A6.252,6.252,0,0,0,6.9,39.789l-.3.883a6.192,6.192,0,0,1-1.984-1.937A10.859,10.859,0,0,1,2.775,32.383Zm5.181.313a4.993,4.993,0,0,1,.488-2.234A3.643,3.643,0,0,1,9.8,28.93a3.7,3.7,0,0,1,1.988-.539,3.565,3.565,0,0,1,2.793,1.2,4.6,4.6,0,0,1,1.066,3.18v.1a5.036,5.036,0,0,1-.473,2.215,3.589,3.589,0,0,1-1.352,1.527,3.743,3.743,0,0,1-2.02.547,3.556,3.556,0,0,1-2.785-1.2A4.575,4.575,0,0,1,7.956,32.8Zm1.453.172a3.616,3.616,0,0,0,.652,2.258,2.088,2.088,0,0,0,1.746.852,2.075,2.075,0,0,0,1.75-.863,3.955,3.955,0,0,0,.648-2.418,3.61,3.61,0,0,0-.66-2.254,2.1,2.1,0,0,0-1.754-.863,2.075,2.075,0,0,0-1.727.852A3.925,3.925,0,0,0,9.409,32.867ZM21.59,29.844a4.331,4.331,0,0,0-.711-.055A1.9,1.9,0,0,0,18.949,31v6H17.5V28.547H18.91l.023.977a2.251,2.251,0,0,1,2.016-1.133,1.477,1.477,0,0,1,.641.109ZM22.606,32.7a4.952,4.952,0,0,1,.922-3.129,3.137,3.137,0,0,1,4.766-.168V25h1.445V37H28.411l-.07-.906a2.943,2.943,0,0,1-2.414,1.063,2.887,2.887,0,0,1-2.395-1.2,5.008,5.008,0,0,1-.926-3.141Zm1.445.164a3.749,3.749,0,0,0,.594,2.25,1.92,1.92,0,0,0,1.641.813A2.108,2.108,0,0,0,28.294,34.7V30.813a2.125,2.125,0,0,0-1.992-1.2,1.929,1.929,0,0,0-1.656.82A4.128,4.128,0,0,0,24.051,32.867Zm11.478,4.289a3.693,3.693,0,0,1-2.8-1.129,4.19,4.19,0,0,1-1.078-3.02v-.266a5.073,5.073,0,0,1,.48-2.246,3.748,3.748,0,0,1,1.344-1.547,3.378,3.378,0,0,1,1.871-.559,3.166,3.166,0,0,1,2.563,1.086,4.7,4.7,0,0,1,.914,3.109v.6H33.1a3,3,0,0,0,.73,2.02,2.3,2.3,0,0,0,1.777.77,2.517,2.517,0,0,0,1.3-.312,3.258,3.258,0,0,0,.93-.828l.883.688A3.55,3.55,0,0,1,35.529,37.156Zm-.18-7.578a1.928,1.928,0,0,0-1.469.637A3.1,3.1,0,0,0,33.146,32H37.38v-.109a2.753,2.753,0,0,0-.594-1.707A1.815,1.815,0,0,0,35.349,29.578ZM41.9,28.547l.047,1.063a3.08,3.08,0,0,1,2.531-1.219q2.68,0,2.7,3.023V37H45.741V31.406a1.946,1.946,0,0,0-.418-1.352,1.675,1.675,0,0,0-1.277-.437,2.086,2.086,0,0,0-1.234.375,2.546,2.546,0,0,0-.828.984V37H40.538V28.547ZM54.625,37a3.036,3.036,0,0,1-.2-.891,3.225,3.225,0,0,1-2.406,1.047,2.984,2.984,0,0,1-2.051-.707,2.287,2.287,0,0,1-.8-1.793,2.39,2.39,0,0,1,1-2.051,4.733,4.733,0,0,1,2.824-.73H54.4v-.664A1.623,1.623,0,0,0,53.945,30a1.821,1.821,0,0,0-1.336-.449,2.107,2.107,0,0,0-1.3.391,1.151,1.151,0,0,0-.523.945H49.335a2,2,0,0,1,.449-1.223A3.066,3.066,0,0,1,51,28.734a4.1,4.1,0,0,1,1.691-.344,3.342,3.342,0,0,1,2.289.73,2.635,2.635,0,0,1,.859,2.012v3.891a4.757,4.757,0,0,0,.3,1.852V37Zm-2.4-1.1a2.54,2.54,0,0,0,1.289-.352,2.127,2.127,0,0,0,.883-.914V32.9H53.265q-2.656,0-2.656,1.555a1.316,1.316,0,0,0,.453,1.063A1.742,1.742,0,0,0,52.226,35.9Zm7.282-7.352.039.938a3.122,3.122,0,0,1,2.508-1.094,2.417,2.417,0,0,1,2.414,1.359,3.2,3.2,0,0,1,1.1-.984,3.242,3.242,0,0,1,1.6-.375q2.781,0,2.828,2.945V37H68.547V31.422a1.941,1.941,0,0,0-.414-1.355,1.823,1.823,0,0,0-1.391-.449,1.916,1.916,0,0,0-1.336.48,1.949,1.949,0,0,0-.617,1.293V37H63.336V31.461a1.613,1.613,0,0,0-1.8-1.844,1.934,1.934,0,0,0-1.945,1.211V37H58.141V28.547ZM73.783,37H72.337V28.547h1.445ZM72.22,26.3a.863.863,0,0,1,.215-.594.807.807,0,0,1,.637-.242.819.819,0,0,1,.641.242.854.854,0,0,1,.219.594.826.826,0,0,1-.219.586.834.834,0,0,1-.641.234.821.821,0,0,1-.637-.234A.834.834,0,0,1,72.22,26.3Zm7.423,10.852a3.693,3.693,0,0,1-2.8-1.129,4.19,4.19,0,0,1-1.078-3.02v-.266a5.073,5.073,0,0,1,.48-2.246,3.748,3.748,0,0,1,1.344-1.547,3.378,3.378,0,0,1,1.871-.559,3.166,3.166,0,0,1,2.563,1.086,4.7,4.7,0,0,1,.914,3.109v.6H77.213a3,3,0,0,0,.73,2.02,2.3,2.3,0,0,0,1.777.77,2.517,2.517,0,0,0,1.3-.312,3.259,3.259,0,0,0,.93-.828l.883.688A3.55,3.55,0,0,1,79.643,37.156Zm-.18-7.578a1.928,1.928,0,0,0-1.469.637A3.1,3.1,0,0,0,77.26,32h4.234v-.109a2.753,2.753,0,0,0-.594-1.707A1.815,1.815,0,0,0,79.463,29.578Zm6.556-1.031.047,1.063A3.08,3.08,0,0,1,88.6,28.391q2.68,0,2.7,3.023V37H89.855V31.406a1.946,1.946,0,0,0-.418-1.352,1.675,1.675,0,0,0-1.277-.437,2.086,2.086,0,0,0-1.234.375,2.546,2.546,0,0,0-.828.984V37H84.652V28.547ZM95.481,26.5v2.047h1.578v1.117H95.481v5.249a1.173,1.173,0,0,0,.211.763.888.888,0,0,0,.719.254,3.5,3.5,0,0,0,.688-.094V37a4.215,4.215,0,0,1-1.109.155,1.8,1.8,0,0,1-1.461-.586,2.517,2.517,0,0,1-.492-1.664V29.664H92.5V28.547h1.539V26.5Zm2.767,6.2a4.993,4.993,0,0,1,.488-2.234A3.643,3.643,0,0,1,100.1,28.93a3.7,3.7,0,0,1,1.988-.539,3.565,3.565,0,0,1,2.793,1.2,4.6,4.6,0,0,1,1.066,3.18v.1a5.036,5.036,0,0,1-.473,2.215,3.589,3.589,0,0,1-1.352,1.527,3.743,3.743,0,0,1-2.02.547,3.556,3.556,0,0,1-2.785-1.2A4.575,4.575,0,0,1,98.247,32.8Zm1.453.172a3.616,3.616,0,0,0,.652,2.258,2.211,2.211,0,0,0,3.5-.012A3.955,3.955,0,0,0,104.5,32.7a3.61,3.61,0,0,0-.66-2.254,2.1,2.1,0,0,0-1.754-.863,2.075,2.075,0,0,0-1.727.852A3.925,3.925,0,0,0,99.7,32.867Zm11.431-.406a12.085,12.085,0,0,1-.457,3.34,9.876,9.876,0,0,1-1.4,2.949,6.127,6.127,0,0,1-1.973,1.922l-.3-.883a6.281,6.281,0,0,0,1.934-2.863,12.387,12.387,0,0,0,.746-4.309v-.25a12.861,12.861,0,0,0-.344-3.051,10.3,10.3,0,0,0-.957-2.527A5.838,5.838,0,0,0,107,25.047l.3-.883a6.1,6.1,0,0,1,1.965,1.906,9.9,9.9,0,0,1,1.4,2.945A12.363,12.363,0,0,1,111.131,32.461Z" transform="translate(-514 -3806)" fill="#12263f"/>
      <path id="Trazado_1032987" data-name="Trazado 1032987" d="M14.941,12.977H13.457V17H10.715V5.625h4.477a5,5,0,0,1,3.164.9A3.041,3.041,0,0,1,19.5,9.059a3.693,3.693,0,0,1-.48,1.967,3.41,3.41,0,0,1-1.5,1.264l2.375,4.593V17H16.949Zm-1.484-2.109h1.734a1.557,1.557,0,0,0,1.176-.411,1.59,1.59,0,0,0,.395-1.147,1.608,1.608,0,0,0-.4-1.155,1.542,1.542,0,0,0-1.172-.419H13.457Zm11.7,6.289A4.345,4.345,0,0,1,22.012,16a4.006,4.006,0,0,1-1.2-3.02v-.219a5.191,5.191,0,0,1,.48-2.289,3.516,3.516,0,0,1,1.4-1.535,4.233,4.233,0,0,1,2.188-.543A3.659,3.659,0,0,1,27.692,9.5a4.344,4.344,0,0,1,1.031,3.082V13.6H23.489a1.9,1.9,0,0,0,.617,1.117,1.836,1.836,0,0,0,1.234.406,2.366,2.366,0,0,0,1.953-.875l1.2,1.422A3.363,3.363,0,0,1,27.1,16.754,4.713,4.713,0,0,1,25.161,17.156Zm-.3-6.734q-1.156,0-1.375,1.531h2.656v-.2a1.3,1.3,0,0,0-.32-.98A1.275,1.275,0,0,0,24.864,10.422Zm9.384,4.2a.608.608,0,0,0-.352-.539,5.348,5.348,0,0,0-1.336-.422,6.092,6.092,0,0,1-1.625-.574,2.722,2.722,0,0,1-.977-.863,2.061,2.061,0,0,1-.336-1.164,2.336,2.336,0,0,1,.961-1.918A3.958,3.958,0,0,1,33.1,8.391a4.386,4.386,0,0,1,2.688.758A2.37,2.37,0,0,1,36.8,11.141H34.162q0-1.016-1.07-1.016a1.061,1.061,0,0,0-.7.23.714.714,0,0,0-.281.574.655.655,0,0,0,.344.57,3.248,3.248,0,0,0,1.1.359,9.485,9.485,0,0,1,1.324.336,2.406,2.406,0,0,1,1.906,2.352,2.214,2.214,0,0,1-1.027,1.883,4.505,4.505,0,0,1-2.66.727,4.6,4.6,0,0,1-1.938-.391A3.24,3.24,0,0,1,29.834,15.7a2.406,2.406,0,0,1-.477-1.414h2.461a1.017,1.017,0,0,0,.391.855,1.607,1.607,0,0,0,.961.27,1.264,1.264,0,0,0,.809-.219A.7.7,0,0,0,34.248,14.625Zm8.845,1.461a2.714,2.714,0,0,1-2.258,1.07,2.662,2.662,0,0,1-2.105-.809,3.4,3.4,0,0,1-.715-2.324V8.547h2.633v5.492A.946.946,0,0,0,41.7,15.125a1.376,1.376,0,0,0,1.289-.648V8.547h2.648V17H43.17ZM49.9,17H47.257V5H49.9ZM54.625,6.445v2.1h1.391v1.828H54.625v3.867a.987.987,0,0,0,.172.664.922.922,0,0,0,.68.188,3.862,3.862,0,0,0,.656-.047V16.93a4.859,4.859,0,0,1-1.484.227,2.758,2.758,0,0,1-2.008-.641,2.626,2.626,0,0,1-.648-1.945v-4.2H50.915V8.547h1.078v-2.1ZM61.853,17a2.973,2.973,0,0,1-.25-.758,2.448,2.448,0,0,1-2.031.914,3,3,0,0,1-2.031-.723,2.3,2.3,0,0,1-.836-1.816,2.364,2.364,0,0,1,1.016-2.078,5.174,5.174,0,0,1,2.953-.7h.813v-.448q0-1.17-1.008-1.17a.824.824,0,0,0-.937.926H56.908a2.36,2.36,0,0,1,1.043-1.99,4.383,4.383,0,0,1,2.66-.765,3.843,3.843,0,0,1,2.555.789,2.743,2.743,0,0,1,.961,2.164v3.742a3.832,3.832,0,0,0,.359,1.781V17ZM60.2,15.281a1.469,1.469,0,0,0,.816-.211,1.322,1.322,0,0,0,.465-.477V13.242H60.72q-1.375,0-1.375,1.234a.754.754,0,0,0,.242.582A.876.876,0,0,0,60.2,15.281Zm5.087-2.57a5.164,5.164,0,0,1,.867-3.164A2.854,2.854,0,0,1,68.58,8.391a2.428,2.428,0,0,1,1.906.891V5h2.641V17H70.76l-.133-.906a2.493,2.493,0,0,1-2.062,1.063A2.849,2.849,0,0,1,66.174,16,5.327,5.327,0,0,1,65.291,12.711Zm2.633.164q0,2.25,1.313,2.25a1.3,1.3,0,0,0,1.25-.734V11.172a1.261,1.261,0,0,0-1.234-.75q-1.219,0-1.32,1.969Zm6.407-.18a4.989,4.989,0,0,1,.492-2.254,3.52,3.52,0,0,1,1.414-1.52A4.259,4.259,0,0,1,78.4,8.391a3.887,3.887,0,0,1,2.992,1.176,4.512,4.512,0,0,1,1.094,3.2v.094A4.378,4.378,0,0,1,81.39,16a3.9,3.9,0,0,1-2.973,1.16,3.942,3.942,0,0,1-2.9-1.082,4.232,4.232,0,0,1-1.18-2.934Zm2.633.164a3.145,3.145,0,0,0,.367,1.719,1.223,1.223,0,0,0,1.086.547q1.406,0,1.438-2.164V12.7q0-2.273-1.453-2.273-1.32,0-1.43,1.961Zm11.149,1.766a.608.608,0,0,0-.352-.539,5.348,5.348,0,0,0-1.336-.422A6.092,6.092,0,0,1,84.8,13.09a2.722,2.722,0,0,1-.977-.863,2.061,2.061,0,0,1-.336-1.164,2.336,2.336,0,0,1,.961-1.918,3.958,3.958,0,0,1,2.516-.754,4.386,4.386,0,0,1,2.688.758,2.37,2.37,0,0,1,1.016,1.992H88.028q0-1.016-1.07-1.016a1.061,1.061,0,0,0-.7.23.714.714,0,0,0-.281.574.655.655,0,0,0,.344.57,3.248,3.248,0,0,0,1.1.359,9.486,9.486,0,0,1,1.324.336,2.406,2.406,0,0,1,1.906,2.352,2.214,2.214,0,0,1-1.027,1.883,4.505,4.505,0,0,1-2.66.727,4.6,4.6,0,0,1-1.937-.391A3.24,3.24,0,0,1,83.7,15.7a2.406,2.406,0,0,1-.477-1.414h2.461a1.017,1.017,0,0,0,.391.855,1.607,1.607,0,0,0,.961.27,1.264,1.264,0,0,0,.809-.219A.7.7,0,0,0,88.114,14.625Z" transform="translate(-670 -3797)" fill="#12263f"/>
      <g id="Grupo_1185925" data-name="Grupo 1185925" transform="translate(-516.872 -4116.843) rotate(180)">
        <path id="flecha-izquierda" d="M29.435,160.7c-17.913,0-17.913,2.651,0,2.651l-2.975,2.49a1.179,1.179,0,0,0,0,1.874,1.808,1.808,0,0,0,2.239,0l5.677-4.753a1.179,1.179,0,0,0,0-1.874L28.7,156.333a1.808,1.808,0,0,0-2.239,0,1.179,1.179,0,0,0,0,1.874Z" transform="translate(0.288 -155.945)" fill="#1e535a" fill-rule="evenodd"/>
        <rect id="Rectángulo_459221" data-name="Rectángulo 459221" width="32.313" height="3.05" rx="1.525" transform="translate(0 4.553)" fill="#1e535a"/>
      </g>
      <g id="Grupo_1185929" data-name="Grupo 1185929" transform="translate(-516.872 -3768.843) rotate(180)">
        <path id="flecha-izquierda-2" data-name="flecha-izquierda" d="M29.435,160.7c-17.913,0-17.913,2.651,0,2.651l-2.975,2.49a1.179,1.179,0,0,0,0,1.874,1.808,1.808,0,0,0,2.239,0l5.677-4.753a1.179,1.179,0,0,0,0-1.874L28.7,156.333a1.808,1.808,0,0,0-2.239,0,1.179,1.179,0,0,0,0,1.874Z" transform="translate(0.288 -155.945)" fill="#1e535a" fill-rule="evenodd"/>
        <rect id="Rectángulo_459221-2" data-name="Rectángulo 459221" width="32.313" height="3.05" rx="1.525" transform="translate(0 4.553)" fill="#1e535a"/>
      </g>
      <g id="Grupo_1185926" data-name="Grupo 1185926" transform="translate(-567.128 -4297)">
        <path id="flecha-izquierda-3" data-name="flecha-izquierda" d="M29.435,160.7c-17.913,0-17.913,2.651,0,2.651l-2.975,2.49a1.179,1.179,0,0,0,0,1.874,1.808,1.808,0,0,0,2.239,0l5.677-4.753a1.179,1.179,0,0,0,0-1.874L28.7,156.333a1.808,1.808,0,0,0-2.239,0,1.179,1.179,0,0,0,0,1.874Z" transform="translate(0.288 -155.945)" fill="#1e535a" fill-rule="evenodd"/>
        <rect id="Rectángulo_459221-3" data-name="Rectángulo 459221" width="32.313" height="3.05" rx="1.525" transform="translate(0 4.553)" fill="#1e535a"/>
      </g>
      <g id="Grupo_1185920" data-name="Grupo 1185920" transform="translate(-455.843 -4233) rotate(90)">
        <path id="flecha-izquierda-4" data-name="flecha-izquierda" d="M29.435,160.7c-17.913,0-17.913,2.651,0,2.651l-2.975,2.49a1.179,1.179,0,0,0,0,1.874,1.808,1.808,0,0,0,2.239,0l5.677-4.753a1.179,1.179,0,0,0,0-1.874L28.7,156.333a1.808,1.808,0,0,0-2.239,0,1.179,1.179,0,0,0,0,1.874Z" transform="translate(4.634 -155.945)" fill="#1e535a" fill-rule="evenodd"/>
        <rect id="Rectángulo_459221-4" data-name="Rectángulo 459221" width="36.66" height="3.05" rx="1.525" transform="translate(0 4.553)" fill="#1e535a"/>
      </g>
      <g id="Grupo_1185928" data-name="Grupo 1185928" transform="translate(-455.843 -3894) rotate(90)">
        <path id="flecha-izquierda-5" data-name="flecha-izquierda" d="M29.435,160.7c-17.913,0-17.913,2.651,0,2.651l-2.975,2.49a1.179,1.179,0,0,0,0,1.874,1.808,1.808,0,0,0,2.239,0l5.677-4.753a1.179,1.179,0,0,0,0-1.874L28.7,156.333a1.808,1.808,0,0,0-2.239,0,1.179,1.179,0,0,0,0,1.874Z" transform="translate(4.634 -155.945)" fill="#1e535a" fill-rule="evenodd"/>
        <rect id="Rectángulo_459221-5" data-name="Rectángulo 459221" width="36.66" height="3.05" rx="1.525" transform="translate(0 4.553)" fill="#1e535a"/>
      </g>
      <g id="Grupo_1185927" data-name="Grupo 1185927" transform="translate(-613.421 -4065) rotate(90)">
        <path id="flecha-izquierda-6" data-name="flecha-izquierda" d="M29.435,160.7c-17.913,0-17.913,2.651,0,2.651l-2.975,2.49a1.179,1.179,0,0,0,0,1.874,1.808,1.808,0,0,0,2.239,0l5.677-4.753a1.179,1.179,0,0,0,0-1.874L28.7,156.333a1.808,1.808,0,0,0-2.239,0,1.179,1.179,0,0,0,0,1.874Z" transform="translate(4.634 -155.945)" fill="#1e535a" fill-rule="evenodd"/>
        <rect id="Rectángulo_459221-6" data-name="Rectángulo 459221" width="36.66" height="3.05" rx="1.525" transform="translate(0 4.553)" fill="#1e535a"/>
      </g>
      <g id="Grupo_1185919" data-name="Grupo 1185919" transform="translate(-563.257 -3959)">
        <path id="flecha-izquierda-7" data-name="flecha-izquierda" d="M29.435,160.7c-17.913,0-17.913,2.651,0,2.651l-2.975,2.49a1.179,1.179,0,0,0,0,1.874,1.808,1.808,0,0,0,2.239,0l5.677-4.753a1.179,1.179,0,0,0,0-1.874L28.7,156.333a1.808,1.808,0,0,0-2.239,0,1.179,1.179,0,0,0,0,1.874Z" transform="translate(-6.583 -155.945)" fill="#1e535a" fill-rule="evenodd"/>
        <rect id="Rectángulo_459221-7" data-name="Rectángulo 459221" width="25.442" height="3.05" rx="1.525" transform="translate(0 4.553)" fill="#1e535a"/>
      </g>
      <g id="Grupo_1185932" data-name="Grupo 1185932" transform="translate(7.378 -10.622)">
        <circle id="Elipse_13737" data-name="Elipse 13737" cx="36" cy="36" r="36" transform="translate(-666.378 -4371.378)" fill="#a4e7f0"/>
        <g id="seguimiento_2_" data-name="seguimiento (2)" transform="translate(-661.766 -4370.389)">
          <path id="Trazado_1031730" data-name="Trazado 1031730" d="M70.272,65.845q.163-.387.315-.779c.08-.2,1.369-.41,1.444-.617a31.388,31.388,0,1,0-59-.023c.058.16,1.171.319,1.232.477q.182.475.378.942Z" transform="translate(-11.15 -19.443)" fill="#2ebed1"/>
          <path id="Trazado_1031731" data-name="Trazado 1031731" d="M25.93,351.3a31.437,31.437,0,0,0,23.721,20.1c.364.068.867-1.005,1.235-.95a29.848,29.848,0,0,0,4.539.256c9.261,0,16.669-2.973,22.414-9.353.237-.263,1.387-.345,1.615-.616a31.356,31.356,0,0,0,5.465-9.433H25.93Z" transform="translate(-24.036 -306.294)" fill="#2ebed1"/>
          <path id="Trazado_1031732" data-name="Trazado 1031732" d="M46.15,7.8H99.958V45.594H46.15Z" transform="translate(-41.666 -6.802)" fill="#fff5f5"/>
          <path id="Trazado_1031733" data-name="Trazado 1031733" d="M46.15,7.8h4.356V45.594H46.15Z" transform="translate(-41.666 -6.802)" fill="#ececf1"/>
          <path id="Trazado_1031734" data-name="Trazado 1031734" d="M120.883,267.926H70.15v-4.145l1.281-.98h49.452Z" transform="translate(-62.591 -229.133)" fill="#0077f0"/>
          <path id="Trazado_1031735" data-name="Trazado 1031735" d="M46.15,262.8h4.356v5.125H46.15Z" transform="translate(-41.666 -229.133)" fill="#0066ed"/>
          <path id="Trazado_1031736" data-name="Trazado 1031736" d="M46.15,11.558H99.958v5.125H46.15Z" transform="translate(-41.666 -10.077)" fill="#0077f0"/>
          <path id="Trazado_1031737" data-name="Trazado 1031737" d="M46.15,11.558h4.356v5.125H46.15Z" transform="translate(-41.666 -10.077)" fill="#0066ed"/>
          <path id="Trazado_1031738" data-name="Trazado 1031738" d="M93.255,38.2a.961.961,0,0,1-.961-.961V1.922H40.353V37.237a.961.961,0,0,1-.961.961c-.531,0-.547-.43-.547-.961l-.414-.216V.961A.961.961,0,0,1,39.392,0H93.255a.961.961,0,0,1,.961.961v36.06l-.179.216C94.037,37.768,93.786,38.2,93.255,38.2Z" transform="translate(-34.936)" fill="#00429c"/>
          <path id="Trazado_1031739" data-name="Trazado 1031739" d="M186.736,317.776h-3.92a1.922,1.922,0,0,1-1.922-1.922v-8.366a1.922,1.922,0,0,1,1.922-1.922h3.92a1.922,1.922,0,0,1,1.922,1.922v8.366A1.922,1.922,0,0,1,186.736,317.776Z" transform="translate(-159.148 -266.42)" fill="#babac0"/>
          <path id="Trazado_1031740" data-name="Trazado 1031740" d="M218.249,424.934h-5.242a1.922,1.922,0,0,0-1.922,1.922V435.6q1.316.245,2.669.378c.212.021.424-.766.637-.75q1.221.1,2.467.1a31.739,31.739,0,0,0,3.312-.173v-8.293A1.922,1.922,0,0,0,218.249,424.934Z" transform="translate(-185.472 -370.494)" fill="#babac0"/>
          <path id="Trazado_1031741" data-name="Trazado 1031741" d="M249.556,434.9a31.317,31.317,0,0,0,11.08-2.012c.324-.122.644.975.963.842a31.32,31.32,0,0,0,5.536-2.988c.142-.1-.1-.515.037-.613a31.541,31.541,0,0,0,2.618-2.05c.13-.114.645.094.773-.022a31.564,31.564,0,0,0,3.022-3.127H250.509a1.922,1.922,0,0,0-1.922,1.922v8.033Q249.07,434.9,249.556,434.9Z" transform="translate(-218.168 -370.493)" fill="#d4d4da"/>
          <path id="Trazado_1031742" data-name="Trazado 1031742" d="M223.763,317.776H212.072a1.922,1.922,0,0,1-1.922-1.922v-8.366a1.922,1.922,0,0,1,1.922-1.922h11.691a1.922,1.922,0,0,1,1.922,1.922v8.366A1.921,1.921,0,0,1,223.763,317.776Z" transform="translate(-184.655 -266.42)" fill="#d4d4da"/>
          <path id="Trazado_1031743" data-name="Trazado 1031743" d="M44.075,293.019V289.3l-.3-.328H38.427v4.048a1.922,1.922,0,0,0,1.922,1.922H46A1.922,1.922,0,0,1,44.075,293.019Z" transform="translate(-34.932 -251.95)" fill="#d4d4da"/>
          <path id="Trazado_1031744" data-name="Trazado 1031744" d="M128.67,294.941h-46.6a1.922,1.922,0,0,1-1.922-1.922v-4.048h50.441v4.048A1.922,1.922,0,0,1,128.67,294.941Z" transform="translate(-71.31 -251.95)" fill="#ececf1"/>
          <path id="Trazado_1031745" data-name="Trazado 1031745" d="M137.626,382.588h4.279a1.922,1.922,0,0,1,1.922,1.922,1.281,1.281,0,0,1-1.281,1.281h-5.561a1.281,1.281,0,0,1-1.281-1.281A1.922,1.922,0,0,1,137.626,382.588Z" transform="translate(-119.747 -333.573)" fill="#d4d4da"/>
          <path id="Trazado_1031746" data-name="Trazado 1031746" d="M166.306,382.588H189.65a1.922,1.922,0,0,1,1.922,1.922,1.281,1.281,0,0,1-1.281,1.281H165.665a1.281,1.281,0,0,1-1.281-1.281A1.922,1.922,0,0,1,166.306,382.588Z" transform="translate(-144.753 -333.573)" fill="#ececf1"/>
          <path id="Trazado_1031747" data-name="Trazado 1031747" d="M156.111,27.223a.961.961,0,1,1,.961-.961A.961.961,0,0,1,156.111,27.223Z" transform="translate(-136.702 -22.06)" fill="#00429c"/>
          <path id="Trazado_1031748" data-name="Trazado 1031748" d="M128.611,27.223a.961.961,0,1,1,.961-.961A.961.961,0,0,1,128.611,27.223Z" transform="translate(-112.725 -22.06)" fill="#00429c"/>
          <path id="Trazado_1031749" data-name="Trazado 1031749" d="M101.111,27.223a.961.961,0,1,1,.961-.961A.961.961,0,0,1,101.111,27.223Z" transform="translate(-88.748 -22.06)" fill="#00429c"/>
          <path id="Trazado_1031755" data-name="Trazado 1031755" d="M296.556,189.931h-5.125a1.281,1.281,0,0,1-1.281-1.281v-2.877a1.281,1.281,0,0,1,1.281-1.281h5.125a1.281,1.281,0,0,1,1.281,1.281v2.877A1.281,1.281,0,0,1,296.556,189.931Z" transform="translate(-254.406 -160.856)" fill="#ff4343"/>
          <path id="Trazado_1031756" data-name="Trazado 1031756" d="M341.68,189.931H331.431a1.281,1.281,0,0,1-1.281-1.281v-2.877a1.281,1.281,0,0,1,1.281-1.281H341.68a1.281,1.281,0,0,1,1.281,1.281v2.877A1.281,1.281,0,0,1,341.68,189.931Z" transform="translate(-289.282 -160.856)" fill="#ff5757"/>
          <path id="Trazado_1031757" data-name="Trazado 1031757" d="M297.235,96.564h-5.125a.961.961,0,1,1,0-1.922h5.125a.961.961,0,0,1,0,1.922Z" transform="translate(-255.278 -82.517)" fill="#babac0"/>
          <path id="Trazado_1031758" data-name="Trazado 1031758" d="M411.111,96.564a.961.961,0,1,1,.961-.961A.961.961,0,0,1,411.111,96.564Z" transform="translate(-359.033 -82.517)" fill="#ff5757"/>
          <path id="Trazado_1031759" data-name="Trazado 1031759" d="M386.111,96.564a.961.961,0,1,1,.961-.961A.961.961,0,0,1,386.111,96.564Z" transform="translate(-337.236 -82.517)" fill="#fbc56d"/>
          <path id="Trazado_1031760" data-name="Trazado 1031760" d="M301.591,126.564h-9.48a.961.961,0,1,1,0-1.922h9.48a.961.961,0,0,1,0,1.922Z" transform="translate(-255.278 -108.674)" fill="#d4d4da"/>
          <path id="Trazado_1031761" data-name="Trazado 1031761" d="M353.3,156.564h-9.23a.961.961,0,0,1,0-1.922h9.23a.961.961,0,0,1,0,1.922Z" transform="translate(-300.579 -134.83)" fill="#d4d4da"/>
          <path id="Trazado_1031762" data-name="Trazado 1031762" d="M299.4,156.564h-7.286a.961.961,0,0,1,0-1.922H299.4a.961.961,0,0,1,0,1.922Z" transform="translate(-255.278 -134.83)" fill="#0396fd"/>
          <g id="Grupo_1185930" data-name="Grupo 1185930" transform="translate(28.057 56.408)">
            <path id="Trazado_1031763" data-name="Trazado 1031763" d="M235.915,444.144h-5.125a.641.641,0,0,1-.641-.641v-2.562a.641.641,0,0,1,.641-.641h5.125a.641.641,0,0,1,.641.641V443.5A.641.641,0,0,1,235.915,444.144Z" transform="translate(-230.15 -440.301)" fill="#ececf1"/>
            <path id="Trazado_1031764" data-name="Trazado 1031764" d="M305.915,444.144h-5.125a.641.641,0,0,1-.641-.641v-2.562a.641.641,0,0,1,.641-.641h5.125a.641.641,0,0,1,.641.641V443.5A.641.641,0,0,1,305.915,444.144Z" transform="translate(-291.182 -440.301)" fill="#ececf1"/>
            <path id="Trazado_1031765" data-name="Trazado 1031765" d="M375.915,440.3h-5.125a.641.641,0,0,0-.641.641V443.5a.641.641,0,0,0,.641.641h2.334a31.5,31.5,0,0,0,3.432-2.688v-.514A.641.641,0,0,0,375.915,440.3Z" transform="translate(-352.214 -440.301)" fill="#ececf1"/>
            <path id="Trazado_1031766" data-name="Trazado 1031766" d="M245.524,482.942a.641.641,0,0,0-.641-.641H230.791a.641.641,0,0,0-.641.641V485.5a.64.64,0,0,0,.227.489q1.532.15,3.1.152a31.293,31.293,0,0,0,12.043-2.393Z" transform="translate(-230.15 -476.92)" fill="#ececf1"/>
          </g>
          <rect id="Rectángulo_459255" data-name="Rectángulo 459255" width="24.938" height="16.625" transform="translate(8.528 12.614)" fill="#1e535a"/>
        </g>
      </g>
      <g id="Grupo_1185933" data-name="Grupo 1185933" transform="translate(-1934.361 -10784.65)">
        <circle id="Elipse_13738" data-name="Elipse 13738" cx="38" cy="38" r="38" transform="translate(1276.361 7022.65)" fill="#a4e7f0"/>
        <g id="prueba_1_" data-name="prueba (1)" transform="translate(1280.178 7024.405)">
          <path id="Trazado_1031767" data-name="Trazado 1031767" d="M97.944,55.787A33.661,33.661,0,0,1,89.4,78.241c-.054.061-.979.122-1.033.182q-.336.372-.682.733H41.235q-.221-.23-.437-.465c-.137-.149-1.754-.3-1.889-.451a33.9,33.9,0,0,1-3.681-4.989,33.822,33.822,0,0,0,0-34.93A33.791,33.791,0,0,1,97.944,55.787Z" transform="translate(-30.37 -18.966)" fill="#448dcf"/>
          <path id="Trazado_1031768" data-name="Trazado 1031768" d="M112.418,429.816a33.788,33.788,0,0,1-50.5,0Z" transform="translate(-53.383 -370.541)" fill="#448dcf"/>
          <path id="Trazado_1031769" data-name="Trazado 1031769" d="M65.644,71.213V111.9H7.723V71.213Z" transform="translate(-6.658 -61.392)" fill="#d9e7ec"/>
          <path id="Trazado_1031770" data-name="Trazado 1031770" d="M12.412,71.213V111.9H7.723V71.213Z" transform="translate(-6.658 -61.392)" fill="#c5d3dd"/>
          <path id="Trazado_1031771" data-name="Trazado 1031771" d="M91.4,75.468v6.141H38.164l-.569-.783V75.468Z" transform="translate(-32.41 -65.061)" fill="#00c1fb"/>
          <path id="Trazado_1031772" data-name="Trazado 1031772" d="M12.412,75.468v6.141H7.723V75.468Z" transform="translate(-6.658 -65.061)" fill="#00aaf2"/>
          <path id="Trazado_1031773" data-name="Trazado 1031773" d="M38.274,91.379A1.379,1.379,0,1,1,36.9,90,1.379,1.379,0,0,1,38.274,91.379ZM31.379,90a1.379,1.379,0,1,0,1.379,1.379A1.379,1.379,0,0,0,31.379,90Zm11.033,0a1.379,1.379,0,1,0,1.379,1.379A1.379,1.379,0,0,0,42.412,90Z" transform="translate(-25.863 -77.588)" fill="#00aaf2"/>
          <path id="Trazado_1031774" data-name="Trazado 1031774" d="M90.223,326.213v5.516H36.234V326.9a.682.682,0,0,1,.682-.682Z" transform="translate(-31.237 -281.226)" fill="#8d9ca8"/>
          <path id="Trazado_1031775" data-name="Trazado 1031775" d="M12.412,326.213v5.516H7.723v-5.516Z" transform="translate(-6.658 -281.226)" fill="#7a8c98"/>
          <path id="Trazado_1031776" data-name="Trazado 1031776" d="M46.9,156.8H41.379A1.379,1.379,0,0,1,40,155.417V149.9a1.379,1.379,0,0,1,1.379-1.379H46.9a1.379,1.379,0,0,1,1.379,1.379v5.516A1.379,1.379,0,0,1,46.9,156.8Z" transform="translate(-34.484 -128.04)" fill="#64dcfc"/>
          <path id="Trazado_1031777" data-name="Trazado 1031777" d="M48.274,246.9v-5.516A1.379,1.379,0,0,0,46.9,240H41.379A1.379,1.379,0,0,0,40,241.379V246.9a1.379,1.379,0,0,0,1.379,1.379H46.9A1.379,1.379,0,0,0,48.274,246.9Z" transform="translate(-34.484 -206.902)" fill="#b6c4cf"/>
          <path id="Trazado_1031778" data-name="Trazado 1031778" d="M136.549,151.28h-15.17a1.379,1.379,0,0,1,0-2.758h15.17a1.379,1.379,0,0,1,0,2.758Zm-3.4,4.137a1.379,1.379,0,0,0-1.379-1.379H121.379a1.379,1.379,0,0,0,0,2.758h10.389A1.379,1.379,0,0,0,133.147,155.417Zm4.781,7.1a1.379,1.379,0,0,0-1.379-1.379h-15.17a1.379,1.379,0,0,0,0,2.758h15.17A1.379,1.379,0,0,0,137.928,162.517Zm-4.781,5.516a1.379,1.379,0,0,0-1.379-1.379H121.379a1.379,1.379,0,0,0,0,2.758h10.389A1.379,1.379,0,0,0,133.147,168.033Z" transform="translate(-103.451 -128.04)" fill="#b6c4cf"/>
          <path id="Trazado_1031779" data-name="Trazado 1031779" d="M60.051,64.747v38.775l-.09.135H57.983V65.782H2.069v37.876H.188L0,103.523V64.747a1.034,1.034,0,0,1,1.034-1.034H59.017A1.034,1.034,0,0,1,60.051,64.747Z" transform="translate(0 -54.927)" fill="#465a61"/>
          <path id="Trazado_1031780" data-name="Trazado 1031780" d="M150.4,371.048v9.005a2.069,2.069,0,0,1-2.069,2.069h-3.8a2.069,2.069,0,0,1-2.069-2.069v-9.005a2.069,2.069,0,0,1,2.069-2.069h3.8A2.069,2.069,0,0,1,150.4,371.048Z" transform="translate(-122.821 -318.094)" fill="#b6c4cf"/>
          <path id="Trazado_1031781" data-name="Trazado 1031781" d="M186.96,371.048v9.005a2.069,2.069,0,0,1-2.069,2.069H172.069A2.069,2.069,0,0,1,170,380.053v-9.005a2.069,2.069,0,0,1,2.069-2.069h12.822A2.069,2.069,0,0,1,186.96,371.048Z" transform="translate(-146.556 -318.094)" fill="#c5d3dd"/>
          <path id="Trazado_1031782" data-name="Trazado 1031782" d="M26.076,367.362v.945H21.851l-.657.434H14.1a.69.69,0,0,1-.69-.69v-.689a2.069,2.069,0,0,1,2.069-2.069h8.524a2.069,2.069,0,0,1,2.069,2.069Zm-17.9-8.553H2.069A2.069,2.069,0,0,1,0,356.74v-4.357H5.754l.355,4.357A2.069,2.069,0,0,0,8.178,358.809Z" transform="translate(0 -303.787)" fill="#c5d3dd"/>
          <path id="Trazado_1031783" data-name="Trazado 1031783" d="M82.605,367.362v.689a.69.69,0,0,1-.69.69H57.163v-1.379a2.069,2.069,0,0,1,2.069-2.069H80.537A2.069,2.069,0,0,1,82.605,367.362ZM96.02,352.383v4.357a2.069,2.069,0,0,1-2.069,2.069H43.792a2.069,2.069,0,0,1-2.069-2.069v-4.357Z" transform="translate(-35.969 -303.787)" fill="#d9e7ec"/>
          <path id="Trazado_1031784" data-name="Trazado 1031784" d="M46.171,155.5l-4.558,4.35a1.07,1.07,0,0,1-1.463,0l-2.334-2.227a.956.956,0,0,1,0-1.4,1.07,1.07,0,0,1,1.463,0l1.6,1.529,3.827-3.652a1.07,1.07,0,0,1,1.463,0A.956.956,0,0,1,46.171,155.5Z" transform="translate(-32.34 -132.601)" fill="#00aaf2"/>
          <path id="Trazado_1031785" data-name="Trazado 1031785" d="M319.539,26.206a1.228,1.228,0,0,1-.505,1.554l-4.741,2.767a1.228,1.228,0,0,0-.581.8l-.674,3.1-.215.142-.2.913A25.753,25.753,0,0,1,288.872,9.645a23.233,23.233,0,0,1,.6-5.51l.724.073.3-.294,3.56.357a1.227,1.227,0,0,0,.94-.305l4.1-3.654a1.228,1.228,0,0,1,1.634,0l4.1,3.654a1.228,1.228,0,0,0,.94.305l5.462-.548a1.228,1.228,0,0,1,1.322.961l1.166,5.364a1.228,1.228,0,0,0,.581.8l4.741,2.767a1.227,1.227,0,0,1,.505,1.554l-2.209,5.025a1.227,1.227,0,0,0,0,.988Z" transform="translate(-249.034 -0.001)" fill="#ffc143"/>
          <path id="Trazado_1031786" data-name="Trazado 1031786" d="M258.673,57.655l-.492,2.264a1.228,1.228,0,0,1-1.322.961l-5.462-.548a1.228,1.228,0,0,0-.94.305l-4.1,3.654a1.228,1.228,0,0,1-1.634,0l-4.1-3.654a1.228,1.228,0,0,0-.94-.305l-5.462.548a1.228,1.228,0,0,1-1.322-.961l-1.166-5.364a1.228,1.228,0,0,0-.581-.8l-4.741-2.767a1.228,1.228,0,0,1-.505-1.554l2.209-5.025a1.227,1.227,0,0,0,0-.988L225.914,38.4a1.227,1.227,0,0,1,.505-1.554l4.741-2.767a1.227,1.227,0,0,0,.581-.8l1.166-5.364a1.228,1.228,0,0,1,1.322-.961l1.9.191a24.847,24.847,0,0,0,22.543,30.512Z" transform="translate(-194.669 -23.23)" fill="#ffb509"/>
        </g>
        <path id="Trazado_1031789" data-name="Trazado 1031789" d="M57.791,157.76,47.114,167.948a2.505,2.505,0,0,1-3.426,0l-5.466-5.216a2.238,2.238,0,0,1,0-3.27,2.506,2.506,0,0,1,3.426,0l3.753,3.581,8.964-8.554a2.506,2.506,0,0,1,3.426,0A2.238,2.238,0,0,1,57.791,157.76Z" transform="translate(1282.977 6884.603)" fill="#fff"/>
      </g>
    </g>
  </g>
</svg>
