<svg xmlns="http://www.w3.org/2000/svg" xmlns:xlink="http://www.w3.org/1999/xlink" width="129" height="129" viewBox="0 0 129 129">
  <defs>
    <clipPath id="clip-path">
      <rect id="Rectángulo_454829" data-name="Rectángulo 454829" width="129" height="129" fill="#1e535a"/>
    </clipPath>
    <clipPath id="clip-path-2">
      <path id="path5241" d="M0-682.665H49.856v49.856H0Z" transform="translate(0 682.665)" fill="#1e535a"/>
    </clipPath>
  </defs>
  <g id="Grupo_1185643" data-name="Grupo 1185643" transform="translate(-186 -4323.945)">
    <g id="Grupo_1177591" data-name="Grupo 1177591" transform="translate(186 4323.945)">
      <g id="Grupo_1177589" data-name="Grupo 1177589" transform="translate(0 0)">
        <g id="Grupo_1177587" data-name="Grupo 1177587" clip-path="url(#clip-path)">
          <path id="Trazado_997422" data-name="Trazado 997422" d="M123.733,57.1a59.308,59.308,0,0,0-13.4-30.862,6.821,6.821,0,0,0-9.6-9.189A59.221,59.221,0,0,0,70.078,5.066a6.822,6.822,0,0,0-13.25.269A59.3,59.3,0,0,0,27.41,17.911a6.824,6.824,0,0,0-9.471,9.536A59.253,59.253,0,0,0,5.526,57.039a6.827,6.827,0,0,0-.163,13.369A59.236,59.236,0,0,0,17.387,100.6a6.823,6.823,0,0,0,9.27,9.635,59.3,59.3,0,0,0,30.116,13.172,6.824,6.824,0,0,0,13.369.269,59.247,59.247,0,0,0,30.886-12.2,6.822,6.822,0,0,0,9.55-9.236,59.323,59.323,0,0,0,13.315-31.893,6.824,6.824,0,0,0-.16-13.247M104.464,29.6a6.785,6.785,0,0,0,3.779-1.144,56.321,56.321,0,0,1,12.43,28.628,6.834,6.834,0,0,0-4.361,3.159L98.87,53.7c.014-.191.027-.385.027-.582a6.825,6.825,0,0,0-2.89-5.577l7.629-18a7.392,7.392,0,0,0,.827.054m-3.687-1.086L93.195,46.39a6.754,6.754,0,0,0-7.517,4.341L54.125,43.462a6.639,6.639,0,0,0-.143-1.358L98.758,26.511a6.846,6.846,0,0,0,2.019,2m-37.29-14.85a6.83,6.83,0,0,0,6.7-5.539A56.228,56.228,0,0,1,98.622,19.239a6.792,6.792,0,0,0-.987,3.527,7.17,7.17,0,0,0,.065.9l-45,15.668A6.85,6.85,0,0,0,51.462,38.1l11.8-24.451c.075,0,.146.01.221.01m-6.642-5.27a6.831,6.831,0,0,0,3.435,4.47L48.708,36.823a6.848,6.848,0,0,0-1.409-.146A6.78,6.78,0,0,0,43.407,37.9L29.691,26.443a6.789,6.789,0,0,0-.232-6.285A56.272,56.272,0,0,1,56.845,8.389M13.492,62.258l28.37-14.633a6.8,6.8,0,0,0,5.383,2.707l9.723,31.08a6.941,6.941,0,0,0-1.5,1.665L13.407,65.554a6.784,6.784,0,0,0,.252-1.811,6.863,6.863,0,0,0-.167-1.484m6.7-32.775a6.824,6.824,0,0,0,7.623-.65l13.543,11.31a6.81,6.81,0,0,0-.752,4.719L12.188,59.514a6.827,6.827,0,0,0-3.616-2.37,56.248,56.248,0,0,1,11.62-27.662m2.826,68.151a6.809,6.809,0,0,0-3.391.906A56.2,56.2,0,0,1,8.416,70.378,6.835,6.835,0,0,0,11.96,68.24l42.475,17.7a7.323,7.323,0,0,0-.054.82,6.828,6.828,0,0,0,.409,2.308L29.1,101.373a6.828,6.828,0,0,0-6.084-3.738m33.888,22.732a56.328,56.328,0,0,1-28.1-12.294,6.758,6.758,0,0,0,1.042-3.609l0-.078,26.6-12.746a6.829,6.829,0,0,0,2.41,1.522l1.593,22.9a6.829,6.829,0,0,0-3.537,4.3m2.829-40.272L50.22,49.672a6.839,6.839,0,0,0,3.244-3.244L85.273,53.75a6.789,6.789,0,0,0,1.086,3.1L64.543,80.8a6.745,6.745,0,0,0-4.807-.7m10.4,40.537a6.827,6.827,0,0,0-6.649-5.291l-.051,0L61.921,93.552a6.817,6.817,0,0,0,4.174-2.026l31.8,14.027c0,.061-.01.116-.01.177a6.8,6.8,0,0,0,1.011,3.561,56.224,56.224,0,0,1-28.761,11.34m28.526-18.058L67.688,88.909a6.789,6.789,0,0,0-.9-6.074L88.544,58.959a6.789,6.789,0,0,0,3.524.987,7.517,7.517,0,0,0,.838-.054l8.13,40.091a6.814,6.814,0,0,0-2.373,2.591m9.8-2.553a6.788,6.788,0,0,0-4.538-1.072L95.789,58.84a6.857,6.857,0,0,0,2.152-2.247l17.431,6.537a6.057,6.057,0,0,0-.031.613,6.827,6.827,0,0,0,5.488,6.693,56.271,56.271,0,0,1-12.369,29.585" transform="translate(0 0.001)" fill="#1e535a"/>
        </g>
      </g>
    </g>
    <g id="Elipse_13614" data-name="Elipse 13614" transform="translate(210.273 4348.213)" fill="#fff" stroke="#1e535a" stroke-width="3">
      <ellipse cx="40.232" cy="40.233" rx="40.232" ry="40.233" stroke="none"/>
      <ellipse cx="40.232" cy="40.233" rx="38.732" ry="38.733" fill="none"/>
    </g>
    <g id="g5235" transform="translate(225.572 5046.904)">
      <g id="g5237" transform="translate(0 -682.665)">
        <g id="g5239" transform="translate(0 0)" clip-path="url(#clip-path-2)">
          <g id="g5245" transform="translate(0 4.494)">
            <path id="path5247" d="M-248.163,26.095h-32.217a3.221,3.221,0,0,1-3.218-3.217V-6.748A3.3,3.3,0,0,1-280.345-10h17.457a.73.73,0,0,1,.73.73.73.73,0,0,1-.73.73h-17.457a1.817,1.817,0,0,0-1.794,1.792V22.878a1.759,1.759,0,0,0,1.758,1.757h32.217a.73.73,0,0,1,.73.73A.73.73,0,0,1-248.163,26.095Z" transform="translate(283.599 10)" fill="#1e535a"/>
          </g>
          <g id="g5249" transform="translate(37.888 4.494)">
            <path id="path5251" d="M-18.344,26.095h-8.019a.73.73,0,0,1-.73-.73.73.73,0,0,1,.73-.73h8.019a1.572,1.572,0,0,0,1.759-1.758V-6.748a1.817,1.817,0,0,0-1.794-1.792h-6.735a.73.73,0,0,1-.73-.73.73.73,0,0,1,.73-.73h6.735a3.3,3.3,0,0,1,3.254,3.252V22.877A3.016,3.016,0,0,1-18.344,26.095Z" transform="translate(27.093 10)" fill="#1e535a"/>
          </g>
          <g id="g5253" transform="translate(28.438 4.494)">
            <path id="path5255" d="M-104.648-8.539h-7.514a.73.73,0,0,1-.73-.73.73.73,0,0,1,.73-.73h7.514a.73.73,0,0,1,.73.73A.73.73,0,0,1-104.648-8.539Z" transform="translate(112.893 10)" fill="#1e535a"/>
          </g>
          <g id="g5257" transform="translate(3.024 7.478)">
            <path id="path5259" d="M-104.254-332.978h-7.483a.73.73,0,0,1-.73-.73v-25.561a.73.73,0,0,1,.73-.73h16.625a.73.73,0,0,1,.73.73.73.73,0,0,1-.73.73h-15.895v24.1h6.753a.73.73,0,0,1,.73.73A.73.73,0,0,1-104.254-332.978Z" transform="translate(112.468 359.999)" fill="#1e535a"/>
          </g>
          <g id="g5261" transform="translate(13.69 7.478)">
            <path id="path5263" d="M-183.748,17.022h-31.681a.73.73,0,0,1-.73-.73.73.73,0,0,1,.73-.73h30.951v-24.1h-15.895a.73.73,0,0,1-.73-.73.73.73,0,0,1,.73-.73h16.625a.73.73,0,0,1,.73.73V16.291A.73.73,0,0,1-183.748,17.022Z" transform="translate(216.159 10)" fill="#1e535a"/>
          </g>
          <g id="g5265" transform="translate(22.697 7.478)">
            <path id="path5267" d="M-47.362-8.539h-3a.73.73,0,0,1-.73-.73.73.73,0,0,1,.73-.73h3a.73.73,0,0,1,.73.73A.73.73,0,0,1-47.362-8.539Z" transform="translate(51.093 10)" fill="#1e535a"/>
          </g>
          <path id="path5269" d="M225.963-78.775H207.815a.73.73,0,0,1-.73-.73v-3.033a.73.73,0,0,1,.73-.73h18.148a.73.73,0,0,1,.73.73V-79.5A.73.73,0,0,1,225.963-78.775Zm-17.418-1.461h16.687v-1.572H208.545Z" transform="translate(-191.961 127.043)" fill="#1e535a"/>
          <g id="g5271" transform="translate(19.661 39.128)">
            <path id="path5273" d="M-124.446-67.518h-9.074a.73.73,0,0,1-.591-.3.73.73,0,0,1-.1-.655l1.512-4.647a.73.73,0,0,1,.694-.5h6.049a.73.73,0,0,1,.694.5l1.512,4.647a.73.73,0,0,1-.1.655A.73.73,0,0,1-124.446-67.518Zm-8.068-1.461h7.063l-1.037-3.186h-4.989Z" transform="translate(134.25 73.625)" fill="#1e535a"/>
          </g>
          <g id="g5275" transform="translate(24.198 36.219)">
            <path id="path5277" d="M-9.27-18.539h0a.73.73,0,0,1-.73-.73h0A.73.73,0,0,1-9.27-20a.73.73,0,0,1,.73.73h0a.73.73,0,0,1-.73.73" transform="translate(10 20)" fill="#1e535a"/>
          </g>
          <g id="g5279" transform="translate(27.222 36.219)">
            <path id="path5281" d="M-9.27-18.539h0a.73.73,0,0,1-.73-.73h0A.73.73,0,0,1-9.27-20a.73.73,0,0,1,.73.73h0a.73.73,0,0,1-.73.73" transform="translate(10 20)" fill="#1e535a"/>
          </g>
          <g id="g5283" transform="translate(21.173 36.219)">
            <path id="path5285" d="M-9.27-18.539h0a.73.73,0,0,1-.73-.73h0A.73.73,0,0,1-9.27-20a.73.73,0,0,1,.73.73h0a.73.73,0,0,1-.73.73" transform="translate(10 20)" fill="#1e535a"/>
          </g>
          <path id="path5287" d="M252.489-524.465H238.878a.73.73,0,0,1-.73-.73v-10.586a.73.73,0,0,1,.73-.73h13.611a.73.73,0,0,1,.73.73V-525.2A.73.73,0,0,1,252.489-524.465Zm-12.881-1.461h12.15v-9.126h-12.15Z" transform="translate(-220.755 547.186)" fill="#1e535a"/>
          <g id="g5289" transform="translate(19.649 1.588)">
            <path id="path5291" d="M-124.74-123.865h-3.048a.73.73,0,0,1-.73-.73v-4.537a.776.776,0,0,0-.782-.771h0a.794.794,0,0,0-.759.771v4.537a.73.73,0,0,1-.73.73h-3.048a.73.73,0,0,1-.73-.73v-4.537a5.417,5.417,0,0,1,5.279-5.279,5.285,5.285,0,0,1,5.279,5.279v4.537A.73.73,0,0,1-124.74-123.865Zm-2.318-1.461h1.587v-3.807a3.823,3.823,0,0,0-3.818-3.818,3.919,3.919,0,0,0-3.819,3.818v3.807h1.587v-3.807a2.253,2.253,0,0,1,2.212-2.231,2.259,2.259,0,0,1,2.251,2.231Z" transform="translate(134.568 134.412)" fill="#1e535a"/>
          </g>
          <g id="g5293" transform="translate(22.685 13.697)">
            <path id="path5295" d="M-49.189-30.716a2.246,2.246,0,0,1,2.243,2.243,2.246,2.246,0,0,1-2.243,2.243,2.246,2.246,0,0,1-2.243-2.243A2.246,2.246,0,0,1-49.189-30.716Zm0,3.026a.783.783,0,0,0,.783-.783.783.783,0,0,0-.783-.783.783.783,0,0,0-.783.783A.783.783,0,0,0-49.189-27.69Z" transform="translate(51.432 30.716)" fill="#1e535a"/>
          </g>
          <g id="g5297" transform="translate(24.198 16.723)">
            <path id="path5299" d="M-9.27-27.735a.73.73,0,0,1-.73-.73v-1.512a.73.73,0,0,1,.73-.73.73.73,0,0,1,.73.73v1.512A.73.73,0,0,1-9.27-27.735Z" transform="translate(10 30.708)" fill="#1e535a"/>
          </g>
          <g id="g5301" transform="translate(18.148 27.163)">
            <path id="path5303" d="M-9.27-18.539h0a.73.73,0,0,1-.73-.73A.73.73,0,0,1-9.27-20a.73.73,0,0,1,.73.73.73.73,0,0,1-.73.73" transform="translate(10 20)" fill="#1e535a"/>
          </g>
          <g id="g5305" transform="translate(15.124 27.163)">
            <path id="path5307" d="M-9.27-18.539h0a.73.73,0,0,1-.73-.73A.73.73,0,0,1-9.27-20a.73.73,0,0,1,.73.73.73.73,0,0,1-.73.73" transform="translate(10 20)" fill="#1e535a"/>
          </g>
          <g id="g5309" transform="translate(24.198 27.163)">
            <path id="path5311" d="M-9.27-18.539h0a.73.73,0,0,1-.73-.73A.73.73,0,0,1-9.27-20a.73.73,0,0,1,.73.73.73.73,0,0,1-.73.73" transform="translate(10 20)" fill="#1e535a"/>
          </g>
          <g id="g5313" transform="translate(30.247 27.163)">
            <path id="path5315" d="M-9.27-18.539h0a.73.73,0,0,1-.73-.73A.73.73,0,0,1-9.27-20a.73.73,0,0,1,.73.73.73.73,0,0,1-.73.73" transform="translate(10 20)" fill="#1e535a"/>
          </g>
          <g id="g5317" transform="translate(33.272 27.163)">
            <path id="path5319" d="M-9.27-18.539h0a.73.73,0,0,1-.73-.73A.73.73,0,0,1-9.27-20a.73.73,0,0,1,.73.73.73.73,0,0,1-.73.73" transform="translate(10 20)" fill="#1e535a"/>
          </g>
          <g id="g5321" transform="translate(21.173 27.163)">
            <path id="path5323" d="M-9.27-18.539h0a.73.73,0,0,1-.73-.73A.73.73,0,0,1-9.27-20a.73.73,0,0,1,.73.73.73.73,0,0,1-.73.73" transform="translate(10 20)" fill="#1e535a"/>
          </g>
          <g id="g5325" transform="translate(27.222 27.163)">
            <path id="path5327" d="M-9.27-18.539h0a.73.73,0,0,1-.73-.73A.73.73,0,0,1-9.27-20a.73.73,0,0,1,.73.73.73.73,0,0,1-.73.73" transform="translate(10 20)" fill="#1e535a"/>
          </g>
          <path id="path5329" d="M190.6-344.637H166.4a.73.73,0,0,1-.73-.73v-6.049a.73.73,0,0,1,.73-.73h24.2a.73.73,0,0,1,.516.214.73.73,0,0,1,.214.516v6.049A.73.73,0,0,1,190.6-344.637ZM167.128-346.1h22.737v-4.589H167.128Z" transform="translate(-153.569 376.285)" fill="#1e535a"/>
        </g>
      </g>
    </g>
  </g>
</svg>
