<svg xmlns="http://www.w3.org/2000/svg" xmlns:xlink="http://www.w3.org/1999/xlink" width="150" height="150" viewBox="0 0 150 150">
  <defs>
    <clipPath id="clip-path">
      <rect id="Rectángulo_454829" data-name="Rectángulo 454829" width="150" height="150" fill="#1e535a"/>
    </clipPath>
    <clipPath id="clip-path-2">
      <path id="path3285" d="M0-682.665H53.09v53.09H0Z" transform="translate(0 682.665)" fill="#1e535a"/>
    </clipPath>
  </defs>
  <g id="Grupo_1185836" data-name="Grupo 1185836" transform="translate(-186 -4323.945)">
    <g id="Grupo_1177591" data-name="Grupo 1177591" transform="translate(186 4323.945)">
      <g id="Grupo_1177589" data-name="Grupo 1177589" transform="translate(0 0)">
        <g id="Grupo_1177587" data-name="Grupo 1177587" clip-path="url(#clip-path)">
          <path id="Trazado_997422" data-name="Trazado 997422" d="M143.876,66.392A68.963,68.963,0,0,0,128.3,30.506a7.931,7.931,0,0,0-11.16-10.685A68.861,68.861,0,0,0,81.486,5.891,7.933,7.933,0,0,0,66.079,6.2,68.956,68.956,0,0,0,31.872,20.827,7.935,7.935,0,0,0,20.859,31.915,68.9,68.9,0,0,0,6.425,66.324a7.938,7.938,0,0,0-.19,15.546,68.878,68.878,0,0,0,13.982,35.106A7.934,7.934,0,0,0,31,128.179,68.951,68.951,0,0,0,66.016,143.5a7.935,7.935,0,0,0,15.546.313,68.892,68.892,0,0,0,35.914-14.188,7.933,7.933,0,0,0,11.1-10.74A68.98,68.98,0,0,0,144.062,81.8a7.935,7.935,0,0,0-.186-15.4M121.469,34.413a7.89,7.89,0,0,0,4.394-1.33,65.489,65.489,0,0,1,14.453,33.289,7.946,7.946,0,0,0-5.071,3.674l-20.281-7.6c.016-.222.032-.447.032-.677a7.935,7.935,0,0,0-3.361-6.484l8.871-20.93a8.6,8.6,0,0,0,.962.063m-4.287-1.263-8.816,20.791a7.853,7.853,0,0,0-8.741,5.047L62.936,50.537a7.72,7.72,0,0,0-.166-1.58l52.065-18.131a7.961,7.961,0,0,0,2.348,2.324M73.822,15.882a7.941,7.941,0,0,0,7.795-6.441,65.381,65.381,0,0,1,33.059,12.929,7.9,7.9,0,0,0-1.148,4.1,8.337,8.337,0,0,0,.075,1.049L61.277,45.739A7.965,7.965,0,0,0,59.84,44.3L73.565,15.87c.087,0,.17.012.257.012M66.1,9.754a7.943,7.943,0,0,0,3.994,5.2L56.637,42.817A7.963,7.963,0,0,0,55,42.647a7.883,7.883,0,0,0-4.525,1.421L34.524,30.747a7.894,7.894,0,0,0-.269-7.308A65.433,65.433,0,0,1,66.1,9.754M15.688,72.393,48.676,55.378a7.912,7.912,0,0,0,6.259,3.147L66.241,94.665a8.071,8.071,0,0,0-1.75,1.936l-48.9-20.376a7.888,7.888,0,0,0,.293-2.106,7.98,7.98,0,0,0-.194-1.726m7.791-38.111a7.935,7.935,0,0,0,8.864-.756L48.091,46.677a7.919,7.919,0,0,0-.875,5.487L14.172,69.2a7.939,7.939,0,0,0-4.2-2.755A65.4,65.4,0,0,1,23.479,34.282m3.286,79.246a7.918,7.918,0,0,0-3.943,1.053A65.346,65.346,0,0,1,9.786,81.835a7.948,7.948,0,0,0,4.121-2.486L63.3,99.926a8.514,8.514,0,0,0-.063.954,7.939,7.939,0,0,0,.475,2.684L33.839,117.875a7.94,7.94,0,0,0-7.074-4.347M66.17,139.96a65.5,65.5,0,0,1-32.675-14.295,7.858,7.858,0,0,0,1.211-4.2l0-.091,30.926-14.821a7.941,7.941,0,0,0,2.8,1.77l1.853,26.63a7.941,7.941,0,0,0-4.113,5m3.29-46.828L58.4,57.758a7.952,7.952,0,0,0,3.773-3.773L99.154,62.5a7.894,7.894,0,0,0,1.263,3.61L75.049,93.952a7.843,7.843,0,0,0-5.59-.819m12.094,47.136a7.938,7.938,0,0,0-7.731-6.152l-.059,0L72,108.782a7.927,7.927,0,0,0,4.853-2.355l36.978,16.31c0,.071-.012.135-.012.206A7.9,7.9,0,0,0,115,127.083a65.377,65.377,0,0,1-33.443,13.186m33.17-21-36.016-15.89a7.894,7.894,0,0,0-1.041-7.062l25.292-27.762a7.894,7.894,0,0,0,4.1,1.148,8.74,8.74,0,0,0,.974-.063l9.453,46.618a7.923,7.923,0,0,0-2.759,3.013m11.393-2.969a7.893,7.893,0,0,0-5.277-1.247l-9.457-46.638a7.973,7.973,0,0,0,2.5-2.613l20.269,7.6a7.042,7.042,0,0,0-.036.713A7.938,7.938,0,0,0,140.5,81.9a65.431,65.431,0,0,1-14.382,34.4" transform="translate(0 0.002)" fill="#1e535a"/>
        </g>
      </g>
    </g>
    <g id="Elipse_13614" data-name="Elipse 13614" transform="translate(210.273 4348.213)" fill="#fff" stroke="#1e535a" stroke-width="3">
      <ellipse cx="50.732" cy="50.733" rx="50.732" ry="50.733" stroke="none"/>
      <ellipse cx="50.732" cy="50.733" rx="49.232" ry="49.233" fill="none"/>
    </g>
    <g id="g3279" transform="translate(235.506 5054.819)">
      <g id="g3281" transform="translate(0 -682.665)">
        <g id="g3283" clip-path="url(#clip-path-2)">
          <g id="g3289" transform="translate(2.696 0)">
            <path id="path3291" d="M-383.262-516.244h-26.96a3.114,3.114,0,0,1-3.111-3.111v-46.869a3.114,3.114,0,0,1,3.111-3.111h26.96a3.114,3.114,0,0,1,3.111,3.111v15.243a1.037,1.037,0,0,1-1.037,1.037,1.037,1.037,0,0,1-1.037-1.037v-15.243a1.038,1.038,0,0,0-1.037-1.037h-26.96a1.038,1.038,0,0,0-1.037,1.037v46.869a1.038,1.038,0,0,0,1.037,1.037h26.96a1.038,1.038,0,0,0,1.037-1.037v-5.7a1.037,1.037,0,0,1,1.037-1.037,1.037,1.037,0,0,1,1.037,1.037v5.7A3.114,3.114,0,0,1-383.262-516.244Z" transform="translate(413.332 569.335)" fill="#1e535a"/>
          </g>
          <g id="g3293" transform="translate(3.214 4.147)">
            <path id="path3295" d="M6.887-9.186h-8.3a3.116,3.116,0,0,1-2.933-2.074H-12.3A1.037,1.037,0,0,1-13.333-12.3,1.037,1.037,0,0,1-12.3-13.333h8.814A1.037,1.037,0,0,1-2.446-12.3a1.038,1.038,0,0,0,1.037,1.037h8.3A1.038,1.038,0,0,0,7.924-12.3,1.037,1.037,0,0,1,8.96-13.333h8.814A1.037,1.037,0,0,1,18.811-12.3a1.037,1.037,0,0,1-1.037,1.037H9.82A3.116,3.116,0,0,1,6.887-9.186Z" transform="translate(13.333 13.333)" fill="#1e535a"/>
          </g>
          <g id="g3297" transform="translate(3.214 46.868)">
            <path id="path3299" d="M17.774-11.259H-12.3A1.037,1.037,0,0,1-13.333-12.3,1.037,1.037,0,0,1-12.3-13.333H17.774A1.037,1.037,0,0,1,18.811-12.3,1.037,1.037,0,0,1,17.774-11.259Z" transform="translate(13.333 13.333)" fill="#1e535a"/>
          </g>
          <g id="g3301" transform="translate(19.287 17.835)">
            <path id="path3303" d="M-356.888-120H-332a3.114,3.114,0,0,1,3.111,3.111v4.148a3.1,3.1,0,0,1-.794,2.074,3.1,3.1,0,0,1,.794,2.074v4.148a3.1,3.1,0,0,1-.794,2.074,3.1,3.1,0,0,1,.794,2.074v4.148A3.114,3.114,0,0,1-332-93.04h-24.886A3.114,3.114,0,0,1-360-96.151V-100.3a3.1,3.1,0,0,1,.794-2.074,3.1,3.1,0,0,1-.794-2.074v-4.148a3.1,3.1,0,0,1,.794-2.074,3.1,3.1,0,0,1-.794-2.074v-4.148A3.114,3.114,0,0,1-356.888-120Zm23.849,9.332A1.037,1.037,0,0,1-332-111.7a1.038,1.038,0,0,0,1.037-1.037v-4.148A1.038,1.038,0,0,0-332-117.926h-24.886a1.038,1.038,0,0,0-1.037,1.037v4.148a1.038,1.038,0,0,0,1.037,1.037,1.037,1.037,0,0,1,1.037,1.037,1.037,1.037,0,0,1-1.037,1.037,1.038,1.038,0,0,0-1.037,1.037v4.148a1.038,1.038,0,0,0,1.037,1.037,1.037,1.037,0,0,1,1.037,1.037,1.037,1.037,0,0,1-1.037,1.037,1.038,1.038,0,0,0-1.037,1.037v4.148a1.038,1.038,0,0,0,1.037,1.037H-332a1.038,1.038,0,0,0,1.037-1.037V-100.3A1.038,1.038,0,0,0-332-101.335a1.037,1.037,0,0,1-1.037-1.037A1.037,1.037,0,0,1-332-103.409a1.038,1.038,0,0,0,1.037-1.037v-4.148A1.038,1.038,0,0,0-332-109.631,1.037,1.037,0,0,1-333.039-110.667Z" transform="translate(359.999 120)" fill="#1e535a"/>
          </g>
          <g id="g3305" transform="translate(21.36 26.13)">
            <path id="path3307" d="M12.59-11.259H-12.3A1.037,1.037,0,0,1-13.333-12.3,1.037,1.037,0,0,1-12.3-13.333H12.59A1.037,1.037,0,0,1,13.626-12.3,1.037,1.037,0,0,1,12.59-11.259Z" transform="translate(13.333 13.333)" fill="#1e535a"/>
          </g>
          <g id="g3309" transform="translate(21.36 34.425)">
            <path id="path3311" d="M12.59-11.259H-12.3A1.037,1.037,0,0,1-13.333-12.3,1.037,1.037,0,0,1-12.3-13.333H12.59A1.037,1.037,0,0,1,13.626-12.3,1.037,1.037,0,0,1,12.59-11.259Z" transform="translate(13.333 13.333)" fill="#1e535a"/>
          </g>
          <g id="g3313" transform="translate(6.844 10.369)">
            <path id="path3315" d="M-153.7-370.316h-11.925a1.037,1.037,0,0,1-1.037-1.037v-30.278a1.037,1.037,0,0,1,1.037-1.037h22.812a1.037,1.037,0,0,1,1.037,1.037v6.948a1.037,1.037,0,0,1-1.037,1.037,1.037,1.037,0,0,1-1.037-1.037v-5.911h-20.738v28.2H-153.7a1.037,1.037,0,0,1,1.037,1.037A1.037,1.037,0,0,1-153.7-370.316Z" transform="translate(166.666 402.668)" fill="#1e535a"/>
          </g>
          <g id="g3317" transform="translate(25.507 23.019)">
            <path id="path3319" fill="#1e535a"/>
          </g>
          <g id="g3321" transform="translate(30.173 23.019)">
            <path id="path3323" fill="#1e535a"/>
          </g>
          <g id="g3325" transform="translate(34.839 23.019)">
            <path id="path3327" fill="#1e535a"/>
          </g>
          <g id="g3329" transform="translate(25.507 31.315)">
            <path id="path3331" fill="#1e535a"/>
          </g>
          <g id="g3333" transform="translate(30.173 31.315)">
            <path id="path3335" fill="#1e535a"/>
          </g>
          <g id="g3337" transform="translate(34.839 31.315)">
            <path id="path3339" fill="#1e535a"/>
          </g>
          <g id="g3341" transform="translate(25.507 39.61)">
            <path id="path3343" fill="#1e535a"/>
          </g>
          <g id="g3345" transform="translate(30.173 39.61)">
            <path id="path3347" fill="#1e535a"/>
          </g>
          <g id="g3349" transform="translate(34.84 39.61)">
            <path id="path3351" fill="#1e535a"/>
          </g>
        </g>
      </g>
    </g>
    <path id="Trazado_1032913" data-name="Trazado 1032913" d="M198.953,319.949h11.074v1.858H198.953Zm0,0" transform="translate(71.047 4074.127)" fill="#1e535a"/>
    <path id="Trazado_1032914" data-name="Trazado 1032914" d="M198.953,319.949h11.074v1.858H198.953Zm0,0" transform="translate(71.047 4082.127)" fill="#1e535a"/>
    <path id="Trazado_1032915" data-name="Trazado 1032915" d="M198.953,319.949h11.074v1.858H198.953Zm0,0" transform="translate(71.047 4091.127)" fill="#1e535a"/>
  </g>
</svg>
