<svg xmlns="http://www.w3.org/2000/svg" xmlns:xlink="http://www.w3.org/1999/xlink" width="129" height="129" viewBox="0 0 129 129">
  <defs>
    <clipPath id="clip-path">
      <rect id="Rectángulo_454829" data-name="Rectángulo 454829" width="129" height="129" fill="#1e535a"/>
    </clipPath>
  </defs>
  <g id="Grupo_1185644" data-name="Grupo 1185644" transform="translate(-186 -4323.945)">
    <g id="Grupo_1177591" data-name="Grupo 1177591" transform="translate(186 4323.945)">
      <g id="Grupo_1177589" data-name="Grupo 1177589" transform="translate(0 0)">
        <g id="Grupo_1177587" data-name="Grupo 1177587" clip-path="url(#clip-path)">
          <path id="Trazado_997422" data-name="Trazado 997422" d="M123.733,57.1a59.308,59.308,0,0,0-13.4-30.862,6.821,6.821,0,0,0-9.6-9.189A59.221,59.221,0,0,0,70.078,5.066a6.822,6.822,0,0,0-13.25.269A59.3,59.3,0,0,0,27.41,17.911a6.824,6.824,0,0,0-9.471,9.536A59.253,59.253,0,0,0,5.526,57.039a6.827,6.827,0,0,0-.163,13.369A59.236,59.236,0,0,0,17.387,100.6a6.823,6.823,0,0,0,9.27,9.635,59.3,59.3,0,0,0,30.116,13.172,6.824,6.824,0,0,0,13.369.269,59.247,59.247,0,0,0,30.886-12.2,6.822,6.822,0,0,0,9.55-9.236,59.323,59.323,0,0,0,13.315-31.893,6.824,6.824,0,0,0-.16-13.247M104.464,29.6a6.785,6.785,0,0,0,3.779-1.144,56.321,56.321,0,0,1,12.43,28.628,6.834,6.834,0,0,0-4.361,3.159L98.87,53.7c.014-.191.027-.385.027-.582a6.825,6.825,0,0,0-2.89-5.577l7.629-18a7.392,7.392,0,0,0,.827.054m-3.687-1.086L93.195,46.39a6.754,6.754,0,0,0-7.517,4.341L54.125,43.462a6.639,6.639,0,0,0-.143-1.358L98.758,26.511a6.846,6.846,0,0,0,2.019,2m-37.29-14.85a6.83,6.83,0,0,0,6.7-5.539A56.228,56.228,0,0,1,98.622,19.239a6.792,6.792,0,0,0-.987,3.527,7.17,7.17,0,0,0,.065.9l-45,15.668A6.85,6.85,0,0,0,51.462,38.1l11.8-24.451c.075,0,.146.01.221.01m-6.642-5.27a6.831,6.831,0,0,0,3.435,4.47L48.708,36.823a6.848,6.848,0,0,0-1.409-.146A6.78,6.78,0,0,0,43.407,37.9L29.691,26.443a6.789,6.789,0,0,0-.232-6.285A56.272,56.272,0,0,1,56.845,8.389M13.492,62.258l28.37-14.633a6.8,6.8,0,0,0,5.383,2.707l9.723,31.08a6.941,6.941,0,0,0-1.5,1.665L13.407,65.554a6.784,6.784,0,0,0,.252-1.811,6.863,6.863,0,0,0-.167-1.484m6.7-32.775a6.824,6.824,0,0,0,7.623-.65l13.543,11.31a6.81,6.81,0,0,0-.752,4.719L12.188,59.514a6.827,6.827,0,0,0-3.616-2.37,56.248,56.248,0,0,1,11.62-27.662m2.826,68.151a6.809,6.809,0,0,0-3.391.906A56.2,56.2,0,0,1,8.416,70.378,6.835,6.835,0,0,0,11.96,68.24l42.475,17.7a7.323,7.323,0,0,0-.054.82,6.828,6.828,0,0,0,.409,2.308L29.1,101.373a6.828,6.828,0,0,0-6.084-3.738m33.888,22.732a56.328,56.328,0,0,1-28.1-12.294,6.758,6.758,0,0,0,1.042-3.609l0-.078,26.6-12.746a6.829,6.829,0,0,0,2.41,1.522l1.593,22.9a6.829,6.829,0,0,0-3.537,4.3m2.829-40.272L50.22,49.672a6.839,6.839,0,0,0,3.244-3.244L85.273,53.75a6.789,6.789,0,0,0,1.086,3.1L64.543,80.8a6.745,6.745,0,0,0-4.807-.7m10.4,40.537a6.827,6.827,0,0,0-6.649-5.291l-.051,0L61.921,93.552a6.817,6.817,0,0,0,4.174-2.026l31.8,14.027c0,.061-.01.116-.01.177a6.8,6.8,0,0,0,1.011,3.561,56.224,56.224,0,0,1-28.761,11.34m28.526-18.058L67.688,88.909a6.789,6.789,0,0,0-.9-6.074L88.544,58.959a6.789,6.789,0,0,0,3.524.987,7.517,7.517,0,0,0,.838-.054l8.13,40.091a6.814,6.814,0,0,0-2.373,2.591m9.8-2.553a6.788,6.788,0,0,0-4.538-1.072L95.789,58.84a6.857,6.857,0,0,0,2.152-2.247l17.431,6.537a6.057,6.057,0,0,0-.031.613,6.827,6.827,0,0,0,5.488,6.693,56.271,56.271,0,0,1-12.369,29.585" transform="translate(0 0.001)" fill="#1e535a"/>
        </g>
      </g>
    </g>
    <g id="Elipse_13614" data-name="Elipse 13614" transform="translate(210.273 4348.213)" fill="#fff" stroke="#1e535a" stroke-width="3">
      <ellipse cx="40.232" cy="40.233" rx="40.232" ry="40.233" stroke="none"/>
      <ellipse cx="40.232" cy="40.233" rx="38.732" ry="38.733" fill="none"/>
    </g>
    <g id="rendimiento" transform="translate(226.311 4364.413)">
      <path id="Trazado_1031372" data-name="Trazado 1031372" d="M45.959,1.612H31.565a17.675,17.675,0,0,0-14.755,0H2.419A2.367,2.367,0,0,0,0,4.031v33.72a2.5,2.5,0,0,0,2.419,2.564H16.434L14.821,43.54H12.094a2.419,2.419,0,0,0,0,4.838H36.283a2.419,2.419,0,0,0,0-4.838H33.557l-1.613-3.225H45.959a2.5,2.5,0,0,0,2.419-2.564V4.031a2.366,2.366,0,0,0-2.419-2.419Zm0,1.613a.764.764,0,0,1,.806.806V33.865h-15.2a17.722,17.722,0,0,0,2.8-30.64ZM40.315,17.739A16.126,16.126,0,1,1,24.189,1.612,16.126,16.126,0,0,1,40.315,17.739ZM2.419,3.225h11.59a17.722,17.722,0,0,0,2.8,30.64H1.612V4.031a.764.764,0,0,1,.806-.806ZM37.09,45.959a.806.806,0,0,1-.806.806H12.094a.806.806,0,0,1,0-1.613H36.283A.806.806,0,0,1,37.09,45.959ZM31.754,43.54H16.624l1.613-3.225h11.9ZM45.959,38.7H2.419a.9.9,0,0,1-.806-.951V35.477H46.765v2.274A.9.9,0,0,1,45.959,38.7Z" fill="#1e535a"/>
      <path id="Trazado_1031373" data-name="Trazado 1031373" d="M14.983,27.311a2.434,2.434,0,0,0,1.774.944c.052,0,.1,0,.155,0a2.419,2.419,0,0,0,1.711-.709l1.106-1.105a2.471,2.471,0,0,0,.282-3.174,8.05,8.05,0,0,1,4.406-12.535,53.239,53.239,0,0,0-1.129,7.77,3.225,3.225,0,1,0,6.45,0,53.24,53.24,0,0,0-1.129-7.77,8.054,8.054,0,0,1,4.412,12.535,2.469,2.469,0,0,0,.283,3.174l1.1,1.1a2.424,2.424,0,0,0,3.638-.242,14.5,14.5,0,1,0-23.064,0Zm3.72-3.089a.847.847,0,0,1-.12,1.084l-1.105,1.1a.768.768,0,0,1-.622.235.806.806,0,0,1-.594-.318,12.824,12.824,0,0,1,.6-16.33l2.272,2.272A9.661,9.661,0,0,0,18.7,24.222Zm7.81-4.1A1.618,1.618,0,0,1,24.9,18.506a64.6,64.6,0,0,1,1.532-9.6c.008-.038.014-.065.081-.065s.07.027.081.065a64.6,64.6,0,0,1,1.532,9.6A1.618,1.618,0,0,1,26.514,20.127Zm10.255,6.2a.806.806,0,0,1-.6.323.772.772,0,0,1-.622-.235l-1.1-1.1a.847.847,0,0,1-.121-1.083A9.66,9.66,0,0,0,33.9,12.274L36.171,10a12.827,12.827,0,0,1,.6,16.328ZM35.031,8.858l-2.27,2.269a9.664,9.664,0,0,0-4.5-2.117c-.03-.146-.06-.293-.089-.435a1.693,1.693,0,0,0-3.314,0c-.029.142-.06.289-.089.435a9.667,9.667,0,0,0-4.5,2.117L18,8.858a12.8,12.8,0,0,1,17.033,0Z" transform="translate(-2.325 -0.776)" fill="#1e535a"/>
      <path id="Trazado_1031374" data-name="Trazado 1031374" d="M32.482,30H30.063a.806.806,0,1,0,0,1.613h.472L28.45,33.7,26.6,31.849a.806.806,0,0,0-1.14,0l-3.225,3.225a.806.806,0,1,0,1.14,1.14l2.655-2.655,1.849,1.849a.806.806,0,0,0,1.14,0l2.655-2.655v.472a.806.806,0,0,0,1.613,0V30.806A.806.806,0,0,0,32.482,30Z" transform="translate(-4.262 -5.811)" fill="#1e535a"/>
    </g>
  </g>
</svg>
