<svg xmlns="http://www.w3.org/2000/svg" width="120" height="120" viewBox="0 0 120 120">
  <g id="Grupo_1185747" data-name="Grupo 1185747" transform="translate(-1159.711 -6959)">
    <rect id="Rectángulo_458870" data-name="Rectángulo 458870" width="120" height="120" transform="translate(1159.711 6959)" fill="#ffd453"/>
    <g id="recopilacion-de-datos_1_" data-name="recopilacion-de-datos (1)" transform="translate(1160.71 6971)">
      <g id="Grupo_1185746" data-name="Grupo 1185746" transform="translate(14.001 0)">
        <path id="Trazado_1031517" data-name="Trazado 1031517" d="M102.748,49.822a1.4,1.4,0,0,0,1.4-1.4v-7.01a1.957,1.957,0,0,0-1.813-1.948V28.252a4.162,4.162,0,0,0-4.164-4.164H83.32V15.34a1.4,1.4,0,0,0-2.794,0v8.748h-7.95V19.742a1.4,1.4,0,0,0-2.794,0V30.325H48.364V6.89l4.1-4.1H69.782v10.43a1.4,1.4,0,0,0,2.794,0V1.956A1.958,1.958,0,0,0,70.62,0H52.113A1.943,1.943,0,0,0,50.73.573L46.143,5.16a1.943,1.943,0,0,0-.573,1.383V24.088H38.061V15.34a1.4,1.4,0,0,0-2.794,0v8.748H19.978a4.162,4.162,0,0,0-4.164,4.164V42.117l-1.24,1.24A1.942,1.942,0,0,0,14,44.74v18.1a1.957,1.957,0,0,0,1.814,1.948V76.12a3.263,3.263,0,0,0,3.259,3.259H46.806v7.11H39.36a4.2,4.2,0,0,0-4.191,4.191V92.1a3.263,3.263,0,0,0,3.259,3.259H79.717A3.263,3.263,0,0,0,82.976,92.1V90.679a4.2,4.2,0,0,0-4.191-4.191H71.34v-7.11H99.072a3.263,3.263,0,0,0,3.259-3.259V64.789a1.957,1.957,0,0,0,1.813-1.948v-7.9a1.4,1.4,0,1,0-2.794,0V62H86.146V45.088l2.835-2.835h12.371v6.172a1.4,1.4,0,0,0,1.4,1.4ZM59.073,59.929a1.393,1.393,0,0,0,.988-.409l3.294-3.294a1.4,1.4,0,1,0-1.976-1.975l-.909.909V46.605H73.321V63.3h-28.5V46.605H57.676V55.16l-.909-.909a1.4,1.4,0,0,0-1.975,1.975l3.294,3.294a1.391,1.391,0,0,0,.987.409ZM44.825,43.811V41.939h8.567l.786,1.872Zm-28.03,1.276,2.835-2.835H32V62H16.795ZM78.786,89.283a1.4,1.4,0,0,1,1.4,1.4V92.1a.466.466,0,0,1-.466.466H38.429a.466.466,0,0,1-.466-.466V90.679a1.4,1.4,0,0,1,1.4-1.4H59.445a1.4,1.4,0,0,0,0-2.794H49.6v-7.11H68.547v7.11H65.964a1.4,1.4,0,0,0,0,2.794ZM99.538,76.12a.466.466,0,0,1-.466.466h-80a.466.466,0,0,1-.466-.466V72.029h80.93V76.12Zm0-36.661h-10.9a1.943,1.943,0,0,0-1.383.573l-3.325,3.325a1.942,1.942,0,0,0-.573,1.383v18.1A1.958,1.958,0,0,0,85.308,64.8h14.23v4.439H18.608V64.8h14.23a1.958,1.958,0,0,0,1.956-1.956V41.414a1.958,1.958,0,0,0-1.956-1.956H19.282a1.956,1.956,0,0,0-.674.121V28.252a1.372,1.372,0,0,1,1.37-1.37H35.267v6.165l-.909-.909a1.4,1.4,0,0,0-1.975,1.975l3.294,3.294a1.4,1.4,0,0,0,1.975,0l3.294-3.294a1.4,1.4,0,0,0-1.975-1.975l-.909.909V26.881H45.57v4.282a1.958,1.958,0,0,0,1.956,1.956H57.676V43.811h-.468L55.8,40.458a2.137,2.137,0,0,0-1.975-1.312H44.173a2.144,2.144,0,0,0-2.142,2.142v22.85a1.958,1.958,0,0,0,1.956,1.956H74.159a1.958,1.958,0,0,0,1.956-1.956V45.767a1.958,1.958,0,0,0-1.956-1.956H60.47V33.119H70.62a1.958,1.958,0,0,0,1.956-1.956V26.881h7.95v6.165l-.909-.909a1.4,1.4,0,0,0-1.976,1.975l3.294,3.294a1.4,1.4,0,0,0,1.976,0L86.2,34.113a1.4,1.4,0,0,0-1.976-1.975l-.909.909V26.881H98.168a1.372,1.372,0,0,1,1.37,1.37V39.459Z" transform="translate(-14.001 0)"/>
        <path id="Trazado_1031518" data-name="Trazado 1031518" d="M423.38,239.82h-7.537a1.4,1.4,0,0,0,0,2.794h7.537a1.4,1.4,0,0,0,0-2.794Z" transform="translate(-339.864 -195.154)"/>
        <path id="Trazado_1031519" data-name="Trazado 1031519" d="M423.38,261.431h-7.537a1.4,1.4,0,0,0,0,2.794h7.537a1.4,1.4,0,0,0,0-2.794Z" transform="translate(-339.864 -212.74)"/>
        <path id="Trazado_1031520" data-name="Trazado 1031520" d="M424.777,284.632a1.4,1.4,0,0,0-1.4-1.4h-7.537a1.4,1.4,0,0,0,0,2.794h7.537A1.4,1.4,0,0,0,424.777,284.632Z" transform="translate(-339.864 -230.483)"/>
        <path id="Trazado_1031521" data-name="Trazado 1031521" d="M415.843,304.943a1.4,1.4,0,0,0,0,2.794h3.379a1.4,1.4,0,0,0,0-2.794Z" transform="translate(-339.864 -248.148)"/>
        <path id="Trazado_1031522" data-name="Trazado 1031522" d="M51.021,239.82H43.484a1.4,1.4,0,0,0,0,2.794h7.537a1.4,1.4,0,0,0,0-2.794Z" transform="translate(-36.856 -195.154)"/>
        <path id="Trazado_1031523" data-name="Trazado 1031523" d="M51.021,261.431H43.484a1.4,1.4,0,0,0,0,2.794h7.537a1.4,1.4,0,0,0,0-2.794Z" transform="translate(-36.856 -212.74)"/>
        <path id="Trazado_1031524" data-name="Trazado 1031524" d="M51.021,283.235H43.484a1.4,1.4,0,0,0,0,2.794h7.537a1.4,1.4,0,0,0,0-2.794Z" transform="translate(-36.856 -230.483)"/>
        <path id="Trazado_1031525" data-name="Trazado 1031525" d="M46.863,304.943H43.485a1.4,1.4,0,1,0,0,2.794h3.379a1.4,1.4,0,1,0,0-2.794Z" transform="translate(-36.857 -248.148)"/>
        <path id="Trazado_1031526" data-name="Trazado 1031526" d="M226.052,31.5h-.372V24.9a1.4,1.4,0,1,0-2.794,0v6.6h-.745V27.3a1.4,1.4,0,1,0-2.794,0v4.2H218.6V25.857a1.4,1.4,0,1,0-2.794,0V31.5h-.745V28.737a1.4,1.4,0,1,0-2.794,0V31.5H211.9a1.4,1.4,0,1,0,0,2.794h14.155a1.4,1.4,0,1,0,0-2.794Z" transform="translate(-173.902 -19.123)"/>
        <path id="Trazado_1031527" data-name="Trazado 1031527" d="M212.666,91.5H211.9a1.4,1.4,0,1,0,0,2.794h.769a1.4,1.4,0,0,0,0-2.794Z" transform="translate(-173.902 -74.458)"/>
        <path id="Trazado_1031528" data-name="Trazado 1031528" d="M212.666,113H211.9a1.4,1.4,0,1,0,0,2.794h.769a1.4,1.4,0,0,0,0-2.794Z" transform="translate(-173.902 -91.954)"/>
        <path id="Trazado_1031529" data-name="Trazado 1031529" d="M212.666,134.5H211.9a1.4,1.4,0,1,0,0,2.794h.769a1.4,1.4,0,0,0,0-2.794Z" transform="translate(-173.902 -109.45)"/>
        <path id="Trazado_1031530" data-name="Trazado 1031530" d="M244.2,91.5h-10a1.4,1.4,0,1,0,0,2.794h10a1.4,1.4,0,1,0,0-2.794Z" transform="translate(-192.052 -74.458)"/>
        <path id="Trazado_1031531" data-name="Trazado 1031531" d="M244.2,113h-10a1.4,1.4,0,1,0,0,2.794h10a1.4,1.4,0,0,0,0-2.794Z" transform="translate(-192.052 -91.954)"/>
        <path id="Trazado_1031532" data-name="Trazado 1031532" d="M244.2,134.5h-10a1.4,1.4,0,0,0,0,2.794h10a1.4,1.4,0,1,0,0-2.794Z" transform="translate(-192.052 -109.45)"/>
      </g>
    </g>
  </g>
</svg>
